<svg viewBox="0 0 500 280" fill="none"
  xmlns="http://www.w3.org/2000/svg">
  <g clip-path="url(#clip0_622_896)">
    <rect width="500" height="280" fill="#FBFBFB"/>
    <rect x="53.5" y="-9.5" width="399" height="299" fill="white" stroke="#EBEBEB"/>
    <rect x="53.5" y="9.5" width="399" height="261.5" rx="1.5" fill="#6E6E6E" stroke="#EDEDED"/>
    <path d="M276.6 110.25H229.9C226.227 110.25 223.25 113.227 223.25 116.9V163.6C223.25 167.273 226.227 170.25 229.9 170.25H276.6C280.273 170.25 283.25 167.273 283.25 163.6V116.9C283.25 113.227 280.273 110.25 276.6 110.25Z" stroke="#444444" stroke-width="0.5" stroke-linecap="round" stroke-linejoin="round"/>
    <path d="M243.25 136.9C246.923 136.9 249.9 133.922 249.9 130.25C249.9 126.577 246.923 123.6 243.25 123.6C239.577 123.6 236.6 126.577 236.6 130.25C236.6 133.922 239.577 136.9 243.25 136.9Z" stroke="#444444" stroke-width="0.5" stroke-linecap="round" stroke-linejoin="round"/>
    <path d="M283.25 150.25L272.95 139.95C270.35 137.35 266.15 137.35 263.5 139.95L233.2 170.25" stroke="#444444" stroke-width="0.5" stroke-linecap="round" stroke-linejoin="round"/>
    <rect x="170" y="136" width="160" height="8" rx="2" fill="white" fill-opacity="0.8"/>
    <rect x="170" y="149" width="160" height="8" rx="2" fill="white" fill-opacity="0.8"/>
    <rect x="170" y="162" width="160" height="8" rx="2" fill="white" fill-opacity="0.8"/>
    <rect x="191" y="175" width="118" height="8" rx="2" fill="white" fill-opacity="0.8"/>
    <rect x="170" y="103" width="160" height="10" rx="2" fill="white" fill-opacity="0.8"/>
    <rect x="211" y="118" width="79" height="10" rx="2" fill="white" fill-opacity="0.8"/>
    <path d="M176.44 92L179.62 83.36H180.964L177.976 92H176.44ZM182.956 92L179.98 83.36H181.396L184.564 92H182.956ZM178.084 88.604H182.812V89.852H178.084V88.604ZM185.708 92V85.88H187.184V87.32H187.22V92H185.708ZM190.004 92V88.136C190.004 87.76 189.908 87.476 189.716 87.284C189.524 87.092 189.244 86.996 188.876 86.996C188.556 86.996 188.268 87.068 188.012 87.212C187.764 87.356 187.568 87.556 187.424 87.812C187.288 88.068 187.22 88.364 187.22 88.7L187.064 87.236C187.272 86.788 187.576 86.432 187.976 86.168C188.376 85.896 188.856 85.76 189.416 85.76C190.08 85.76 190.596 85.948 190.964 86.324C191.34 86.7 191.528 87.2 191.528 87.824V92H190.004ZM193.009 92V85.88H194.521V92H193.009ZM192.937 84.872V83.204H194.581V84.872H192.937ZM196.126 92V85.88H197.602V87.32H197.638V92H196.126ZM200.242 92V88.052C200.242 87.692 200.15 87.428 199.966 87.26C199.79 87.084 199.538 86.996 199.21 86.996C198.922 86.996 198.658 87.064 198.418 87.2C198.178 87.336 197.986 87.528 197.842 87.776C197.706 88.024 197.638 88.312 197.638 88.64L197.482 87.236C197.69 86.788 197.99 86.432 198.382 86.168C198.774 85.896 199.23 85.76 199.75 85.76C200.374 85.76 200.866 85.94 201.226 86.3C201.586 86.652 201.766 87.108 201.766 87.668V92H200.242ZM204.358 92V88.052C204.358 87.692 204.27 87.428 204.094 87.26C203.918 87.084 203.666 86.996 203.338 86.996C203.042 86.996 202.774 87.064 202.534 87.2C202.294 87.336 202.106 87.528 201.97 87.776C201.834 88.024 201.766 88.312 201.766 88.64L201.502 87.236C201.702 86.788 202.006 86.432 202.414 86.168C202.822 85.896 203.294 85.76 203.83 85.76C204.47 85.76 204.97 85.944 205.33 86.312C205.698 86.672 205.882 87.152 205.882 87.752V92H204.358ZM213.559 92C213.519 91.84 213.487 91.664 213.463 91.472C213.447 91.28 213.439 91.048 213.439 90.776H213.391V87.872C213.391 87.552 213.299 87.312 213.115 87.152C212.939 86.984 212.667 86.9 212.299 86.9C211.939 86.9 211.651 86.968 211.435 87.104C211.227 87.232 211.099 87.42 211.051 87.668H209.599C209.663 87.1 209.935 86.64 210.415 86.288C210.895 85.936 211.539 85.76 212.347 85.76C213.187 85.76 213.823 85.952 214.255 86.336C214.687 86.712 214.903 87.268 214.903 88.004V90.776C214.903 90.968 214.915 91.164 214.939 91.364C214.971 91.564 215.015 91.776 215.071 92H213.559ZM211.435 92.12C210.819 92.12 210.327 91.968 209.959 91.664C209.599 91.352 209.419 90.936 209.419 90.416C209.419 89.856 209.623 89.412 210.031 89.084C210.439 88.756 211.015 88.536 211.759 88.424L213.667 88.136V89.096L212.011 89.348C211.651 89.404 211.379 89.504 211.195 89.648C211.019 89.792 210.931 89.992 210.931 90.248C210.931 90.48 211.015 90.66 211.183 90.788C211.351 90.908 211.583 90.968 211.879 90.968C212.311 90.968 212.671 90.86 212.959 90.644C213.247 90.428 213.391 90.164 213.391 89.852L213.559 90.776C213.399 91.216 213.135 91.552 212.767 91.784C212.407 92.008 211.963 92.12 211.435 92.12ZM218.204 92.12C217.78 92.12 217.412 92.032 217.1 91.856C216.796 91.672 216.56 91.424 216.392 91.112C216.232 90.8 216.152 90.448 216.152 90.056V85.88H217.664V89.744C217.664 90.12 217.756 90.404 217.94 90.596C218.132 90.788 218.4 90.884 218.744 90.884C219.056 90.884 219.328 90.812 219.56 90.668C219.8 90.524 219.988 90.324 220.124 90.068C220.268 89.804 220.34 89.508 220.34 89.18L220.496 90.644C220.296 91.092 219.996 91.452 219.596 91.724C219.204 91.988 218.74 92.12 218.204 92.12ZM220.388 92V90.56H220.34V85.88H221.864V92H220.388ZM226.12 92.12C225.368 92.12 224.812 91.944 224.452 91.592C224.1 91.232 223.924 90.696 223.924 89.984V84.488L225.448 83.924V90.02C225.448 90.316 225.528 90.536 225.688 90.68C225.848 90.824 226.1 90.896 226.444 90.896C226.58 90.896 226.7 90.888 226.804 90.872C226.916 90.848 227.02 90.82 227.116 90.788V91.964C227.02 92.012 226.884 92.048 226.708 92.072C226.532 92.104 226.336 92.12 226.12 92.12ZM222.748 87.068V85.88H227.116V87.068H222.748ZM230.808 92.12C230.16 92.12 229.592 91.984 229.104 91.712C228.624 91.44 228.248 91.064 227.976 90.584C227.712 90.104 227.58 89.552 227.58 88.928C227.58 88.304 227.712 87.756 227.976 87.284C228.248 86.804 228.624 86.432 229.104 86.168C229.584 85.896 230.144 85.76 230.784 85.76C231.392 85.76 231.92 85.888 232.368 86.144C232.816 86.392 233.164 86.744 233.412 87.2C233.66 87.656 233.784 88.188 233.784 88.796C233.784 88.908 233.78 89.012 233.772 89.108C233.764 89.204 233.752 89.3 233.736 89.396H228.516V88.34H232.572L232.26 88.628C232.26 88.052 232.128 87.62 231.864 87.332C231.6 87.044 231.232 86.9 230.76 86.9C230.248 86.9 229.84 87.076 229.536 87.428C229.24 87.78 229.092 88.288 229.092 88.952C229.092 89.608 229.24 90.112 229.536 90.464C229.84 90.808 230.268 90.98 230.82 90.98C231.14 90.98 231.42 90.92 231.66 90.8C231.9 90.68 232.076 90.496 232.188 90.248H233.616C233.416 90.824 233.076 91.28 232.596 91.616C232.124 91.952 231.528 92.12 230.808 92.12ZM237.236 92V85.88H238.748V92H237.236ZM237.164 84.872V83.204H238.808V84.872H237.164ZM244.686 92V90.62L244.806 90.644C244.702 91.092 244.45 91.452 244.05 91.724C243.65 91.988 243.174 92.12 242.622 92.12C242.062 92.12 241.574 91.992 241.158 91.736C240.75 91.472 240.434 91.104 240.21 90.632C239.986 90.16 239.874 89.604 239.874 88.964C239.874 88.316 239.99 87.752 240.222 87.272C240.454 86.792 240.778 86.42 241.194 86.156C241.618 85.892 242.11 85.76 242.67 85.76C243.246 85.76 243.722 85.9 244.098 86.18C244.474 86.452 244.706 86.832 244.794 87.32L244.638 87.332V83.36H246.162V92H244.686ZM243.066 90.884C243.554 90.884 243.942 90.716 244.23 90.38C244.526 90.036 244.674 89.556 244.674 88.94C244.674 88.324 244.526 87.848 244.23 87.512C243.934 87.176 243.542 87.008 243.054 87.008C242.574 87.008 242.186 87.18 241.89 87.524C241.594 87.86 241.446 88.336 241.446 88.952C241.446 89.568 241.594 90.044 241.89 90.38C242.186 90.716 242.578 90.884 243.066 90.884ZM250.091 92V85.88H251.567V87.32H251.603V92H250.091ZM254.207 92V88.052C254.207 87.692 254.115 87.428 253.931 87.26C253.755 87.084 253.503 86.996 253.175 86.996C252.887 86.996 252.623 87.064 252.383 87.2C252.143 87.336 251.951 87.528 251.807 87.776C251.671 88.024 251.603 88.312 251.603 88.64L251.447 87.236C251.655 86.788 251.955 86.432 252.347 86.168C252.739 85.896 253.195 85.76 253.715 85.76C254.339 85.76 254.831 85.94 255.191 86.3C255.551 86.652 255.731 87.108 255.731 87.668V92H254.207ZM258.323 92V88.052C258.323 87.692 258.235 87.428 258.059 87.26C257.883 87.084 257.631 86.996 257.303 86.996C257.007 86.996 256.739 87.064 256.499 87.2C256.259 87.336 256.071 87.528 255.935 87.776C255.799 88.024 255.731 88.312 255.731 88.64L255.467 87.236C255.667 86.788 255.971 86.432 256.379 86.168C256.787 85.896 257.259 85.76 257.795 85.76C258.435 85.76 258.935 85.944 259.295 86.312C259.663 86.672 259.847 87.152 259.847 87.752V92H258.323ZM265.087 92C265.047 91.84 265.015 91.664 264.991 91.472C264.975 91.28 264.967 91.048 264.967 90.776H264.919V87.872C264.919 87.552 264.827 87.312 264.643 87.152C264.467 86.984 264.195 86.9 263.827 86.9C263.467 86.9 263.179 86.968 262.963 87.104C262.755 87.232 262.627 87.42 262.579 87.668H261.127C261.191 87.1 261.463 86.64 261.943 86.288C262.423 85.936 263.067 85.76 263.875 85.76C264.715 85.76 265.351 85.952 265.783 86.336C266.215 86.712 266.431 87.268 266.431 88.004V90.776C266.431 90.968 266.443 91.164 266.467 91.364C266.499 91.564 266.543 91.776 266.599 92H265.087ZM262.963 92.12C262.347 92.12 261.855 91.968 261.487 91.664C261.127 91.352 260.947 90.936 260.947 90.416C260.947 89.856 261.151 89.412 261.559 89.084C261.967 88.756 262.543 88.536 263.287 88.424L265.195 88.136V89.096L263.539 89.348C263.179 89.404 262.907 89.504 262.723 89.648C262.547 89.792 262.459 89.992 262.459 90.248C262.459 90.48 262.543 90.66 262.711 90.788C262.879 90.908 263.111 90.968 263.407 90.968C263.839 90.968 264.199 90.86 264.487 90.644C264.775 90.428 264.919 90.164 264.919 89.852L265.087 90.776C264.927 91.216 264.663 91.552 264.295 91.784C263.935 92.008 263.491 92.12 262.963 92.12ZM270.556 94.58C269.748 94.58 269.084 94.404 268.564 94.052C268.052 93.7 267.748 93.224 267.652 92.624H269.092C269.164 92.832 269.32 92.992 269.56 93.104C269.808 93.224 270.128 93.284 270.52 93.284C271.088 93.284 271.508 93.156 271.78 92.9C272.052 92.652 272.188 92.272 272.188 91.76V90.44L272.296 90.464C272.2 90.912 271.956 91.272 271.564 91.544C271.172 91.808 270.692 91.94 270.124 91.94C269.58 91.94 269.104 91.812 268.696 91.556C268.296 91.3 267.984 90.944 267.76 90.488C267.536 90.024 267.424 89.484 267.424 88.868C267.424 88.244 267.54 87.7 267.772 87.236C268.004 86.772 268.328 86.412 268.744 86.156C269.168 85.892 269.66 85.76 270.22 85.76C270.796 85.76 271.268 85.9 271.636 86.18C272.012 86.452 272.244 86.832 272.332 87.32L272.236 87.332V85.88H273.712V91.748C273.712 92.62 273.428 93.308 272.86 93.812C272.3 94.324 271.532 94.58 270.556 94.58ZM270.616 90.74C271.104 90.74 271.492 90.576 271.78 90.248C272.076 89.912 272.224 89.444 272.224 88.844C272.224 88.244 272.076 87.78 271.78 87.452C271.484 87.124 271.092 86.96 270.604 86.96C270.124 86.96 269.736 87.128 269.44 87.464C269.144 87.792 268.996 88.256 268.996 88.856C268.996 89.456 269.144 89.92 269.44 90.248C269.736 90.576 270.128 90.74 270.616 90.74ZM275.322 92V85.88H276.798V87.32H276.834V92H275.322ZM279.618 92V88.136C279.618 87.76 279.522 87.476 279.33 87.284C279.138 87.092 278.858 86.996 278.49 86.996C278.17 86.996 277.882 87.068 277.626 87.212C277.378 87.356 277.182 87.556 277.038 87.812C276.902 88.068 276.834 88.364 276.834 88.7L276.678 87.236C276.886 86.788 277.19 86.432 277.59 86.168C277.99 85.896 278.47 85.76 279.03 85.76C279.694 85.76 280.21 85.948 280.578 86.324C280.954 86.7 281.142 87.2 281.142 87.824V92H279.618ZM286.368 92C286.328 91.84 286.296 91.664 286.272 91.472C286.256 91.28 286.248 91.048 286.248 90.776H286.2V87.872C286.2 87.552 286.108 87.312 285.924 87.152C285.748 86.984 285.476 86.9 285.108 86.9C284.748 86.9 284.46 86.968 284.244 87.104C284.036 87.232 283.908 87.42 283.86 87.668H282.408C282.472 87.1 282.744 86.64 283.224 86.288C283.704 85.936 284.348 85.76 285.156 85.76C285.996 85.76 286.632 85.952 287.064 86.336C287.496 86.712 287.712 87.268 287.712 88.004V90.776C287.712 90.968 287.724 91.164 287.748 91.364C287.78 91.564 287.824 91.776 287.88 92H286.368ZM284.244 92.12C283.628 92.12 283.136 91.968 282.768 91.664C282.408 91.352 282.228 90.936 282.228 90.416C282.228 89.856 282.432 89.412 282.84 89.084C283.248 88.756 283.824 88.536 284.568 88.424L286.476 88.136V89.096L284.82 89.348C284.46 89.404 284.188 89.504 284.004 89.648C283.828 89.792 283.74 89.992 283.74 90.248C283.74 90.48 283.824 90.66 283.992 90.788C284.16 90.908 284.392 90.968 284.688 90.968C285.12 90.968 285.48 90.86 285.768 90.644C286.056 90.428 286.2 90.164 286.2 89.852L286.368 90.776C286.208 91.216 285.944 91.552 285.576 91.784C285.216 92.008 284.772 92.12 284.244 92.12ZM295.38 92C295.34 91.84 295.308 91.664 295.284 91.472C295.268 91.28 295.26 91.048 295.26 90.776H295.212V87.872C295.212 87.552 295.12 87.312 294.936 87.152C294.76 86.984 294.488 86.9 294.12 86.9C293.76 86.9 293.472 86.968 293.256 87.104C293.048 87.232 292.92 87.42 292.872 87.668H291.42C291.484 87.1 291.756 86.64 292.236 86.288C292.716 85.936 293.36 85.76 294.168 85.76C295.008 85.76 295.644 85.952 296.076 86.336C296.508 86.712 296.724 87.268 296.724 88.004V90.776C296.724 90.968 296.736 91.164 296.76 91.364C296.792 91.564 296.836 91.776 296.892 92H295.38ZM293.256 92.12C292.64 92.12 292.148 91.968 291.78 91.664C291.42 91.352 291.24 90.936 291.24 90.416C291.24 89.856 291.444 89.412 291.852 89.084C292.26 88.756 292.836 88.536 293.58 88.424L295.488 88.136V89.096L293.832 89.348C293.472 89.404 293.2 89.504 293.016 89.648C292.84 89.792 292.752 89.992 292.752 90.248C292.752 90.48 292.836 90.66 293.004 90.788C293.172 90.908 293.404 90.968 293.7 90.968C294.132 90.968 294.492 90.86 294.78 90.644C295.068 90.428 295.212 90.164 295.212 89.852L295.38 90.776C295.22 91.216 294.956 91.552 294.588 91.784C294.228 92.008 293.784 92.12 293.256 92.12ZM298.255 92V83.36H299.767V92H298.255ZM301.372 92V85.88H302.884V92H301.372ZM301.3 84.872V83.204H302.944V84.872H301.3ZM308.774 94.46V90.62L308.942 90.644C308.838 91.092 308.586 91.452 308.186 91.724C307.786 91.988 307.31 92.12 306.758 92.12C306.198 92.12 305.71 91.992 305.294 91.736C304.886 91.472 304.57 91.104 304.346 90.632C304.122 90.16 304.01 89.604 304.01 88.964C304.01 88.316 304.126 87.752 304.358 87.272C304.59 86.792 304.914 86.42 305.33 86.156C305.754 85.892 306.246 85.76 306.806 85.76C307.382 85.76 307.858 85.9 308.234 86.18C308.61 86.452 308.842 86.832 308.93 87.32L308.822 87.332V85.88H310.298V94.46H308.774ZM307.202 90.884C307.698 90.884 308.09 90.716 308.378 90.38C308.666 90.036 308.81 89.556 308.81 88.94C308.81 88.324 308.662 87.848 308.366 87.512C308.078 87.176 307.686 87.008 307.19 87.008C306.694 87.008 306.302 87.18 306.014 87.524C305.726 87.86 305.582 88.336 305.582 88.952C305.582 89.568 305.726 90.044 306.014 90.38C306.302 90.716 306.698 90.884 307.202 90.884ZM313.888 92.12C313.464 92.12 313.096 92.032 312.784 91.856C312.48 91.672 312.244 91.424 312.076 91.112C311.916 90.8 311.836 90.448 311.836 90.056V85.88H313.348V89.744C313.348 90.12 313.44 90.404 313.624 90.596C313.816 90.788 314.084 90.884 314.428 90.884C314.74 90.884 315.012 90.812 315.244 90.668C315.484 90.524 315.672 90.324 315.808 90.068C315.952 89.804 316.024 89.508 316.024 89.18L316.18 90.644C315.98 91.092 315.68 91.452 315.28 91.724C314.888 91.988 314.424 92.12 313.888 92.12ZM316.072 92V90.56H316.024V85.88H317.548V92H316.072ZM322.825 92C322.785 91.84 322.753 91.664 322.729 91.472C322.713 91.28 322.705 91.048 322.705 90.776H322.657V87.872C322.657 87.552 322.565 87.312 322.381 87.152C322.205 86.984 321.933 86.9 321.565 86.9C321.205 86.9 320.917 86.968 320.701 87.104C320.493 87.232 320.365 87.42 320.317 87.668H318.865C318.929 87.1 319.201 86.64 319.681 86.288C320.161 85.936 320.805 85.76 321.613 85.76C322.453 85.76 323.089 85.952 323.521 86.336C323.953 86.712 324.169 87.268 324.169 88.004V90.776C324.169 90.968 324.181 91.164 324.205 91.364C324.237 91.564 324.281 91.776 324.337 92H322.825ZM320.701 92.12C320.085 92.12 319.593 91.968 319.225 91.664C318.865 91.352 318.685 90.936 318.685 90.416C318.685 89.856 318.889 89.412 319.297 89.084C319.705 88.756 320.281 88.536 321.025 88.424L322.933 88.136V89.096L321.277 89.348C320.917 89.404 320.645 89.504 320.461 89.648C320.285 89.792 320.197 89.992 320.197 90.248C320.197 90.48 320.281 90.66 320.449 90.788C320.617 90.908 320.849 90.968 321.145 90.968C321.577 90.968 321.937 90.86 322.225 90.644C322.513 90.428 322.657 90.164 322.657 89.852L322.825 90.776C322.665 91.216 322.401 91.552 322.033 91.784C321.673 92.008 321.229 92.12 320.701 92.12Z" fill="white"/>
  </g>
  <defs>
    <clipPath id="clip0_622_896">
      <rect width="500" height="280" fill="white"/>
    </clipPath>
  </defs>
</svg>
