<svg viewBox="0 0 200 120" fill="none" xmlns="http://www.w3.org/2000/svg">
  <!-- Container -->
  <rect width="200" height="120" fill="#f8f9fa"/>
  
  <!-- Full width content -->
  <rect x="5" y="20" width="190" height="6" rx="2" fill="#e9ecef"/>
  <rect x="5" y="30" width="190" height="4" rx="1" fill="#dee2e6"/>
  
  <!-- Rich text content lines -->
  <rect x="5" y="40" width="190" height="2" rx="1" fill="#adb5bd"/>
  <rect x="5" y="45" width="185" height="2" rx="1" fill="#adb5bd"/>
  <rect x="5" y="50" width="180" height="2" rx="1" fill="#adb5bd"/>
  <rect x="5" y="55" width="190" height="2" rx="1" fill="#adb5bd"/>
  <rect x="5" y="60" width="175" height="2" rx="1" fill="#adb5bd"/>
  
  <!-- List items -->
  <circle cx="10" cy="70" r="1.5" fill="#6c757d"/>
  <rect x="17" y="69" width="170" height="2" rx="1" fill="#adb5bd"/>
  <circle cx="10" cy="76" r="1.5" fill="#6c757d"/>
  <rect x="17" y="75" width="165" height="2" rx="1" fill="#adb5bd"/>
  
  <!-- More text -->
  <rect x="5" y="85" width="190" height="2" rx="1" fill="#adb5bd"/>
  <rect x="5" y="90" width="178" height="2" rx="1" fill="#adb5bd"/>
  <rect x="5" y="95" width="185" height="2" rx="1" fill="#adb5bd"/>
</svg>