<svg viewBox="0 0 141 140" fill="none"
  xmlns="http://www.w3.org/2000/svg" fill="currentColor">
  <path d="M32.7402 98.3731L36.6968 102.33L62.6978 76.3288C70.3285 83.1117 80.2202 86.7857 90.3945 86.7857C101.699 86.7857 112.156 82.2638 120.352 74.3505C128.265 66.4371 132.787 55.6976 132.787 44.3929C132.787 33.0881 128.265 22.6312 120.352 14.4352C112.439 6.5219 101.699 2 90.3945 2C79.0897 2 68.6328 6.5219 60.4368 14.4352C44.6102 30.2619 44.0449 55.415 58.4585 72.0895L32.7402 98.3731ZM64.9587 18.9571C71.7416 12.1743 81.068 8.21762 90.6771 8.21762C100.286 8.21762 109.613 11.8917 116.395 18.9571C123.178 26.0226 127.135 35.0664 127.135 44.6755C127.135 54.2845 123.461 63.6109 116.395 70.3938C109.613 77.1767 100.286 81.1333 90.6771 81.1333C81.068 81.1333 71.7416 77.4593 64.9587 70.3938C50.5452 56.2629 50.5452 33.0881 64.9587 18.9571Z"/>
  <path d="M73.786 57H70.386V36.6H66.986V33.2H73.786V57ZM105.694 45.1C105.694 46.7547 105.434 48.3073 104.912 49.758C104.391 51.186 103.643 52.444 102.668 53.532C101.716 54.62 100.56 55.47 99.2002 56.082C97.8629 56.694 96.3782 57 94.7462 57H89.2042C87.5495 57 86.0535 56.694 84.7162 56.082C83.3789 55.47 82.2229 54.62 81.2482 53.532C80.2962 52.444 79.5595 51.186 79.0382 49.758C78.5169 48.3073 78.2562 46.7547 78.2562 45.1C78.2562 43.468 78.5169 41.938 79.0382 40.51C79.5595 39.0593 80.2962 37.79 81.2482 36.702C82.2229 35.5913 83.3789 34.73 84.7162 34.118C86.0535 33.506 87.5495 33.2 89.2042 33.2H94.7462C96.3782 33.2 97.8629 33.506 99.2002 34.118C100.56 34.73 101.716 35.5913 102.668 36.702C103.643 37.79 104.391 39.0593 104.912 40.51C105.434 41.938 105.694 43.468 105.694 45.1ZM102.294 45.1C102.294 43.536 101.988 42.108 101.376 40.816C100.787 39.524 99.9255 38.504 98.7922 37.756C97.6589 36.9853 96.3102 36.6 94.7462 36.6H89.2042C87.6402 36.6 86.2915 36.9853 85.1582 37.756C84.0475 38.504 83.1862 39.524 82.5742 40.816C81.9622 42.108 81.6562 43.536 81.6562 45.1C81.6562 46.664 81.9622 48.092 82.5742 49.384C83.1862 50.6533 84.0475 51.6733 85.1582 52.444C86.2915 53.2147 87.6402 53.6 89.2042 53.6H94.7462C96.3102 53.6 97.6589 53.2147 98.7922 52.444C99.9255 51.6733 100.787 50.6533 101.376 49.384C101.988 48.092 102.294 46.664 102.294 45.1ZM115.091 57H111.691V36.6H108.291V33.2H115.091V57Z"/>
  <path d="M12.786 34H9.386V13.6H5.986V10.2H12.786V34ZM44.6942 22.1C44.6942 23.7547 44.4335 25.3073 43.9122 26.758C43.3909 28.186 42.6429 29.444 41.6682 30.532C40.7162 31.62 39.5602 32.47 38.2002 33.082C36.8629 33.694 35.3782 34 33.7462 34H28.2042C26.5495 34 25.0535 33.694 23.7162 33.082C22.3789 32.47 21.2229 31.62 20.2482 30.532C19.2962 29.444 18.5595 28.186 18.0382 26.758C17.5169 25.3073 17.2562 23.7547 17.2562 22.1C17.2562 20.468 17.5169 18.938 18.0382 17.51C18.5595 16.0593 19.2962 14.79 20.2482 13.702C21.2229 12.5913 22.3789 11.73 23.7162 11.118C25.0535 10.506 26.5495 10.2 28.2042 10.2H33.7462C35.3782 10.2 36.8629 10.506 38.2002 11.118C39.5602 11.73 40.7162 12.5913 41.6682 13.702C42.6429 14.79 43.3909 16.0593 43.9122 17.51C44.4335 18.938 44.6942 20.468 44.6942 22.1ZM41.2942 22.1C41.2942 20.536 40.9882 19.108 40.3762 17.816C39.7869 16.524 38.9255 15.504 37.7922 14.756C36.6589 13.9853 35.3102 13.6 33.7462 13.6H28.2042C26.6402 13.6 25.2915 13.9853 24.1582 14.756C23.0475 15.504 22.1862 16.524 21.5742 17.816C20.9622 19.108 20.6562 20.536 20.6562 22.1C20.6562 23.664 20.9622 25.092 21.5742 26.384C22.1862 27.6533 23.0475 28.6733 24.1582 29.444C25.2915 30.2147 26.6402 30.6 28.2042 30.6H33.7462C35.3102 30.6 36.6589 30.2147 37.7922 29.444C38.9255 28.6733 39.7869 27.6533 40.3762 26.384C40.9882 25.092 41.2942 23.664 41.2942 22.1Z"/>
  <path d="M30.036 58.1C30.036 59.7547 29.7753 61.3073 29.254 62.758C28.7327 64.186 27.9847 65.444 27.01 66.532C26.058 67.62 24.902 68.47 23.542 69.082C22.2047 69.694 20.72 70 19.088 70H13.546C11.8913 70 10.3953 69.694 9.058 69.082C7.72067 68.47 6.56467 67.62 5.59 66.532C4.638 65.444 3.90133 64.186 3.38 62.758C2.85867 61.3073 2.598 59.7547 2.598 58.1C2.598 56.468 2.85867 54.938 3.38 53.51C3.90133 52.0593 4.638 50.79 5.59 49.702C6.56467 48.5913 7.72067 47.73 9.058 47.118C10.3953 46.506 11.8913 46.2 13.546 46.2H19.088C20.72 46.2 22.2047 46.506 23.542 47.118C24.902 47.73 26.058 48.5913 27.01 49.702C27.9847 50.79 28.7327 52.0593 29.254 53.51C29.7753 54.938 30.036 56.468 30.036 58.1ZM26.636 58.1C26.636 56.536 26.33 55.108 25.718 53.816C25.1287 52.524 24.2673 51.504 23.134 50.756C22.0007 49.9853 20.652 49.6 19.088 49.6H13.546C11.982 49.6 10.6333 49.9853 9.5 50.756C8.38933 51.504 7.528 52.524 6.916 53.816C6.304 55.108 5.998 56.536 5.998 58.1C5.998 59.664 6.304 61.092 6.916 62.384C7.528 63.6533 8.38933 64.6733 9.5 65.444C10.6333 66.2147 11.982 66.6 13.546 66.6H19.088C20.652 66.6 22.0007 66.2147 23.134 65.444C24.2673 64.6733 25.1287 63.6533 25.718 62.384C26.33 61.092 26.636 59.664 26.636 58.1ZM39.4325 70H36.0325V49.6H32.6325V46.2H39.4325V70Z"/>
  <path d="M85.036 105.1C85.036 106.755 84.7753 108.307 84.254 109.758C83.7327 111.186 82.9847 112.444 82.01 113.532C81.058 114.62 79.902 115.47 78.542 116.082C77.2047 116.694 75.72 117 74.088 117H68.546C66.8913 117 65.3953 116.694 64.058 116.082C62.7207 115.47 61.5647 114.62 60.59 113.532C59.638 112.444 58.9013 111.186 58.38 109.758C57.8587 108.307 57.598 106.755 57.598 105.1C57.598 103.468 57.8587 101.938 58.38 100.51C58.9013 99.0593 59.638 97.79 60.59 96.702C61.5647 95.5913 62.7207 94.73 64.058 94.118C65.3953 93.506 66.8913 93.2 68.546 93.2H74.088C75.72 93.2 77.2047 93.506 78.542 94.118C79.902 94.73 81.058 95.5913 82.01 96.702C82.9847 97.79 83.7327 99.0593 84.254 100.51C84.7753 101.938 85.036 103.468 85.036 105.1ZM81.636 105.1C81.636 103.536 81.33 102.108 80.718 100.816C80.1287 99.524 79.2673 98.504 78.134 97.756C77.0007 96.9853 75.652 96.6 74.088 96.6H68.546C66.982 96.6 65.6333 96.9853 64.5 97.756C63.3893 98.504 62.528 99.524 61.916 100.816C61.304 102.108 60.998 103.536 60.998 105.1C60.998 106.664 61.304 108.092 61.916 109.384C62.528 110.653 63.3893 111.673 64.5 112.444C65.6333 113.215 66.982 113.6 68.546 113.6H74.088C75.652 113.6 77.0007 113.215 78.134 112.444C79.2673 111.673 80.1287 110.653 80.718 109.384C81.33 108.092 81.636 106.664 81.636 105.1ZM94.4325 117H91.0325V96.6H87.6325V93.2H94.4325V117ZM126.341 105.1C126.341 106.755 126.08 108.307 125.559 109.758C125.037 111.186 124.289 112.444 123.315 113.532C122.363 114.62 121.207 115.47 119.847 116.082C118.509 116.694 117.025 117 115.393 117H109.851C108.196 117 106.7 116.694 105.363 116.082C104.025 115.47 102.869 114.62 101.895 113.532C100.943 112.444 100.206 111.186 99.6847 109.758C99.1634 108.307 98.9027 106.755 98.9027 105.1C98.9027 103.468 99.1634 101.938 99.6847 100.51C100.206 99.0593 100.943 97.79 101.895 96.702C102.869 95.5913 104.025 94.73 105.363 94.118C106.7 93.506 108.196 93.2 109.851 93.2H115.393C117.025 93.2 118.509 93.506 119.847 94.118C121.207 94.73 122.363 95.5913 123.315 96.702C124.289 97.79 125.037 99.0593 125.559 100.51C126.08 101.938 126.341 103.468 126.341 105.1ZM122.941 105.1C122.941 103.536 122.635 102.108 122.023 100.816C121.433 99.524 120.572 98.504 119.439 97.756C118.305 96.9853 116.957 96.6 115.393 96.6H109.851C108.287 96.6 106.938 96.9853 105.805 97.756C104.694 98.504 103.833 99.524 103.221 100.816C102.609 102.108 102.303 103.536 102.303 105.1C102.303 106.664 102.609 108.092 103.221 109.384C103.833 110.653 104.694 111.673 105.805 112.444C106.938 113.215 108.287 113.6 109.851 113.6H115.393C116.957 113.6 118.305 113.215 119.439 112.444C120.572 111.673 121.433 110.653 122.023 109.384C122.635 108.092 122.941 106.664 122.941 105.1ZM135.737 117H132.337V96.6H128.937V93.2H135.737V117Z"/>
  <rect y="116.648" width="49" height="26" rx="10" transform="rotate(-45 0 116.648)"/>
</svg>
