<svg viewBox="0 0 200 120" fill="none" xmlns="http://www.w3.org/2000/svg">
  <!-- Container -->
  <rect width="200" height="120" fill="#f8f9fa"/>
  
  <!-- Narrow centered content -->
  <rect x="50" y="20" width="100" height="6" rx="2" fill="#e9ecef"/>
  <rect x="50" y="30" width="100" height="4" rx="1" fill="#dee2e6"/>
  
  <!-- Rich text content lines -->
  <rect x="50" y="40" width="100" height="2" rx="1" fill="#adb5bd"/>
  <rect x="50" y="45" width="95" height="2" rx="1" fill="#adb5bd"/>
  <rect x="50" y="50" width="90" height="2" rx="1" fill="#adb5bd"/>
  <rect x="50" y="55" width="100" height="2" rx="1" fill="#adb5bd"/>
  <rect x="50" y="60" width="85" height="2" rx="1" fill="#adb5bd"/>
  
  <!-- List items -->
  <circle cx="55" cy="70" r="1.5" fill="#6c757d"/>
  <rect x="62" y="69" width="80" height="2" rx="1" fill="#adb5bd"/>
  <circle cx="55" cy="76" r="1.5" fill="#6c757d"/>
  <rect x="62" y="75" width="75" height="2" rx="1" fill="#adb5bd"/>
  
  <!-- More text -->
  <rect x="50" y="85" width="100" height="2" rx="1" fill="#adb5bd"/>
  <rect x="50" y="90" width="88" height="2" rx="1" fill="#adb5bd"/>
  <rect x="50" y="95" width="95" height="2" rx="1" fill="#adb5bd"/>
</svg>