<svg viewBox="0 0 200 120" fill="none" xmlns="http://www.w3.org/2000/svg">
  <!-- Container -->
  <rect width="200" height="120" fill="#f8f9fa"/>
  
  <!-- Two columns layout -->
  <!-- Column 1 -->
  <rect x="10" y="20" width="85" height="6" rx="2" fill="#e9ecef"/>
  <rect x="10" y="30" width="85" height="4" rx="1" fill="#dee2e6"/>
  
  <rect x="10" y="40" width="85" height="2" rx="1" fill="#adb5bd"/>
  <rect x="10" y="45" width="80" height="2" rx="1" fill="#adb5bd"/>
  <rect x="10" y="50" width="75" height="2" rx="1" fill="#adb5bd"/>
  <rect x="10" y="55" width="85" height="2" rx="1" fill="#adb5bd"/>
  <rect x="10" y="60" width="70" height="2" rx="1" fill="#adb5bd"/>
  
  <circle cx="15" cy="70" r="1.5" fill="#6c757d"/>
  <rect x="22" y="69" width="65" height="2" rx="1" fill="#adb5bd"/>
  <circle cx="15" cy="76" r="1.5" fill="#6c757d"/>
  <rect x="22" y="75" width="60" height="2" rx="1" fill="#adb5bd"/>
  
  <!-- Column 2 -->
  <rect x="105" y="40" width="85" height="2" rx="1" fill="#adb5bd"/>
  <rect x="105" y="45" width="80" height="2" rx="1" fill="#adb5bd"/>
  <rect x="105" y="50" width="75" height="2" rx="1" fill="#adb5bd"/>
  <rect x="105" y="55" width="85" height="2" rx="1" fill="#adb5bd"/>
  <rect x="105" y="60" width="70" height="2" rx="1" fill="#adb5bd"/>
  
  <rect x="105" y="70" width="85" height="2" rx="1" fill="#adb5bd"/>
  <rect x="105" y="75" width="78" height="2" rx="1" fill="#adb5bd"/>
  <rect x="105" y="80" width="82" height="2" rx="1" fill="#adb5bd"/>
  
  <rect x="10" y="85" width="85" height="2" rx="1" fill="#adb5bd"/>
  <rect x="10" y="90" width="78" height="2" rx="1" fill="#adb5bd"/>
  <rect x="10" y="95" width="82" height="2" rx="1" fill="#adb5bd"/>
  
  <rect x="105" y="90" width="85" height="2" rx="1" fill="#adb5bd"/>
  <rect x="105" y="95" width="80" height="2" rx="1" fill="#adb5bd"/>
</svg>