<svg viewBox="0 0 200 120" fill="none" xmlns="http://www.w3.org/2000/svg">
  <!-- Container -->
  <rect width="200" height="120" fill="#f8f9fa"/>
  
  <!-- Wide centered content -->
  <rect x="20" y="20" width="160" height="6" rx="2" fill="#e9ecef"/>
  <rect x="20" y="30" width="160" height="4" rx="1" fill="#dee2e6"/>
  
  <!-- Rich text content lines -->
  <rect x="20" y="40" width="160" height="2" rx="1" fill="#adb5bd"/>
  <rect x="20" y="45" width="150" height="2" rx="1" fill="#adb5bd"/>
  <rect x="20" y="50" width="155" height="2" rx="1" fill="#adb5bd"/>
  <rect x="20" y="55" width="160" height="2" rx="1" fill="#adb5bd"/>
  <rect x="20" y="60" width="145" height="2" rx="1" fill="#adb5bd"/>
  
  <!-- List items -->
  <circle cx="25" cy="70" r="1.5" fill="#6c757d"/>
  <rect x="32" y="69" width="140" height="2" rx="1" fill="#adb5bd"/>
  <circle cx="25" cy="76" r="1.5" fill="#6c757d"/>
  <rect x="32" y="75" width="135" height="2" rx="1" fill="#adb5bd"/>
  
  <!-- More text -->
  <rect x="20" y="85" width="160" height="2" rx="1" fill="#adb5bd"/>
  <rect x="20" y="90" width="148" height="2" rx="1" fill="#adb5bd"/>
  <rect x="20" y="95" width="155" height="2" rx="1" fill="#adb5bd"/>
</svg>