<svg viewBox="0 0 500 280" fill="none"
  xmlns="http://www.w3.org/2000/svg">
  <g clip-path="url(#clip0_2934_3855)">
    <rect width="500" height="280" fill="#FBFBFB"/>
    <rect x="53.5" y="-9.5" width="399" height="299" fill="white" stroke="#EBEBEB"/>
    <rect x="82" y="62" width="160" height="10" rx="2" fill="#F8F9FB"/>
    <rect x="82" y="77" width="79" height="10" rx="2" fill="#F8F9FB"/>
    <path d="M82.843 51L86.095 42.36H87.199L84.091 51H82.843ZM89.527 51L86.419 42.36H87.583L90.847 51H89.527ZM84.487 47.556H89.119V48.612H84.487V47.556ZM92.1123 51V44.88H93.3003V46.32H93.3603V51H92.1123ZM96.4563 51V47.064C96.4563 46.64 96.3483 46.324 96.1323 46.116C95.9243 45.908 95.6123 45.804 95.1963 45.804C94.8363 45.804 94.5163 45.884 94.2363 46.044C93.9643 46.204 93.7483 46.424 93.5883 46.704C93.4363 46.984 93.3603 47.316 93.3603 47.7L93.2043 46.236C93.4043 45.78 93.7123 45.42 94.1283 45.156C94.5443 44.892 95.0283 44.76 95.5803 44.76C96.2363 44.76 96.7523 44.944 97.1283 45.312C97.5043 45.68 97.6923 46.168 97.6923 46.776V51H96.4563ZM99.3662 51V44.88H100.614V51H99.3662ZM99.3062 43.68V42.276H100.686V43.68H99.3062ZM102.366 51V44.88H103.554V46.32H103.614V51H102.366ZM106.494 51V47.004C106.494 46.588 106.398 46.284 106.206 46.092C106.014 45.9 105.738 45.804 105.378 45.804C105.042 45.804 104.738 45.884 104.466 46.044C104.202 46.196 103.994 46.412 103.842 46.692C103.69 46.964 103.614 47.288 103.614 47.664L103.458 46.236C103.658 45.78 103.958 45.42 104.358 45.156C104.766 44.892 105.222 44.76 105.726 44.76C106.334 44.76 106.818 44.936 107.178 45.288C107.546 45.64 107.73 46.104 107.73 46.68V51H106.494ZM110.622 51V47.004C110.622 46.588 110.522 46.284 110.322 46.092C110.13 45.9 109.854 45.804 109.494 45.804C109.166 45.804 108.866 45.884 108.594 46.044C108.33 46.196 108.118 46.412 107.958 46.692C107.806 46.964 107.73 47.288 107.73 47.664L107.478 46.236C107.686 45.78 107.998 45.42 108.414 45.156C108.838 44.892 109.31 44.76 109.83 44.76C110.446 44.76 110.938 44.94 111.306 45.3C111.674 45.652 111.858 46.124 111.858 46.716V51H110.622ZM119.693 51C119.653 50.848 119.625 50.68 119.609 50.496C119.601 50.312 119.597 50.088 119.597 49.824H119.537V46.908C119.537 46.516 119.437 46.224 119.237 46.032C119.045 45.832 118.737 45.732 118.313 45.732C117.905 45.732 117.577 45.812 117.329 45.972C117.089 46.132 116.949 46.36 116.909 46.656H115.721C115.777 46.08 116.037 45.62 116.501 45.276C116.965 44.932 117.585 44.76 118.361 44.76C119.161 44.76 119.761 44.948 120.161 45.324C120.561 45.692 120.761 46.236 120.761 46.956V49.824C120.761 50.008 120.773 50.196 120.797 50.388C120.821 50.58 120.857 50.784 120.905 51H119.693ZM117.581 51.12C116.957 51.12 116.461 50.968 116.093 50.664C115.725 50.352 115.541 49.932 115.541 49.404C115.541 48.86 115.733 48.432 116.117 48.12C116.509 47.8 117.069 47.584 117.797 47.472L119.813 47.148V48.024L117.989 48.312C117.581 48.376 117.273 48.484 117.065 48.636C116.865 48.788 116.765 49.008 116.765 49.296C116.765 49.576 116.857 49.788 117.041 49.932C117.233 50.068 117.509 50.136 117.869 50.136C118.349 50.136 118.745 50.02 119.057 49.788C119.377 49.556 119.537 49.264 119.537 48.912L119.693 49.8C119.549 50.224 119.293 50.552 118.925 50.784C118.557 51.008 118.109 51.12 117.581 51.12ZM124.339 51.12C123.931 51.12 123.571 51.036 123.259 50.868C122.947 50.692 122.703 50.452 122.527 50.148C122.359 49.844 122.275 49.496 122.275 49.104V44.88H123.523V48.816C123.523 49.24 123.627 49.556 123.835 49.764C124.043 49.972 124.339 50.076 124.723 50.076C125.067 50.076 125.371 49.996 125.635 49.836C125.907 49.676 126.119 49.456 126.271 49.176C126.431 48.888 126.511 48.556 126.511 48.18L126.667 49.644C126.467 50.092 126.159 50.452 125.743 50.724C125.335 50.988 124.867 51.12 124.339 51.12ZM126.559 51V49.56H126.511V44.88H127.747V51H126.559ZM132.041 51.12C131.329 51.12 130.805 50.956 130.469 50.628C130.141 50.292 129.977 49.8 129.977 49.152V43.476L131.213 43.008V49.164C131.213 49.484 131.297 49.72 131.465 49.872C131.633 50.024 131.905 50.1 132.281 50.1C132.425 50.1 132.553 50.088 132.665 50.064C132.777 50.04 132.873 50.012 132.953 49.98V50.988C132.865 51.028 132.741 51.06 132.581 51.084C132.421 51.108 132.241 51.12 132.041 51.12ZM128.753 45.876V44.88H132.953V45.876H128.753ZM136.623 51.12C136.007 51.12 135.463 50.984 134.991 50.712C134.527 50.44 134.163 50.064 133.899 49.584C133.635 49.104 133.503 48.552 133.503 47.928C133.503 47.296 133.631 46.744 133.887 46.272C134.151 45.792 134.519 45.42 134.991 45.156C135.463 44.892 136.003 44.76 136.611 44.76C137.203 44.76 137.715 44.888 138.147 45.144C138.587 45.392 138.923 45.74 139.155 46.188C139.395 46.636 139.515 47.168 139.515 47.784C139.515 47.88 139.511 47.972 139.503 48.06C139.503 48.14 139.495 48.224 139.479 48.312H134.343V47.376H138.603L138.291 47.748C138.291 47.092 138.143 46.592 137.847 46.248C137.551 45.904 137.139 45.732 136.611 45.732C136.043 45.732 135.591 45.928 135.255 46.32C134.927 46.704 134.763 47.24 134.763 47.928C134.763 48.624 134.927 49.168 135.255 49.56C135.591 49.952 136.055 50.148 136.647 50.148C137.007 50.148 137.319 50.076 137.583 49.932C137.847 49.78 138.043 49.56 138.171 49.272H139.347C139.147 49.848 138.807 50.3 138.327 50.628C137.855 50.956 137.287 51.12 136.623 51.12ZM143.159 51V44.88H144.407V51H143.159ZM143.099 43.68V42.276H144.479V43.68H143.099ZM150.54 51V49.596L150.66 49.632C150.532 50.088 150.268 50.452 149.868 50.724C149.468 50.988 148.988 51.12 148.428 51.12C147.876 51.12 147.392 50.988 146.976 50.724C146.568 50.46 146.248 50.092 146.016 49.62C145.792 49.148 145.68 48.596 145.68 47.964C145.68 47.324 145.796 46.764 146.028 46.284C146.26 45.804 146.584 45.432 147 45.168C147.416 44.904 147.904 44.772 148.464 44.772C149.048 44.772 149.528 44.912 149.904 45.192C150.288 45.464 150.54 45.848 150.66 46.344L150.492 46.368V42.36H151.728V51H150.54ZM148.74 50.076C149.292 50.076 149.728 49.888 150.048 49.512C150.368 49.128 150.528 48.6 150.528 47.928C150.528 47.272 150.364 46.756 150.036 46.38C149.716 45.996 149.28 45.804 148.728 45.804C148.184 45.804 147.752 45.996 147.432 46.38C147.12 46.756 146.964 47.284 146.964 47.964C146.964 48.628 147.12 49.148 147.432 49.524C147.752 49.892 148.188 50.076 148.74 50.076ZM155.851 51V44.88H157.039V46.32H157.099V51H155.851ZM159.979 51V47.004C159.979 46.588 159.883 46.284 159.691 46.092C159.499 45.9 159.223 45.804 158.863 45.804C158.527 45.804 158.223 45.884 157.951 46.044C157.687 46.196 157.479 46.412 157.327 46.692C157.175 46.964 157.099 47.288 157.099 47.664L156.943 46.236C157.143 45.78 157.443 45.42 157.843 45.156C158.251 44.892 158.707 44.76 159.211 44.76C159.819 44.76 160.303 44.936 160.663 45.288C161.031 45.64 161.215 46.104 161.215 46.68V51H159.979ZM164.107 51V47.004C164.107 46.588 164.007 46.284 163.807 46.092C163.615 45.9 163.339 45.804 162.979 45.804C162.651 45.804 162.351 45.884 162.079 46.044C161.815 46.196 161.603 46.412 161.443 46.692C161.291 46.964 161.215 47.288 161.215 47.664L160.963 46.236C161.171 45.78 161.483 45.42 161.899 45.156C162.323 44.892 162.795 44.76 163.315 44.76C163.931 44.76 164.423 44.94 164.791 45.3C165.159 45.652 165.343 46.124 165.343 46.716V51H164.107ZM170.74 51C170.7 50.848 170.672 50.68 170.656 50.496C170.648 50.312 170.644 50.088 170.644 49.824H170.584V46.908C170.584 46.516 170.484 46.224 170.284 46.032C170.092 45.832 169.784 45.732 169.36 45.732C168.952 45.732 168.624 45.812 168.376 45.972C168.136 46.132 167.996 46.36 167.956 46.656H166.768C166.824 46.08 167.084 45.62 167.548 45.276C168.012 44.932 168.632 44.76 169.408 44.76C170.208 44.76 170.808 44.948 171.208 45.324C171.608 45.692 171.808 46.236 171.808 46.956V49.824C171.808 50.008 171.82 50.196 171.844 50.388C171.868 50.58 171.904 50.784 171.952 51H170.74ZM168.628 51.12C168.004 51.12 167.508 50.968 167.14 50.664C166.772 50.352 166.588 49.932 166.588 49.404C166.588 48.86 166.78 48.432 167.164 48.12C167.556 47.8 168.116 47.584 168.844 47.472L170.86 47.148V48.024L169.036 48.312C168.628 48.376 168.32 48.484 168.112 48.636C167.912 48.788 167.812 49.008 167.812 49.296C167.812 49.576 167.904 49.788 168.088 49.932C168.28 50.068 168.556 50.136 168.916 50.136C169.396 50.136 169.792 50.02 170.104 49.788C170.424 49.556 170.584 49.264 170.584 48.912L170.74 49.8C170.596 50.224 170.34 50.552 169.972 50.784C169.604 51.008 169.156 51.12 168.628 51.12ZM176.02 53.58C175.252 53.58 174.616 53.404 174.112 53.052C173.616 52.708 173.316 52.248 173.212 51.672H174.388C174.468 51.936 174.644 52.144 174.916 52.296C175.196 52.448 175.568 52.524 176.032 52.524C176.632 52.524 177.08 52.376 177.376 52.08C177.672 51.784 177.82 51.344 177.82 50.76V49.44L177.928 49.464C177.808 49.928 177.548 50.296 177.148 50.568C176.748 50.832 176.268 50.964 175.708 50.964C175.172 50.964 174.7 50.836 174.292 50.58C173.884 50.324 173.568 49.968 173.344 49.512C173.12 49.048 173.008 48.508 173.008 47.892C173.008 47.268 173.124 46.72 173.356 46.248C173.588 45.776 173.912 45.412 174.328 45.156C174.752 44.9 175.244 44.772 175.804 44.772C176.38 44.772 176.856 44.912 177.232 45.192C177.616 45.464 177.86 45.852 177.964 46.356L177.868 46.368V44.88H179.056V50.748C179.056 51.628 178.784 52.32 178.24 52.824C177.704 53.328 176.964 53.58 176.02 53.58ZM176.08 49.956C176.616 49.956 177.044 49.768 177.364 49.392C177.692 49.016 177.856 48.5 177.856 47.844C177.856 47.204 177.692 46.7 177.364 46.332C177.044 45.964 176.612 45.78 176.068 45.78C175.524 45.78 175.092 45.968 174.772 46.344C174.452 46.712 174.292 47.224 174.292 47.88C174.292 48.52 174.452 49.028 174.772 49.404C175.1 49.772 175.536 49.956 176.08 49.956ZM180.812 51V44.88H182V46.32H182.06V51H180.812ZM185.156 51V47.064C185.156 46.64 185.048 46.324 184.832 46.116C184.624 45.908 184.312 45.804 183.896 45.804C183.536 45.804 183.216 45.884 182.936 46.044C182.664 46.204 182.448 46.424 182.288 46.704C182.136 46.984 182.06 47.316 182.06 47.7L181.904 46.236C182.104 45.78 182.412 45.42 182.828 45.156C183.244 44.892 183.728 44.76 184.28 44.76C184.936 44.76 185.452 44.944 185.828 45.312C186.204 45.68 186.392 46.168 186.392 46.776V51H185.156ZM191.811 51C191.771 50.848 191.743 50.68 191.727 50.496C191.719 50.312 191.715 50.088 191.715 49.824H191.655V46.908C191.655 46.516 191.555 46.224 191.355 46.032C191.163 45.832 190.855 45.732 190.431 45.732C190.023 45.732 189.695 45.812 189.447 45.972C189.207 46.132 189.067 46.36 189.027 46.656H187.839C187.895 46.08 188.155 45.62 188.619 45.276C189.083 44.932 189.703 44.76 190.479 44.76C191.279 44.76 191.879 44.948 192.279 45.324C192.679 45.692 192.879 46.236 192.879 46.956V49.824C192.879 50.008 192.891 50.196 192.915 50.388C192.939 50.58 192.975 50.784 193.023 51H191.811ZM189.699 51.12C189.075 51.12 188.579 50.968 188.211 50.664C187.843 50.352 187.659 49.932 187.659 49.404C187.659 48.86 187.851 48.432 188.235 48.12C188.627 47.8 189.187 47.584 189.915 47.472L191.931 47.148V48.024L190.107 48.312C189.699 48.376 189.391 48.484 189.183 48.636C188.983 48.788 188.883 49.008 188.883 49.296C188.883 49.576 188.975 49.788 189.159 49.932C189.351 50.068 189.627 50.136 189.987 50.136C190.467 50.136 190.863 50.02 191.175 49.788C191.495 49.556 191.655 49.264 191.655 48.912L191.811 49.8C191.667 50.224 191.411 50.552 191.043 50.784C190.675 51.008 190.227 51.12 189.699 51.12ZM200.729 51C200.689 50.848 200.661 50.68 200.645 50.496C200.637 50.312 200.633 50.088 200.633 49.824H200.573V46.908C200.573 46.516 200.473 46.224 200.273 46.032C200.081 45.832 199.773 45.732 199.349 45.732C198.941 45.732 198.613 45.812 198.365 45.972C198.125 46.132 197.985 46.36 197.945 46.656H196.757C196.813 46.08 197.073 45.62 197.537 45.276C198.001 44.932 198.621 44.76 199.397 44.76C200.197 44.76 200.797 44.948 201.197 45.324C201.597 45.692 201.797 46.236 201.797 46.956V49.824C201.797 50.008 201.809 50.196 201.833 50.388C201.857 50.58 201.893 50.784 201.941 51H200.729ZM198.617 51.12C197.993 51.12 197.497 50.968 197.129 50.664C196.761 50.352 196.577 49.932 196.577 49.404C196.577 48.86 196.769 48.432 197.153 48.12C197.545 47.8 198.105 47.584 198.833 47.472L200.849 47.148V48.024L199.025 48.312C198.617 48.376 198.309 48.484 198.101 48.636C197.901 48.788 197.801 49.008 197.801 49.296C197.801 49.576 197.893 49.788 198.077 49.932C198.269 50.068 198.545 50.136 198.905 50.136C199.385 50.136 199.781 50.02 200.093 49.788C200.413 49.556 200.573 49.264 200.573 48.912L200.729 49.8C200.585 50.224 200.329 50.552 199.961 50.784C199.593 51.008 199.145 51.12 198.617 51.12ZM203.487 51V42.36H204.735V51H203.487ZM206.487 51V44.88H207.735V51H206.487ZM206.427 43.68V42.276H207.807V43.68H206.427ZM213.82 53.46V49.596L213.988 49.632C213.86 50.088 213.596 50.452 213.196 50.724C212.796 50.988 212.316 51.12 211.756 51.12C211.204 51.12 210.72 50.992 210.304 50.736C209.896 50.472 209.576 50.104 209.344 49.632C209.12 49.152 209.008 48.596 209.008 47.964C209.008 47.324 209.124 46.764 209.356 46.284C209.588 45.804 209.912 45.432 210.328 45.168C210.744 44.904 211.232 44.772 211.792 44.772C212.376 44.772 212.856 44.912 213.232 45.192C213.616 45.464 213.868 45.848 213.988 46.344L213.868 46.368V44.88H215.056V53.46H213.82ZM212.068 50.076C212.628 50.076 213.064 49.888 213.376 49.512C213.696 49.128 213.856 48.6 213.856 47.928C213.856 47.272 213.696 46.756 213.376 46.38C213.056 45.996 212.616 45.804 212.056 45.804C211.504 45.804 211.072 45.996 210.76 46.38C210.448 46.756 210.292 47.284 210.292 47.964C210.292 48.628 210.448 49.148 210.76 49.524C211.08 49.892 211.516 50.076 212.068 50.076ZM218.804 51.12C218.396 51.12 218.036 51.036 217.724 50.868C217.412 50.692 217.168 50.452 216.992 50.148C216.824 49.844 216.74 49.496 216.74 49.104V44.88H217.988V48.816C217.988 49.24 218.092 49.556 218.3 49.764C218.508 49.972 218.804 50.076 219.188 50.076C219.532 50.076 219.836 49.996 220.1 49.836C220.372 49.676 220.584 49.456 220.736 49.176C220.896 48.888 220.976 48.556 220.976 48.18L221.132 49.644C220.932 50.092 220.624 50.452 220.208 50.724C219.8 50.988 219.332 51.12 218.804 51.12ZM221.024 51V49.56H220.976V44.88H222.212V51H221.024ZM227.658 51C227.618 50.848 227.59 50.68 227.574 50.496C227.566 50.312 227.562 50.088 227.562 49.824H227.502V46.908C227.502 46.516 227.402 46.224 227.202 46.032C227.01 45.832 226.702 45.732 226.278 45.732C225.87 45.732 225.542 45.812 225.294 45.972C225.054 46.132 224.914 46.36 224.874 46.656H223.686C223.742 46.08 224.002 45.62 224.466 45.276C224.93 44.932 225.55 44.76 226.326 44.76C227.126 44.76 227.726 44.948 228.126 45.324C228.526 45.692 228.726 46.236 228.726 46.956V49.824C228.726 50.008 228.738 50.196 228.762 50.388C228.786 50.58 228.822 50.784 228.87 51H227.658ZM225.546 51.12C224.922 51.12 224.426 50.968 224.058 50.664C223.69 50.352 223.506 49.932 223.506 49.404C223.506 48.86 223.698 48.432 224.082 48.12C224.474 47.8 225.034 47.584 225.762 47.472L227.778 47.148V48.024L225.954 48.312C225.546 48.376 225.238 48.484 225.03 48.636C224.83 48.788 224.73 49.008 224.73 49.296C224.73 49.576 224.822 49.788 225.006 49.932C225.198 50.068 225.474 50.136 225.834 50.136C226.314 50.136 226.71 50.02 227.022 49.788C227.342 49.556 227.502 49.264 227.502 48.912L227.658 49.8C227.514 50.224 227.258 50.552 226.89 50.784C226.522 51.008 226.074 51.12 225.546 51.12Z" fill="#212121"/>
    <rect x="82" y="108" width="105" height="75" rx="4" fill="#F8F9FB"/>
    <g clip-path="url(#clip1_2934_3855)">
      <path d="M143.84 133.5H125.16C123.691 133.5 122.5 134.691 122.5 136.16V154.84C122.5 156.309 123.691 157.5 125.16 157.5H143.84C145.309 157.5 146.5 156.309 146.5 154.84V136.16C146.5 134.691 145.309 133.5 143.84 133.5Z" stroke="#E8E8E9" stroke-width="0.5" stroke-linecap="round" stroke-linejoin="round"/>
      <path d="M130.5 144.16C131.969 144.16 133.16 142.969 133.16 141.5C133.16 140.031 131.969 138.84 130.5 138.84C129.031 138.84 127.84 140.031 127.84 141.5C127.84 142.969 129.031 144.16 130.5 144.16Z" stroke="#E8E8E9" stroke-width="0.5" stroke-linecap="round" stroke-linejoin="round"/>
      <path d="M146.5 149.5L142.38 145.38C141.34 144.34 139.66 144.34 138.6 145.38L126.48 157.5" stroke="#E8E8E9" stroke-width="0.5" stroke-linecap="round" stroke-linejoin="round"/>
    </g>
    <g opacity="0.8">
      <rect x="82" y="210.656" width="105" height="5.25" rx="2" fill="#F8F9FB"/>
      <rect x="82" y="219.188" width="105" height="5.25" rx="2" fill="#F8F9FB"/>
      <rect x="82" y="227.719" width="105" height="5.25" rx="2" fill="#F8F9FB"/>
      <rect x="82" y="236.25" width="77.4375" height="5.25" rx="2" fill="#F8F9FB"/>
    </g>
    <g opacity="0.8">
      <rect x="82" y="189" width="105" height="6.5625" rx="2" fill="#F8F9FB"/>
      <rect x="82" y="198.844" width="51.8438" height="6.5625" rx="2" fill="#F8F9FB"/>
    </g>
    <path d="M190.072 119L143.928 119C143.415 119 143 118.478 143 117.834L143 106.027C143 105.398 143.397 104.882 143.898 104.861L190.043 103.001C190.566 102.979 191 103.508 191 104.166V117.834C191 118.478 190.585 119 190.072 119Z" fill="#FFD167"/>
    <rect opacity="0.5" x="150" y="109" width="34" height="6" rx="2" fill="#F8F9FB"/>
    <rect x="196.5" y="108" width="105" height="75" rx="4" fill="#F8F9FB"/>
    <g clip-path="url(#clip2_2934_3855)">
      <path d="M258.34 133.5H239.66C238.191 133.5 237 134.691 237 136.16V154.84C237 156.309 238.191 157.5 239.66 157.5H258.34C259.809 157.5 261 156.309 261 154.84V136.16C261 134.691 259.809 133.5 258.34 133.5Z" stroke="#E8E8E9" stroke-width="0.5" stroke-linecap="round" stroke-linejoin="round"/>
      <path d="M245 144.16C246.469 144.16 247.66 142.969 247.66 141.5C247.66 140.031 246.469 138.84 245 138.84C243.531 138.84 242.34 140.031 242.34 141.5C242.34 142.969 243.531 144.16 245 144.16Z" stroke="#E8E8E9" stroke-width="0.5" stroke-linecap="round" stroke-linejoin="round"/>
      <path d="M261 149.5L256.88 145.38C255.84 144.34 254.16 144.34 253.1 145.38L240.98 157.5" stroke="#E8E8E9" stroke-width="0.5" stroke-linecap="round" stroke-linejoin="round"/>
    </g>
    <g opacity="0.8">
      <rect x="196.5" y="210.656" width="105" height="5.25" rx="2" fill="#F8F9FB"/>
      <rect x="196.5" y="219.188" width="105" height="5.25" rx="2" fill="#F8F9FB"/>
      <rect x="196.5" y="227.719" width="105" height="5.25" rx="2" fill="#F8F9FB"/>
      <rect x="196.5" y="236.25" width="77.4375" height="5.25" rx="2" fill="#F8F9FB"/>
    </g>
    <g opacity="0.8">
      <rect x="196.5" y="189" width="105" height="6.5625" rx="2" fill="#F8F9FB"/>
      <rect x="196.5" y="198.844" width="51.8438" height="6.5625" rx="2" fill="#F8F9FB"/>
    </g>
    <path d="M304.572 119L258.428 119C257.915 119 257.5 118.478 257.5 117.834L257.5 106.027C257.5 105.398 257.897 104.882 258.398 104.861L304.543 103.001C305.066 102.979 305.5 103.508 305.5 104.166V117.834C305.5 118.478 305.085 119 304.572 119Z" fill="#FFD167"/>
    <rect opacity="0.5" x="264.5" y="109" width="34" height="6" rx="2" fill="#F8F9FB"/>
    <rect x="311" y="108" width="105" height="75" rx="4" fill="#F8F9FB"/>
    <g clip-path="url(#clip3_2934_3855)">
      <path d="M372.84 133.5H354.16C352.691 133.5 351.5 134.691 351.5 136.16V154.84C351.5 156.309 352.691 157.5 354.16 157.5H372.84C374.309 157.5 375.5 156.309 375.5 154.84V136.16C375.5 134.691 374.309 133.5 372.84 133.5Z" stroke="#E8E8E9" stroke-width="0.5" stroke-linecap="round" stroke-linejoin="round"/>
      <path d="M359.5 144.16C360.969 144.16 362.16 142.969 362.16 141.5C362.16 140.031 360.969 138.84 359.5 138.84C358.031 138.84 356.84 140.031 356.84 141.5C356.84 142.969 358.031 144.16 359.5 144.16Z" stroke="#E8E8E9" stroke-width="0.5" stroke-linecap="round" stroke-linejoin="round"/>
      <path d="M375.5 149.5L371.38 145.38C370.34 144.34 368.66 144.34 367.6 145.38L355.48 157.5" stroke="#E8E8E9" stroke-width="0.5" stroke-linecap="round" stroke-linejoin="round"/>
    </g>
    <g opacity="0.8">
      <rect x="311" y="210.656" width="105" height="5.25" rx="2" fill="#F8F9FB"/>
      <rect x="311" y="219.188" width="105" height="5.25" rx="2" fill="#F8F9FB"/>
      <rect x="311" y="227.719" width="105" height="5.25" rx="2" fill="#F8F9FB"/>
      <rect x="311" y="236.25" width="77.4375" height="5.25" rx="2" fill="#F8F9FB"/>
    </g>
    <g opacity="0.8">
      <rect x="311" y="189" width="105" height="6.5625" rx="2" fill="#F8F9FB"/>
      <rect x="311" y="198.844" width="51.8438" height="6.5625" rx="2" fill="#F8F9FB"/>
    </g>
    <path d="M419.072 119L372.928 119C372.415 119 372 118.478 372 117.834L372 106.027C372 105.398 372.397 104.882 372.898 104.861L419.043 103.001C419.566 102.979 420 103.508 420 104.166V117.834C420 118.478 419.585 119 419.072 119Z" fill="#FFD167"/>
    <rect opacity="0.5" x="379" y="109" width="34" height="6" rx="2" fill="#F8F9FB"/>
  </g>
  <defs>
    <clipPath id="clip0_2934_3855">
      <rect width="500" height="280" fill="white"/>
    </clipPath>
    <clipPath id="clip1_2934_3855">
      <rect width="25" height="25" fill="white" transform="translate(122 133)"/>
    </clipPath>
    <clipPath id="clip2_2934_3855">
      <rect width="25" height="25" fill="white" transform="translate(236.5 133)"/>
    </clipPath>
    <clipPath id="clip3_2934_3855">
      <rect width="25" height="25" fill="white" transform="translate(351 133)"/>
    </clipPath>
  </defs>
</svg>
