<svg viewBox="0 0 500 280" fill="none"
  xmlns="http://www.w3.org/2000/svg">
  <g clip-path="url(#clip0_2934_3925)">
    <rect width="500" height="280" fill="#FBFBFB"/>
    <rect x="53.5" y="-9.5" width="399" height="299" fill="white" stroke="#EBEBEB"/>
    <rect x="82" y="38" width="160" height="10" rx="2" fill="#F8F9FB"/>
    <rect x="82" y="53" width="79" height="10" rx="2" fill="#F8F9FB"/>
    <path d="M82.843 27L86.095 18.36H87.199L84.091 27H82.843ZM89.527 27L86.419 18.36H87.583L90.847 27H89.527ZM84.487 23.556H89.119V24.612H84.487V23.556ZM92.1123 27V20.88H93.3003V22.32H93.3603V27H92.1123ZM96.4563 27V23.064C96.4563 22.64 96.3483 22.324 96.1323 22.116C95.9243 21.908 95.6123 21.804 95.1963 21.804C94.8363 21.804 94.5163 21.884 94.2363 22.044C93.9643 22.204 93.7483 22.424 93.5883 22.704C93.4363 22.984 93.3603 23.316 93.3603 23.7L93.2043 22.236C93.4043 21.78 93.7123 21.42 94.1283 21.156C94.5443 20.892 95.0283 20.76 95.5803 20.76C96.2363 20.76 96.7523 20.944 97.1283 21.312C97.5043 21.68 97.6923 22.168 97.6923 22.776V27H96.4563ZM99.3662 27V20.88H100.614V27H99.3662ZM99.3062 19.68V18.276H100.686V19.68H99.3062ZM102.366 27V20.88H103.554V22.32H103.614V27H102.366ZM106.494 27V23.004C106.494 22.588 106.398 22.284 106.206 22.092C106.014 21.9 105.738 21.804 105.378 21.804C105.042 21.804 104.738 21.884 104.466 22.044C104.202 22.196 103.994 22.412 103.842 22.692C103.69 22.964 103.614 23.288 103.614 23.664L103.458 22.236C103.658 21.78 103.958 21.42 104.358 21.156C104.766 20.892 105.222 20.76 105.726 20.76C106.334 20.76 106.818 20.936 107.178 21.288C107.546 21.64 107.73 22.104 107.73 22.68V27H106.494ZM110.622 27V23.004C110.622 22.588 110.522 22.284 110.322 22.092C110.13 21.9 109.854 21.804 109.494 21.804C109.166 21.804 108.866 21.884 108.594 22.044C108.33 22.196 108.118 22.412 107.958 22.692C107.806 22.964 107.73 23.288 107.73 23.664L107.478 22.236C107.686 21.78 107.998 21.42 108.414 21.156C108.838 20.892 109.31 20.76 109.83 20.76C110.446 20.76 110.938 20.94 111.306 21.3C111.674 21.652 111.858 22.124 111.858 22.716V27H110.622ZM119.693 27C119.653 26.848 119.625 26.68 119.609 26.496C119.601 26.312 119.597 26.088 119.597 25.824H119.537V22.908C119.537 22.516 119.437 22.224 119.237 22.032C119.045 21.832 118.737 21.732 118.313 21.732C117.905 21.732 117.577 21.812 117.329 21.972C117.089 22.132 116.949 22.36 116.909 22.656H115.721C115.777 22.08 116.037 21.62 116.501 21.276C116.965 20.932 117.585 20.76 118.361 20.76C119.161 20.76 119.761 20.948 120.161 21.324C120.561 21.692 120.761 22.236 120.761 22.956V25.824C120.761 26.008 120.773 26.196 120.797 26.388C120.821 26.58 120.857 26.784 120.905 27H119.693ZM117.581 27.12C116.957 27.12 116.461 26.968 116.093 26.664C115.725 26.352 115.541 25.932 115.541 25.404C115.541 24.86 115.733 24.432 116.117 24.12C116.509 23.8 117.069 23.584 117.797 23.472L119.813 23.148V24.024L117.989 24.312C117.581 24.376 117.273 24.484 117.065 24.636C116.865 24.788 116.765 25.008 116.765 25.296C116.765 25.576 116.857 25.788 117.041 25.932C117.233 26.068 117.509 26.136 117.869 26.136C118.349 26.136 118.745 26.02 119.057 25.788C119.377 25.556 119.537 25.264 119.537 24.912L119.693 25.8C119.549 26.224 119.293 26.552 118.925 26.784C118.557 27.008 118.109 27.12 117.581 27.12ZM124.339 27.12C123.931 27.12 123.571 27.036 123.259 26.868C122.947 26.692 122.703 26.452 122.527 26.148C122.359 25.844 122.275 25.496 122.275 25.104V20.88H123.523V24.816C123.523 25.24 123.627 25.556 123.835 25.764C124.043 25.972 124.339 26.076 124.723 26.076C125.067 26.076 125.371 25.996 125.635 25.836C125.907 25.676 126.119 25.456 126.271 25.176C126.431 24.888 126.511 24.556 126.511 24.18L126.667 25.644C126.467 26.092 126.159 26.452 125.743 26.724C125.335 26.988 124.867 27.12 124.339 27.12ZM126.559 27V25.56H126.511V20.88H127.747V27H126.559ZM132.041 27.12C131.329 27.12 130.805 26.956 130.469 26.628C130.141 26.292 129.977 25.8 129.977 25.152V19.476L131.213 19.008V25.164C131.213 25.484 131.297 25.72 131.465 25.872C131.633 26.024 131.905 26.1 132.281 26.1C132.425 26.1 132.553 26.088 132.665 26.064C132.777 26.04 132.873 26.012 132.953 25.98V26.988C132.865 27.028 132.741 27.06 132.581 27.084C132.421 27.108 132.241 27.12 132.041 27.12ZM128.753 21.876V20.88H132.953V21.876H128.753ZM136.623 27.12C136.007 27.12 135.463 26.984 134.991 26.712C134.527 26.44 134.163 26.064 133.899 25.584C133.635 25.104 133.503 24.552 133.503 23.928C133.503 23.296 133.631 22.744 133.887 22.272C134.151 21.792 134.519 21.42 134.991 21.156C135.463 20.892 136.003 20.76 136.611 20.76C137.203 20.76 137.715 20.888 138.147 21.144C138.587 21.392 138.923 21.74 139.155 22.188C139.395 22.636 139.515 23.168 139.515 23.784C139.515 23.88 139.511 23.972 139.503 24.06C139.503 24.14 139.495 24.224 139.479 24.312H134.343V23.376H138.603L138.291 23.748C138.291 23.092 138.143 22.592 137.847 22.248C137.551 21.904 137.139 21.732 136.611 21.732C136.043 21.732 135.591 21.928 135.255 22.32C134.927 22.704 134.763 23.24 134.763 23.928C134.763 24.624 134.927 25.168 135.255 25.56C135.591 25.952 136.055 26.148 136.647 26.148C137.007 26.148 137.319 26.076 137.583 25.932C137.847 25.78 138.043 25.56 138.171 25.272H139.347C139.147 25.848 138.807 26.3 138.327 26.628C137.855 26.956 137.287 27.12 136.623 27.12ZM143.159 27V20.88H144.407V27H143.159ZM143.099 19.68V18.276H144.479V19.68H143.099ZM150.54 27V25.596L150.66 25.632C150.532 26.088 150.268 26.452 149.868 26.724C149.468 26.988 148.988 27.12 148.428 27.12C147.876 27.12 147.392 26.988 146.976 26.724C146.568 26.46 146.248 26.092 146.016 25.62C145.792 25.148 145.68 24.596 145.68 23.964C145.68 23.324 145.796 22.764 146.028 22.284C146.26 21.804 146.584 21.432 147 21.168C147.416 20.904 147.904 20.772 148.464 20.772C149.048 20.772 149.528 20.912 149.904 21.192C150.288 21.464 150.54 21.848 150.66 22.344L150.492 22.368V18.36H151.728V27H150.54ZM148.74 26.076C149.292 26.076 149.728 25.888 150.048 25.512C150.368 25.128 150.528 24.6 150.528 23.928C150.528 23.272 150.364 22.756 150.036 22.38C149.716 21.996 149.28 21.804 148.728 21.804C148.184 21.804 147.752 21.996 147.432 22.38C147.12 22.756 146.964 23.284 146.964 23.964C146.964 24.628 147.12 25.148 147.432 25.524C147.752 25.892 148.188 26.076 148.74 26.076ZM155.851 27V20.88H157.039V22.32H157.099V27H155.851ZM159.979 27V23.004C159.979 22.588 159.883 22.284 159.691 22.092C159.499 21.9 159.223 21.804 158.863 21.804C158.527 21.804 158.223 21.884 157.951 22.044C157.687 22.196 157.479 22.412 157.327 22.692C157.175 22.964 157.099 23.288 157.099 23.664L156.943 22.236C157.143 21.78 157.443 21.42 157.843 21.156C158.251 20.892 158.707 20.76 159.211 20.76C159.819 20.76 160.303 20.936 160.663 21.288C161.031 21.64 161.215 22.104 161.215 22.68V27H159.979ZM164.107 27V23.004C164.107 22.588 164.007 22.284 163.807 22.092C163.615 21.9 163.339 21.804 162.979 21.804C162.651 21.804 162.351 21.884 162.079 22.044C161.815 22.196 161.603 22.412 161.443 22.692C161.291 22.964 161.215 23.288 161.215 23.664L160.963 22.236C161.171 21.78 161.483 21.42 161.899 21.156C162.323 20.892 162.795 20.76 163.315 20.76C163.931 20.76 164.423 20.94 164.791 21.3C165.159 21.652 165.343 22.124 165.343 22.716V27H164.107ZM170.74 27C170.7 26.848 170.672 26.68 170.656 26.496C170.648 26.312 170.644 26.088 170.644 25.824H170.584V22.908C170.584 22.516 170.484 22.224 170.284 22.032C170.092 21.832 169.784 21.732 169.36 21.732C168.952 21.732 168.624 21.812 168.376 21.972C168.136 22.132 167.996 22.36 167.956 22.656H166.768C166.824 22.08 167.084 21.62 167.548 21.276C168.012 20.932 168.632 20.76 169.408 20.76C170.208 20.76 170.808 20.948 171.208 21.324C171.608 21.692 171.808 22.236 171.808 22.956V25.824C171.808 26.008 171.82 26.196 171.844 26.388C171.868 26.58 171.904 26.784 171.952 27H170.74ZM168.628 27.12C168.004 27.12 167.508 26.968 167.14 26.664C166.772 26.352 166.588 25.932 166.588 25.404C166.588 24.86 166.78 24.432 167.164 24.12C167.556 23.8 168.116 23.584 168.844 23.472L170.86 23.148V24.024L169.036 24.312C168.628 24.376 168.32 24.484 168.112 24.636C167.912 24.788 167.812 25.008 167.812 25.296C167.812 25.576 167.904 25.788 168.088 25.932C168.28 26.068 168.556 26.136 168.916 26.136C169.396 26.136 169.792 26.02 170.104 25.788C170.424 25.556 170.584 25.264 170.584 24.912L170.74 25.8C170.596 26.224 170.34 26.552 169.972 26.784C169.604 27.008 169.156 27.12 168.628 27.12ZM176.02 29.58C175.252 29.58 174.616 29.404 174.112 29.052C173.616 28.708 173.316 28.248 173.212 27.672H174.388C174.468 27.936 174.644 28.144 174.916 28.296C175.196 28.448 175.568 28.524 176.032 28.524C176.632 28.524 177.08 28.376 177.376 28.08C177.672 27.784 177.82 27.344 177.82 26.76V25.44L177.928 25.464C177.808 25.928 177.548 26.296 177.148 26.568C176.748 26.832 176.268 26.964 175.708 26.964C175.172 26.964 174.7 26.836 174.292 26.58C173.884 26.324 173.568 25.968 173.344 25.512C173.12 25.048 173.008 24.508 173.008 23.892C173.008 23.268 173.124 22.72 173.356 22.248C173.588 21.776 173.912 21.412 174.328 21.156C174.752 20.9 175.244 20.772 175.804 20.772C176.38 20.772 176.856 20.912 177.232 21.192C177.616 21.464 177.86 21.852 177.964 22.356L177.868 22.368V20.88H179.056V26.748C179.056 27.628 178.784 28.32 178.24 28.824C177.704 29.328 176.964 29.58 176.02 29.58ZM176.08 25.956C176.616 25.956 177.044 25.768 177.364 25.392C177.692 25.016 177.856 24.5 177.856 23.844C177.856 23.204 177.692 22.7 177.364 22.332C177.044 21.964 176.612 21.78 176.068 21.78C175.524 21.78 175.092 21.968 174.772 22.344C174.452 22.712 174.292 23.224 174.292 23.88C174.292 24.52 174.452 25.028 174.772 25.404C175.1 25.772 175.536 25.956 176.08 25.956ZM180.812 27V20.88H182V22.32H182.06V27H180.812ZM185.156 27V23.064C185.156 22.64 185.048 22.324 184.832 22.116C184.624 21.908 184.312 21.804 183.896 21.804C183.536 21.804 183.216 21.884 182.936 22.044C182.664 22.204 182.448 22.424 182.288 22.704C182.136 22.984 182.06 23.316 182.06 23.7L181.904 22.236C182.104 21.78 182.412 21.42 182.828 21.156C183.244 20.892 183.728 20.76 184.28 20.76C184.936 20.76 185.452 20.944 185.828 21.312C186.204 21.68 186.392 22.168 186.392 22.776V27H185.156ZM191.811 27C191.771 26.848 191.743 26.68 191.727 26.496C191.719 26.312 191.715 26.088 191.715 25.824H191.655V22.908C191.655 22.516 191.555 22.224 191.355 22.032C191.163 21.832 190.855 21.732 190.431 21.732C190.023 21.732 189.695 21.812 189.447 21.972C189.207 22.132 189.067 22.36 189.027 22.656H187.839C187.895 22.08 188.155 21.62 188.619 21.276C189.083 20.932 189.703 20.76 190.479 20.76C191.279 20.76 191.879 20.948 192.279 21.324C192.679 21.692 192.879 22.236 192.879 22.956V25.824C192.879 26.008 192.891 26.196 192.915 26.388C192.939 26.58 192.975 26.784 193.023 27H191.811ZM189.699 27.12C189.075 27.12 188.579 26.968 188.211 26.664C187.843 26.352 187.659 25.932 187.659 25.404C187.659 24.86 187.851 24.432 188.235 24.12C188.627 23.8 189.187 23.584 189.915 23.472L191.931 23.148V24.024L190.107 24.312C189.699 24.376 189.391 24.484 189.183 24.636C188.983 24.788 188.883 25.008 188.883 25.296C188.883 25.576 188.975 25.788 189.159 25.932C189.351 26.068 189.627 26.136 189.987 26.136C190.467 26.136 190.863 26.02 191.175 25.788C191.495 25.556 191.655 25.264 191.655 24.912L191.811 25.8C191.667 26.224 191.411 26.552 191.043 26.784C190.675 27.008 190.227 27.12 189.699 27.12ZM200.729 27C200.689 26.848 200.661 26.68 200.645 26.496C200.637 26.312 200.633 26.088 200.633 25.824H200.573V22.908C200.573 22.516 200.473 22.224 200.273 22.032C200.081 21.832 199.773 21.732 199.349 21.732C198.941 21.732 198.613 21.812 198.365 21.972C198.125 22.132 197.985 22.36 197.945 22.656H196.757C196.813 22.08 197.073 21.62 197.537 21.276C198.001 20.932 198.621 20.76 199.397 20.76C200.197 20.76 200.797 20.948 201.197 21.324C201.597 21.692 201.797 22.236 201.797 22.956V25.824C201.797 26.008 201.809 26.196 201.833 26.388C201.857 26.58 201.893 26.784 201.941 27H200.729ZM198.617 27.12C197.993 27.12 197.497 26.968 197.129 26.664C196.761 26.352 196.577 25.932 196.577 25.404C196.577 24.86 196.769 24.432 197.153 24.12C197.545 23.8 198.105 23.584 198.833 23.472L200.849 23.148V24.024L199.025 24.312C198.617 24.376 198.309 24.484 198.101 24.636C197.901 24.788 197.801 25.008 197.801 25.296C197.801 25.576 197.893 25.788 198.077 25.932C198.269 26.068 198.545 26.136 198.905 26.136C199.385 26.136 199.781 26.02 200.093 25.788C200.413 25.556 200.573 25.264 200.573 24.912L200.729 25.8C200.585 26.224 200.329 26.552 199.961 26.784C199.593 27.008 199.145 27.12 198.617 27.12ZM203.487 27V18.36H204.735V27H203.487ZM206.487 27V20.88H207.735V27H206.487ZM206.427 19.68V18.276H207.807V19.68H206.427ZM213.82 29.46V25.596L213.988 25.632C213.86 26.088 213.596 26.452 213.196 26.724C212.796 26.988 212.316 27.12 211.756 27.12C211.204 27.12 210.72 26.992 210.304 26.736C209.896 26.472 209.576 26.104 209.344 25.632C209.12 25.152 209.008 24.596 209.008 23.964C209.008 23.324 209.124 22.764 209.356 22.284C209.588 21.804 209.912 21.432 210.328 21.168C210.744 20.904 211.232 20.772 211.792 20.772C212.376 20.772 212.856 20.912 213.232 21.192C213.616 21.464 213.868 21.848 213.988 22.344L213.868 22.368V20.88H215.056V29.46H213.82ZM212.068 26.076C212.628 26.076 213.064 25.888 213.376 25.512C213.696 25.128 213.856 24.6 213.856 23.928C213.856 23.272 213.696 22.756 213.376 22.38C213.056 21.996 212.616 21.804 212.056 21.804C211.504 21.804 211.072 21.996 210.76 22.38C210.448 22.756 210.292 23.284 210.292 23.964C210.292 24.628 210.448 25.148 210.76 25.524C211.08 25.892 211.516 26.076 212.068 26.076ZM218.804 27.12C218.396 27.12 218.036 27.036 217.724 26.868C217.412 26.692 217.168 26.452 216.992 26.148C216.824 25.844 216.74 25.496 216.74 25.104V20.88H217.988V24.816C217.988 25.24 218.092 25.556 218.3 25.764C218.508 25.972 218.804 26.076 219.188 26.076C219.532 26.076 219.836 25.996 220.1 25.836C220.372 25.676 220.584 25.456 220.736 25.176C220.896 24.888 220.976 24.556 220.976 24.18L221.132 25.644C220.932 26.092 220.624 26.452 220.208 26.724C219.8 26.988 219.332 27.12 218.804 27.12ZM221.024 27V25.56H220.976V20.88H222.212V27H221.024ZM227.658 27C227.618 26.848 227.59 26.68 227.574 26.496C227.566 26.312 227.562 26.088 227.562 25.824H227.502V22.908C227.502 22.516 227.402 22.224 227.202 22.032C227.01 21.832 226.702 21.732 226.278 21.732C225.87 21.732 225.542 21.812 225.294 21.972C225.054 22.132 224.914 22.36 224.874 22.656H223.686C223.742 22.08 224.002 21.62 224.466 21.276C224.93 20.932 225.55 20.76 226.326 20.76C227.126 20.76 227.726 20.948 228.126 21.324C228.526 21.692 228.726 22.236 228.726 22.956V25.824C228.726 26.008 228.738 26.196 228.762 26.388C228.786 26.58 228.822 26.784 228.87 27H227.658ZM225.546 27.12C224.922 27.12 224.426 26.968 224.058 26.664C223.69 26.352 223.506 25.932 223.506 25.404C223.506 24.86 223.698 24.432 224.082 24.12C224.474 23.8 225.034 23.584 225.762 23.472L227.778 23.148V24.024L225.954 24.312C225.546 24.376 225.238 24.484 225.03 24.636C224.83 24.788 224.73 25.008 224.73 25.296C224.73 25.576 224.822 25.788 225.006 25.932C225.198 26.068 225.474 26.136 225.834 26.136C226.314 26.136 226.71 26.02 227.022 25.788C227.342 25.556 227.502 25.264 227.502 24.912L227.658 25.8C227.514 26.224 227.258 26.552 226.89 26.784C226.522 27.008 226.074 27.12 225.546 27.12Z" fill="#212121"/>
    <rect x="82" y="79" width="105" height="105" rx="4" fill="#F8F9FB"/>
    <g clip-path="url(#clip1_2934_3925)">
      <path d="M143.84 119.5H125.16C123.691 119.5 122.5 120.691 122.5 122.16V140.84C122.5 142.309 123.691 143.5 125.16 143.5H143.84C145.309 143.5 146.5 142.309 146.5 140.84V122.16C146.5 120.691 145.309 119.5 143.84 119.5Z" stroke="#E8E8E9" stroke-width="0.5" stroke-linecap="round" stroke-linejoin="round"/>
      <path d="M130.5 130.16C131.969 130.16 133.16 128.969 133.16 127.5C133.16 126.031 131.969 124.84 130.5 124.84C129.031 124.84 127.84 126.031 127.84 127.5C127.84 128.969 129.031 130.16 130.5 130.16Z" stroke="#E8E8E9" stroke-width="0.5" stroke-linecap="round" stroke-linejoin="round"/>
      <path d="M146.5 135.5L142.38 131.38C141.34 130.34 139.66 130.34 138.6 131.38L126.48 143.5" stroke="#E8E8E9" stroke-width="0.5" stroke-linecap="round" stroke-linejoin="round"/>
    </g>
    <path d="M188 185V79H82V185H188ZM89.3315 169.16C93.2755 170.357 96.3903 173.461 97.5891 177.394H89.3315V169.16ZM180.668 94.5451C176.727 93.3485 173.61 90.2425 172.411 86.3117H180.668V94.5451ZM180.668 102.776V177.391H105.844C104.346 169.024 97.7233 162.42 89.3337 160.927V86.3117H164.158C165.658 94.6793 172.279 101.283 180.668 102.776Z" fill="#7D6CA5"/>
    <g opacity="0.8">
      <rect x="82" y="211.656" width="105" height="5.25" rx="2" fill="#F8F9FB"/>
      <rect x="82" y="220.188" width="105" height="5.25" rx="2" fill="#F8F9FB"/>
      <rect x="82" y="228.719" width="105" height="5.25" rx="2" fill="#F8F9FB"/>
      <rect x="82" y="237.25" width="77.4375" height="5.25" rx="2" fill="#F8F9FB"/>
    </g>
    <g opacity="0.8">
      <rect x="82" y="190" width="105" height="6.5625" rx="2" fill="#F8F9FB"/>
      <rect x="82" y="199.844" width="51.8438" height="6.5625" rx="2" fill="#F8F9FB"/>
    </g>
    <rect x="82.5" y="250.5" width="59" height="15" rx="3.5" stroke="#7D6CA5"/>
    <rect x="89" y="257" width="34" height="2" rx="1" fill="#7D6CA5"/>
    <path d="M129.333 256.333H132.667M132.667 256.333V259.667M132.667 256.333L129.333 259.667" stroke="#1D1D1B" stroke-width="0.5" stroke-linecap="square" stroke-linejoin="round"/>
    <rect x="198.5" y="80" width="105" height="105" rx="4" fill="#F8F9FB"/>
    <g clip-path="url(#clip2_2934_3925)">
      <path d="M260.34 120.5H241.66C240.191 120.5 239 121.691 239 123.16V141.84C239 143.309 240.191 144.5 241.66 144.5H260.34C261.809 144.5 263 143.309 263 141.84V123.16C263 121.691 261.809 120.5 260.34 120.5Z" stroke="#E8E8E9" stroke-width="0.5" stroke-linecap="round" stroke-linejoin="round"/>
      <path d="M247 131.16C248.469 131.16 249.66 129.969 249.66 128.5C249.66 127.031 248.469 125.84 247 125.84C245.531 125.84 244.34 127.031 244.34 128.5C244.34 129.969 245.531 131.16 247 131.16Z" stroke="#E8E8E9" stroke-width="0.5" stroke-linecap="round" stroke-linejoin="round"/>
      <path d="M263 136.5L258.88 132.38C257.84 131.34 256.16 131.34 255.1 132.38L242.98 144.5" stroke="#E8E8E9" stroke-width="0.5" stroke-linecap="round" stroke-linejoin="round"/>
    </g>
    <path d="M198.5 185H303.5V79H198.5V185ZM213.942 86.3337C212.754 90.2777 209.669 93.3903 205.762 94.5913V86.3337H213.942ZM205.765 161.158V102.844C214.075 101.344 220.633 94.7233 222.119 86.3337H279.88C281.367 94.7233 287.925 101.344 296.235 102.844V161.156C287.923 162.654 281.367 169.277 279.88 177.666H222.119C220.633 169.275 214.075 162.654 205.765 161.156M205.765 169.409C209.671 170.61 212.754 173.724 213.944 177.666H205.765V169.409ZM288.056 177.668C289.243 173.724 292.329 170.61 296.235 169.411V177.668H288.056ZM296.235 94.5891C292.329 93.3903 289.246 90.2755 288.056 86.3315H296.235V94.5891Z" fill="#7D6CA5"/>
    <g opacity="0.8">
      <rect x="199.5" y="212.656" width="105" height="5.25" rx="2" fill="#F8F9FB"/>
      <rect x="199.5" y="221.188" width="105" height="5.25" rx="2" fill="#F8F9FB"/>
      <rect x="199.5" y="229.719" width="105" height="5.25" rx="2" fill="#F8F9FB"/>
      <rect x="199.5" y="238.25" width="77.4375" height="5.25" rx="2" fill="#F8F9FB"/>
    </g>
    <g opacity="0.8">
      <rect x="199.5" y="191" width="105" height="6.5625" rx="2" fill="#F8F9FB"/>
      <rect x="199.5" y="200.844" width="51.8438" height="6.5625" rx="2" fill="#F8F9FB"/>
    </g>
    <rect x="203" y="251.5" width="59" height="15" rx="3.5" stroke="#7D6CA5"/>
    <rect x="209.5" y="258" width="34" height="2" rx="1" fill="#7D6CA5"/>
    <path d="M249.833 257.333H253.167M253.167 257.333V260.667M253.167 257.333L249.833 260.667" stroke="#1D1D1B" stroke-width="0.5" stroke-linecap="square" stroke-linejoin="round"/>
    <rect x="315" y="79" width="105" height="105" rx="4" fill="#F8F9FB"/>
    <g clip-path="url(#clip3_2934_3925)">
      <path d="M376.84 119.5H358.16C356.691 119.5 355.5 120.691 355.5 122.16V140.84C355.5 142.309 356.691 143.5 358.16 143.5H376.84C378.309 143.5 379.5 142.309 379.5 140.84V122.16C379.5 120.691 378.309 119.5 376.84 119.5Z" stroke="#E8E8E9" stroke-width="0.5" stroke-linecap="round" stroke-linejoin="round"/>
      <path d="M363.5 130.16C364.969 130.16 366.16 128.969 366.16 127.5C366.16 126.031 364.969 124.84 363.5 124.84C362.031 124.84 360.84 126.031 360.84 127.5C360.84 128.969 362.031 130.16 363.5 130.16Z" stroke="#E8E8E9" stroke-width="0.5" stroke-linecap="round" stroke-linejoin="round"/>
      <path d="M379.5 135.5L375.38 131.38C374.34 130.34 372.66 130.34 371.6 131.38L359.48 143.5" stroke="#E8E8E9" stroke-width="0.5" stroke-linecap="round" stroke-linejoin="round"/>
    </g>
    <path d="M315 184H420V79H315V184ZM379.247 86.2645C377.714 91.3 373.031 94.9758 367.5 94.9758C361.969 94.9758 357.286 91.3 355.753 86.2645H379.247ZM387.424 176.735C385.732 167.264 377.451 160.047 367.5 160.047C357.549 160.047 349.268 167.266 347.576 176.735H322.84V86.2645H347.578C349.27 95.7363 357.549 102.953 367.502 102.953C377.455 102.953 385.732 95.7341 387.426 86.2645H412.162V176.735H387.426H387.424ZM355.753 176.735C357.286 171.7 361.969 168.024 367.5 168.024C373.031 168.024 377.714 171.7 379.247 176.735H355.753Z" fill="#7D6CA5"/>
    <g opacity="0.8">
      <rect x="315" y="211.656" width="105" height="5.25" rx="2" fill="#F8F9FB"/>
      <rect x="315" y="220.188" width="105" height="5.25" rx="2" fill="#F8F9FB"/>
      <rect x="315" y="228.719" width="105" height="5.25" rx="2" fill="#F8F9FB"/>
      <rect x="315" y="237.25" width="77.4375" height="5.25" rx="2" fill="#F8F9FB"/>
    </g>
    <g opacity="0.8">
      <rect x="315" y="190" width="105" height="6.5625" rx="2" fill="#F8F9FB"/>
      <rect x="315" y="199.844" width="51.8438" height="6.5625" rx="2" fill="#F8F9FB"/>
    </g>
    <rect x="315.5" y="250.5" width="59" height="15" rx="3.5" stroke="#7D6CA5"/>
    <rect x="322" y="257" width="34" height="2" rx="1" fill="#7D6CA5"/>
    <path d="M362.333 256.333H365.667M365.667 256.333V259.667M365.667 256.333L362.333 259.667" stroke="#1D1D1B" stroke-width="0.5" stroke-linecap="square" stroke-linejoin="round"/>
  </g>
  <defs>
    <clipPath id="clip0_2934_3925">
      <rect width="500" height="280" fill="white"/>
    </clipPath>
    <clipPath id="clip1_2934_3925">
      <rect width="25" height="25" fill="white" transform="translate(122 119)"/>
    </clipPath>
    <clipPath id="clip2_2934_3925">
      <rect width="25" height="25" fill="white" transform="translate(238.5 120)"/>
    </clipPath>
    <clipPath id="clip3_2934_3925">
      <rect width="25" height="25" fill="white" transform="translate(355 119)"/>
    </clipPath>
  </defs>
</svg>
