<svg viewBox="0 0 500 280" fill="none"
  xmlns="http://www.w3.org/2000/svg">
  <g clip-path="url(#clip0_2948_5444)">
    <rect width="500" height="280" fill="#FBFBFB"/>
    <rect x="53.5" y="-9.5" width="399" height="299" fill="white" stroke="#EBEBEB"/>
    <rect x="83" y="106" width="334" height="68" rx="8" fill="#F1F8EF"/>
    <rect x="83.25" y="106.25" width="333.5" height="67.5" rx="7.75" stroke="black" stroke-opacity="0.02" stroke-width="0.5"/>
    <rect x="104" y="133" width="111" height="7" rx="2" fill="#F8F9FB"/>
    <g clip-path="url(#clip1_2948_5444)">
      <path d="M95.3333 136.333C95.4765 136.524 95.6591 136.683 95.8688 136.797C96.0786 136.912 96.3105 136.98 96.5489 136.997C96.7872 137.014 97.0265 136.98 97.2504 136.896C97.4743 136.813 97.6777 136.682 97.8466 136.513L98.8466 135.513C99.1502 135.199 99.3182 134.778 99.3144 134.341C99.3106 133.904 99.1354 133.486 98.8263 133.177C98.5173 132.868 98.0993 132.692 97.6623 132.689C97.2253 132.685 96.8043 132.853 96.49 133.156L95.9166 133.726" stroke="#1D1D1B" stroke-width="0.5" stroke-linecap="round" stroke-linejoin="round"/>
      <path d="M96.6667 135.666C96.5235 135.475 96.3409 135.317 96.1312 135.202C95.9214 135.088 95.6895 135.019 95.4511 135.002C95.2127 134.985 94.9735 135.02 94.7496 135.103C94.5256 135.187 94.3223 135.317 94.1533 135.486L93.1533 136.486C92.8497 136.801 92.6818 137.222 92.6855 137.659C92.6893 138.096 92.8646 138.514 93.1736 138.823C93.4827 139.132 93.9007 139.307 94.3377 139.311C94.7747 139.315 95.1957 139.147 95.51 138.843L96.08 138.273" stroke="#1D1D1B" stroke-width="0.5" stroke-linecap="round" stroke-linejoin="round"/>
    </g>
    <rect x="104" y="145" width="111" height="7" rx="2" fill="#F8F9FB"/>
    <g clip-path="url(#clip2_2948_5444)">
      <path d="M95.3333 148.333C95.4765 148.524 95.6591 148.683 95.8688 148.797C96.0786 148.912 96.3105 148.98 96.5489 148.997C96.7872 149.014 97.0265 148.98 97.2504 148.896C97.4743 148.813 97.6777 148.682 97.8466 148.513L98.8466 147.513C99.1502 147.199 99.3182 146.778 99.3144 146.341C99.3106 145.904 99.1354 145.486 98.8263 145.177C98.5173 144.868 98.0993 144.692 97.6623 144.689C97.2253 144.685 96.8043 144.853 96.49 145.156L95.9166 145.726" stroke="#1D1D1B" stroke-width="0.5" stroke-linecap="round" stroke-linejoin="round"/>
      <path d="M96.6667 147.666C96.5235 147.475 96.3409 147.317 96.1312 147.202C95.9214 147.088 95.6895 147.019 95.4511 147.002C95.2127 146.985 94.9735 147.02 94.7496 147.103C94.5256 147.187 94.3223 147.317 94.1533 147.486L93.1533 148.486C92.8497 148.801 92.6818 149.222 92.6855 149.659C92.6893 150.096 92.8646 150.514 93.1736 150.823C93.4827 151.132 93.9007 151.307 94.3377 151.311C94.7747 151.315 95.1957 151.147 95.51 150.843L96.08 150.273" stroke="#1D1D1B" stroke-width="0.5" stroke-linecap="round" stroke-linejoin="round"/>
    </g>
    <rect x="104" y="157" width="111" height="7" rx="2" fill="#F8F9FB"/>
    <g clip-path="url(#clip3_2948_5444)">
      <path d="M95.3333 160.333C95.4765 160.524 95.6591 160.683 95.8688 160.797C96.0786 160.912 96.3105 160.98 96.5489 160.997C96.7872 161.014 97.0265 160.98 97.2504 160.896C97.4743 160.813 97.6777 160.682 97.8466 160.513L98.8466 159.513C99.1502 159.199 99.3182 158.778 99.3144 158.341C99.3106 157.904 99.1354 157.486 98.8263 157.177C98.5173 156.868 98.0993 156.692 97.6623 156.689C97.2253 156.685 96.8043 156.853 96.49 157.156L95.9166 157.726" stroke="#1D1D1B" stroke-width="0.5" stroke-linecap="round" stroke-linejoin="round"/>
      <path d="M96.6667 159.666C96.5235 159.475 96.3409 159.317 96.1312 159.202C95.9214 159.088 95.6895 159.019 95.4511 159.002C95.2127 158.985 94.9735 159.02 94.7496 159.103C94.5256 159.187 94.3223 159.317 94.1533 159.486L93.1533 160.486C92.8497 160.801 92.6818 161.222 92.6855 161.659C92.6893 162.096 92.8646 162.514 93.1736 162.823C93.4827 163.132 93.9007 163.307 94.3377 163.311C94.7747 163.315 95.1957 163.147 95.51 162.843L96.08 162.273" stroke="#1D1D1B" stroke-width="0.5" stroke-linecap="round" stroke-linejoin="round"/>
    </g>
    <rect x="92" y="116" width="197" height="8" rx="2" fill="#F8F9FB"/>
  </g>
  <defs>
    <clipPath id="clip0_2948_5444">
      <rect width="500" height="280" fill="white"/>
    </clipPath>
    <clipPath id="clip1_2948_5444">
      <rect width="8" height="8" fill="white" transform="translate(92 132)"/>
    </clipPath>
    <clipPath id="clip2_2948_5444">
      <rect width="8" height="8" fill="white" transform="translate(92 144)"/>
    </clipPath>
    <clipPath id="clip3_2948_5444">
      <rect width="8" height="8" fill="white" transform="translate(92 156)"/>
    </clipPath>
  </defs>
</svg>
