<svg viewBox="0 0 500 280" fill="none"
  xmlns="http://www.w3.org/2000/svg">
  <g clip-path="url(#clip0_2948_5507)">
    <rect width="500" height="280" fill="#FBFBFB"/>
    <rect x="53.5" y="-9.5" width="399" height="299" fill="white" stroke="#EBEBEB"/>
    <rect x="85" y="119" width="152.202" height="108.716" rx="4" fill="#F8F9FB"/>
    <g clip-path="url(#clip1_2948_5507)">
      <path d="M174.64 155.963H147.562C145.433 155.963 143.706 157.689 143.706 159.819V186.896C143.706 189.026 145.433 190.752 147.562 190.752H174.64C176.769 190.752 178.495 189.026 178.495 186.896V159.819C178.495 157.689 176.769 155.963 174.64 155.963Z" stroke="#E8E8E9" stroke-width="0.5" stroke-linecap="round" stroke-linejoin="round"/>
      <path d="M155.303 171.415C157.432 171.415 159.159 169.688 159.159 167.559C159.159 165.429 157.432 163.703 155.303 163.703C153.173 163.703 151.447 165.429 151.447 167.559C151.447 169.688 153.173 171.415 155.303 171.415Z" stroke="#E8E8E9" stroke-width="0.5" stroke-linecap="round" stroke-linejoin="round"/>
      <path d="M178.495 179.155L172.523 173.183C171.016 171.676 168.581 171.676 167.044 173.183L149.476 190.752" stroke="#E8E8E9" stroke-width="0.5" stroke-linecap="round" stroke-linejoin="round"/>
    </g>
    <rect x="262.798" y="119" width="152.202" height="108.716" rx="4" fill="#F8F9FB"/>
    <g clip-path="url(#clip2_2948_5507)">
      <path d="M352.438 155.963H325.36C323.231 155.963 321.505 157.689 321.505 159.819V186.896C321.505 189.026 323.231 190.752 325.36 190.752H352.438C354.567 190.752 356.294 189.026 356.294 186.896V159.819C356.294 157.689 354.567 155.963 352.438 155.963Z" stroke="#E8E8E9" stroke-width="0.5" stroke-linecap="round" stroke-linejoin="round"/>
      <path d="M333.101 171.415C335.23 171.415 336.957 169.688 336.957 167.559C336.957 165.429 335.23 163.703 333.101 163.703C330.971 163.703 329.245 165.429 329.245 167.559C329.245 169.688 330.971 171.415 333.101 171.415Z" stroke="#E8E8E9" stroke-width="0.5" stroke-linecap="round" stroke-linejoin="round"/>
      <path d="M356.294 179.155L350.321 173.183C348.814 171.676 346.379 171.676 344.842 173.183L327.274 190.752" stroke="#E8E8E9" stroke-width="0.5" stroke-linecap="round" stroke-linejoin="round"/>
    </g>
    <rect x="85" y="75" width="160" height="10" rx="2" fill="#F8F9FB"/>
    <rect x="85" y="90" width="79" height="10" rx="2" fill="#F8F9FB"/>
    <path d="M85.843 64L89.095 55.36H90.199L87.091 64H85.843ZM92.527 64L89.419 55.36H90.583L93.847 64H92.527ZM87.487 60.556H92.119V61.612H87.487V60.556ZM95.1123 64V57.88H96.3003V59.32H96.3603V64H95.1123ZM99.4563 64V60.064C99.4563 59.64 99.3483 59.324 99.1323 59.116C98.9243 58.908 98.6123 58.804 98.1963 58.804C97.8363 58.804 97.5163 58.884 97.2363 59.044C96.9643 59.204 96.7483 59.424 96.5883 59.704C96.4363 59.984 96.3603 60.316 96.3603 60.7L96.2043 59.236C96.4043 58.78 96.7123 58.42 97.1283 58.156C97.5443 57.892 98.0283 57.76 98.5803 57.76C99.2363 57.76 99.7523 57.944 100.128 58.312C100.504 58.68 100.692 59.168 100.692 59.776V64H99.4563ZM102.366 64V57.88H103.614V64H102.366ZM102.306 56.68V55.276H103.686V56.68H102.306ZM105.366 64V57.88H106.554V59.32H106.614V64H105.366ZM109.494 64V60.004C109.494 59.588 109.398 59.284 109.206 59.092C109.014 58.9 108.738 58.804 108.378 58.804C108.042 58.804 107.738 58.884 107.466 59.044C107.202 59.196 106.994 59.412 106.842 59.692C106.69 59.964 106.614 60.288 106.614 60.664L106.458 59.236C106.658 58.78 106.958 58.42 107.358 58.156C107.766 57.892 108.222 57.76 108.726 57.76C109.334 57.76 109.818 57.936 110.178 58.288C110.546 58.64 110.73 59.104 110.73 59.68V64H109.494ZM113.622 64V60.004C113.622 59.588 113.522 59.284 113.322 59.092C113.13 58.9 112.854 58.804 112.494 58.804C112.166 58.804 111.866 58.884 111.594 59.044C111.33 59.196 111.118 59.412 110.958 59.692C110.806 59.964 110.73 60.288 110.73 60.664L110.478 59.236C110.686 58.78 110.998 58.42 111.414 58.156C111.838 57.892 112.31 57.76 112.83 57.76C113.446 57.76 113.938 57.94 114.306 58.3C114.674 58.652 114.858 59.124 114.858 59.716V64H113.622ZM122.693 64C122.653 63.848 122.625 63.68 122.609 63.496C122.601 63.312 122.597 63.088 122.597 62.824H122.537V59.908C122.537 59.516 122.437 59.224 122.237 59.032C122.045 58.832 121.737 58.732 121.313 58.732C120.905 58.732 120.577 58.812 120.329 58.972C120.089 59.132 119.949 59.36 119.909 59.656H118.721C118.777 59.08 119.037 58.62 119.501 58.276C119.965 57.932 120.585 57.76 121.361 57.76C122.161 57.76 122.761 57.948 123.161 58.324C123.561 58.692 123.761 59.236 123.761 59.956V62.824C123.761 63.008 123.773 63.196 123.797 63.388C123.821 63.58 123.857 63.784 123.905 64H122.693ZM120.581 64.12C119.957 64.12 119.461 63.968 119.093 63.664C118.725 63.352 118.541 62.932 118.541 62.404C118.541 61.86 118.733 61.432 119.117 61.12C119.509 60.8 120.069 60.584 120.797 60.472L122.813 60.148V61.024L120.989 61.312C120.581 61.376 120.273 61.484 120.065 61.636C119.865 61.788 119.765 62.008 119.765 62.296C119.765 62.576 119.857 62.788 120.041 62.932C120.233 63.068 120.509 63.136 120.869 63.136C121.349 63.136 121.745 63.02 122.057 62.788C122.377 62.556 122.537 62.264 122.537 61.912L122.693 62.8C122.549 63.224 122.293 63.552 121.925 63.784C121.557 64.008 121.109 64.12 120.581 64.12ZM127.339 64.12C126.931 64.12 126.571 64.036 126.259 63.868C125.947 63.692 125.703 63.452 125.527 63.148C125.359 62.844 125.275 62.496 125.275 62.104V57.88H126.523V61.816C126.523 62.24 126.627 62.556 126.835 62.764C127.043 62.972 127.339 63.076 127.723 63.076C128.067 63.076 128.371 62.996 128.635 62.836C128.907 62.676 129.119 62.456 129.271 62.176C129.431 61.888 129.511 61.556 129.511 61.18L129.667 62.644C129.467 63.092 129.159 63.452 128.743 63.724C128.335 63.988 127.867 64.12 127.339 64.12ZM129.559 64V62.56H129.511V57.88H130.747V64H129.559ZM135.041 64.12C134.329 64.12 133.805 63.956 133.469 63.628C133.141 63.292 132.977 62.8 132.977 62.152V56.476L134.213 56.008V62.164C134.213 62.484 134.297 62.72 134.465 62.872C134.633 63.024 134.905 63.1 135.281 63.1C135.425 63.1 135.553 63.088 135.665 63.064C135.777 63.04 135.873 63.012 135.953 62.98V63.988C135.865 64.028 135.741 64.06 135.581 64.084C135.421 64.108 135.241 64.12 135.041 64.12ZM131.753 58.876V57.88H135.953V58.876H131.753ZM139.623 64.12C139.007 64.12 138.463 63.984 137.991 63.712C137.527 63.44 137.163 63.064 136.899 62.584C136.635 62.104 136.503 61.552 136.503 60.928C136.503 60.296 136.631 59.744 136.887 59.272C137.151 58.792 137.519 58.42 137.991 58.156C138.463 57.892 139.003 57.76 139.611 57.76C140.203 57.76 140.715 57.888 141.147 58.144C141.587 58.392 141.923 58.74 142.155 59.188C142.395 59.636 142.515 60.168 142.515 60.784C142.515 60.88 142.511 60.972 142.503 61.06C142.503 61.14 142.495 61.224 142.479 61.312H137.343V60.376H141.603L141.291 60.748C141.291 60.092 141.143 59.592 140.847 59.248C140.551 58.904 140.139 58.732 139.611 58.732C139.043 58.732 138.591 58.928 138.255 59.32C137.927 59.704 137.763 60.24 137.763 60.928C137.763 61.624 137.927 62.168 138.255 62.56C138.591 62.952 139.055 63.148 139.647 63.148C140.007 63.148 140.319 63.076 140.583 62.932C140.847 62.78 141.043 62.56 141.171 62.272H142.347C142.147 62.848 141.807 63.3 141.327 63.628C140.855 63.956 140.287 64.12 139.623 64.12ZM146.159 64V57.88H147.407V64H146.159ZM146.099 56.68V55.276H147.479V56.68H146.099ZM153.54 64V62.596L153.66 62.632C153.532 63.088 153.268 63.452 152.868 63.724C152.468 63.988 151.988 64.12 151.428 64.12C150.876 64.12 150.392 63.988 149.976 63.724C149.568 63.46 149.248 63.092 149.016 62.62C148.792 62.148 148.68 61.596 148.68 60.964C148.68 60.324 148.796 59.764 149.028 59.284C149.26 58.804 149.584 58.432 150 58.168C150.416 57.904 150.904 57.772 151.464 57.772C152.048 57.772 152.528 57.912 152.904 58.192C153.288 58.464 153.54 58.848 153.66 59.344L153.492 59.368V55.36H154.728V64H153.54ZM151.74 63.076C152.292 63.076 152.728 62.888 153.048 62.512C153.368 62.128 153.528 61.6 153.528 60.928C153.528 60.272 153.364 59.756 153.036 59.38C152.716 58.996 152.28 58.804 151.728 58.804C151.184 58.804 150.752 58.996 150.432 59.38C150.12 59.756 149.964 60.284 149.964 60.964C149.964 61.628 150.12 62.148 150.432 62.524C150.752 62.892 151.188 63.076 151.74 63.076ZM158.851 64V57.88H160.039V59.32H160.099V64H158.851ZM162.979 64V60.004C162.979 59.588 162.883 59.284 162.691 59.092C162.499 58.9 162.223 58.804 161.863 58.804C161.527 58.804 161.223 58.884 160.951 59.044C160.687 59.196 160.479 59.412 160.327 59.692C160.175 59.964 160.099 60.288 160.099 60.664L159.943 59.236C160.143 58.78 160.443 58.42 160.843 58.156C161.251 57.892 161.707 57.76 162.211 57.76C162.819 57.76 163.303 57.936 163.663 58.288C164.031 58.64 164.215 59.104 164.215 59.68V64H162.979ZM167.107 64V60.004C167.107 59.588 167.007 59.284 166.807 59.092C166.615 58.9 166.339 58.804 165.979 58.804C165.651 58.804 165.351 58.884 165.079 59.044C164.815 59.196 164.603 59.412 164.443 59.692C164.291 59.964 164.215 60.288 164.215 60.664L163.963 59.236C164.171 58.78 164.483 58.42 164.899 58.156C165.323 57.892 165.795 57.76 166.315 57.76C166.931 57.76 167.423 57.94 167.791 58.3C168.159 58.652 168.343 59.124 168.343 59.716V64H167.107ZM173.74 64C173.7 63.848 173.672 63.68 173.656 63.496C173.648 63.312 173.644 63.088 173.644 62.824H173.584V59.908C173.584 59.516 173.484 59.224 173.284 59.032C173.092 58.832 172.784 58.732 172.36 58.732C171.952 58.732 171.624 58.812 171.376 58.972C171.136 59.132 170.996 59.36 170.956 59.656H169.768C169.824 59.08 170.084 58.62 170.548 58.276C171.012 57.932 171.632 57.76 172.408 57.76C173.208 57.76 173.808 57.948 174.208 58.324C174.608 58.692 174.808 59.236 174.808 59.956V62.824C174.808 63.008 174.82 63.196 174.844 63.388C174.868 63.58 174.904 63.784 174.952 64H173.74ZM171.628 64.12C171.004 64.12 170.508 63.968 170.14 63.664C169.772 63.352 169.588 62.932 169.588 62.404C169.588 61.86 169.78 61.432 170.164 61.12C170.556 60.8 171.116 60.584 171.844 60.472L173.86 60.148V61.024L172.036 61.312C171.628 61.376 171.32 61.484 171.112 61.636C170.912 61.788 170.812 62.008 170.812 62.296C170.812 62.576 170.904 62.788 171.088 62.932C171.28 63.068 171.556 63.136 171.916 63.136C172.396 63.136 172.792 63.02 173.104 62.788C173.424 62.556 173.584 62.264 173.584 61.912L173.74 62.8C173.596 63.224 173.34 63.552 172.972 63.784C172.604 64.008 172.156 64.12 171.628 64.12ZM179.02 66.58C178.252 66.58 177.616 66.404 177.112 66.052C176.616 65.708 176.316 65.248 176.212 64.672H177.388C177.468 64.936 177.644 65.144 177.916 65.296C178.196 65.448 178.568 65.524 179.032 65.524C179.632 65.524 180.08 65.376 180.376 65.08C180.672 64.784 180.82 64.344 180.82 63.76V62.44L180.928 62.464C180.808 62.928 180.548 63.296 180.148 63.568C179.748 63.832 179.268 63.964 178.708 63.964C178.172 63.964 177.7 63.836 177.292 63.58C176.884 63.324 176.568 62.968 176.344 62.512C176.12 62.048 176.008 61.508 176.008 60.892C176.008 60.268 176.124 59.72 176.356 59.248C176.588 58.776 176.912 58.412 177.328 58.156C177.752 57.9 178.244 57.772 178.804 57.772C179.38 57.772 179.856 57.912 180.232 58.192C180.616 58.464 180.86 58.852 180.964 59.356L180.868 59.368V57.88H182.056V63.748C182.056 64.628 181.784 65.32 181.24 65.824C180.704 66.328 179.964 66.58 179.02 66.58ZM179.08 62.956C179.616 62.956 180.044 62.768 180.364 62.392C180.692 62.016 180.856 61.5 180.856 60.844C180.856 60.204 180.692 59.7 180.364 59.332C180.044 58.964 179.612 58.78 179.068 58.78C178.524 58.78 178.092 58.968 177.772 59.344C177.452 59.712 177.292 60.224 177.292 60.88C177.292 61.52 177.452 62.028 177.772 62.404C178.1 62.772 178.536 62.956 179.08 62.956ZM183.812 64V57.88H185V59.32H185.06V64H183.812ZM188.156 64V60.064C188.156 59.64 188.048 59.324 187.832 59.116C187.624 58.908 187.312 58.804 186.896 58.804C186.536 58.804 186.216 58.884 185.936 59.044C185.664 59.204 185.448 59.424 185.288 59.704C185.136 59.984 185.06 60.316 185.06 60.7L184.904 59.236C185.104 58.78 185.412 58.42 185.828 58.156C186.244 57.892 186.728 57.76 187.28 57.76C187.936 57.76 188.452 57.944 188.828 58.312C189.204 58.68 189.392 59.168 189.392 59.776V64H188.156ZM194.811 64C194.771 63.848 194.743 63.68 194.727 63.496C194.719 63.312 194.715 63.088 194.715 62.824H194.655V59.908C194.655 59.516 194.555 59.224 194.355 59.032C194.163 58.832 193.855 58.732 193.431 58.732C193.023 58.732 192.695 58.812 192.447 58.972C192.207 59.132 192.067 59.36 192.027 59.656H190.839C190.895 59.08 191.155 58.62 191.619 58.276C192.083 57.932 192.703 57.76 193.479 57.76C194.279 57.76 194.879 57.948 195.279 58.324C195.679 58.692 195.879 59.236 195.879 59.956V62.824C195.879 63.008 195.891 63.196 195.915 63.388C195.939 63.58 195.975 63.784 196.023 64H194.811ZM192.699 64.12C192.075 64.12 191.579 63.968 191.211 63.664C190.843 63.352 190.659 62.932 190.659 62.404C190.659 61.86 190.851 61.432 191.235 61.12C191.627 60.8 192.187 60.584 192.915 60.472L194.931 60.148V61.024L193.107 61.312C192.699 61.376 192.391 61.484 192.183 61.636C191.983 61.788 191.883 62.008 191.883 62.296C191.883 62.576 191.975 62.788 192.159 62.932C192.351 63.068 192.627 63.136 192.987 63.136C193.467 63.136 193.863 63.02 194.175 62.788C194.495 62.556 194.655 62.264 194.655 61.912L194.811 62.8C194.667 63.224 194.411 63.552 194.043 63.784C193.675 64.008 193.227 64.12 192.699 64.12ZM203.729 64C203.689 63.848 203.661 63.68 203.645 63.496C203.637 63.312 203.633 63.088 203.633 62.824H203.573V59.908C203.573 59.516 203.473 59.224 203.273 59.032C203.081 58.832 202.773 58.732 202.349 58.732C201.941 58.732 201.613 58.812 201.365 58.972C201.125 59.132 200.985 59.36 200.945 59.656H199.757C199.813 59.08 200.073 58.62 200.537 58.276C201.001 57.932 201.621 57.76 202.397 57.76C203.197 57.76 203.797 57.948 204.197 58.324C204.597 58.692 204.797 59.236 204.797 59.956V62.824C204.797 63.008 204.809 63.196 204.833 63.388C204.857 63.58 204.893 63.784 204.941 64H203.729ZM201.617 64.12C200.993 64.12 200.497 63.968 200.129 63.664C199.761 63.352 199.577 62.932 199.577 62.404C199.577 61.86 199.769 61.432 200.153 61.12C200.545 60.8 201.105 60.584 201.833 60.472L203.849 60.148V61.024L202.025 61.312C201.617 61.376 201.309 61.484 201.101 61.636C200.901 61.788 200.801 62.008 200.801 62.296C200.801 62.576 200.893 62.788 201.077 62.932C201.269 63.068 201.545 63.136 201.905 63.136C202.385 63.136 202.781 63.02 203.093 62.788C203.413 62.556 203.573 62.264 203.573 61.912L203.729 62.8C203.585 63.224 203.329 63.552 202.961 63.784C202.593 64.008 202.145 64.12 201.617 64.12ZM206.487 64V55.36H207.735V64H206.487ZM209.487 64V57.88H210.735V64H209.487ZM209.427 56.68V55.276H210.807V56.68H209.427ZM216.82 66.46V62.596L216.988 62.632C216.86 63.088 216.596 63.452 216.196 63.724C215.796 63.988 215.316 64.12 214.756 64.12C214.204 64.12 213.72 63.992 213.304 63.736C212.896 63.472 212.576 63.104 212.344 62.632C212.12 62.152 212.008 61.596 212.008 60.964C212.008 60.324 212.124 59.764 212.356 59.284C212.588 58.804 212.912 58.432 213.328 58.168C213.744 57.904 214.232 57.772 214.792 57.772C215.376 57.772 215.856 57.912 216.232 58.192C216.616 58.464 216.868 58.848 216.988 59.344L216.868 59.368V57.88H218.056V66.46H216.82ZM215.068 63.076C215.628 63.076 216.064 62.888 216.376 62.512C216.696 62.128 216.856 61.6 216.856 60.928C216.856 60.272 216.696 59.756 216.376 59.38C216.056 58.996 215.616 58.804 215.056 58.804C214.504 58.804 214.072 58.996 213.76 59.38C213.448 59.756 213.292 60.284 213.292 60.964C213.292 61.628 213.448 62.148 213.76 62.524C214.08 62.892 214.516 63.076 215.068 63.076ZM221.804 64.12C221.396 64.12 221.036 64.036 220.724 63.868C220.412 63.692 220.168 63.452 219.992 63.148C219.824 62.844 219.74 62.496 219.74 62.104V57.88H220.988V61.816C220.988 62.24 221.092 62.556 221.3 62.764C221.508 62.972 221.804 63.076 222.188 63.076C222.532 63.076 222.836 62.996 223.1 62.836C223.372 62.676 223.584 62.456 223.736 62.176C223.896 61.888 223.976 61.556 223.976 61.18L224.132 62.644C223.932 63.092 223.624 63.452 223.208 63.724C222.8 63.988 222.332 64.12 221.804 64.12ZM224.024 64V62.56H223.976V57.88H225.212V64H224.024ZM230.658 64C230.618 63.848 230.59 63.68 230.574 63.496C230.566 63.312 230.562 63.088 230.562 62.824H230.502V59.908C230.502 59.516 230.402 59.224 230.202 59.032C230.01 58.832 229.702 58.732 229.278 58.732C228.87 58.732 228.542 58.812 228.294 58.972C228.054 59.132 227.914 59.36 227.874 59.656H226.686C226.742 59.08 227.002 58.62 227.466 58.276C227.93 57.932 228.55 57.76 229.326 57.76C230.126 57.76 230.726 57.948 231.126 58.324C231.526 58.692 231.726 59.236 231.726 59.956V62.824C231.726 63.008 231.738 63.196 231.762 63.388C231.786 63.58 231.822 63.784 231.87 64H230.658ZM228.546 64.12C227.922 64.12 227.426 63.968 227.058 63.664C226.69 63.352 226.506 62.932 226.506 62.404C226.506 61.86 226.698 61.432 227.082 61.12C227.474 60.8 228.034 60.584 228.762 60.472L230.778 60.148V61.024L228.954 61.312C228.546 61.376 228.238 61.484 228.03 61.636C227.83 61.788 227.73 62.008 227.73 62.296C227.73 62.576 227.822 62.788 228.006 62.932C228.198 63.068 228.474 63.136 228.834 63.136C229.314 63.136 229.71 63.02 230.022 62.788C230.342 62.556 230.502 62.264 230.502 61.912L230.658 62.8C230.514 63.224 230.258 63.552 229.89 63.784C229.522 64.008 229.074 64.12 228.546 64.12Z" fill="#212121"/>
  </g>
  <defs>
    <clipPath id="clip0_2948_5507">
      <rect width="500" height="280" fill="white"/>
    </clipPath>
    <clipPath id="clip1_2948_5507">
      <rect width="36.2385" height="36.2385" fill="white" transform="translate(142.982 155.238)"/>
    </clipPath>
    <clipPath id="clip2_2948_5507">
      <rect width="36.2385" height="36.2385" fill="white" transform="translate(320.78 155.238)"/>
    </clipPath>
  </defs>
</svg>
