<svg viewBox="0 0 500 280" fill="none"
  xmlns="http://www.w3.org/2000/svg">
  <g clip-path="url(#clip0_2934_3386)">
    <rect width="500" height="280" fill="#FBFBFB"/>
    <rect x="53.5" y="-9.5" width="399" height="299" fill="white" stroke="#EBEBEB"/>
    <rect x="82" y="53" width="160" height="10" rx="2" fill="#F8F9FB"/>
    <rect x="82" y="68" width="79" height="10" rx="2" fill="#F8F9FB"/>
    <path d="M82.843 42L86.095 33.36H87.199L84.091 42H82.843ZM89.527 42L86.419 33.36H87.583L90.847 42H89.527ZM84.487 38.556H89.119V39.612H84.487V38.556ZM92.1123 42V35.88H93.3003V37.32H93.3603V42H92.1123ZM96.4563 42V38.064C96.4563 37.64 96.3483 37.324 96.1323 37.116C95.9243 36.908 95.6123 36.804 95.1963 36.804C94.8363 36.804 94.5163 36.884 94.2363 37.044C93.9643 37.204 93.7483 37.424 93.5883 37.704C93.4363 37.984 93.3603 38.316 93.3603 38.7L93.2043 37.236C93.4043 36.78 93.7123 36.42 94.1283 36.156C94.5443 35.892 95.0283 35.76 95.5803 35.76C96.2363 35.76 96.7523 35.944 97.1283 36.312C97.5043 36.68 97.6923 37.168 97.6923 37.776V42H96.4563ZM99.3662 42V35.88H100.614V42H99.3662ZM99.3062 34.68V33.276H100.686V34.68H99.3062ZM102.366 42V35.88H103.554V37.32H103.614V42H102.366ZM106.494 42V38.004C106.494 37.588 106.398 37.284 106.206 37.092C106.014 36.9 105.738 36.804 105.378 36.804C105.042 36.804 104.738 36.884 104.466 37.044C104.202 37.196 103.994 37.412 103.842 37.692C103.69 37.964 103.614 38.288 103.614 38.664L103.458 37.236C103.658 36.78 103.958 36.42 104.358 36.156C104.766 35.892 105.222 35.76 105.726 35.76C106.334 35.76 106.818 35.936 107.178 36.288C107.546 36.64 107.73 37.104 107.73 37.68V42H106.494ZM110.622 42V38.004C110.622 37.588 110.522 37.284 110.322 37.092C110.13 36.9 109.854 36.804 109.494 36.804C109.166 36.804 108.866 36.884 108.594 37.044C108.33 37.196 108.118 37.412 107.958 37.692C107.806 37.964 107.73 38.288 107.73 38.664L107.478 37.236C107.686 36.78 107.998 36.42 108.414 36.156C108.838 35.892 109.31 35.76 109.83 35.76C110.446 35.76 110.938 35.94 111.306 36.3C111.674 36.652 111.858 37.124 111.858 37.716V42H110.622ZM119.693 42C119.653 41.848 119.625 41.68 119.609 41.496C119.601 41.312 119.597 41.088 119.597 40.824H119.537V37.908C119.537 37.516 119.437 37.224 119.237 37.032C119.045 36.832 118.737 36.732 118.313 36.732C117.905 36.732 117.577 36.812 117.329 36.972C117.089 37.132 116.949 37.36 116.909 37.656H115.721C115.777 37.08 116.037 36.62 116.501 36.276C116.965 35.932 117.585 35.76 118.361 35.76C119.161 35.76 119.761 35.948 120.161 36.324C120.561 36.692 120.761 37.236 120.761 37.956V40.824C120.761 41.008 120.773 41.196 120.797 41.388C120.821 41.58 120.857 41.784 120.905 42H119.693ZM117.581 42.12C116.957 42.12 116.461 41.968 116.093 41.664C115.725 41.352 115.541 40.932 115.541 40.404C115.541 39.86 115.733 39.432 116.117 39.12C116.509 38.8 117.069 38.584 117.797 38.472L119.813 38.148V39.024L117.989 39.312C117.581 39.376 117.273 39.484 117.065 39.636C116.865 39.788 116.765 40.008 116.765 40.296C116.765 40.576 116.857 40.788 117.041 40.932C117.233 41.068 117.509 41.136 117.869 41.136C118.349 41.136 118.745 41.02 119.057 40.788C119.377 40.556 119.537 40.264 119.537 39.912L119.693 40.8C119.549 41.224 119.293 41.552 118.925 41.784C118.557 42.008 118.109 42.12 117.581 42.12ZM124.339 42.12C123.931 42.12 123.571 42.036 123.259 41.868C122.947 41.692 122.703 41.452 122.527 41.148C122.359 40.844 122.275 40.496 122.275 40.104V35.88H123.523V39.816C123.523 40.24 123.627 40.556 123.835 40.764C124.043 40.972 124.339 41.076 124.723 41.076C125.067 41.076 125.371 40.996 125.635 40.836C125.907 40.676 126.119 40.456 126.271 40.176C126.431 39.888 126.511 39.556 126.511 39.18L126.667 40.644C126.467 41.092 126.159 41.452 125.743 41.724C125.335 41.988 124.867 42.12 124.339 42.12ZM126.559 42V40.56H126.511V35.88H127.747V42H126.559ZM132.041 42.12C131.329 42.12 130.805 41.956 130.469 41.628C130.141 41.292 129.977 40.8 129.977 40.152V34.476L131.213 34.008V40.164C131.213 40.484 131.297 40.72 131.465 40.872C131.633 41.024 131.905 41.1 132.281 41.1C132.425 41.1 132.553 41.088 132.665 41.064C132.777 41.04 132.873 41.012 132.953 40.98V41.988C132.865 42.028 132.741 42.06 132.581 42.084C132.421 42.108 132.241 42.12 132.041 42.12ZM128.753 36.876V35.88H132.953V36.876H128.753ZM136.623 42.12C136.007 42.12 135.463 41.984 134.991 41.712C134.527 41.44 134.163 41.064 133.899 40.584C133.635 40.104 133.503 39.552 133.503 38.928C133.503 38.296 133.631 37.744 133.887 37.272C134.151 36.792 134.519 36.42 134.991 36.156C135.463 35.892 136.003 35.76 136.611 35.76C137.203 35.76 137.715 35.888 138.147 36.144C138.587 36.392 138.923 36.74 139.155 37.188C139.395 37.636 139.515 38.168 139.515 38.784C139.515 38.88 139.511 38.972 139.503 39.06C139.503 39.14 139.495 39.224 139.479 39.312H134.343V38.376H138.603L138.291 38.748C138.291 38.092 138.143 37.592 137.847 37.248C137.551 36.904 137.139 36.732 136.611 36.732C136.043 36.732 135.591 36.928 135.255 37.32C134.927 37.704 134.763 38.24 134.763 38.928C134.763 39.624 134.927 40.168 135.255 40.56C135.591 40.952 136.055 41.148 136.647 41.148C137.007 41.148 137.319 41.076 137.583 40.932C137.847 40.78 138.043 40.56 138.171 40.272H139.347C139.147 40.848 138.807 41.3 138.327 41.628C137.855 41.956 137.287 42.12 136.623 42.12ZM143.159 42V35.88H144.407V42H143.159ZM143.099 34.68V33.276H144.479V34.68H143.099ZM150.54 42V40.596L150.66 40.632C150.532 41.088 150.268 41.452 149.868 41.724C149.468 41.988 148.988 42.12 148.428 42.12C147.876 42.12 147.392 41.988 146.976 41.724C146.568 41.46 146.248 41.092 146.016 40.62C145.792 40.148 145.68 39.596 145.68 38.964C145.68 38.324 145.796 37.764 146.028 37.284C146.26 36.804 146.584 36.432 147 36.168C147.416 35.904 147.904 35.772 148.464 35.772C149.048 35.772 149.528 35.912 149.904 36.192C150.288 36.464 150.54 36.848 150.66 37.344L150.492 37.368V33.36H151.728V42H150.54ZM148.74 41.076C149.292 41.076 149.728 40.888 150.048 40.512C150.368 40.128 150.528 39.6 150.528 38.928C150.528 38.272 150.364 37.756 150.036 37.38C149.716 36.996 149.28 36.804 148.728 36.804C148.184 36.804 147.752 36.996 147.432 37.38C147.12 37.756 146.964 38.284 146.964 38.964C146.964 39.628 147.12 40.148 147.432 40.524C147.752 40.892 148.188 41.076 148.74 41.076ZM155.851 42V35.88H157.039V37.32H157.099V42H155.851ZM159.979 42V38.004C159.979 37.588 159.883 37.284 159.691 37.092C159.499 36.9 159.223 36.804 158.863 36.804C158.527 36.804 158.223 36.884 157.951 37.044C157.687 37.196 157.479 37.412 157.327 37.692C157.175 37.964 157.099 38.288 157.099 38.664L156.943 37.236C157.143 36.78 157.443 36.42 157.843 36.156C158.251 35.892 158.707 35.76 159.211 35.76C159.819 35.76 160.303 35.936 160.663 36.288C161.031 36.64 161.215 37.104 161.215 37.68V42H159.979ZM164.107 42V38.004C164.107 37.588 164.007 37.284 163.807 37.092C163.615 36.9 163.339 36.804 162.979 36.804C162.651 36.804 162.351 36.884 162.079 37.044C161.815 37.196 161.603 37.412 161.443 37.692C161.291 37.964 161.215 38.288 161.215 38.664L160.963 37.236C161.171 36.78 161.483 36.42 161.899 36.156C162.323 35.892 162.795 35.76 163.315 35.76C163.931 35.76 164.423 35.94 164.791 36.3C165.159 36.652 165.343 37.124 165.343 37.716V42H164.107ZM170.74 42C170.7 41.848 170.672 41.68 170.656 41.496C170.648 41.312 170.644 41.088 170.644 40.824H170.584V37.908C170.584 37.516 170.484 37.224 170.284 37.032C170.092 36.832 169.784 36.732 169.36 36.732C168.952 36.732 168.624 36.812 168.376 36.972C168.136 37.132 167.996 37.36 167.956 37.656H166.768C166.824 37.08 167.084 36.62 167.548 36.276C168.012 35.932 168.632 35.76 169.408 35.76C170.208 35.76 170.808 35.948 171.208 36.324C171.608 36.692 171.808 37.236 171.808 37.956V40.824C171.808 41.008 171.82 41.196 171.844 41.388C171.868 41.58 171.904 41.784 171.952 42H170.74ZM168.628 42.12C168.004 42.12 167.508 41.968 167.14 41.664C166.772 41.352 166.588 40.932 166.588 40.404C166.588 39.86 166.78 39.432 167.164 39.12C167.556 38.8 168.116 38.584 168.844 38.472L170.86 38.148V39.024L169.036 39.312C168.628 39.376 168.32 39.484 168.112 39.636C167.912 39.788 167.812 40.008 167.812 40.296C167.812 40.576 167.904 40.788 168.088 40.932C168.28 41.068 168.556 41.136 168.916 41.136C169.396 41.136 169.792 41.02 170.104 40.788C170.424 40.556 170.584 40.264 170.584 39.912L170.74 40.8C170.596 41.224 170.34 41.552 169.972 41.784C169.604 42.008 169.156 42.12 168.628 42.12ZM176.02 44.58C175.252 44.58 174.616 44.404 174.112 44.052C173.616 43.708 173.316 43.248 173.212 42.672H174.388C174.468 42.936 174.644 43.144 174.916 43.296C175.196 43.448 175.568 43.524 176.032 43.524C176.632 43.524 177.08 43.376 177.376 43.08C177.672 42.784 177.82 42.344 177.82 41.76V40.44L177.928 40.464C177.808 40.928 177.548 41.296 177.148 41.568C176.748 41.832 176.268 41.964 175.708 41.964C175.172 41.964 174.7 41.836 174.292 41.58C173.884 41.324 173.568 40.968 173.344 40.512C173.12 40.048 173.008 39.508 173.008 38.892C173.008 38.268 173.124 37.72 173.356 37.248C173.588 36.776 173.912 36.412 174.328 36.156C174.752 35.9 175.244 35.772 175.804 35.772C176.38 35.772 176.856 35.912 177.232 36.192C177.616 36.464 177.86 36.852 177.964 37.356L177.868 37.368V35.88H179.056V41.748C179.056 42.628 178.784 43.32 178.24 43.824C177.704 44.328 176.964 44.58 176.02 44.58ZM176.08 40.956C176.616 40.956 177.044 40.768 177.364 40.392C177.692 40.016 177.856 39.5 177.856 38.844C177.856 38.204 177.692 37.7 177.364 37.332C177.044 36.964 176.612 36.78 176.068 36.78C175.524 36.78 175.092 36.968 174.772 37.344C174.452 37.712 174.292 38.224 174.292 38.88C174.292 39.52 174.452 40.028 174.772 40.404C175.1 40.772 175.536 40.956 176.08 40.956ZM180.812 42V35.88H182V37.32H182.06V42H180.812ZM185.156 42V38.064C185.156 37.64 185.048 37.324 184.832 37.116C184.624 36.908 184.312 36.804 183.896 36.804C183.536 36.804 183.216 36.884 182.936 37.044C182.664 37.204 182.448 37.424 182.288 37.704C182.136 37.984 182.06 38.316 182.06 38.7L181.904 37.236C182.104 36.78 182.412 36.42 182.828 36.156C183.244 35.892 183.728 35.76 184.28 35.76C184.936 35.76 185.452 35.944 185.828 36.312C186.204 36.68 186.392 37.168 186.392 37.776V42H185.156ZM191.811 42C191.771 41.848 191.743 41.68 191.727 41.496C191.719 41.312 191.715 41.088 191.715 40.824H191.655V37.908C191.655 37.516 191.555 37.224 191.355 37.032C191.163 36.832 190.855 36.732 190.431 36.732C190.023 36.732 189.695 36.812 189.447 36.972C189.207 37.132 189.067 37.36 189.027 37.656H187.839C187.895 37.08 188.155 36.62 188.619 36.276C189.083 35.932 189.703 35.76 190.479 35.76C191.279 35.76 191.879 35.948 192.279 36.324C192.679 36.692 192.879 37.236 192.879 37.956V40.824C192.879 41.008 192.891 41.196 192.915 41.388C192.939 41.58 192.975 41.784 193.023 42H191.811ZM189.699 42.12C189.075 42.12 188.579 41.968 188.211 41.664C187.843 41.352 187.659 40.932 187.659 40.404C187.659 39.86 187.851 39.432 188.235 39.12C188.627 38.8 189.187 38.584 189.915 38.472L191.931 38.148V39.024L190.107 39.312C189.699 39.376 189.391 39.484 189.183 39.636C188.983 39.788 188.883 40.008 188.883 40.296C188.883 40.576 188.975 40.788 189.159 40.932C189.351 41.068 189.627 41.136 189.987 41.136C190.467 41.136 190.863 41.02 191.175 40.788C191.495 40.556 191.655 40.264 191.655 39.912L191.811 40.8C191.667 41.224 191.411 41.552 191.043 41.784C190.675 42.008 190.227 42.12 189.699 42.12ZM200.729 42C200.689 41.848 200.661 41.68 200.645 41.496C200.637 41.312 200.633 41.088 200.633 40.824H200.573V37.908C200.573 37.516 200.473 37.224 200.273 37.032C200.081 36.832 199.773 36.732 199.349 36.732C198.941 36.732 198.613 36.812 198.365 36.972C198.125 37.132 197.985 37.36 197.945 37.656H196.757C196.813 37.08 197.073 36.62 197.537 36.276C198.001 35.932 198.621 35.76 199.397 35.76C200.197 35.76 200.797 35.948 201.197 36.324C201.597 36.692 201.797 37.236 201.797 37.956V40.824C201.797 41.008 201.809 41.196 201.833 41.388C201.857 41.58 201.893 41.784 201.941 42H200.729ZM198.617 42.12C197.993 42.12 197.497 41.968 197.129 41.664C196.761 41.352 196.577 40.932 196.577 40.404C196.577 39.86 196.769 39.432 197.153 39.12C197.545 38.8 198.105 38.584 198.833 38.472L200.849 38.148V39.024L199.025 39.312C198.617 39.376 198.309 39.484 198.101 39.636C197.901 39.788 197.801 40.008 197.801 40.296C197.801 40.576 197.893 40.788 198.077 40.932C198.269 41.068 198.545 41.136 198.905 41.136C199.385 41.136 199.781 41.02 200.093 40.788C200.413 40.556 200.573 40.264 200.573 39.912L200.729 40.8C200.585 41.224 200.329 41.552 199.961 41.784C199.593 42.008 199.145 42.12 198.617 42.12ZM203.487 42V33.36H204.735V42H203.487ZM206.487 42V35.88H207.735V42H206.487ZM206.427 34.68V33.276H207.807V34.68H206.427ZM213.82 44.46V40.596L213.988 40.632C213.86 41.088 213.596 41.452 213.196 41.724C212.796 41.988 212.316 42.12 211.756 42.12C211.204 42.12 210.72 41.992 210.304 41.736C209.896 41.472 209.576 41.104 209.344 40.632C209.12 40.152 209.008 39.596 209.008 38.964C209.008 38.324 209.124 37.764 209.356 37.284C209.588 36.804 209.912 36.432 210.328 36.168C210.744 35.904 211.232 35.772 211.792 35.772C212.376 35.772 212.856 35.912 213.232 36.192C213.616 36.464 213.868 36.848 213.988 37.344L213.868 37.368V35.88H215.056V44.46H213.82ZM212.068 41.076C212.628 41.076 213.064 40.888 213.376 40.512C213.696 40.128 213.856 39.6 213.856 38.928C213.856 38.272 213.696 37.756 213.376 37.38C213.056 36.996 212.616 36.804 212.056 36.804C211.504 36.804 211.072 36.996 210.76 37.38C210.448 37.756 210.292 38.284 210.292 38.964C210.292 39.628 210.448 40.148 210.76 40.524C211.08 40.892 211.516 41.076 212.068 41.076ZM218.804 42.12C218.396 42.12 218.036 42.036 217.724 41.868C217.412 41.692 217.168 41.452 216.992 41.148C216.824 40.844 216.74 40.496 216.74 40.104V35.88H217.988V39.816C217.988 40.24 218.092 40.556 218.3 40.764C218.508 40.972 218.804 41.076 219.188 41.076C219.532 41.076 219.836 40.996 220.1 40.836C220.372 40.676 220.584 40.456 220.736 40.176C220.896 39.888 220.976 39.556 220.976 39.18L221.132 40.644C220.932 41.092 220.624 41.452 220.208 41.724C219.8 41.988 219.332 42.12 218.804 42.12ZM221.024 42V40.56H220.976V35.88H222.212V42H221.024ZM227.658 42C227.618 41.848 227.59 41.68 227.574 41.496C227.566 41.312 227.562 41.088 227.562 40.824H227.502V37.908C227.502 37.516 227.402 37.224 227.202 37.032C227.01 36.832 226.702 36.732 226.278 36.732C225.87 36.732 225.542 36.812 225.294 36.972C225.054 37.132 224.914 37.36 224.874 37.656H223.686C223.742 37.08 224.002 36.62 224.466 36.276C224.93 35.932 225.55 35.76 226.326 35.76C227.126 35.76 227.726 35.948 228.126 36.324C228.526 36.692 228.726 37.236 228.726 37.956V40.824C228.726 41.008 228.738 41.196 228.762 41.388C228.786 41.58 228.822 41.784 228.87 42H227.658ZM225.546 42.12C224.922 42.12 224.426 41.968 224.058 41.664C223.69 41.352 223.506 40.932 223.506 40.404C223.506 39.86 223.698 39.432 224.082 39.12C224.474 38.8 225.034 38.584 225.762 38.472L227.778 38.148V39.024L225.954 39.312C225.546 39.376 225.238 39.484 225.03 39.636C224.83 39.788 224.73 40.008 224.73 40.296C224.73 40.576 224.822 40.788 225.006 40.932C225.198 41.068 225.474 41.136 225.834 41.136C226.314 41.136 226.71 41.02 227.022 40.788C227.342 40.556 227.502 40.264 227.502 39.912L227.658 40.8C227.514 41.224 227.258 41.552 226.89 41.784C226.522 42.008 226.074 42.12 225.546 42.12Z" fill="#212121"/>
    <rect x="82" y="94" width="105" height="75" rx="4" fill="#F8F9FB"/>
    <path d="M142.487 126.487C143.149 126.487 143.783 126.224 144.251 125.756C144.719 125.288 144.982 124.653 144.982 123.991C144.982 123.329 144.719 122.695 144.251 122.227C143.783 121.759 143.149 121.496 142.487 121.496C142.487 120.834 142.224 120.199 141.756 119.731C141.288 119.263 140.653 119 139.991 119C139.329 119 138.694 119.263 138.226 119.731C137.758 120.199 137.496 120.834 137.496 121.496C137.496 120.834 137.233 120.199 136.765 119.731C136.297 119.263 135.662 119 135 119C134.338 119 133.703 119.263 133.235 119.731C132.767 120.199 132.504 120.834 132.504 121.496C132.504 120.834 132.241 120.199 131.773 119.731C131.305 119.263 130.671 119 130.009 119C129.347 119 128.712 119.263 128.244 119.731C127.776 120.199 127.513 120.834 127.513 121.496C126.851 121.496 126.216 121.759 125.748 122.227C125.28 122.695 125.017 123.329 125.017 123.991C125.017 124.653 125.28 125.288 125.748 125.756C126.216 126.224 126.851 126.487 127.513 126.487" stroke="#E8E8E9" stroke-width="0.5" stroke-linecap="round" stroke-linejoin="round"/>
    <path d="M132.504 143.956L131.256 126.487" stroke="#E8E8E9" stroke-width="0.5" stroke-linecap="round" stroke-linejoin="round"/>
    <path d="M137.496 143.956L138.743 126.487" stroke="#E8E8E9" stroke-width="0.5" stroke-linecap="round" stroke-linejoin="round"/>
    <path d="M144.983 126.487C145.606 126.487 146.106 126.986 145.981 127.735L142.736 142.708C142.612 143.332 141.863 143.956 141.239 143.956H128.761C128.012 143.956 127.388 143.457 127.264 142.708L124.019 127.735C123.894 126.986 124.394 126.487 125.017 126.487H144.983Z" stroke="#E8E8E9" stroke-width="0.5" stroke-linecap="round" stroke-linejoin="round"/>
    <g opacity="0.8">
      <rect x="82" y="196.656" width="105" height="5.25" rx="2" fill="#F8F9FB"/>
      <rect x="82" y="205.188" width="105" height="5.25" rx="2" fill="#F8F9FB"/>
      <rect x="82" y="213.719" width="105" height="5.25" rx="2" fill="#F8F9FB"/>
      <rect x="82" y="222.25" width="77.4375" height="5.25" rx="2" fill="#F8F9FB"/>
    </g>
    <g opacity="0.8">
      <rect x="82" y="175" width="105" height="6.5625" rx="2" fill="#F8F9FB"/>
      <rect x="82" y="184.844" width="51.8438" height="6.5625" rx="2" fill="#F8F9FB"/>
    </g>
    <rect x="82.5" y="235.5" width="59" height="15" rx="3.5" stroke="#E5D2B9"/>
    <rect x="89" y="242" width="34" height="2" rx="1" fill="#E5D2B9"/>
    <path d="M129.333 241.333H132.667M132.667 241.333V244.667M132.667 241.333L129.333 244.667" stroke="#1D1D1B" stroke-width="0.5" stroke-linecap="square" stroke-linejoin="round"/>
    <rect x="198.5" y="94" width="105" height="75" rx="4" fill="#F8F9FB"/>
    <path d="M258.487 126.487C259.149 126.487 259.783 126.224 260.251 125.756C260.719 125.288 260.982 124.653 260.982 123.991C260.982 123.329 260.719 122.695 260.251 122.227C259.783 121.759 259.149 121.496 258.487 121.496C258.487 120.834 258.224 120.199 257.756 119.731C257.288 119.263 256.653 119 255.991 119C255.329 119 254.694 119.263 254.226 119.731C253.758 120.199 253.496 120.834 253.496 121.496C253.496 120.834 253.233 120.199 252.765 119.731C252.297 119.263 251.662 119 251 119C250.338 119 249.703 119.263 249.235 119.731C248.767 120.199 248.504 120.834 248.504 121.496C248.504 120.834 248.241 120.199 247.773 119.731C247.305 119.263 246.671 119 246.009 119C245.347 119 244.712 119.263 244.244 119.731C243.776 120.199 243.513 120.834 243.513 121.496C242.851 121.496 242.216 121.759 241.748 122.227C241.28 122.695 241.017 123.329 241.017 123.991C241.017 124.653 241.28 125.288 241.748 125.756C242.216 126.224 242.851 126.487 243.513 126.487" stroke="#E8E8E9" stroke-width="0.5" stroke-linecap="round" stroke-linejoin="round"/>
    <path d="M248.504 143.956L247.256 126.487" stroke="#E8E8E9" stroke-width="0.5" stroke-linecap="round" stroke-linejoin="round"/>
    <path d="M253.496 143.956L254.743 126.487" stroke="#E8E8E9" stroke-width="0.5" stroke-linecap="round" stroke-linejoin="round"/>
    <path d="M260.983 126.487C261.606 126.487 262.106 126.986 261.981 127.735L258.736 142.708C258.612 143.332 257.863 143.956 257.239 143.956H244.761C244.012 143.956 243.388 143.457 243.264 142.708L240.019 127.735C239.894 126.986 240.394 126.487 241.017 126.487H260.983Z" stroke="#E8E8E9" stroke-width="0.5" stroke-linecap="round" stroke-linejoin="round"/>
    <g opacity="0.8">
      <rect x="198.5" y="196.656" width="105" height="5.25" rx="2" fill="#F8F9FB"/>
      <rect x="198.5" y="205.188" width="105" height="5.25" rx="2" fill="#F8F9FB"/>
      <rect x="198.5" y="213.719" width="105" height="5.25" rx="2" fill="#F8F9FB"/>
      <rect x="198.5" y="222.25" width="77.4375" height="5.25" rx="2" fill="#F8F9FB"/>
    </g>
    <g opacity="0.8">
      <rect x="198.5" y="175" width="105" height="6.5625" rx="2" fill="#F8F9FB"/>
      <rect x="198.5" y="184.844" width="51.8438" height="6.5625" rx="2" fill="#F8F9FB"/>
    </g>
    <rect x="199" y="235.5" width="59" height="15" rx="3.5" stroke="#E5D2B9"/>
    <rect x="205.5" y="242" width="34" height="2" rx="1" fill="#E5D2B9"/>
    <path d="M245.833 241.333H249.167M249.167 241.333V244.667M249.167 241.333L245.833 244.667" stroke="#1D1D1B" stroke-width="0.5" stroke-linecap="square" stroke-linejoin="round"/>
    <rect x="315" y="94" width="105" height="75" rx="4" fill="#F8F9FB"/>
    <path d="M375.487 126.487C376.149 126.487 376.783 126.224 377.251 125.756C377.719 125.288 377.982 124.653 377.982 123.991C377.982 123.329 377.719 122.695 377.251 122.227C376.783 121.759 376.149 121.496 375.487 121.496C375.487 120.834 375.224 120.199 374.756 119.731C374.288 119.263 373.653 119 372.991 119C372.329 119 371.694 119.263 371.226 119.731C370.758 120.199 370.496 120.834 370.496 121.496C370.496 120.834 370.233 120.199 369.765 119.731C369.297 119.263 368.662 119 368 119C367.338 119 366.703 119.263 366.235 119.731C365.767 120.199 365.504 120.834 365.504 121.496C365.504 120.834 365.241 120.199 364.773 119.731C364.305 119.263 363.671 119 363.009 119C362.347 119 361.712 119.263 361.244 119.731C360.776 120.199 360.513 120.834 360.513 121.496C359.851 121.496 359.216 121.759 358.748 122.227C358.28 122.695 358.017 123.329 358.017 123.991C358.017 124.653 358.28 125.288 358.748 125.756C359.216 126.224 359.851 126.487 360.513 126.487" stroke="#E8E8E9" stroke-width="0.5" stroke-linecap="round" stroke-linejoin="round"/>
    <path d="M365.504 143.956L364.256 126.487" stroke="#E8E8E9" stroke-width="0.5" stroke-linecap="round" stroke-linejoin="round"/>
    <path d="M370.496 143.956L371.743 126.487" stroke="#E8E8E9" stroke-width="0.5" stroke-linecap="round" stroke-linejoin="round"/>
    <path d="M377.983 126.487C378.606 126.487 379.106 126.986 378.981 127.735L375.736 142.708C375.612 143.332 374.863 143.956 374.239 143.956H361.761C361.012 143.956 360.388 143.457 360.264 142.708L357.019 127.735C356.894 126.986 357.394 126.487 358.017 126.487H377.983Z" stroke="#E8E8E9" stroke-width="0.5" stroke-linecap="round" stroke-linejoin="round"/>
    <g opacity="0.8">
      <rect x="315" y="196.656" width="105" height="5.25" rx="2" fill="#F8F9FB"/>
      <rect x="315" y="205.188" width="105" height="5.25" rx="2" fill="#F8F9FB"/>
      <rect x="315" y="213.719" width="105" height="5.25" rx="2" fill="#F8F9FB"/>
      <rect x="315" y="222.25" width="77.4375" height="5.25" rx="2" fill="#F8F9FB"/>
    </g>
    <g opacity="0.8">
      <rect x="315" y="175" width="105" height="6.5625" rx="2" fill="#F8F9FB"/>
      <rect x="315" y="184.844" width="51.8438" height="6.5625" rx="2" fill="#F8F9FB"/>
    </g>
    <rect x="315.5" y="235.5" width="59" height="15" rx="3.5" stroke="#E5D2B9"/>
    <rect x="322" y="242" width="34" height="2" rx="1" fill="#E5D2B9"/>
    <path d="M362.333 241.333H365.667M365.667 241.333V244.667M365.667 241.333L362.333 244.667" stroke="#1D1D1B" stroke-width="0.5" stroke-linecap="square" stroke-linejoin="round"/>
  </g>
  <defs>
    <clipPath id="clip0_2934_3386">
      <rect width="500" height="280" fill="white"/>
    </clipPath>
  </defs>
</svg>
