<svg viewBox="0 0 500 280" fill="none"
  xmlns="http://www.w3.org/2000/svg">
  <g clip-path="url(#clip0_2934_3316)">
    <rect width="500" height="280" fill="#FBFBFB"/>
    <rect x="53.5" y="-9.5" width="399" height="299" fill="white" stroke="#EBEBEB"/>
    <rect x="82" y="40" width="160" height="10" rx="2" fill="#F8F9FB"/>
    <rect x="82" y="55" width="79" height="10" rx="2" fill="#F8F9FB"/>
    <path d="M82.843 29L86.095 20.36H87.199L84.091 29H82.843ZM89.527 29L86.419 20.36H87.583L90.847 29H89.527ZM84.487 25.556H89.119V26.612H84.487V25.556ZM92.1123 29V22.88H93.3003V24.32H93.3603V29H92.1123ZM96.4563 29V25.064C96.4563 24.64 96.3483 24.324 96.1323 24.116C95.9243 23.908 95.6123 23.804 95.1963 23.804C94.8363 23.804 94.5163 23.884 94.2363 24.044C93.9643 24.204 93.7483 24.424 93.5883 24.704C93.4363 24.984 93.3603 25.316 93.3603 25.7L93.2043 24.236C93.4043 23.78 93.7123 23.42 94.1283 23.156C94.5443 22.892 95.0283 22.76 95.5803 22.76C96.2363 22.76 96.7523 22.944 97.1283 23.312C97.5043 23.68 97.6923 24.168 97.6923 24.776V29H96.4563ZM99.3662 29V22.88H100.614V29H99.3662ZM99.3062 21.68V20.276H100.686V21.68H99.3062ZM102.366 29V22.88H103.554V24.32H103.614V29H102.366ZM106.494 29V25.004C106.494 24.588 106.398 24.284 106.206 24.092C106.014 23.9 105.738 23.804 105.378 23.804C105.042 23.804 104.738 23.884 104.466 24.044C104.202 24.196 103.994 24.412 103.842 24.692C103.69 24.964 103.614 25.288 103.614 25.664L103.458 24.236C103.658 23.78 103.958 23.42 104.358 23.156C104.766 22.892 105.222 22.76 105.726 22.76C106.334 22.76 106.818 22.936 107.178 23.288C107.546 23.64 107.73 24.104 107.73 24.68V29H106.494ZM110.622 29V25.004C110.622 24.588 110.522 24.284 110.322 24.092C110.13 23.9 109.854 23.804 109.494 23.804C109.166 23.804 108.866 23.884 108.594 24.044C108.33 24.196 108.118 24.412 107.958 24.692C107.806 24.964 107.73 25.288 107.73 25.664L107.478 24.236C107.686 23.78 107.998 23.42 108.414 23.156C108.838 22.892 109.31 22.76 109.83 22.76C110.446 22.76 110.938 22.94 111.306 23.3C111.674 23.652 111.858 24.124 111.858 24.716V29H110.622ZM119.693 29C119.653 28.848 119.625 28.68 119.609 28.496C119.601 28.312 119.597 28.088 119.597 27.824H119.537V24.908C119.537 24.516 119.437 24.224 119.237 24.032C119.045 23.832 118.737 23.732 118.313 23.732C117.905 23.732 117.577 23.812 117.329 23.972C117.089 24.132 116.949 24.36 116.909 24.656H115.721C115.777 24.08 116.037 23.62 116.501 23.276C116.965 22.932 117.585 22.76 118.361 22.76C119.161 22.76 119.761 22.948 120.161 23.324C120.561 23.692 120.761 24.236 120.761 24.956V27.824C120.761 28.008 120.773 28.196 120.797 28.388C120.821 28.58 120.857 28.784 120.905 29H119.693ZM117.581 29.12C116.957 29.12 116.461 28.968 116.093 28.664C115.725 28.352 115.541 27.932 115.541 27.404C115.541 26.86 115.733 26.432 116.117 26.12C116.509 25.8 117.069 25.584 117.797 25.472L119.813 25.148V26.024L117.989 26.312C117.581 26.376 117.273 26.484 117.065 26.636C116.865 26.788 116.765 27.008 116.765 27.296C116.765 27.576 116.857 27.788 117.041 27.932C117.233 28.068 117.509 28.136 117.869 28.136C118.349 28.136 118.745 28.02 119.057 27.788C119.377 27.556 119.537 27.264 119.537 26.912L119.693 27.8C119.549 28.224 119.293 28.552 118.925 28.784C118.557 29.008 118.109 29.12 117.581 29.12ZM124.339 29.12C123.931 29.12 123.571 29.036 123.259 28.868C122.947 28.692 122.703 28.452 122.527 28.148C122.359 27.844 122.275 27.496 122.275 27.104V22.88H123.523V26.816C123.523 27.24 123.627 27.556 123.835 27.764C124.043 27.972 124.339 28.076 124.723 28.076C125.067 28.076 125.371 27.996 125.635 27.836C125.907 27.676 126.119 27.456 126.271 27.176C126.431 26.888 126.511 26.556 126.511 26.18L126.667 27.644C126.467 28.092 126.159 28.452 125.743 28.724C125.335 28.988 124.867 29.12 124.339 29.12ZM126.559 29V27.56H126.511V22.88H127.747V29H126.559ZM132.041 29.12C131.329 29.12 130.805 28.956 130.469 28.628C130.141 28.292 129.977 27.8 129.977 27.152V21.476L131.213 21.008V27.164C131.213 27.484 131.297 27.72 131.465 27.872C131.633 28.024 131.905 28.1 132.281 28.1C132.425 28.1 132.553 28.088 132.665 28.064C132.777 28.04 132.873 28.012 132.953 27.98V28.988C132.865 29.028 132.741 29.06 132.581 29.084C132.421 29.108 132.241 29.12 132.041 29.12ZM128.753 23.876V22.88H132.953V23.876H128.753ZM136.623 29.12C136.007 29.12 135.463 28.984 134.991 28.712C134.527 28.44 134.163 28.064 133.899 27.584C133.635 27.104 133.503 26.552 133.503 25.928C133.503 25.296 133.631 24.744 133.887 24.272C134.151 23.792 134.519 23.42 134.991 23.156C135.463 22.892 136.003 22.76 136.611 22.76C137.203 22.76 137.715 22.888 138.147 23.144C138.587 23.392 138.923 23.74 139.155 24.188C139.395 24.636 139.515 25.168 139.515 25.784C139.515 25.88 139.511 25.972 139.503 26.06C139.503 26.14 139.495 26.224 139.479 26.312H134.343V25.376H138.603L138.291 25.748C138.291 25.092 138.143 24.592 137.847 24.248C137.551 23.904 137.139 23.732 136.611 23.732C136.043 23.732 135.591 23.928 135.255 24.32C134.927 24.704 134.763 25.24 134.763 25.928C134.763 26.624 134.927 27.168 135.255 27.56C135.591 27.952 136.055 28.148 136.647 28.148C137.007 28.148 137.319 28.076 137.583 27.932C137.847 27.78 138.043 27.56 138.171 27.272H139.347C139.147 27.848 138.807 28.3 138.327 28.628C137.855 28.956 137.287 29.12 136.623 29.12ZM143.159 29V22.88H144.407V29H143.159ZM143.099 21.68V20.276H144.479V21.68H143.099ZM150.54 29V27.596L150.66 27.632C150.532 28.088 150.268 28.452 149.868 28.724C149.468 28.988 148.988 29.12 148.428 29.12C147.876 29.12 147.392 28.988 146.976 28.724C146.568 28.46 146.248 28.092 146.016 27.62C145.792 27.148 145.68 26.596 145.68 25.964C145.68 25.324 145.796 24.764 146.028 24.284C146.26 23.804 146.584 23.432 147 23.168C147.416 22.904 147.904 22.772 148.464 22.772C149.048 22.772 149.528 22.912 149.904 23.192C150.288 23.464 150.54 23.848 150.66 24.344L150.492 24.368V20.36H151.728V29H150.54ZM148.74 28.076C149.292 28.076 149.728 27.888 150.048 27.512C150.368 27.128 150.528 26.6 150.528 25.928C150.528 25.272 150.364 24.756 150.036 24.38C149.716 23.996 149.28 23.804 148.728 23.804C148.184 23.804 147.752 23.996 147.432 24.38C147.12 24.756 146.964 25.284 146.964 25.964C146.964 26.628 147.12 27.148 147.432 27.524C147.752 27.892 148.188 28.076 148.74 28.076ZM155.851 29V22.88H157.039V24.32H157.099V29H155.851ZM159.979 29V25.004C159.979 24.588 159.883 24.284 159.691 24.092C159.499 23.9 159.223 23.804 158.863 23.804C158.527 23.804 158.223 23.884 157.951 24.044C157.687 24.196 157.479 24.412 157.327 24.692C157.175 24.964 157.099 25.288 157.099 25.664L156.943 24.236C157.143 23.78 157.443 23.42 157.843 23.156C158.251 22.892 158.707 22.76 159.211 22.76C159.819 22.76 160.303 22.936 160.663 23.288C161.031 23.64 161.215 24.104 161.215 24.68V29H159.979ZM164.107 29V25.004C164.107 24.588 164.007 24.284 163.807 24.092C163.615 23.9 163.339 23.804 162.979 23.804C162.651 23.804 162.351 23.884 162.079 24.044C161.815 24.196 161.603 24.412 161.443 24.692C161.291 24.964 161.215 25.288 161.215 25.664L160.963 24.236C161.171 23.78 161.483 23.42 161.899 23.156C162.323 22.892 162.795 22.76 163.315 22.76C163.931 22.76 164.423 22.94 164.791 23.3C165.159 23.652 165.343 24.124 165.343 24.716V29H164.107ZM170.74 29C170.7 28.848 170.672 28.68 170.656 28.496C170.648 28.312 170.644 28.088 170.644 27.824H170.584V24.908C170.584 24.516 170.484 24.224 170.284 24.032C170.092 23.832 169.784 23.732 169.36 23.732C168.952 23.732 168.624 23.812 168.376 23.972C168.136 24.132 167.996 24.36 167.956 24.656H166.768C166.824 24.08 167.084 23.62 167.548 23.276C168.012 22.932 168.632 22.76 169.408 22.76C170.208 22.76 170.808 22.948 171.208 23.324C171.608 23.692 171.808 24.236 171.808 24.956V27.824C171.808 28.008 171.82 28.196 171.844 28.388C171.868 28.58 171.904 28.784 171.952 29H170.74ZM168.628 29.12C168.004 29.12 167.508 28.968 167.14 28.664C166.772 28.352 166.588 27.932 166.588 27.404C166.588 26.86 166.78 26.432 167.164 26.12C167.556 25.8 168.116 25.584 168.844 25.472L170.86 25.148V26.024L169.036 26.312C168.628 26.376 168.32 26.484 168.112 26.636C167.912 26.788 167.812 27.008 167.812 27.296C167.812 27.576 167.904 27.788 168.088 27.932C168.28 28.068 168.556 28.136 168.916 28.136C169.396 28.136 169.792 28.02 170.104 27.788C170.424 27.556 170.584 27.264 170.584 26.912L170.74 27.8C170.596 28.224 170.34 28.552 169.972 28.784C169.604 29.008 169.156 29.12 168.628 29.12ZM176.02 31.58C175.252 31.58 174.616 31.404 174.112 31.052C173.616 30.708 173.316 30.248 173.212 29.672H174.388C174.468 29.936 174.644 30.144 174.916 30.296C175.196 30.448 175.568 30.524 176.032 30.524C176.632 30.524 177.08 30.376 177.376 30.08C177.672 29.784 177.82 29.344 177.82 28.76V27.44L177.928 27.464C177.808 27.928 177.548 28.296 177.148 28.568C176.748 28.832 176.268 28.964 175.708 28.964C175.172 28.964 174.7 28.836 174.292 28.58C173.884 28.324 173.568 27.968 173.344 27.512C173.12 27.048 173.008 26.508 173.008 25.892C173.008 25.268 173.124 24.72 173.356 24.248C173.588 23.776 173.912 23.412 174.328 23.156C174.752 22.9 175.244 22.772 175.804 22.772C176.38 22.772 176.856 22.912 177.232 23.192C177.616 23.464 177.86 23.852 177.964 24.356L177.868 24.368V22.88H179.056V28.748C179.056 29.628 178.784 30.32 178.24 30.824C177.704 31.328 176.964 31.58 176.02 31.58ZM176.08 27.956C176.616 27.956 177.044 27.768 177.364 27.392C177.692 27.016 177.856 26.5 177.856 25.844C177.856 25.204 177.692 24.7 177.364 24.332C177.044 23.964 176.612 23.78 176.068 23.78C175.524 23.78 175.092 23.968 174.772 24.344C174.452 24.712 174.292 25.224 174.292 25.88C174.292 26.52 174.452 27.028 174.772 27.404C175.1 27.772 175.536 27.956 176.08 27.956ZM180.812 29V22.88H182V24.32H182.06V29H180.812ZM185.156 29V25.064C185.156 24.64 185.048 24.324 184.832 24.116C184.624 23.908 184.312 23.804 183.896 23.804C183.536 23.804 183.216 23.884 182.936 24.044C182.664 24.204 182.448 24.424 182.288 24.704C182.136 24.984 182.06 25.316 182.06 25.7L181.904 24.236C182.104 23.78 182.412 23.42 182.828 23.156C183.244 22.892 183.728 22.76 184.28 22.76C184.936 22.76 185.452 22.944 185.828 23.312C186.204 23.68 186.392 24.168 186.392 24.776V29H185.156ZM191.811 29C191.771 28.848 191.743 28.68 191.727 28.496C191.719 28.312 191.715 28.088 191.715 27.824H191.655V24.908C191.655 24.516 191.555 24.224 191.355 24.032C191.163 23.832 190.855 23.732 190.431 23.732C190.023 23.732 189.695 23.812 189.447 23.972C189.207 24.132 189.067 24.36 189.027 24.656H187.839C187.895 24.08 188.155 23.62 188.619 23.276C189.083 22.932 189.703 22.76 190.479 22.76C191.279 22.76 191.879 22.948 192.279 23.324C192.679 23.692 192.879 24.236 192.879 24.956V27.824C192.879 28.008 192.891 28.196 192.915 28.388C192.939 28.58 192.975 28.784 193.023 29H191.811ZM189.699 29.12C189.075 29.12 188.579 28.968 188.211 28.664C187.843 28.352 187.659 27.932 187.659 27.404C187.659 26.86 187.851 26.432 188.235 26.12C188.627 25.8 189.187 25.584 189.915 25.472L191.931 25.148V26.024L190.107 26.312C189.699 26.376 189.391 26.484 189.183 26.636C188.983 26.788 188.883 27.008 188.883 27.296C188.883 27.576 188.975 27.788 189.159 27.932C189.351 28.068 189.627 28.136 189.987 28.136C190.467 28.136 190.863 28.02 191.175 27.788C191.495 27.556 191.655 27.264 191.655 26.912L191.811 27.8C191.667 28.224 191.411 28.552 191.043 28.784C190.675 29.008 190.227 29.12 189.699 29.12ZM200.729 29C200.689 28.848 200.661 28.68 200.645 28.496C200.637 28.312 200.633 28.088 200.633 27.824H200.573V24.908C200.573 24.516 200.473 24.224 200.273 24.032C200.081 23.832 199.773 23.732 199.349 23.732C198.941 23.732 198.613 23.812 198.365 23.972C198.125 24.132 197.985 24.36 197.945 24.656H196.757C196.813 24.08 197.073 23.62 197.537 23.276C198.001 22.932 198.621 22.76 199.397 22.76C200.197 22.76 200.797 22.948 201.197 23.324C201.597 23.692 201.797 24.236 201.797 24.956V27.824C201.797 28.008 201.809 28.196 201.833 28.388C201.857 28.58 201.893 28.784 201.941 29H200.729ZM198.617 29.12C197.993 29.12 197.497 28.968 197.129 28.664C196.761 28.352 196.577 27.932 196.577 27.404C196.577 26.86 196.769 26.432 197.153 26.12C197.545 25.8 198.105 25.584 198.833 25.472L200.849 25.148V26.024L199.025 26.312C198.617 26.376 198.309 26.484 198.101 26.636C197.901 26.788 197.801 27.008 197.801 27.296C197.801 27.576 197.893 27.788 198.077 27.932C198.269 28.068 198.545 28.136 198.905 28.136C199.385 28.136 199.781 28.02 200.093 27.788C200.413 27.556 200.573 27.264 200.573 26.912L200.729 27.8C200.585 28.224 200.329 28.552 199.961 28.784C199.593 29.008 199.145 29.12 198.617 29.12ZM203.487 29V20.36H204.735V29H203.487ZM206.487 29V22.88H207.735V29H206.487ZM206.427 21.68V20.276H207.807V21.68H206.427ZM213.82 31.46V27.596L213.988 27.632C213.86 28.088 213.596 28.452 213.196 28.724C212.796 28.988 212.316 29.12 211.756 29.12C211.204 29.12 210.72 28.992 210.304 28.736C209.896 28.472 209.576 28.104 209.344 27.632C209.12 27.152 209.008 26.596 209.008 25.964C209.008 25.324 209.124 24.764 209.356 24.284C209.588 23.804 209.912 23.432 210.328 23.168C210.744 22.904 211.232 22.772 211.792 22.772C212.376 22.772 212.856 22.912 213.232 23.192C213.616 23.464 213.868 23.848 213.988 24.344L213.868 24.368V22.88H215.056V31.46H213.82ZM212.068 28.076C212.628 28.076 213.064 27.888 213.376 27.512C213.696 27.128 213.856 26.6 213.856 25.928C213.856 25.272 213.696 24.756 213.376 24.38C213.056 23.996 212.616 23.804 212.056 23.804C211.504 23.804 211.072 23.996 210.76 24.38C210.448 24.756 210.292 25.284 210.292 25.964C210.292 26.628 210.448 27.148 210.76 27.524C211.08 27.892 211.516 28.076 212.068 28.076ZM218.804 29.12C218.396 29.12 218.036 29.036 217.724 28.868C217.412 28.692 217.168 28.452 216.992 28.148C216.824 27.844 216.74 27.496 216.74 27.104V22.88H217.988V26.816C217.988 27.24 218.092 27.556 218.3 27.764C218.508 27.972 218.804 28.076 219.188 28.076C219.532 28.076 219.836 27.996 220.1 27.836C220.372 27.676 220.584 27.456 220.736 27.176C220.896 26.888 220.976 26.556 220.976 26.18L221.132 27.644C220.932 28.092 220.624 28.452 220.208 28.724C219.8 28.988 219.332 29.12 218.804 29.12ZM221.024 29V27.56H220.976V22.88H222.212V29H221.024ZM227.658 29C227.618 28.848 227.59 28.68 227.574 28.496C227.566 28.312 227.562 28.088 227.562 27.824H227.502V24.908C227.502 24.516 227.402 24.224 227.202 24.032C227.01 23.832 226.702 23.732 226.278 23.732C225.87 23.732 225.542 23.812 225.294 23.972C225.054 24.132 224.914 24.36 224.874 24.656H223.686C223.742 24.08 224.002 23.62 224.466 23.276C224.93 22.932 225.55 22.76 226.326 22.76C227.126 22.76 227.726 22.948 228.126 23.324C228.526 23.692 228.726 24.236 228.726 24.956V27.824C228.726 28.008 228.738 28.196 228.762 28.388C228.786 28.58 228.822 28.784 228.87 29H227.658ZM225.546 29.12C224.922 29.12 224.426 28.968 224.058 28.664C223.69 28.352 223.506 27.932 223.506 27.404C223.506 26.86 223.698 26.432 224.082 26.12C224.474 25.8 225.034 25.584 225.762 25.472L227.778 25.148V26.024L225.954 26.312C225.546 26.376 225.238 26.484 225.03 26.636C224.83 26.788 224.73 27.008 224.73 27.296C224.73 27.576 224.822 27.788 225.006 27.932C225.198 28.068 225.474 28.136 225.834 28.136C226.314 28.136 226.71 28.02 227.022 27.788C227.342 27.556 227.502 27.264 227.502 26.912L227.658 27.8C227.514 28.224 227.258 28.552 226.89 28.784C226.522 29.008 226.074 29.12 225.546 29.12Z" fill="#212121"/>
    <path d="M82 261C82 256.582 85.5817 253 90 253H290V335H90C85.5817 335 82 331.418 82 327V261Z" fill="#98C5D5"/>
    <path d="M290 253H416C420.418 253 424 256.582 424 261V327C424 331.418 420.418 335 416 335H290V253Z" fill="#F8F9FB"/>
    <g opacity="0.8">
      <rect x="95" y="265" width="105" height="6.5625" rx="2" fill="#F8F9FB"/>
      <rect x="95" y="274.844" width="51.8438" height="6.5625" rx="2" fill="#F8F9FB"/>
    </g>
    <path d="M82 174C82 169.582 85.5817 166 90 166H290V248H90C85.5817 248 82 244.418 82 240V174Z" fill="#98C5D5"/>
    <path d="M290 166H416C420.418 166 424 169.582 424 174V240C424 244.418 420.418 248 416 248H290V166Z" fill="#F8F9FB"/>
    <g clip-path="url(#clip1_2934_3316)">
      <path d="M366.84 195.5H348.16C346.691 195.5 345.5 196.691 345.5 198.16V216.84C345.5 218.309 346.691 219.5 348.16 219.5H366.84C368.309 219.5 369.5 218.309 369.5 216.84V198.16C369.5 196.691 368.309 195.5 366.84 195.5Z" stroke="#E8E8E9" stroke-width="0.5" stroke-linecap="round" stroke-linejoin="round"/>
      <path d="M353.5 206.16C354.969 206.16 356.16 204.969 356.16 203.5C356.16 202.031 354.969 200.84 353.5 200.84C352.031 200.84 350.84 202.031 350.84 203.5C350.84 204.969 352.031 206.16 353.5 206.16Z" stroke="#E8E8E9" stroke-width="0.5" stroke-linecap="round" stroke-linejoin="round"/>
      <path d="M369.5 211.5L365.38 207.38C364.34 206.34 362.66 206.34 361.6 207.38L349.48 219.5" stroke="#E8E8E9" stroke-width="0.5" stroke-linecap="round" stroke-linejoin="round"/>
    </g>
    <g opacity="0.8">
      <rect x="95" y="199.656" width="105" height="5.25" rx="2" fill="#F8F9FB"/>
      <rect x="95" y="208.188" width="105" height="5.25" rx="2" fill="#F8F9FB"/>
      <rect x="95" y="216.719" width="105" height="5.25" rx="2" fill="#F8F9FB"/>
      <rect x="95" y="225.25" width="77.4375" height="5.25" rx="2" fill="#F8F9FB"/>
    </g>
    <g opacity="0.8">
      <rect x="95" y="178" width="105" height="6.5625" rx="2" fill="#F8F9FB"/>
      <rect x="95" y="187.844" width="51.8438" height="6.5625" rx="2" fill="#F8F9FB"/>
    </g>
    <rect x="269" y="227" width="16" height="16" rx="4" fill="white"/>
    <path d="M274.667 235H279.333" stroke="#1D1D1B" stroke-width="0.5" stroke-linecap="round" stroke-linejoin="round"/>
    <path d="M277 232.667V237.333" stroke="#1D1D1B" stroke-width="0.5" stroke-linecap="round" stroke-linejoin="round"/>
    <path d="M82 87C82 82.5817 85.5817 79 90 79H290V161H90C85.5817 161 82 157.418 82 153V87Z" fill="#98C5D5"/>
    <path d="M290 79H416C420.418 79 424 82.5817 424 87V153C424 157.418 420.418 161 416 161H290V79Z" fill="#F8F9FB"/>
    <g clip-path="url(#clip2_2934_3316)">
      <path d="M366.84 108.5H348.16C346.691 108.5 345.5 109.691 345.5 111.16V129.84C345.5 131.309 346.691 132.5 348.16 132.5H366.84C368.309 132.5 369.5 131.309 369.5 129.84V111.16C369.5 109.691 368.309 108.5 366.84 108.5Z" stroke="#E8E8E9" stroke-width="0.5" stroke-linecap="round" stroke-linejoin="round"/>
      <path d="M353.5 119.16C354.969 119.16 356.16 117.969 356.16 116.5C356.16 115.031 354.969 113.84 353.5 113.84C352.031 113.84 350.84 115.031 350.84 116.5C350.84 117.969 352.031 119.16 353.5 119.16Z" stroke="#E8E8E9" stroke-width="0.5" stroke-linecap="round" stroke-linejoin="round"/>
      <path d="M369.5 124.5L365.38 120.38C364.34 119.34 362.66 119.34 361.6 120.38L349.48 132.5" stroke="#E8E8E9" stroke-width="0.5" stroke-linecap="round" stroke-linejoin="round"/>
    </g>
    <g opacity="0.8">
      <rect x="95" y="112.656" width="105" height="5.25" rx="2" fill="#F8F9FB"/>
      <rect x="95" y="121.188" width="105" height="5.25" rx="2" fill="#F8F9FB"/>
      <rect x="95" y="129.719" width="105" height="5.25" rx="2" fill="#F8F9FB"/>
      <rect x="95" y="138.25" width="77.4375" height="5.25" rx="2" fill="#F8F9FB"/>
    </g>
    <g opacity="0.8">
      <rect x="95" y="91" width="105" height="6.5625" rx="2" fill="#F8F9FB"/>
      <rect x="95" y="100.844" width="51.8438" height="6.5625" rx="2" fill="#F8F9FB"/>
    </g>
    <rect x="269" y="140" width="16" height="16" rx="4" fill="white"/>
    <path d="M274.667 148H279.333" stroke="#1D1D1B" stroke-width="0.5" stroke-linecap="round" stroke-linejoin="round"/>
    <path d="M277 145.667V150.333" stroke="#1D1D1B" stroke-width="0.5" stroke-linecap="round" stroke-linejoin="round"/>
  </g>
  <defs>
    <clipPath id="clip0_2934_3316">
      <rect width="500" height="280" fill="white"/>
    </clipPath>
    <clipPath id="clip1_2934_3316">
      <rect width="25" height="25" fill="white" transform="translate(345 195)"/>
    </clipPath>
    <clipPath id="clip2_2934_3316">
      <rect width="25" height="25" fill="white" transform="translate(345 108)"/>
    </clipPath>
  </defs>
</svg>
