<svg width="500" height="280" viewBox="0 0 500 280" fill="none"
  xmlns="http://www.w3.org/2000/svg">
  <g clip-path="url(#clip0_2948_5202)">
    <rect width="500" height="280" fill="#FBFBFB"/>
    <rect x="53.5" y="-9.5" width="399" height="299" fill="white" stroke="#EBEBEB"/>
    <rect x="82" y="49" width="160" height="10" rx="2" fill="#F8F9FB"/>
    <rect x="82" y="64" width="79" height="10" rx="2" fill="#F8F9FB"/>
    <path d="M82.843 38L86.095 29.36H87.199L84.091 38H82.843ZM89.527 38L86.419 29.36H87.583L90.847 38H89.527ZM84.487 34.556H89.119V35.612H84.487V34.556ZM92.1123 38V31.88H93.3003V33.32H93.3603V38H92.1123ZM96.4563 38V34.064C96.4563 33.64 96.3483 33.324 96.1323 33.116C95.9243 32.908 95.6123 32.804 95.1963 32.804C94.8363 32.804 94.5163 32.884 94.2363 33.044C93.9643 33.204 93.7483 33.424 93.5883 33.704C93.4363 33.984 93.3603 34.316 93.3603 34.7L93.2043 33.236C93.4043 32.78 93.7123 32.42 94.1283 32.156C94.5443 31.892 95.0283 31.76 95.5803 31.76C96.2363 31.76 96.7523 31.944 97.1283 32.312C97.5043 32.68 97.6923 33.168 97.6923 33.776V38H96.4563ZM99.3662 38V31.88H100.614V38H99.3662ZM99.3062 30.68V29.276H100.686V30.68H99.3062ZM102.366 38V31.88H103.554V33.32H103.614V38H102.366ZM106.494 38V34.004C106.494 33.588 106.398 33.284 106.206 33.092C106.014 32.9 105.738 32.804 105.378 32.804C105.042 32.804 104.738 32.884 104.466 33.044C104.202 33.196 103.994 33.412 103.842 33.692C103.69 33.964 103.614 34.288 103.614 34.664L103.458 33.236C103.658 32.78 103.958 32.42 104.358 32.156C104.766 31.892 105.222 31.76 105.726 31.76C106.334 31.76 106.818 31.936 107.178 32.288C107.546 32.64 107.73 33.104 107.73 33.68V38H106.494ZM110.622 38V34.004C110.622 33.588 110.522 33.284 110.322 33.092C110.13 32.9 109.854 32.804 109.494 32.804C109.166 32.804 108.866 32.884 108.594 33.044C108.33 33.196 108.118 33.412 107.958 33.692C107.806 33.964 107.73 34.288 107.73 34.664L107.478 33.236C107.686 32.78 107.998 32.42 108.414 32.156C108.838 31.892 109.31 31.76 109.83 31.76C110.446 31.76 110.938 31.94 111.306 32.3C111.674 32.652 111.858 33.124 111.858 33.716V38H110.622ZM119.693 38C119.653 37.848 119.625 37.68 119.609 37.496C119.601 37.312 119.597 37.088 119.597 36.824H119.537V33.908C119.537 33.516 119.437 33.224 119.237 33.032C119.045 32.832 118.737 32.732 118.313 32.732C117.905 32.732 117.577 32.812 117.329 32.972C117.089 33.132 116.949 33.36 116.909 33.656H115.721C115.777 33.08 116.037 32.62 116.501 32.276C116.965 31.932 117.585 31.76 118.361 31.76C119.161 31.76 119.761 31.948 120.161 32.324C120.561 32.692 120.761 33.236 120.761 33.956V36.824C120.761 37.008 120.773 37.196 120.797 37.388C120.821 37.58 120.857 37.784 120.905 38H119.693ZM117.581 38.12C116.957 38.12 116.461 37.968 116.093 37.664C115.725 37.352 115.541 36.932 115.541 36.404C115.541 35.86 115.733 35.432 116.117 35.12C116.509 34.8 117.069 34.584 117.797 34.472L119.813 34.148V35.024L117.989 35.312C117.581 35.376 117.273 35.484 117.065 35.636C116.865 35.788 116.765 36.008 116.765 36.296C116.765 36.576 116.857 36.788 117.041 36.932C117.233 37.068 117.509 37.136 117.869 37.136C118.349 37.136 118.745 37.02 119.057 36.788C119.377 36.556 119.537 36.264 119.537 35.912L119.693 36.8C119.549 37.224 119.293 37.552 118.925 37.784C118.557 38.008 118.109 38.12 117.581 38.12ZM124.339 38.12C123.931 38.12 123.571 38.036 123.259 37.868C122.947 37.692 122.703 37.452 122.527 37.148C122.359 36.844 122.275 36.496 122.275 36.104V31.88H123.523V35.816C123.523 36.24 123.627 36.556 123.835 36.764C124.043 36.972 124.339 37.076 124.723 37.076C125.067 37.076 125.371 36.996 125.635 36.836C125.907 36.676 126.119 36.456 126.271 36.176C126.431 35.888 126.511 35.556 126.511 35.18L126.667 36.644C126.467 37.092 126.159 37.452 125.743 37.724C125.335 37.988 124.867 38.12 124.339 38.12ZM126.559 38V36.56H126.511V31.88H127.747V38H126.559ZM132.041 38.12C131.329 38.12 130.805 37.956 130.469 37.628C130.141 37.292 129.977 36.8 129.977 36.152V30.476L131.213 30.008V36.164C131.213 36.484 131.297 36.72 131.465 36.872C131.633 37.024 131.905 37.1 132.281 37.1C132.425 37.1 132.553 37.088 132.665 37.064C132.777 37.04 132.873 37.012 132.953 36.98V37.988C132.865 38.028 132.741 38.06 132.581 38.084C132.421 38.108 132.241 38.12 132.041 38.12ZM128.753 32.876V31.88H132.953V32.876H128.753ZM136.623 38.12C136.007 38.12 135.463 37.984 134.991 37.712C134.527 37.44 134.163 37.064 133.899 36.584C133.635 36.104 133.503 35.552 133.503 34.928C133.503 34.296 133.631 33.744 133.887 33.272C134.151 32.792 134.519 32.42 134.991 32.156C135.463 31.892 136.003 31.76 136.611 31.76C137.203 31.76 137.715 31.888 138.147 32.144C138.587 32.392 138.923 32.74 139.155 33.188C139.395 33.636 139.515 34.168 139.515 34.784C139.515 34.88 139.511 34.972 139.503 35.06C139.503 35.14 139.495 35.224 139.479 35.312H134.343V34.376H138.603L138.291 34.748C138.291 34.092 138.143 33.592 137.847 33.248C137.551 32.904 137.139 32.732 136.611 32.732C136.043 32.732 135.591 32.928 135.255 33.32C134.927 33.704 134.763 34.24 134.763 34.928C134.763 35.624 134.927 36.168 135.255 36.56C135.591 36.952 136.055 37.148 136.647 37.148C137.007 37.148 137.319 37.076 137.583 36.932C137.847 36.78 138.043 36.56 138.171 36.272H139.347C139.147 36.848 138.807 37.3 138.327 37.628C137.855 37.956 137.287 38.12 136.623 38.12ZM143.159 38V31.88H144.407V38H143.159ZM143.099 30.68V29.276H144.479V30.68H143.099ZM150.54 38V36.596L150.66 36.632C150.532 37.088 150.268 37.452 149.868 37.724C149.468 37.988 148.988 38.12 148.428 38.12C147.876 38.12 147.392 37.988 146.976 37.724C146.568 37.46 146.248 37.092 146.016 36.62C145.792 36.148 145.68 35.596 145.68 34.964C145.68 34.324 145.796 33.764 146.028 33.284C146.26 32.804 146.584 32.432 147 32.168C147.416 31.904 147.904 31.772 148.464 31.772C149.048 31.772 149.528 31.912 149.904 32.192C150.288 32.464 150.54 32.848 150.66 33.344L150.492 33.368V29.36H151.728V38H150.54ZM148.74 37.076C149.292 37.076 149.728 36.888 150.048 36.512C150.368 36.128 150.528 35.6 150.528 34.928C150.528 34.272 150.364 33.756 150.036 33.38C149.716 32.996 149.28 32.804 148.728 32.804C148.184 32.804 147.752 32.996 147.432 33.38C147.12 33.756 146.964 34.284 146.964 34.964C146.964 35.628 147.12 36.148 147.432 36.524C147.752 36.892 148.188 37.076 148.74 37.076ZM155.851 38V31.88H157.039V33.32H157.099V38H155.851ZM159.979 38V34.004C159.979 33.588 159.883 33.284 159.691 33.092C159.499 32.9 159.223 32.804 158.863 32.804C158.527 32.804 158.223 32.884 157.951 33.044C157.687 33.196 157.479 33.412 157.327 33.692C157.175 33.964 157.099 34.288 157.099 34.664L156.943 33.236C157.143 32.78 157.443 32.42 157.843 32.156C158.251 31.892 158.707 31.76 159.211 31.76C159.819 31.76 160.303 31.936 160.663 32.288C161.031 32.64 161.215 33.104 161.215 33.68V38H159.979ZM164.107 38V34.004C164.107 33.588 164.007 33.284 163.807 33.092C163.615 32.9 163.339 32.804 162.979 32.804C162.651 32.804 162.351 32.884 162.079 33.044C161.815 33.196 161.603 33.412 161.443 33.692C161.291 33.964 161.215 34.288 161.215 34.664L160.963 33.236C161.171 32.78 161.483 32.42 161.899 32.156C162.323 31.892 162.795 31.76 163.315 31.76C163.931 31.76 164.423 31.94 164.791 32.3C165.159 32.652 165.343 33.124 165.343 33.716V38H164.107ZM170.74 38C170.7 37.848 170.672 37.68 170.656 37.496C170.648 37.312 170.644 37.088 170.644 36.824H170.584V33.908C170.584 33.516 170.484 33.224 170.284 33.032C170.092 32.832 169.784 32.732 169.36 32.732C168.952 32.732 168.624 32.812 168.376 32.972C168.136 33.132 167.996 33.36 167.956 33.656H166.768C166.824 33.08 167.084 32.62 167.548 32.276C168.012 31.932 168.632 31.76 169.408 31.76C170.208 31.76 170.808 31.948 171.208 32.324C171.608 32.692 171.808 33.236 171.808 33.956V36.824C171.808 37.008 171.82 37.196 171.844 37.388C171.868 37.58 171.904 37.784 171.952 38H170.74ZM168.628 38.12C168.004 38.12 167.508 37.968 167.14 37.664C166.772 37.352 166.588 36.932 166.588 36.404C166.588 35.86 166.78 35.432 167.164 35.12C167.556 34.8 168.116 34.584 168.844 34.472L170.86 34.148V35.024L169.036 35.312C168.628 35.376 168.32 35.484 168.112 35.636C167.912 35.788 167.812 36.008 167.812 36.296C167.812 36.576 167.904 36.788 168.088 36.932C168.28 37.068 168.556 37.136 168.916 37.136C169.396 37.136 169.792 37.02 170.104 36.788C170.424 36.556 170.584 36.264 170.584 35.912L170.74 36.8C170.596 37.224 170.34 37.552 169.972 37.784C169.604 38.008 169.156 38.12 168.628 38.12ZM176.02 40.58C175.252 40.58 174.616 40.404 174.112 40.052C173.616 39.708 173.316 39.248 173.212 38.672H174.388C174.468 38.936 174.644 39.144 174.916 39.296C175.196 39.448 175.568 39.524 176.032 39.524C176.632 39.524 177.08 39.376 177.376 39.08C177.672 38.784 177.82 38.344 177.82 37.76V36.44L177.928 36.464C177.808 36.928 177.548 37.296 177.148 37.568C176.748 37.832 176.268 37.964 175.708 37.964C175.172 37.964 174.7 37.836 174.292 37.58C173.884 37.324 173.568 36.968 173.344 36.512C173.12 36.048 173.008 35.508 173.008 34.892C173.008 34.268 173.124 33.72 173.356 33.248C173.588 32.776 173.912 32.412 174.328 32.156C174.752 31.9 175.244 31.772 175.804 31.772C176.38 31.772 176.856 31.912 177.232 32.192C177.616 32.464 177.86 32.852 177.964 33.356L177.868 33.368V31.88H179.056V37.748C179.056 38.628 178.784 39.32 178.24 39.824C177.704 40.328 176.964 40.58 176.02 40.58ZM176.08 36.956C176.616 36.956 177.044 36.768 177.364 36.392C177.692 36.016 177.856 35.5 177.856 34.844C177.856 34.204 177.692 33.7 177.364 33.332C177.044 32.964 176.612 32.78 176.068 32.78C175.524 32.78 175.092 32.968 174.772 33.344C174.452 33.712 174.292 34.224 174.292 34.88C174.292 35.52 174.452 36.028 174.772 36.404C175.1 36.772 175.536 36.956 176.08 36.956ZM180.812 38V31.88H182V33.32H182.06V38H180.812ZM185.156 38V34.064C185.156 33.64 185.048 33.324 184.832 33.116C184.624 32.908 184.312 32.804 183.896 32.804C183.536 32.804 183.216 32.884 182.936 33.044C182.664 33.204 182.448 33.424 182.288 33.704C182.136 33.984 182.06 34.316 182.06 34.7L181.904 33.236C182.104 32.78 182.412 32.42 182.828 32.156C183.244 31.892 183.728 31.76 184.28 31.76C184.936 31.76 185.452 31.944 185.828 32.312C186.204 32.68 186.392 33.168 186.392 33.776V38H185.156ZM191.811 38C191.771 37.848 191.743 37.68 191.727 37.496C191.719 37.312 191.715 37.088 191.715 36.824H191.655V33.908C191.655 33.516 191.555 33.224 191.355 33.032C191.163 32.832 190.855 32.732 190.431 32.732C190.023 32.732 189.695 32.812 189.447 32.972C189.207 33.132 189.067 33.36 189.027 33.656H187.839C187.895 33.08 188.155 32.62 188.619 32.276C189.083 31.932 189.703 31.76 190.479 31.76C191.279 31.76 191.879 31.948 192.279 32.324C192.679 32.692 192.879 33.236 192.879 33.956V36.824C192.879 37.008 192.891 37.196 192.915 37.388C192.939 37.58 192.975 37.784 193.023 38H191.811ZM189.699 38.12C189.075 38.12 188.579 37.968 188.211 37.664C187.843 37.352 187.659 36.932 187.659 36.404C187.659 35.86 187.851 35.432 188.235 35.12C188.627 34.8 189.187 34.584 189.915 34.472L191.931 34.148V35.024L190.107 35.312C189.699 35.376 189.391 35.484 189.183 35.636C188.983 35.788 188.883 36.008 188.883 36.296C188.883 36.576 188.975 36.788 189.159 36.932C189.351 37.068 189.627 37.136 189.987 37.136C190.467 37.136 190.863 37.02 191.175 36.788C191.495 36.556 191.655 36.264 191.655 35.912L191.811 36.8C191.667 37.224 191.411 37.552 191.043 37.784C190.675 38.008 190.227 38.12 189.699 38.12ZM200.729 38C200.689 37.848 200.661 37.68 200.645 37.496C200.637 37.312 200.633 37.088 200.633 36.824H200.573V33.908C200.573 33.516 200.473 33.224 200.273 33.032C200.081 32.832 199.773 32.732 199.349 32.732C198.941 32.732 198.613 32.812 198.365 32.972C198.125 33.132 197.985 33.36 197.945 33.656H196.757C196.813 33.08 197.073 32.62 197.537 32.276C198.001 31.932 198.621 31.76 199.397 31.76C200.197 31.76 200.797 31.948 201.197 32.324C201.597 32.692 201.797 33.236 201.797 33.956V36.824C201.797 37.008 201.809 37.196 201.833 37.388C201.857 37.58 201.893 37.784 201.941 38H200.729ZM198.617 38.12C197.993 38.12 197.497 37.968 197.129 37.664C196.761 37.352 196.577 36.932 196.577 36.404C196.577 35.86 196.769 35.432 197.153 35.12C197.545 34.8 198.105 34.584 198.833 34.472L200.849 34.148V35.024L199.025 35.312C198.617 35.376 198.309 35.484 198.101 35.636C197.901 35.788 197.801 36.008 197.801 36.296C197.801 36.576 197.893 36.788 198.077 36.932C198.269 37.068 198.545 37.136 198.905 37.136C199.385 37.136 199.781 37.02 200.093 36.788C200.413 36.556 200.573 36.264 200.573 35.912L200.729 36.8C200.585 37.224 200.329 37.552 199.961 37.784C199.593 38.008 199.145 38.12 198.617 38.12ZM203.487 38V29.36H204.735V38H203.487ZM206.487 38V31.88H207.735V38H206.487ZM206.427 30.68V29.276H207.807V30.68H206.427ZM213.82 40.46V36.596L213.988 36.632C213.86 37.088 213.596 37.452 213.196 37.724C212.796 37.988 212.316 38.12 211.756 38.12C211.204 38.12 210.72 37.992 210.304 37.736C209.896 37.472 209.576 37.104 209.344 36.632C209.12 36.152 209.008 35.596 209.008 34.964C209.008 34.324 209.124 33.764 209.356 33.284C209.588 32.804 209.912 32.432 210.328 32.168C210.744 31.904 211.232 31.772 211.792 31.772C212.376 31.772 212.856 31.912 213.232 32.192C213.616 32.464 213.868 32.848 213.988 33.344L213.868 33.368V31.88H215.056V40.46H213.82ZM212.068 37.076C212.628 37.076 213.064 36.888 213.376 36.512C213.696 36.128 213.856 35.6 213.856 34.928C213.856 34.272 213.696 33.756 213.376 33.38C213.056 32.996 212.616 32.804 212.056 32.804C211.504 32.804 211.072 32.996 210.76 33.38C210.448 33.756 210.292 34.284 210.292 34.964C210.292 35.628 210.448 36.148 210.76 36.524C211.08 36.892 211.516 37.076 212.068 37.076ZM218.804 38.12C218.396 38.12 218.036 38.036 217.724 37.868C217.412 37.692 217.168 37.452 216.992 37.148C216.824 36.844 216.74 36.496 216.74 36.104V31.88H217.988V35.816C217.988 36.24 218.092 36.556 218.3 36.764C218.508 36.972 218.804 37.076 219.188 37.076C219.532 37.076 219.836 36.996 220.1 36.836C220.372 36.676 220.584 36.456 220.736 36.176C220.896 35.888 220.976 35.556 220.976 35.18L221.132 36.644C220.932 37.092 220.624 37.452 220.208 37.724C219.8 37.988 219.332 38.12 218.804 38.12ZM221.024 38V36.56H220.976V31.88H222.212V38H221.024ZM227.658 38C227.618 37.848 227.59 37.68 227.574 37.496C227.566 37.312 227.562 37.088 227.562 36.824H227.502V33.908C227.502 33.516 227.402 33.224 227.202 33.032C227.01 32.832 226.702 32.732 226.278 32.732C225.87 32.732 225.542 32.812 225.294 32.972C225.054 33.132 224.914 33.36 224.874 33.656H223.686C223.742 33.08 224.002 32.62 224.466 32.276C224.93 31.932 225.55 31.76 226.326 31.76C227.126 31.76 227.726 31.948 228.126 32.324C228.526 32.692 228.726 33.236 228.726 33.956V36.824C228.726 37.008 228.738 37.196 228.762 37.388C228.786 37.58 228.822 37.784 228.87 38H227.658ZM225.546 38.12C224.922 38.12 224.426 37.968 224.058 37.664C223.69 37.352 223.506 36.932 223.506 36.404C223.506 35.86 223.698 35.432 224.082 35.12C224.474 34.8 225.034 34.584 225.762 34.472L227.778 34.148V35.024L225.954 35.312C225.546 35.376 225.238 35.484 225.03 35.636C224.83 35.788 224.73 36.008 224.73 36.296C224.73 36.576 224.822 36.788 225.006 36.932C225.198 37.068 225.474 37.136 225.834 37.136C226.314 37.136 226.71 37.02 227.022 36.788C227.342 36.556 227.502 36.264 227.502 35.912L227.658 36.8C227.514 37.224 227.258 37.552 226.89 37.784C226.522 38.008 226.074 38.12 225.546 38.12Z" fill="#212121"/>
    <path d="M90 101.573C90 101.391 89.8938 101.218 89.7011 101.059C89.195 100.643 88.9143 99.9761 89.0027 99.3269C89.0402 99.0518 88.9952 98.8333 88.8563 98.6944C88.7229 98.5609 88.5152 98.5145 88.2542 98.5449C87.6026 98.6207 86.9327 98.3441 86.5289 97.827C86.3645 97.6165 86.1831 97.5 85.9925 97.5C85.8105 97.5 85.6366 97.6065 85.4778 97.7996C85.0635 98.3031 84.4013 98.5807 83.7541 98.5009C83.4888 98.4682 83.2781 98.514 83.1437 98.6493C83.0001 98.7929 82.9573 99.0224 83.0025 99.312C83.1041 99.9638 82.8173 100.637 82.3054 101.053C82.1086 101.213 82 101.389 82 101.573C82 101.762 82.1138 101.941 82.3195 102.104C82.8266 102.506 83.0934 103.163 83.0453 103.808C83.0279 104.042 83.0766 104.228 83.2 104.351C83.3281 104.479 83.5253 104.526 83.7729 104.503C84.4162 104.441 85.07 104.713 85.4841 105.209C85.6408 105.397 85.8119 105.5 85.9906 105.5C86.1799 105.5 86.3599 105.385 86.5234 105.178C86.9254 104.668 87.5855 104.399 88.2319 104.459C88.4768 104.481 88.6722 104.433 88.8 104.306C88.9177 104.188 88.9676 104.012 88.9568 103.793C88.9252 103.152 89.1862 102.501 89.6871 102.099C89.8886 101.937 90 101.759 90 101.573Z" fill="#BBDAB0"/>
    <rect x="94" y="96.5" width="160" height="10" rx="2" fill="#F8F9FB"/>
    <rect x="82" y="120" width="60" height="8" rx="2" fill="#F8F9FB"/>
    <path d="M146.322 122.98L146.538 123.37L145.704 123.718L146.544 124.06L146.316 124.462L145.59 123.934L145.686 124.84H145.236L145.326 123.934L144.6 124.468L144.366 124.06L145.2 123.712L144.366 123.376L144.588 122.974L145.332 123.508L145.236 122.596H145.692L145.59 123.508L146.322 122.98Z" fill="#C1121F"/>
    <rect x="82" y="131" width="166.5" height="16" rx="8" fill="#FAF6F1"/>
    <path d="M93.462 139.73C93.462 139.834 93.456 139.944 93.444 140.06H90.816C90.836 140.384 90.946 140.638 91.146 140.822C91.35 141.002 91.596 141.092 91.884 141.092C92.12 141.092 92.316 141.038 92.472 140.93C92.632 140.818 92.744 140.67 92.808 140.486H93.396C93.308 140.802 93.132 141.06 92.868 141.26C92.604 141.456 92.276 141.554 91.884 141.554C91.572 141.554 91.292 141.484 91.044 141.344C90.8 141.204 90.608 141.006 90.468 140.75C90.328 140.49 90.258 140.19 90.258 139.85C90.258 139.51 90.326 139.212 90.462 138.956C90.598 138.7 90.788 138.504 91.032 138.368C91.28 138.228 91.564 138.158 91.884 138.158C92.196 138.158 92.472 138.226 92.712 138.362C92.952 138.498 93.136 138.686 93.264 138.926C93.396 139.162 93.462 139.43 93.462 139.73ZM92.898 139.616C92.898 139.408 92.852 139.23 92.76 139.082C92.668 138.93 92.542 138.816 92.382 138.74C92.226 138.66 92.052 138.62 91.86 138.62C91.584 138.62 91.348 138.708 91.152 138.884C90.96 139.06 90.85 139.304 90.822 139.616H92.898ZM94.3567 141.536C94.2527 141.536 94.1647 141.5 94.0927 141.428C94.0207 141.356 93.9847 141.268 93.9847 141.164C93.9847 141.06 94.0207 140.972 94.0927 140.9C94.1647 140.828 94.2527 140.792 94.3567 140.792C94.4567 140.792 94.5407 140.828 94.6087 140.9C94.6807 140.972 94.7167 141.06 94.7167 141.164C94.7167 141.268 94.6807 141.356 94.6087 141.428C94.5407 141.5 94.4567 141.536 94.3567 141.536ZM96.7985 138.158C97.0825 138.158 97.3305 138.22 97.5425 138.344C97.7585 138.468 97.9185 138.624 98.0225 138.812V138.212H98.5745V141.572C98.5745 141.872 98.5105 142.138 98.3825 142.37C98.2545 142.606 98.0705 142.79 97.8305 142.922C97.5945 143.054 97.3185 143.12 97.0025 143.12C96.5705 143.12 96.2105 143.018 95.9225 142.814C95.6345 142.61 95.4645 142.332 95.4125 141.98H95.9525C96.0125 142.18 96.1365 142.34 96.3245 142.46C96.5125 142.584 96.7385 142.646 97.0025 142.646C97.3025 142.646 97.5465 142.552 97.7345 142.364C97.9265 142.176 98.0225 141.912 98.0225 141.572V140.882C97.9145 141.074 97.7545 141.234 97.5425 141.362C97.3305 141.49 97.0825 141.554 96.7985 141.554C96.5065 141.554 96.2405 141.482 96.0005 141.338C95.7645 141.194 95.5785 140.992 95.4425 140.732C95.3065 140.472 95.2385 140.176 95.2385 139.844C95.2385 139.508 95.3065 139.214 95.4425 138.962C95.5785 138.706 95.7645 138.508 96.0005 138.368C96.2405 138.228 96.5065 138.158 96.7985 138.158ZM98.0225 139.85C98.0225 139.602 97.9725 139.386 97.8725 139.202C97.7725 139.018 97.6365 138.878 97.4645 138.782C97.2965 138.682 97.1105 138.632 96.9065 138.632C96.7025 138.632 96.5165 138.68 96.3485 138.776C96.1805 138.872 96.0465 139.012 95.9465 139.196C95.8465 139.38 95.7965 139.596 95.7965 139.844C95.7965 140.096 95.8465 140.316 95.9465 140.504C96.0465 140.688 96.1805 140.83 96.3485 140.93C96.5165 141.026 96.7025 141.074 96.9065 141.074C97.1105 141.074 97.2965 141.026 97.4645 140.93C97.6365 140.83 97.7725 140.688 97.8725 140.504C97.9725 140.316 98.0225 140.098 98.0225 139.85ZM99.6712 141.536C99.5672 141.536 99.4792 141.5 99.4072 141.428C99.3352 141.356 99.2992 141.268 99.2992 141.164C99.2992 141.06 99.3352 140.972 99.4072 140.9C99.4792 140.828 99.5672 140.792 99.6712 140.792C99.7712 140.792 99.8552 140.828 99.9232 140.9C99.9952 140.972 100.031 141.06 100.031 141.164C100.031 141.268 99.9952 141.356 99.9232 141.428C99.8552 141.5 99.7712 141.536 99.6712 141.536ZM104.463 137.318V140.408C104.463 140.752 104.357 141.028 104.145 141.236C103.933 141.44 103.653 141.542 103.305 141.542C102.953 141.542 102.671 141.438 102.459 141.23C102.247 141.018 102.141 140.73 102.141 140.366H102.687C102.691 140.57 102.743 140.736 102.843 140.864C102.947 140.992 103.101 141.056 103.305 141.056C103.509 141.056 103.661 140.996 103.761 140.876C103.861 140.752 103.911 140.596 103.911 140.408V137.318H104.463ZM106.972 141.554C106.664 141.554 106.384 141.484 106.132 141.344C105.884 141.204 105.688 141.006 105.544 140.75C105.404 140.49 105.334 140.19 105.334 139.85C105.334 139.514 105.406 139.218 105.55 138.962C105.698 138.702 105.898 138.504 106.15 138.368C106.402 138.228 106.684 138.158 106.996 138.158C107.308 138.158 107.59 138.228 107.842 138.368C108.094 138.504 108.292 138.7 108.436 138.956C108.584 139.212 108.658 139.51 108.658 139.85C108.658 140.19 108.582 140.49 108.43 140.75C108.282 141.006 108.08 141.204 107.824 141.344C107.568 141.484 107.284 141.554 106.972 141.554ZM106.972 141.074C107.168 141.074 107.352 141.028 107.524 140.936C107.696 140.844 107.834 140.706 107.938 140.522C108.046 140.338 108.1 140.114 108.1 139.85C108.1 139.586 108.048 139.362 107.944 139.178C107.84 138.994 107.704 138.858 107.536 138.77C107.368 138.678 107.186 138.632 106.99 138.632C106.79 138.632 106.606 138.678 106.438 138.77C106.274 138.858 106.142 138.994 106.042 139.178C105.942 139.362 105.892 139.586 105.892 139.85C105.892 140.118 105.94 140.344 106.036 140.528C106.136 140.712 106.268 140.85 106.432 140.942C106.596 141.03 106.776 141.074 106.972 141.074ZM111.008 138.152C111.256 138.152 111.48 138.206 111.68 138.314C111.88 138.418 112.036 138.576 112.148 138.788C112.264 139 112.322 139.258 112.322 139.562V141.5H111.782V139.64C111.782 139.312 111.7 139.062 111.536 138.89C111.372 138.714 111.148 138.626 110.864 138.626C110.576 138.626 110.346 138.716 110.174 138.896C110.006 139.076 109.922 139.338 109.922 139.682V141.5H109.376V137.06H109.922V138.68C110.03 138.512 110.178 138.382 110.366 138.29C110.558 138.198 110.772 138.152 111.008 138.152ZM114.816 138.152C115.216 138.152 115.54 138.274 115.788 138.518C116.036 138.758 116.16 139.106 116.16 139.562V141.5H115.62V139.64C115.62 139.312 115.538 139.062 115.374 138.89C115.21 138.714 114.986 138.626 114.702 138.626C114.414 138.626 114.184 138.716 114.012 138.896C113.844 139.076 113.76 139.338 113.76 139.682V141.5H113.214V138.212H113.76V138.68C113.868 138.512 114.014 138.382 114.198 138.29C114.386 138.198 114.592 138.152 114.816 138.152Z" fill="#868795"/>
    <rect x="256.5" y="120" width="80" height="8" rx="2" fill="#F8F9FB"/>
    <path d="M340.822 122.98L341.038 123.37L340.204 123.718L341.044 124.06L340.816 124.462L340.09 123.934L340.186 124.84H339.736L339.826 123.934L339.1 124.468L338.866 124.06L339.7 123.712L338.866 123.376L339.088 122.974L339.832 123.508L339.736 122.596H340.192L340.09 123.508L340.822 122.98Z" fill="#C1121F"/>
    <rect x="256.5" y="131" width="166.5" height="16" rx="8" fill="#FAF6F1"/>
    <path d="M267.962 139.73C267.962 139.834 267.956 139.944 267.944 140.06H265.316C265.336 140.384 265.446 140.638 265.646 140.822C265.85 141.002 266.096 141.092 266.384 141.092C266.62 141.092 266.816 141.038 266.972 140.93C267.132 140.818 267.244 140.67 267.308 140.486H267.896C267.808 140.802 267.632 141.06 267.368 141.26C267.104 141.456 266.776 141.554 266.384 141.554C266.072 141.554 265.792 141.484 265.544 141.344C265.3 141.204 265.108 141.006 264.968 140.75C264.828 140.49 264.758 140.19 264.758 139.85C264.758 139.51 264.826 139.212 264.962 138.956C265.098 138.7 265.288 138.504 265.532 138.368C265.78 138.228 266.064 138.158 266.384 138.158C266.696 138.158 266.972 138.226 267.212 138.362C267.452 138.498 267.636 138.686 267.764 138.926C267.896 139.162 267.962 139.43 267.962 139.73ZM267.398 139.616C267.398 139.408 267.352 139.23 267.26 139.082C267.168 138.93 267.042 138.816 266.882 138.74C266.726 138.66 266.552 138.62 266.36 138.62C266.084 138.62 265.848 138.708 265.652 138.884C265.46 139.06 265.35 139.304 265.322 139.616H267.398ZM268.857 141.536C268.753 141.536 268.665 141.5 268.593 141.428C268.521 141.356 268.485 141.268 268.485 141.164C268.485 141.06 268.521 140.972 268.593 140.9C268.665 140.828 268.753 140.792 268.857 140.792C268.957 140.792 269.041 140.828 269.109 140.9C269.181 140.972 269.217 141.06 269.217 141.164C269.217 141.268 269.181 141.356 269.109 141.428C269.041 141.5 268.957 141.536 268.857 141.536ZM271.298 138.158C271.582 138.158 271.83 138.22 272.042 138.344C272.258 138.468 272.418 138.624 272.522 138.812V138.212H273.074V141.572C273.074 141.872 273.01 142.138 272.882 142.37C272.754 142.606 272.57 142.79 272.33 142.922C272.094 143.054 271.818 143.12 271.502 143.12C271.07 143.12 270.71 143.018 270.422 142.814C270.134 142.61 269.964 142.332 269.912 141.98H270.452C270.512 142.18 270.636 142.34 270.824 142.46C271.012 142.584 271.238 142.646 271.502 142.646C271.802 142.646 272.046 142.552 272.234 142.364C272.426 142.176 272.522 141.912 272.522 141.572V140.882C272.414 141.074 272.254 141.234 272.042 141.362C271.83 141.49 271.582 141.554 271.298 141.554C271.006 141.554 270.74 141.482 270.5 141.338C270.264 141.194 270.078 140.992 269.942 140.732C269.806 140.472 269.738 140.176 269.738 139.844C269.738 139.508 269.806 139.214 269.942 138.962C270.078 138.706 270.264 138.508 270.5 138.368C270.74 138.228 271.006 138.158 271.298 138.158ZM272.522 139.85C272.522 139.602 272.472 139.386 272.372 139.202C272.272 139.018 272.136 138.878 271.964 138.782C271.796 138.682 271.61 138.632 271.406 138.632C271.202 138.632 271.016 138.68 270.848 138.776C270.68 138.872 270.546 139.012 270.446 139.196C270.346 139.38 270.296 139.596 270.296 139.844C270.296 140.096 270.346 140.316 270.446 140.504C270.546 140.688 270.68 140.83 270.848 140.93C271.016 141.026 271.202 141.074 271.406 141.074C271.61 141.074 271.796 141.026 271.964 140.93C272.136 140.83 272.272 140.688 272.372 140.504C272.472 140.316 272.522 140.098 272.522 139.85ZM274.171 141.536C274.067 141.536 273.979 141.5 273.907 141.428C273.835 141.356 273.799 141.268 273.799 141.164C273.799 141.06 273.835 140.972 273.907 140.9C273.979 140.828 274.067 140.792 274.171 140.792C274.271 140.792 274.355 140.828 274.423 140.9C274.495 140.972 274.531 141.06 274.531 141.164C274.531 141.268 274.495 141.356 274.423 141.428C274.355 141.5 274.271 141.536 274.171 141.536ZM278.963 137.318V140.408C278.963 140.752 278.857 141.028 278.645 141.236C278.433 141.44 278.153 141.542 277.805 141.542C277.453 141.542 277.171 141.438 276.959 141.23C276.747 141.018 276.641 140.73 276.641 140.366H277.187C277.191 140.57 277.243 140.736 277.343 140.864C277.447 140.992 277.601 141.056 277.805 141.056C278.009 141.056 278.161 140.996 278.261 140.876C278.361 140.752 278.411 140.596 278.411 140.408V137.318H278.963ZM281.472 141.554C281.164 141.554 280.884 141.484 280.632 141.344C280.384 141.204 280.188 141.006 280.044 140.75C279.904 140.49 279.834 140.19 279.834 139.85C279.834 139.514 279.906 139.218 280.05 138.962C280.198 138.702 280.398 138.504 280.65 138.368C280.902 138.228 281.184 138.158 281.496 138.158C281.808 138.158 282.09 138.228 282.342 138.368C282.594 138.504 282.792 138.7 282.936 138.956C283.084 139.212 283.158 139.51 283.158 139.85C283.158 140.19 283.082 140.49 282.93 140.75C282.782 141.006 282.58 141.204 282.324 141.344C282.068 141.484 281.784 141.554 281.472 141.554ZM281.472 141.074C281.668 141.074 281.852 141.028 282.024 140.936C282.196 140.844 282.334 140.706 282.438 140.522C282.546 140.338 282.6 140.114 282.6 139.85C282.6 139.586 282.548 139.362 282.444 139.178C282.34 138.994 282.204 138.858 282.036 138.77C281.868 138.678 281.686 138.632 281.49 138.632C281.29 138.632 281.106 138.678 280.938 138.77C280.774 138.858 280.642 138.994 280.542 139.178C280.442 139.362 280.392 139.586 280.392 139.85C280.392 140.118 280.44 140.344 280.536 140.528C280.636 140.712 280.768 140.85 280.932 140.942C281.096 141.03 281.276 141.074 281.472 141.074ZM285.508 138.152C285.756 138.152 285.98 138.206 286.18 138.314C286.38 138.418 286.536 138.576 286.648 138.788C286.764 139 286.822 139.258 286.822 139.562V141.5H286.282V139.64C286.282 139.312 286.2 139.062 286.036 138.89C285.872 138.714 285.648 138.626 285.364 138.626C285.076 138.626 284.846 138.716 284.674 138.896C284.506 139.076 284.422 139.338 284.422 139.682V141.5H283.876V137.06H284.422V138.68C284.53 138.512 284.678 138.382 284.866 138.29C285.058 138.198 285.272 138.152 285.508 138.152ZM289.316 138.152C289.716 138.152 290.04 138.274 290.288 138.518C290.536 138.758 290.66 139.106 290.66 139.562V141.5H290.12V139.64C290.12 139.312 290.038 139.062 289.874 138.89C289.71 138.714 289.486 138.626 289.202 138.626C288.914 138.626 288.684 138.716 288.512 138.896C288.344 139.076 288.26 139.338 288.26 139.682V141.5H287.714V138.212H288.26V138.68C288.368 138.512 288.514 138.382 288.698 138.29C288.886 138.198 289.092 138.152 289.316 138.152Z" fill="#868795"/>
    <rect x="82" y="155" width="80" height="8" rx="2" fill="#F8F9FB"/>
    <path d="M166.322 157.98L166.538 158.37L165.704 158.718L166.544 159.06L166.316 159.462L165.59 158.934L165.686 159.84H165.236L165.326 158.934L164.6 159.468L164.366 159.06L165.2 158.712L164.366 158.376L164.588 157.974L165.332 158.508L165.236 157.596H165.692L165.59 158.508L166.322 157.98Z" fill="#C1121F"/>
    <rect x="82" y="166" width="341" height="16" rx="8" fill="#FAF6F1"/>
    <path d="M93.462 174.73C93.462 174.834 93.456 174.944 93.444 175.06H90.816C90.836 175.384 90.946 175.638 91.146 175.822C91.35 176.002 91.596 176.092 91.884 176.092C92.12 176.092 92.316 176.038 92.472 175.93C92.632 175.818 92.744 175.67 92.808 175.486H93.396C93.308 175.802 93.132 176.06 92.868 176.26C92.604 176.456 92.276 176.554 91.884 176.554C91.572 176.554 91.292 176.484 91.044 176.344C90.8 176.204 90.608 176.006 90.468 175.75C90.328 175.49 90.258 175.19 90.258 174.85C90.258 174.51 90.326 174.212 90.462 173.956C90.598 173.7 90.788 173.504 91.032 173.368C91.28 173.228 91.564 173.158 91.884 173.158C92.196 173.158 92.472 173.226 92.712 173.362C92.952 173.498 93.136 173.686 93.264 173.926C93.396 174.162 93.462 174.43 93.462 174.73ZM92.898 174.616C92.898 174.408 92.852 174.23 92.76 174.082C92.668 173.93 92.542 173.816 92.382 173.74C92.226 173.66 92.052 173.62 91.86 173.62C91.584 173.62 91.348 173.708 91.152 173.884C90.96 174.06 90.85 174.304 90.822 174.616H92.898ZM94.3567 176.536C94.2527 176.536 94.1647 176.5 94.0927 176.428C94.0207 176.356 93.9847 176.268 93.9847 176.164C93.9847 176.06 94.0207 175.972 94.0927 175.9C94.1647 175.828 94.2527 175.792 94.3567 175.792C94.4567 175.792 94.5407 175.828 94.6087 175.9C94.6807 175.972 94.7167 176.06 94.7167 176.164C94.7167 176.268 94.6807 176.356 94.6087 176.428C94.5407 176.5 94.4567 176.536 94.3567 176.536ZM96.7985 173.158C97.0825 173.158 97.3305 173.22 97.5425 173.344C97.7585 173.468 97.9185 173.624 98.0225 173.812V173.212H98.5745V176.572C98.5745 176.872 98.5105 177.138 98.3825 177.37C98.2545 177.606 98.0705 177.79 97.8305 177.922C97.5945 178.054 97.3185 178.12 97.0025 178.12C96.5705 178.12 96.2105 178.018 95.9225 177.814C95.6345 177.61 95.4645 177.332 95.4125 176.98H95.9525C96.0125 177.18 96.1365 177.34 96.3245 177.46C96.5125 177.584 96.7385 177.646 97.0025 177.646C97.3025 177.646 97.5465 177.552 97.7345 177.364C97.9265 177.176 98.0225 176.912 98.0225 176.572V175.882C97.9145 176.074 97.7545 176.234 97.5425 176.362C97.3305 176.49 97.0825 176.554 96.7985 176.554C96.5065 176.554 96.2405 176.482 96.0005 176.338C95.7645 176.194 95.5785 175.992 95.4425 175.732C95.3065 175.472 95.2385 175.176 95.2385 174.844C95.2385 174.508 95.3065 174.214 95.4425 173.962C95.5785 173.706 95.7645 173.508 96.0005 173.368C96.2405 173.228 96.5065 173.158 96.7985 173.158ZM98.0225 174.85C98.0225 174.602 97.9725 174.386 97.8725 174.202C97.7725 174.018 97.6365 173.878 97.4645 173.782C97.2965 173.682 97.1105 173.632 96.9065 173.632C96.7025 173.632 96.5165 173.68 96.3485 173.776C96.1805 173.872 96.0465 174.012 95.9465 174.196C95.8465 174.38 95.7965 174.596 95.7965 174.844C95.7965 175.096 95.8465 175.316 95.9465 175.504C96.0465 175.688 96.1805 175.83 96.3485 175.93C96.5165 176.026 96.7025 176.074 96.9065 176.074C97.1105 176.074 97.2965 176.026 97.4645 175.93C97.6365 175.83 97.7725 175.688 97.8725 175.504C97.9725 175.316 98.0225 175.098 98.0225 174.85ZM99.6712 176.536C99.5672 176.536 99.4792 176.5 99.4072 176.428C99.3352 176.356 99.2992 176.268 99.2992 176.164C99.2992 176.06 99.3352 175.972 99.4072 175.9C99.4792 175.828 99.5672 175.792 99.6712 175.792C99.7712 175.792 99.8552 175.828 99.9232 175.9C99.9952 175.972 100.031 176.06 100.031 176.164C100.031 176.268 99.9952 176.356 99.9232 176.428C99.8552 176.5 99.7712 176.536 99.6712 176.536ZM104.463 172.318V175.408C104.463 175.752 104.357 176.028 104.145 176.236C103.933 176.44 103.653 176.542 103.305 176.542C102.953 176.542 102.671 176.438 102.459 176.23C102.247 176.018 102.141 175.73 102.141 175.366H102.687C102.691 175.57 102.743 175.736 102.843 175.864C102.947 175.992 103.101 176.056 103.305 176.056C103.509 176.056 103.661 175.996 103.761 175.876C103.861 175.752 103.911 175.596 103.911 175.408V172.318H104.463ZM106.972 176.554C106.664 176.554 106.384 176.484 106.132 176.344C105.884 176.204 105.688 176.006 105.544 175.75C105.404 175.49 105.334 175.19 105.334 174.85C105.334 174.514 105.406 174.218 105.55 173.962C105.698 173.702 105.898 173.504 106.15 173.368C106.402 173.228 106.684 173.158 106.996 173.158C107.308 173.158 107.59 173.228 107.842 173.368C108.094 173.504 108.292 173.7 108.436 173.956C108.584 174.212 108.658 174.51 108.658 174.85C108.658 175.19 108.582 175.49 108.43 175.75C108.282 176.006 108.08 176.204 107.824 176.344C107.568 176.484 107.284 176.554 106.972 176.554ZM106.972 176.074C107.168 176.074 107.352 176.028 107.524 175.936C107.696 175.844 107.834 175.706 107.938 175.522C108.046 175.338 108.1 175.114 108.1 174.85C108.1 174.586 108.048 174.362 107.944 174.178C107.84 173.994 107.704 173.858 107.536 173.77C107.368 173.678 107.186 173.632 106.99 173.632C106.79 173.632 106.606 173.678 106.438 173.77C106.274 173.858 106.142 173.994 106.042 174.178C105.942 174.362 105.892 174.586 105.892 174.85C105.892 175.118 105.94 175.344 106.036 175.528C106.136 175.712 106.268 175.85 106.432 175.942C106.596 176.03 106.776 176.074 106.972 176.074ZM111.008 173.152C111.256 173.152 111.48 173.206 111.68 173.314C111.88 173.418 112.036 173.576 112.148 173.788C112.264 174 112.322 174.258 112.322 174.562V176.5H111.782V174.64C111.782 174.312 111.7 174.062 111.536 173.89C111.372 173.714 111.148 173.626 110.864 173.626C110.576 173.626 110.346 173.716 110.174 173.896C110.006 174.076 109.922 174.338 109.922 174.682V176.5H109.376V172.06H109.922V173.68C110.03 173.512 110.178 173.382 110.366 173.29C110.558 173.198 110.772 173.152 111.008 173.152ZM114.816 173.152C115.216 173.152 115.54 173.274 115.788 173.518C116.036 173.758 116.16 174.106 116.16 174.562V176.5H115.62V174.64C115.62 174.312 115.538 174.062 115.374 173.89C115.21 173.714 114.986 173.626 114.702 173.626C114.414 173.626 114.184 173.716 114.012 173.896C113.844 174.076 113.76 174.338 113.76 174.682V176.5H113.214V173.212H113.76V173.68C113.868 173.512 114.014 173.382 114.198 173.29C114.386 173.198 114.592 173.152 114.816 173.152Z" fill="#868795"/>
    <rect x="82" y="190" width="60" height="8" rx="2" fill="#F8F9FB"/>
    <path d="M146.322 192.98L146.538 193.37L145.704 193.718L146.544 194.06L146.316 194.462L145.59 193.934L145.686 194.84H145.236L145.326 193.934L144.6 194.468L144.366 194.06L145.2 193.712L144.366 193.376L144.588 192.974L145.332 193.508L145.236 192.596H145.692L145.59 193.508L146.322 192.98Z" fill="#C1121F"/>
    <rect x="82" y="201" width="166.5" height="16" rx="8" fill="#FAF6F1"/>
    <path d="M93.462 209.73C93.462 209.834 93.456 209.944 93.444 210.06H90.816C90.836 210.384 90.946 210.638 91.146 210.822C91.35 211.002 91.596 211.092 91.884 211.092C92.12 211.092 92.316 211.038 92.472 210.93C92.632 210.818 92.744 210.67 92.808 210.486H93.396C93.308 210.802 93.132 211.06 92.868 211.26C92.604 211.456 92.276 211.554 91.884 211.554C91.572 211.554 91.292 211.484 91.044 211.344C90.8 211.204 90.608 211.006 90.468 210.75C90.328 210.49 90.258 210.19 90.258 209.85C90.258 209.51 90.326 209.212 90.462 208.956C90.598 208.7 90.788 208.504 91.032 208.368C91.28 208.228 91.564 208.158 91.884 208.158C92.196 208.158 92.472 208.226 92.712 208.362C92.952 208.498 93.136 208.686 93.264 208.926C93.396 209.162 93.462 209.43 93.462 209.73ZM92.898 209.616C92.898 209.408 92.852 209.23 92.76 209.082C92.668 208.93 92.542 208.816 92.382 208.74C92.226 208.66 92.052 208.62 91.86 208.62C91.584 208.62 91.348 208.708 91.152 208.884C90.96 209.06 90.85 209.304 90.822 209.616H92.898ZM94.3567 211.536C94.2527 211.536 94.1647 211.5 94.0927 211.428C94.0207 211.356 93.9847 211.268 93.9847 211.164C93.9847 211.06 94.0207 210.972 94.0927 210.9C94.1647 210.828 94.2527 210.792 94.3567 210.792C94.4567 210.792 94.5407 210.828 94.6087 210.9C94.6807 210.972 94.7167 211.06 94.7167 211.164C94.7167 211.268 94.6807 211.356 94.6087 211.428C94.5407 211.5 94.4567 211.536 94.3567 211.536ZM96.7985 208.158C97.0825 208.158 97.3305 208.22 97.5425 208.344C97.7585 208.468 97.9185 208.624 98.0225 208.812V208.212H98.5745V211.572C98.5745 211.872 98.5105 212.138 98.3825 212.37C98.2545 212.606 98.0705 212.79 97.8305 212.922C97.5945 213.054 97.3185 213.12 97.0025 213.12C96.5705 213.12 96.2105 213.018 95.9225 212.814C95.6345 212.61 95.4645 212.332 95.4125 211.98H95.9525C96.0125 212.18 96.1365 212.34 96.3245 212.46C96.5125 212.584 96.7385 212.646 97.0025 212.646C97.3025 212.646 97.5465 212.552 97.7345 212.364C97.9265 212.176 98.0225 211.912 98.0225 211.572V210.882C97.9145 211.074 97.7545 211.234 97.5425 211.362C97.3305 211.49 97.0825 211.554 96.7985 211.554C96.5065 211.554 96.2405 211.482 96.0005 211.338C95.7645 211.194 95.5785 210.992 95.4425 210.732C95.3065 210.472 95.2385 210.176 95.2385 209.844C95.2385 209.508 95.3065 209.214 95.4425 208.962C95.5785 208.706 95.7645 208.508 96.0005 208.368C96.2405 208.228 96.5065 208.158 96.7985 208.158ZM98.0225 209.85C98.0225 209.602 97.9725 209.386 97.8725 209.202C97.7725 209.018 97.6365 208.878 97.4645 208.782C97.2965 208.682 97.1105 208.632 96.9065 208.632C96.7025 208.632 96.5165 208.68 96.3485 208.776C96.1805 208.872 96.0465 209.012 95.9465 209.196C95.8465 209.38 95.7965 209.596 95.7965 209.844C95.7965 210.096 95.8465 210.316 95.9465 210.504C96.0465 210.688 96.1805 210.83 96.3485 210.93C96.5165 211.026 96.7025 211.074 96.9065 211.074C97.1105 211.074 97.2965 211.026 97.4645 210.93C97.6365 210.83 97.7725 210.688 97.8725 210.504C97.9725 210.316 98.0225 210.098 98.0225 209.85ZM99.6712 211.536C99.5672 211.536 99.4792 211.5 99.4072 211.428C99.3352 211.356 99.2992 211.268 99.2992 211.164C99.2992 211.06 99.3352 210.972 99.4072 210.9C99.4792 210.828 99.5672 210.792 99.6712 210.792C99.7712 210.792 99.8552 210.828 99.9232 210.9C99.9952 210.972 100.031 211.06 100.031 211.164C100.031 211.268 99.9952 211.356 99.9232 211.428C99.8552 211.5 99.7712 211.536 99.6712 211.536ZM104.463 207.318V210.408C104.463 210.752 104.357 211.028 104.145 211.236C103.933 211.44 103.653 211.542 103.305 211.542C102.953 211.542 102.671 211.438 102.459 211.23C102.247 211.018 102.141 210.73 102.141 210.366H102.687C102.691 210.57 102.743 210.736 102.843 210.864C102.947 210.992 103.101 211.056 103.305 211.056C103.509 211.056 103.661 210.996 103.761 210.876C103.861 210.752 103.911 210.596 103.911 210.408V207.318H104.463ZM106.972 211.554C106.664 211.554 106.384 211.484 106.132 211.344C105.884 211.204 105.688 211.006 105.544 210.75C105.404 210.49 105.334 210.19 105.334 209.85C105.334 209.514 105.406 209.218 105.55 208.962C105.698 208.702 105.898 208.504 106.15 208.368C106.402 208.228 106.684 208.158 106.996 208.158C107.308 208.158 107.59 208.228 107.842 208.368C108.094 208.504 108.292 208.7 108.436 208.956C108.584 209.212 108.658 209.51 108.658 209.85C108.658 210.19 108.582 210.49 108.43 210.75C108.282 211.006 108.08 211.204 107.824 211.344C107.568 211.484 107.284 211.554 106.972 211.554ZM106.972 211.074C107.168 211.074 107.352 211.028 107.524 210.936C107.696 210.844 107.834 210.706 107.938 210.522C108.046 210.338 108.1 210.114 108.1 209.85C108.1 209.586 108.048 209.362 107.944 209.178C107.84 208.994 107.704 208.858 107.536 208.77C107.368 208.678 107.186 208.632 106.99 208.632C106.79 208.632 106.606 208.678 106.438 208.77C106.274 208.858 106.142 208.994 106.042 209.178C105.942 209.362 105.892 209.586 105.892 209.85C105.892 210.118 105.94 210.344 106.036 210.528C106.136 210.712 106.268 210.85 106.432 210.942C106.596 211.03 106.776 211.074 106.972 211.074ZM111.008 208.152C111.256 208.152 111.48 208.206 111.68 208.314C111.88 208.418 112.036 208.576 112.148 208.788C112.264 209 112.322 209.258 112.322 209.562V211.5H111.782V209.64C111.782 209.312 111.7 209.062 111.536 208.89C111.372 208.714 111.148 208.626 110.864 208.626C110.576 208.626 110.346 208.716 110.174 208.896C110.006 209.076 109.922 209.338 109.922 209.682V211.5H109.376V207.06H109.922V208.68C110.03 208.512 110.178 208.382 110.366 208.29C110.558 208.198 110.772 208.152 111.008 208.152ZM114.816 208.152C115.216 208.152 115.54 208.274 115.788 208.518C116.036 208.758 116.16 209.106 116.16 209.562V211.5H115.62V209.64C115.62 209.312 115.538 209.062 115.374 208.89C115.21 208.714 114.986 208.626 114.702 208.626C114.414 208.626 114.184 208.716 114.012 208.896C113.844 209.076 113.76 209.338 113.76 209.682V211.5H113.214V208.212H113.76V208.68C113.868 208.512 114.014 208.382 114.198 208.29C114.386 208.198 114.592 208.152 114.816 208.152Z" fill="#868795"/>
    <rect x="256.5" y="190" width="80" height="8" rx="2" fill="#F8F9FB"/>
    <path d="M340.822 192.98L341.038 193.37L340.204 193.718L341.044 194.06L340.816 194.462L340.09 193.934L340.186 194.84H339.736L339.826 193.934L339.1 194.468L338.866 194.06L339.7 193.712L338.866 193.376L339.088 192.974L339.832 193.508L339.736 192.596H340.192L340.09 193.508L340.822 192.98Z" fill="#C1121F"/>
    <rect x="256.5" y="201" width="166.5" height="16" rx="8" fill="#FAF6F1"/>
    <path d="M267.962 209.73C267.962 209.834 267.956 209.944 267.944 210.06H265.316C265.336 210.384 265.446 210.638 265.646 210.822C265.85 211.002 266.096 211.092 266.384 211.092C266.62 211.092 266.816 211.038 266.972 210.93C267.132 210.818 267.244 210.67 267.308 210.486H267.896C267.808 210.802 267.632 211.06 267.368 211.26C267.104 211.456 266.776 211.554 266.384 211.554C266.072 211.554 265.792 211.484 265.544 211.344C265.3 211.204 265.108 211.006 264.968 210.75C264.828 210.49 264.758 210.19 264.758 209.85C264.758 209.51 264.826 209.212 264.962 208.956C265.098 208.7 265.288 208.504 265.532 208.368C265.78 208.228 266.064 208.158 266.384 208.158C266.696 208.158 266.972 208.226 267.212 208.362C267.452 208.498 267.636 208.686 267.764 208.926C267.896 209.162 267.962 209.43 267.962 209.73ZM267.398 209.616C267.398 209.408 267.352 209.23 267.26 209.082C267.168 208.93 267.042 208.816 266.882 208.74C266.726 208.66 266.552 208.62 266.36 208.62C266.084 208.62 265.848 208.708 265.652 208.884C265.46 209.06 265.35 209.304 265.322 209.616H267.398ZM268.857 211.536C268.753 211.536 268.665 211.5 268.593 211.428C268.521 211.356 268.485 211.268 268.485 211.164C268.485 211.06 268.521 210.972 268.593 210.9C268.665 210.828 268.753 210.792 268.857 210.792C268.957 210.792 269.041 210.828 269.109 210.9C269.181 210.972 269.217 211.06 269.217 211.164C269.217 211.268 269.181 211.356 269.109 211.428C269.041 211.5 268.957 211.536 268.857 211.536ZM271.298 208.158C271.582 208.158 271.83 208.22 272.042 208.344C272.258 208.468 272.418 208.624 272.522 208.812V208.212H273.074V211.572C273.074 211.872 273.01 212.138 272.882 212.37C272.754 212.606 272.57 212.79 272.33 212.922C272.094 213.054 271.818 213.12 271.502 213.12C271.07 213.12 270.71 213.018 270.422 212.814C270.134 212.61 269.964 212.332 269.912 211.98H270.452C270.512 212.18 270.636 212.34 270.824 212.46C271.012 212.584 271.238 212.646 271.502 212.646C271.802 212.646 272.046 212.552 272.234 212.364C272.426 212.176 272.522 211.912 272.522 211.572V210.882C272.414 211.074 272.254 211.234 272.042 211.362C271.83 211.49 271.582 211.554 271.298 211.554C271.006 211.554 270.74 211.482 270.5 211.338C270.264 211.194 270.078 210.992 269.942 210.732C269.806 210.472 269.738 210.176 269.738 209.844C269.738 209.508 269.806 209.214 269.942 208.962C270.078 208.706 270.264 208.508 270.5 208.368C270.74 208.228 271.006 208.158 271.298 208.158ZM272.522 209.85C272.522 209.602 272.472 209.386 272.372 209.202C272.272 209.018 272.136 208.878 271.964 208.782C271.796 208.682 271.61 208.632 271.406 208.632C271.202 208.632 271.016 208.68 270.848 208.776C270.68 208.872 270.546 209.012 270.446 209.196C270.346 209.38 270.296 209.596 270.296 209.844C270.296 210.096 270.346 210.316 270.446 210.504C270.546 210.688 270.68 210.83 270.848 210.93C271.016 211.026 271.202 211.074 271.406 211.074C271.61 211.074 271.796 211.026 271.964 210.93C272.136 210.83 272.272 210.688 272.372 210.504C272.472 210.316 272.522 210.098 272.522 209.85ZM274.171 211.536C274.067 211.536 273.979 211.5 273.907 211.428C273.835 211.356 273.799 211.268 273.799 211.164C273.799 211.06 273.835 210.972 273.907 210.9C273.979 210.828 274.067 210.792 274.171 210.792C274.271 210.792 274.355 210.828 274.423 210.9C274.495 210.972 274.531 211.06 274.531 211.164C274.531 211.268 274.495 211.356 274.423 211.428C274.355 211.5 274.271 211.536 274.171 211.536ZM278.963 207.318V210.408C278.963 210.752 278.857 211.028 278.645 211.236C278.433 211.44 278.153 211.542 277.805 211.542C277.453 211.542 277.171 211.438 276.959 211.23C276.747 211.018 276.641 210.73 276.641 210.366H277.187C277.191 210.57 277.243 210.736 277.343 210.864C277.447 210.992 277.601 211.056 277.805 211.056C278.009 211.056 278.161 210.996 278.261 210.876C278.361 210.752 278.411 210.596 278.411 210.408V207.318H278.963ZM281.472 211.554C281.164 211.554 280.884 211.484 280.632 211.344C280.384 211.204 280.188 211.006 280.044 210.75C279.904 210.49 279.834 210.19 279.834 209.85C279.834 209.514 279.906 209.218 280.05 208.962C280.198 208.702 280.398 208.504 280.65 208.368C280.902 208.228 281.184 208.158 281.496 208.158C281.808 208.158 282.09 208.228 282.342 208.368C282.594 208.504 282.792 208.7 282.936 208.956C283.084 209.212 283.158 209.51 283.158 209.85C283.158 210.19 283.082 210.49 282.93 210.75C282.782 211.006 282.58 211.204 282.324 211.344C282.068 211.484 281.784 211.554 281.472 211.554ZM281.472 211.074C281.668 211.074 281.852 211.028 282.024 210.936C282.196 210.844 282.334 210.706 282.438 210.522C282.546 210.338 282.6 210.114 282.6 209.85C282.6 209.586 282.548 209.362 282.444 209.178C282.34 208.994 282.204 208.858 282.036 208.77C281.868 208.678 281.686 208.632 281.49 208.632C281.29 208.632 281.106 208.678 280.938 208.77C280.774 208.858 280.642 208.994 280.542 209.178C280.442 209.362 280.392 209.586 280.392 209.85C280.392 210.118 280.44 210.344 280.536 210.528C280.636 210.712 280.768 210.85 280.932 210.942C281.096 211.03 281.276 211.074 281.472 211.074ZM285.508 208.152C285.756 208.152 285.98 208.206 286.18 208.314C286.38 208.418 286.536 208.576 286.648 208.788C286.764 209 286.822 209.258 286.822 209.562V211.5H286.282V209.64C286.282 209.312 286.2 209.062 286.036 208.89C285.872 208.714 285.648 208.626 285.364 208.626C285.076 208.626 284.846 208.716 284.674 208.896C284.506 209.076 284.422 209.338 284.422 209.682V211.5H283.876V207.06H284.422V208.68C284.53 208.512 284.678 208.382 284.866 208.29C285.058 208.198 285.272 208.152 285.508 208.152ZM289.316 208.152C289.716 208.152 290.04 208.274 290.288 208.518C290.536 208.758 290.66 209.106 290.66 209.562V211.5H290.12V209.64C290.12 209.312 290.038 209.062 289.874 208.89C289.71 208.714 289.486 208.626 289.202 208.626C288.914 208.626 288.684 208.716 288.512 208.896C288.344 209.076 288.26 209.338 288.26 209.682V211.5H287.714V208.212H288.26V208.68C288.368 208.512 288.514 208.382 288.698 208.29C288.886 208.198 289.092 208.152 289.316 208.152Z" fill="#868795"/>
    <rect x="363.5" y="239.5" width="59" height="15" rx="3.5" fill="#FFD167"/>
    <rect x="363.5" y="239.5" width="59" height="15" rx="3.5" stroke="#FFD167"/>
    <rect x="370" y="246" width="34" height="2" rx="1" fill="#1D1D1B"/>
    <path d="M410.333 245.333H413.667M413.667 245.333V248.666M413.667 245.333L410.333 248.666" stroke="#1D1D1B" stroke-width="0.5" stroke-linecap="square" stroke-linejoin="round"/>
  </g>
  <defs>
    <clipPath id="clip0_2948_5202">
      <rect width="500" height="280" fill="white"/>
    </clipPath>
  </defs>
</svg>
