<svg width="294" height="301" viewBox="0 0 294 301" fill="none" xmlns="http://www.w3.org/2000/svg">
<g clip-path="url(#clip0_1_316)">
<path d="M12.7278 223.555H21.3593V282.021H51.0699V290.641H21.3593H14.7458H12.7278V223.555Z" fill="#1D1D1B"/>
<path d="M103.618 99.7306H115.966V85.9857H103.618H12.8077H0.459961V99.7306H12.8077V124.723L103.618 120.048V99.7306Z" fill="#1D1D1B"/>
<path d="M12.8077 141.135V151.734L103.618 148.188V134.922L12.8077 141.135Z" fill="#1D1D1B"/>
<path d="M12.8077 167.197V177.795L103.618 174.249V160.984L12.8077 167.197Z" fill="#1D1D1B"/>
<path d="M12.8077 193.268V203.856H103.618V187.045L12.8077 193.268Z" fill="#1D1D1B"/>
<path d="M88.7925 39.8363H27.6331L20.2004 76.8058H96.2252L88.7925 39.8363Z" fill="#FFE5A7"/>
<path d="M58.2128 0L27.6331 30.6564H88.7925L58.2128 0Z" fill="#1D1D1B"/>
<path d="M155.866 97.1335H229.613V88.3232H155.866C155.956 89.7916 156.016 91.27 156.016 92.7583C156.016 94.2467 155.956 95.6851 155.876 97.1335" fill="#FFEEC6"/>
<path d="M208.634 30.3567L204.628 22.5053L144.477 53.1517C146.046 55.629 147.494 58.1962 148.773 60.8533L208.634 30.3567Z" fill="#FFEEC6"/>
<path d="M144.477 132.375L204.638 163.031L208.634 155.17L148.783 124.673" fill="#FFEEC6"/>
<path d="M102.619 223.555H93.9874V268.406C93.9874 271.343 93.0883 274.03 91.3 276.457C88.5528 280.163 84.8165 282.021 80.0811 282.021C77.0142 282.021 74.2369 281.122 71.7394 279.334C68.0331 276.587 66.1749 272.941 66.1749 268.406V223.555H57.5435V268.406C57.5435 274.03 59.4915 279.014 63.3877 283.359C67.8632 288.214 73.4177 290.641 80.0712 290.641C85.336 290.641 90.0213 288.973 94.1372 285.687V290.412H102.599V268.426V223.555H102.619Z" fill="#1D1D1B"/>
<path d="M260.193 232.175C252.97 232.175 246.936 234.793 242.081 240.037C237.675 244.892 235.467 250.575 235.467 257.098C235.467 264.38 238.085 270.483 243.33 275.408C248.125 279.813 253.749 282.021 260.203 282.021C267.356 282.021 273.37 279.404 278.225 274.159C282.631 269.305 284.839 263.621 284.839 257.098C284.839 249.816 282.221 243.713 276.976 238.788C272.251 234.383 266.657 232.175 260.203 232.175M260.193 223.555C269.134 223.555 276.836 226.681 283.29 232.945C289.684 239.208 293.07 246.779 293.45 255.66V257.098C293.45 266.108 290.323 273.87 284.059 280.393C280.093 284.478 275.438 287.385 270.063 289.113C273.71 291.281 276.167 292.369 277.446 292.369C279.104 292.369 280.423 292.08 281.372 291.51C282.91 290.551 284.439 288.763 285.977 286.146L293.45 290.551C291.082 294.507 288.525 297.324 285.778 298.982C283.41 300.321 280.633 301 277.436 301C274.499 301 270.982 299.751 266.896 297.264C266.197 296.815 265.747 296.565 265.558 296.495C261.911 294.327 259.324 293.209 257.795 293.139C254.918 293.139 252.65 294.287 250.992 296.585C250.293 297.604 249.613 298.822 248.974 300.231L241.112 296.685C242.77 293.109 244.948 290.262 247.625 288.154C240.153 285.087 234.498 279.973 230.662 272.821C228.105 267.836 226.826 262.602 226.826 257.098C226.826 248.088 229.953 240.327 236.217 233.804C242.351 227.351 249.823 223.934 258.644 223.545H260.183L260.193 223.555Z" fill="#1D1D1B"/>
<path d="M217.785 230.447C217.785 234.383 214.598 237.57 210.662 237.57C206.726 237.57 203.539 234.383 203.539 230.447C203.539 226.512 206.726 223.325 210.662 223.325C214.598 223.325 217.785 226.512 217.785 230.447Z" fill="#1D1D1B"/>
<path d="M214.988 245.001H206.356V290.412H214.988V245.001Z" fill="#1D1D1B"/>
<path d="M135.966 223.555C142.479 223.555 147.944 225.892 152.36 230.547C152.869 231.057 153.319 231.576 153.698 232.086C157.534 227.171 162.609 224.354 168.943 223.655C169.772 223.595 170.602 223.555 171.431 223.555C177.944 223.555 183.409 225.892 187.825 230.547C191.591 234.513 193.479 239.108 193.479 244.352V290.641H184.847V244.352C184.847 240.267 183.059 237 179.483 234.573C177.055 232.975 174.368 232.175 171.431 232.175C166.695 232.175 163.029 233.934 160.412 237.45C158.813 239.557 158.014 241.855 158.014 244.352V290.641H149.393V244.352C149.393 240.267 147.604 237 144.028 234.573C141.6 232.975 138.913 232.175 135.976 232.175C131.25 232.175 127.574 233.934 124.957 237.45C123.358 239.557 122.559 241.855 122.559 244.352V290.641H113.938V223.555H122.559V227.87C126.585 224.993 131.061 223.555 135.976 223.555" fill="#1D1D1B"/>
</g>
<defs>
<clipPath id="clip0_1_316">
<rect width="293" height="301" fill="white" transform="translate(0.459961)"/>
</clipPath>
</defs>
</svg>
