<svg viewBox="0 0 500 280" fill="none"
  xmlns="http://www.w3.org/2000/svg">
  <g clip-path="url(#clip0_2948_4778)">
    <rect width="500" height="280" fill="#FBFBFB"/>
    <rect x="53.5" y="-9.5" width="399" height="299" fill="white" stroke="#EBEBEB"/>
    <rect x="82" y="42" width="160" height="10" rx="2" fill="#F8F9FB"/>
    <rect x="82" y="57" width="79" height="10" rx="2" fill="#F8F9FB"/>
    <path d="M82.843 31L86.095 22.36H87.199L84.091 31H82.843ZM89.527 31L86.419 22.36H87.583L90.847 31H89.527ZM84.487 27.556H89.119V28.612H84.487V27.556ZM92.1123 31V24.88H93.3003V26.32H93.3603V31H92.1123ZM96.4563 31V27.064C96.4563 26.64 96.3483 26.324 96.1323 26.116C95.9243 25.908 95.6123 25.804 95.1963 25.804C94.8363 25.804 94.5163 25.884 94.2363 26.044C93.9643 26.204 93.7483 26.424 93.5883 26.704C93.4363 26.984 93.3603 27.316 93.3603 27.7L93.2043 26.236C93.4043 25.78 93.7123 25.42 94.1283 25.156C94.5443 24.892 95.0283 24.76 95.5803 24.76C96.2363 24.76 96.7523 24.944 97.1283 25.312C97.5043 25.68 97.6923 26.168 97.6923 26.776V31H96.4563ZM99.3662 31V24.88H100.614V31H99.3662ZM99.3062 23.68V22.276H100.686V23.68H99.3062ZM102.366 31V24.88H103.554V26.32H103.614V31H102.366ZM106.494 31V27.004C106.494 26.588 106.398 26.284 106.206 26.092C106.014 25.9 105.738 25.804 105.378 25.804C105.042 25.804 104.738 25.884 104.466 26.044C104.202 26.196 103.994 26.412 103.842 26.692C103.69 26.964 103.614 27.288 103.614 27.664L103.458 26.236C103.658 25.78 103.958 25.42 104.358 25.156C104.766 24.892 105.222 24.76 105.726 24.76C106.334 24.76 106.818 24.936 107.178 25.288C107.546 25.64 107.73 26.104 107.73 26.68V31H106.494ZM110.622 31V27.004C110.622 26.588 110.522 26.284 110.322 26.092C110.13 25.9 109.854 25.804 109.494 25.804C109.166 25.804 108.866 25.884 108.594 26.044C108.33 26.196 108.118 26.412 107.958 26.692C107.806 26.964 107.73 27.288 107.73 27.664L107.478 26.236C107.686 25.78 107.998 25.42 108.414 25.156C108.838 24.892 109.31 24.76 109.83 24.76C110.446 24.76 110.938 24.94 111.306 25.3C111.674 25.652 111.858 26.124 111.858 26.716V31H110.622ZM119.693 31C119.653 30.848 119.625 30.68 119.609 30.496C119.601 30.312 119.597 30.088 119.597 29.824H119.537V26.908C119.537 26.516 119.437 26.224 119.237 26.032C119.045 25.832 118.737 25.732 118.313 25.732C117.905 25.732 117.577 25.812 117.329 25.972C117.089 26.132 116.949 26.36 116.909 26.656H115.721C115.777 26.08 116.037 25.62 116.501 25.276C116.965 24.932 117.585 24.76 118.361 24.76C119.161 24.76 119.761 24.948 120.161 25.324C120.561 25.692 120.761 26.236 120.761 26.956V29.824C120.761 30.008 120.773 30.196 120.797 30.388C120.821 30.58 120.857 30.784 120.905 31H119.693ZM117.581 31.12C116.957 31.12 116.461 30.968 116.093 30.664C115.725 30.352 115.541 29.932 115.541 29.404C115.541 28.86 115.733 28.432 116.117 28.12C116.509 27.8 117.069 27.584 117.797 27.472L119.813 27.148V28.024L117.989 28.312C117.581 28.376 117.273 28.484 117.065 28.636C116.865 28.788 116.765 29.008 116.765 29.296C116.765 29.576 116.857 29.788 117.041 29.932C117.233 30.068 117.509 30.136 117.869 30.136C118.349 30.136 118.745 30.02 119.057 29.788C119.377 29.556 119.537 29.264 119.537 28.912L119.693 29.8C119.549 30.224 119.293 30.552 118.925 30.784C118.557 31.008 118.109 31.12 117.581 31.12ZM124.339 31.12C123.931 31.12 123.571 31.036 123.259 30.868C122.947 30.692 122.703 30.452 122.527 30.148C122.359 29.844 122.275 29.496 122.275 29.104V24.88H123.523V28.816C123.523 29.24 123.627 29.556 123.835 29.764C124.043 29.972 124.339 30.076 124.723 30.076C125.067 30.076 125.371 29.996 125.635 29.836C125.907 29.676 126.119 29.456 126.271 29.176C126.431 28.888 126.511 28.556 126.511 28.18L126.667 29.644C126.467 30.092 126.159 30.452 125.743 30.724C125.335 30.988 124.867 31.12 124.339 31.12ZM126.559 31V29.56H126.511V24.88H127.747V31H126.559ZM132.041 31.12C131.329 31.12 130.805 30.956 130.469 30.628C130.141 30.292 129.977 29.8 129.977 29.152V23.476L131.213 23.008V29.164C131.213 29.484 131.297 29.72 131.465 29.872C131.633 30.024 131.905 30.1 132.281 30.1C132.425 30.1 132.553 30.088 132.665 30.064C132.777 30.04 132.873 30.012 132.953 29.98V30.988C132.865 31.028 132.741 31.06 132.581 31.084C132.421 31.108 132.241 31.12 132.041 31.12ZM128.753 25.876V24.88H132.953V25.876H128.753ZM136.623 31.12C136.007 31.12 135.463 30.984 134.991 30.712C134.527 30.44 134.163 30.064 133.899 29.584C133.635 29.104 133.503 28.552 133.503 27.928C133.503 27.296 133.631 26.744 133.887 26.272C134.151 25.792 134.519 25.42 134.991 25.156C135.463 24.892 136.003 24.76 136.611 24.76C137.203 24.76 137.715 24.888 138.147 25.144C138.587 25.392 138.923 25.74 139.155 26.188C139.395 26.636 139.515 27.168 139.515 27.784C139.515 27.88 139.511 27.972 139.503 28.06C139.503 28.14 139.495 28.224 139.479 28.312H134.343V27.376H138.603L138.291 27.748C138.291 27.092 138.143 26.592 137.847 26.248C137.551 25.904 137.139 25.732 136.611 25.732C136.043 25.732 135.591 25.928 135.255 26.32C134.927 26.704 134.763 27.24 134.763 27.928C134.763 28.624 134.927 29.168 135.255 29.56C135.591 29.952 136.055 30.148 136.647 30.148C137.007 30.148 137.319 30.076 137.583 29.932C137.847 29.78 138.043 29.56 138.171 29.272H139.347C139.147 29.848 138.807 30.3 138.327 30.628C137.855 30.956 137.287 31.12 136.623 31.12ZM143.159 31V24.88H144.407V31H143.159ZM143.099 23.68V22.276H144.479V23.68H143.099ZM150.54 31V29.596L150.66 29.632C150.532 30.088 150.268 30.452 149.868 30.724C149.468 30.988 148.988 31.12 148.428 31.12C147.876 31.12 147.392 30.988 146.976 30.724C146.568 30.46 146.248 30.092 146.016 29.62C145.792 29.148 145.68 28.596 145.68 27.964C145.68 27.324 145.796 26.764 146.028 26.284C146.26 25.804 146.584 25.432 147 25.168C147.416 24.904 147.904 24.772 148.464 24.772C149.048 24.772 149.528 24.912 149.904 25.192C150.288 25.464 150.54 25.848 150.66 26.344L150.492 26.368V22.36H151.728V31H150.54ZM148.74 30.076C149.292 30.076 149.728 29.888 150.048 29.512C150.368 29.128 150.528 28.6 150.528 27.928C150.528 27.272 150.364 26.756 150.036 26.38C149.716 25.996 149.28 25.804 148.728 25.804C148.184 25.804 147.752 25.996 147.432 26.38C147.12 26.756 146.964 27.284 146.964 27.964C146.964 28.628 147.12 29.148 147.432 29.524C147.752 29.892 148.188 30.076 148.74 30.076ZM155.851 31V24.88H157.039V26.32H157.099V31H155.851ZM159.979 31V27.004C159.979 26.588 159.883 26.284 159.691 26.092C159.499 25.9 159.223 25.804 158.863 25.804C158.527 25.804 158.223 25.884 157.951 26.044C157.687 26.196 157.479 26.412 157.327 26.692C157.175 26.964 157.099 27.288 157.099 27.664L156.943 26.236C157.143 25.78 157.443 25.42 157.843 25.156C158.251 24.892 158.707 24.76 159.211 24.76C159.819 24.76 160.303 24.936 160.663 25.288C161.031 25.64 161.215 26.104 161.215 26.68V31H159.979ZM164.107 31V27.004C164.107 26.588 164.007 26.284 163.807 26.092C163.615 25.9 163.339 25.804 162.979 25.804C162.651 25.804 162.351 25.884 162.079 26.044C161.815 26.196 161.603 26.412 161.443 26.692C161.291 26.964 161.215 27.288 161.215 27.664L160.963 26.236C161.171 25.78 161.483 25.42 161.899 25.156C162.323 24.892 162.795 24.76 163.315 24.76C163.931 24.76 164.423 24.94 164.791 25.3C165.159 25.652 165.343 26.124 165.343 26.716V31H164.107ZM170.74 31C170.7 30.848 170.672 30.68 170.656 30.496C170.648 30.312 170.644 30.088 170.644 29.824H170.584V26.908C170.584 26.516 170.484 26.224 170.284 26.032C170.092 25.832 169.784 25.732 169.36 25.732C168.952 25.732 168.624 25.812 168.376 25.972C168.136 26.132 167.996 26.36 167.956 26.656H166.768C166.824 26.08 167.084 25.62 167.548 25.276C168.012 24.932 168.632 24.76 169.408 24.76C170.208 24.76 170.808 24.948 171.208 25.324C171.608 25.692 171.808 26.236 171.808 26.956V29.824C171.808 30.008 171.82 30.196 171.844 30.388C171.868 30.58 171.904 30.784 171.952 31H170.74ZM168.628 31.12C168.004 31.12 167.508 30.968 167.14 30.664C166.772 30.352 166.588 29.932 166.588 29.404C166.588 28.86 166.78 28.432 167.164 28.12C167.556 27.8 168.116 27.584 168.844 27.472L170.86 27.148V28.024L169.036 28.312C168.628 28.376 168.32 28.484 168.112 28.636C167.912 28.788 167.812 29.008 167.812 29.296C167.812 29.576 167.904 29.788 168.088 29.932C168.28 30.068 168.556 30.136 168.916 30.136C169.396 30.136 169.792 30.02 170.104 29.788C170.424 29.556 170.584 29.264 170.584 28.912L170.74 29.8C170.596 30.224 170.34 30.552 169.972 30.784C169.604 31.008 169.156 31.12 168.628 31.12ZM176.02 33.58C175.252 33.58 174.616 33.404 174.112 33.052C173.616 32.708 173.316 32.248 173.212 31.672H174.388C174.468 31.936 174.644 32.144 174.916 32.296C175.196 32.448 175.568 32.524 176.032 32.524C176.632 32.524 177.08 32.376 177.376 32.08C177.672 31.784 177.82 31.344 177.82 30.76V29.44L177.928 29.464C177.808 29.928 177.548 30.296 177.148 30.568C176.748 30.832 176.268 30.964 175.708 30.964C175.172 30.964 174.7 30.836 174.292 30.58C173.884 30.324 173.568 29.968 173.344 29.512C173.12 29.048 173.008 28.508 173.008 27.892C173.008 27.268 173.124 26.72 173.356 26.248C173.588 25.776 173.912 25.412 174.328 25.156C174.752 24.9 175.244 24.772 175.804 24.772C176.38 24.772 176.856 24.912 177.232 25.192C177.616 25.464 177.86 25.852 177.964 26.356L177.868 26.368V24.88H179.056V30.748C179.056 31.628 178.784 32.32 178.24 32.824C177.704 33.328 176.964 33.58 176.02 33.58ZM176.08 29.956C176.616 29.956 177.044 29.768 177.364 29.392C177.692 29.016 177.856 28.5 177.856 27.844C177.856 27.204 177.692 26.7 177.364 26.332C177.044 25.964 176.612 25.78 176.068 25.78C175.524 25.78 175.092 25.968 174.772 26.344C174.452 26.712 174.292 27.224 174.292 27.88C174.292 28.52 174.452 29.028 174.772 29.404C175.1 29.772 175.536 29.956 176.08 29.956ZM180.812 31V24.88H182V26.32H182.06V31H180.812ZM185.156 31V27.064C185.156 26.64 185.048 26.324 184.832 26.116C184.624 25.908 184.312 25.804 183.896 25.804C183.536 25.804 183.216 25.884 182.936 26.044C182.664 26.204 182.448 26.424 182.288 26.704C182.136 26.984 182.06 27.316 182.06 27.7L181.904 26.236C182.104 25.78 182.412 25.42 182.828 25.156C183.244 24.892 183.728 24.76 184.28 24.76C184.936 24.76 185.452 24.944 185.828 25.312C186.204 25.68 186.392 26.168 186.392 26.776V31H185.156ZM191.811 31C191.771 30.848 191.743 30.68 191.727 30.496C191.719 30.312 191.715 30.088 191.715 29.824H191.655V26.908C191.655 26.516 191.555 26.224 191.355 26.032C191.163 25.832 190.855 25.732 190.431 25.732C190.023 25.732 189.695 25.812 189.447 25.972C189.207 26.132 189.067 26.36 189.027 26.656H187.839C187.895 26.08 188.155 25.62 188.619 25.276C189.083 24.932 189.703 24.76 190.479 24.76C191.279 24.76 191.879 24.948 192.279 25.324C192.679 25.692 192.879 26.236 192.879 26.956V29.824C192.879 30.008 192.891 30.196 192.915 30.388C192.939 30.58 192.975 30.784 193.023 31H191.811ZM189.699 31.12C189.075 31.12 188.579 30.968 188.211 30.664C187.843 30.352 187.659 29.932 187.659 29.404C187.659 28.86 187.851 28.432 188.235 28.12C188.627 27.8 189.187 27.584 189.915 27.472L191.931 27.148V28.024L190.107 28.312C189.699 28.376 189.391 28.484 189.183 28.636C188.983 28.788 188.883 29.008 188.883 29.296C188.883 29.576 188.975 29.788 189.159 29.932C189.351 30.068 189.627 30.136 189.987 30.136C190.467 30.136 190.863 30.02 191.175 29.788C191.495 29.556 191.655 29.264 191.655 28.912L191.811 29.8C191.667 30.224 191.411 30.552 191.043 30.784C190.675 31.008 190.227 31.12 189.699 31.12ZM200.729 31C200.689 30.848 200.661 30.68 200.645 30.496C200.637 30.312 200.633 30.088 200.633 29.824H200.573V26.908C200.573 26.516 200.473 26.224 200.273 26.032C200.081 25.832 199.773 25.732 199.349 25.732C198.941 25.732 198.613 25.812 198.365 25.972C198.125 26.132 197.985 26.36 197.945 26.656H196.757C196.813 26.08 197.073 25.62 197.537 25.276C198.001 24.932 198.621 24.76 199.397 24.76C200.197 24.76 200.797 24.948 201.197 25.324C201.597 25.692 201.797 26.236 201.797 26.956V29.824C201.797 30.008 201.809 30.196 201.833 30.388C201.857 30.58 201.893 30.784 201.941 31H200.729ZM198.617 31.12C197.993 31.12 197.497 30.968 197.129 30.664C196.761 30.352 196.577 29.932 196.577 29.404C196.577 28.86 196.769 28.432 197.153 28.12C197.545 27.8 198.105 27.584 198.833 27.472L200.849 27.148V28.024L199.025 28.312C198.617 28.376 198.309 28.484 198.101 28.636C197.901 28.788 197.801 29.008 197.801 29.296C197.801 29.576 197.893 29.788 198.077 29.932C198.269 30.068 198.545 30.136 198.905 30.136C199.385 30.136 199.781 30.02 200.093 29.788C200.413 29.556 200.573 29.264 200.573 28.912L200.729 29.8C200.585 30.224 200.329 30.552 199.961 30.784C199.593 31.008 199.145 31.12 198.617 31.12ZM203.487 31V22.36H204.735V31H203.487ZM206.487 31V24.88H207.735V31H206.487ZM206.427 23.68V22.276H207.807V23.68H206.427ZM213.82 33.46V29.596L213.988 29.632C213.86 30.088 213.596 30.452 213.196 30.724C212.796 30.988 212.316 31.12 211.756 31.12C211.204 31.12 210.72 30.992 210.304 30.736C209.896 30.472 209.576 30.104 209.344 29.632C209.12 29.152 209.008 28.596 209.008 27.964C209.008 27.324 209.124 26.764 209.356 26.284C209.588 25.804 209.912 25.432 210.328 25.168C210.744 24.904 211.232 24.772 211.792 24.772C212.376 24.772 212.856 24.912 213.232 25.192C213.616 25.464 213.868 25.848 213.988 26.344L213.868 26.368V24.88H215.056V33.46H213.82ZM212.068 30.076C212.628 30.076 213.064 29.888 213.376 29.512C213.696 29.128 213.856 28.6 213.856 27.928C213.856 27.272 213.696 26.756 213.376 26.38C213.056 25.996 212.616 25.804 212.056 25.804C211.504 25.804 211.072 25.996 210.76 26.38C210.448 26.756 210.292 27.284 210.292 27.964C210.292 28.628 210.448 29.148 210.76 29.524C211.08 29.892 211.516 30.076 212.068 30.076ZM218.804 31.12C218.396 31.12 218.036 31.036 217.724 30.868C217.412 30.692 217.168 30.452 216.992 30.148C216.824 29.844 216.74 29.496 216.74 29.104V24.88H217.988V28.816C217.988 29.24 218.092 29.556 218.3 29.764C218.508 29.972 218.804 30.076 219.188 30.076C219.532 30.076 219.836 29.996 220.1 29.836C220.372 29.676 220.584 29.456 220.736 29.176C220.896 28.888 220.976 28.556 220.976 28.18L221.132 29.644C220.932 30.092 220.624 30.452 220.208 30.724C219.8 30.988 219.332 31.12 218.804 31.12ZM221.024 31V29.56H220.976V24.88H222.212V31H221.024ZM227.658 31C227.618 30.848 227.59 30.68 227.574 30.496C227.566 30.312 227.562 30.088 227.562 29.824H227.502V26.908C227.502 26.516 227.402 26.224 227.202 26.032C227.01 25.832 226.702 25.732 226.278 25.732C225.87 25.732 225.542 25.812 225.294 25.972C225.054 26.132 224.914 26.36 224.874 26.656H223.686C223.742 26.08 224.002 25.62 224.466 25.276C224.93 24.932 225.55 24.76 226.326 24.76C227.126 24.76 227.726 24.948 228.126 25.324C228.526 25.692 228.726 26.236 228.726 26.956V29.824C228.726 30.008 228.738 30.196 228.762 30.388C228.786 30.58 228.822 30.784 228.87 31H227.658ZM225.546 31.12C224.922 31.12 224.426 30.968 224.058 30.664C223.69 30.352 223.506 29.932 223.506 29.404C223.506 28.86 223.698 28.432 224.082 28.12C224.474 27.8 225.034 27.584 225.762 27.472L227.778 27.148V28.024L225.954 28.312C225.546 28.376 225.238 28.484 225.03 28.636C224.83 28.788 224.73 29.008 224.73 29.296C224.73 29.576 224.822 29.788 225.006 29.932C225.198 30.068 225.474 30.136 225.834 30.136C226.314 30.136 226.71 30.02 227.022 29.788C227.342 29.556 227.502 29.264 227.502 28.912L227.658 29.8C227.514 30.224 227.258 30.552 226.89 30.784C226.522 31.008 226.074 31.12 225.546 31.12Z" fill="#212121"/>
    <rect x="82" y="134" width="105" height="75" rx="4" fill="#F8F9FB"/>
    <g clip-path="url(#clip1_2948_4778)">
      <path d="M143.84 159.5H125.16C123.691 159.5 122.5 160.691 122.5 162.16V180.84C122.5 182.309 123.691 183.5 125.16 183.5H143.84C145.309 183.5 146.5 182.309 146.5 180.84V162.16C146.5 160.691 145.309 159.5 143.84 159.5Z" stroke="#E8E8E9" stroke-width="0.5" stroke-linecap="round" stroke-linejoin="round"/>
      <path d="M130.5 170.16C131.969 170.16 133.16 168.969 133.16 167.5C133.16 166.031 131.969 164.84 130.5 164.84C129.031 164.84 127.84 166.031 127.84 167.5C127.84 168.969 129.031 170.16 130.5 170.16Z" stroke="#E8E8E9" stroke-width="0.5" stroke-linecap="round" stroke-linejoin="round"/>
      <path d="M146.5 175.5L142.38 171.38C141.34 170.34 139.66 170.34 138.6 171.38L126.48 183.5" stroke="#E8E8E9" stroke-width="0.5" stroke-linecap="round" stroke-linejoin="round"/>
    </g>
    <g opacity="0.8">
      <rect x="82" y="236.656" width="105" height="5.25" rx="2" fill="#F8F9FB"/>
      <rect x="82" y="245.188" width="105" height="5.25" rx="2" fill="#F8F9FB"/>
      <rect x="82" y="253.719" width="105" height="5.25" rx="2" fill="#F8F9FB"/>
      <rect x="82" y="262.25" width="77.4375" height="5.25" rx="2" fill="#F8F9FB"/>
    </g>
    <g opacity="0.8">
      <rect x="82" y="215" width="105" height="6.5625" rx="2" fill="#F8F9FB"/>
      <rect x="82" y="224.844" width="51.8438" height="6.5625" rx="2" fill="#F8F9FB"/>
    </g>
    <path d="M190.072 145L143.928 145C143.415 145 143 144.478 143 143.834L143 132.027C143 131.398 143.397 130.882 143.898 130.861L190.043 129.001C190.566 128.979 191 129.508 191 130.166V143.834C191 144.478 190.585 145 190.072 145Z" fill="#FFD167"/>
    <rect opacity="0.5" x="150" y="135" width="34" height="6" rx="2" fill="#F8F9FB"/>
    <rect x="201" y="134" width="105" height="75" rx="4" fill="#F8F9FB"/>
    <g clip-path="url(#clip2_2948_4778)">
      <path d="M262.84 159.5H244.16C242.691 159.5 241.5 160.691 241.5 162.16V180.84C241.5 182.309 242.691 183.5 244.16 183.5H262.84C264.309 183.5 265.5 182.309 265.5 180.84V162.16C265.5 160.691 264.309 159.5 262.84 159.5Z" stroke="#E8E8E9" stroke-width="0.5" stroke-linecap="round" stroke-linejoin="round"/>
      <path d="M249.5 170.16C250.969 170.16 252.16 168.969 252.16 167.5C252.16 166.031 250.969 164.84 249.5 164.84C248.031 164.84 246.84 166.031 246.84 167.5C246.84 168.969 248.031 170.16 249.5 170.16Z" stroke="#E8E8E9" stroke-width="0.5" stroke-linecap="round" stroke-linejoin="round"/>
      <path d="M265.5 175.5L261.38 171.38C260.34 170.34 258.66 170.34 257.6 171.38L245.48 183.5" stroke="#E8E8E9" stroke-width="0.5" stroke-linecap="round" stroke-linejoin="round"/>
    </g>
    <g opacity="0.8">
      <rect x="201" y="236.656" width="105" height="5.25" rx="2" fill="#F8F9FB"/>
      <rect x="201" y="245.188" width="105" height="5.25" rx="2" fill="#F8F9FB"/>
      <rect x="201" y="253.719" width="105" height="5.25" rx="2" fill="#F8F9FB"/>
      <rect x="201" y="262.25" width="77.4375" height="5.25" rx="2" fill="#F8F9FB"/>
    </g>
    <g opacity="0.8">
      <rect x="201" y="215" width="105" height="6.5625" rx="2" fill="#F8F9FB"/>
      <rect x="201" y="224.844" width="51.8438" height="6.5625" rx="2" fill="#F8F9FB"/>
    </g>
    <path d="M309.072 145L262.928 145C262.415 145 262 144.478 262 143.834L262 132.027C262 131.398 262.397 130.882 262.898 130.861L309.043 129.001C309.566 128.979 310 129.508 310 130.166V143.834C310 144.478 309.585 145 309.072 145Z" fill="#FFD167"/>
    <rect opacity="0.5" x="269" y="135" width="34" height="6" rx="2" fill="#F8F9FB"/>
    <rect x="320" y="134" width="105" height="75" rx="4" fill="#F8F9FB"/>
    <g clip-path="url(#clip3_2948_4778)">
      <path d="M381.84 159.5H363.16C361.691 159.5 360.5 160.691 360.5 162.16V180.84C360.5 182.309 361.691 183.5 363.16 183.5H381.84C383.309 183.5 384.5 182.309 384.5 180.84V162.16C384.5 160.691 383.309 159.5 381.84 159.5Z" stroke="#E8E8E9" stroke-width="0.5" stroke-linecap="round" stroke-linejoin="round"/>
      <path d="M368.5 170.16C369.969 170.16 371.16 168.969 371.16 167.5C371.16 166.031 369.969 164.84 368.5 164.84C367.031 164.84 365.84 166.031 365.84 167.5C365.84 168.969 367.031 170.16 368.5 170.16Z" stroke="#E8E8E9" stroke-width="0.5" stroke-linecap="round" stroke-linejoin="round"/>
      <path d="M384.5 175.5L380.38 171.38C379.34 170.34 377.66 170.34 376.6 171.38L364.48 183.5" stroke="#E8E8E9" stroke-width="0.5" stroke-linecap="round" stroke-linejoin="round"/>
    </g>
    <g opacity="0.8">
      <rect x="320" y="236.656" width="105" height="5.25" rx="2" fill="#F8F9FB"/>
      <rect x="320" y="245.188" width="105" height="5.25" rx="2" fill="#F8F9FB"/>
      <rect x="320" y="253.719" width="105" height="5.25" rx="2" fill="#F8F9FB"/>
      <rect x="320" y="262.25" width="77.4375" height="5.25" rx="2" fill="#F8F9FB"/>
    </g>
    <g opacity="0.8">
      <rect x="320" y="215" width="105" height="6.5625" rx="2" fill="#F8F9FB"/>
      <rect x="320" y="224.844" width="51.8438" height="6.5625" rx="2" fill="#F8F9FB"/>
    </g>
    <path d="M428.072 145L381.928 145C381.415 145 381 144.478 381 143.834L381 132.027C381 131.398 381.397 130.882 381.898 130.861L428.043 129.001C428.566 128.979 429 129.508 429 130.166V143.834C429 144.478 428.585 145 428.072 145Z" fill="#FFD167"/>
    <rect opacity="0.5" x="388" y="135" width="34" height="6" rx="2" fill="#F8F9FB"/>
    <rect x="82.5" y="98.5" width="78.75" height="15" rx="3.5" stroke="#E5D2B9"/>
    <rect x="89" y="105" width="50.75" height="2" rx="1" fill="#E5D2B9"/>
    <path d="M152.75 107L150.75 105L148.75 107" stroke="#35374F" stroke-width="0.5" stroke-linecap="square" stroke-linejoin="round"/>
    <rect x="170.25" y="98.5" width="78.75" height="15" rx="3.5" stroke="#E5D2B9"/>
    <rect x="176.75" y="105" width="50.75" height="2" rx="1" fill="#E5D2B9"/>
    <path d="M240.5 107L238.5 105L236.5 107" stroke="#35374F" stroke-width="0.5" stroke-linecap="square" stroke-linejoin="round"/>
    <rect x="258" y="98.5" width="78.75" height="15" rx="3.5" stroke="#E5D2B9"/>
    <rect x="264.5" y="105" width="50.75" height="2" rx="1" fill="#E5D2B9"/>
    <path d="M328.25 107L326.25 105L324.25 107" stroke="#35374F" stroke-width="0.5" stroke-linecap="square" stroke-linejoin="round"/>
    <rect x="345.75" y="98.5" width="78.75" height="15" rx="3.5" stroke="#E5D2B9"/>
    <rect x="352.25" y="105" width="50.75" height="2" rx="1" fill="#E5D2B9"/>
    <path d="M416 107L414 105L412 107" stroke="#35374F" stroke-width="0.5" stroke-linecap="square" stroke-linejoin="round"/>
    <rect x="82" y="76" width="343" height="16" rx="4" fill="white"/>
    <rect x="82.25" y="76.25" width="342.5" height="15.5" rx="3.75" stroke="black" stroke-opacity="0.05" stroke-width="0.5"/>
    <g clip-path="url(#clip4_2948_4778)">
      <path d="M96 87L94.5533 85.5533M95.3333 83.6667C95.3333 85.1394 94.1394 86.3333 92.6667 86.3333C91.1939 86.3333 90 85.1394 90 83.6667C90 82.1939 91.1939 81 92.6667 81C94.1394 81 95.3333 82.1939 95.3333 83.6667Z" stroke="#1D1D1B" stroke-width="0.5" stroke-linecap="square" stroke-linejoin="round"/>
    </g>
  </g>
  <defs>
    <clipPath id="clip0_2948_4778">
      <rect width="500" height="280" fill="white"/>
    </clipPath>
    <clipPath id="clip1_2948_4778">
      <rect width="25" height="25" fill="white" transform="translate(122 159)"/>
    </clipPath>
    <clipPath id="clip2_2948_4778">
      <rect width="25" height="25" fill="white" transform="translate(241 159)"/>
    </clipPath>
    <clipPath id="clip3_2948_4778">
      <rect width="25" height="25" fill="white" transform="translate(360 159)"/>
    </clipPath>
    <clipPath id="clip4_2948_4778">
      <rect width="8" height="8" fill="white" transform="translate(89 80)"/>
    </clipPath>
  </defs>
</svg>
