<svg width="304" height="456" viewBox="0 0 304 456" fill="none" xmlns="http://www.w3.org/2000/svg">
<g style="mix-blend-mode:soft-light">
<path d="M280.431 453.447C286.372 433.83 301.852 418.32 321.517 412.284V453.447H280.431ZM-132.517 412.368C-112.936 418.32 -97.4559 433.83 -91.4311 453.531H-132.517V412.368ZM-91.5148 -1.44744C-97.4559 18.1702 -112.936 33.6799 -132.6 39.7161V-1.44744H-91.5148ZM197.423 -1.44744H239.429C246.876 40.3868 279.762 73.3344 321.517 80.7958V122.882C256.834 114.749 205.54 63.3579 197.423 -1.44744ZM115.252 -1.44744H157.007C165.458 85.5745 234.743 154.907 321.517 163.374V205.209C211.732 196.49 123.954 108.546 115.252 -1.44744ZM94.5 81.718C121.444 146.859 173.491 199.089 238.509 226C173.491 252.911 121.444 305.141 94.5 370.282C67.6396 305.141 15.5086 252.911 -49.5087 226C15.5086 199.089 67.5559 146.859 94.5 81.718ZM31.993 -1.44744H73.748C65.0456 108.546 -22.732 196.49 -132.517 205.209V163.374C-45.6596 154.907 23.5416 85.4906 31.993 -1.44744ZM-50.4292 -1.44744H-8.42314C-16.5398 63.3579 -67.8341 114.749 -132.517 122.882V80.7958C-90.7617 73.3344 -57.8765 40.3868 -50.4292 -1.44744ZM-132.517 288.626V246.791C-22.732 255.51 65.0456 343.454 73.748 453.447H31.993C23.5416 366.426 -45.7433 297.093 -132.517 288.626ZM-132.517 371.204V329.118C-67.8341 337.251 -16.5398 388.642 -8.42314 453.447H-50.4292C-57.8765 411.613 -90.7617 378.666 -132.517 371.204ZM157.007 453.447H115.252C123.954 343.454 211.732 255.51 321.517 246.791V288.626C234.66 297.093 165.458 366.509 157.007 453.447ZM239.429 453.447H197.423C205.54 388.642 256.834 337.251 321.517 329.118V371.204C279.762 378.666 246.876 411.697 239.429 453.447ZM321.517 39.6323C301.936 33.6799 286.456 18.1702 280.431 -1.53128H321.517V39.6323ZM-169 490H358V-38H-169V490Z" fill="#98C5D5"/>
</g>
</svg>
