<svg width="304" height="456" viewBox="0 0 304 456" fill="none" xmlns="http://www.w3.org/2000/svg">
<g style="mix-blend-mode:hard-light">
<path d="M-107.533 228C-107.533 199.956 -126.012 176.219 -151.378 168.448V287.468C-126.012 279.781 -107.533 256.044 -107.533 228ZM-25.5538 228C-25.5538 154.341 -80.5705 93.5218 -151.378 84.6523V127.057C-103.669 135.673 -67.2993 177.571 -67.2993 228C-67.2993 278.429 -103.669 320.327 -151.378 328.943V371.348C-80.5705 362.394 -25.5538 301.574 -25.5538 228ZM56.4252 228C56.4252 108.896 -35.2972 10.9933 -151.378 1.70149V43.8527C-58.3118 52.9755 14.5958 132.041 14.5958 228C14.5958 323.959 -58.3118 403.024 -151.378 412.147V454.299C-35.2972 445.007 56.4252 347.104 56.4252 228ZM-32.4414 457.171H185.357C136.808 427.69 98.3387 383.089 76.5 329.872C54.5773 383.089 16.1077 427.69 -32.4414 457.171ZM185.357 -1.17053H-32.4414C16.1077 28.3099 54.5773 72.9108 76.5 126.128C98.3387 72.9108 136.808 28.3099 185.357 -1.17053ZM304.378 287.468V168.448C279.012 176.219 260.533 199.956 260.533 228C260.533 256.044 279.012 279.781 304.378 287.468ZM304.378 371.348V328.943C256.669 320.327 220.299 278.429 220.299 228C220.299 177.571 256.669 135.673 304.378 127.057V84.6523C233.571 93.5218 178.554 154.341 178.554 228C178.554 301.659 233.571 362.394 304.378 371.348ZM304.378 454.299V412.147C211.312 403.024 138.32 323.959 138.32 228C138.32 132.041 211.312 52.9755 304.378 43.8527V1.70149C188.297 10.9933 96.5748 108.896 96.5748 228C96.5748 347.104 188.297 445.007 304.378 454.299ZM341 494H-188V-38H341V494Z" fill="#A1A695"/>
</g>
</svg>
