<svg width="304" height="456" viewBox="0 0 304 456" fill="none" xmlns="http://www.w3.org/2000/svg">
<g style="mix-blend-mode:soft-light">
<path d="M93.1229 457.354C88.5357 389.032 57.8697 327.703 10.8936 283.053V228.8C10.8936 133.099 -62.9258 54.247 -157.048 45.1487V3.19525C-39.6502 12.3778 53.1126 110.016 53.1126 228.885L53.9621 249.019C60.6729 337.391 110.962 413.968 183.592 457.438H93.1229V457.354ZM-156.963 415.99C-137.085 421.971 -121.37 437.557 -115.254 457.354H-156.963V415.99ZM-29.7113 251.125C-43.0481 242.616 -57.1494 235.203 -71.9303 229.053V228.716C-71.9303 178.422 -108.713 136.638 -156.963 128.045V85.7542C-85.352 94.6841 -29.7113 155.34 -29.7113 228.716V251.125ZM-156.963 209.256V169.408C-135.471 175.895 -118.821 193.586 -113.979 215.658C-127.911 212.457 -142.267 210.267 -156.963 209.34M-156.963 291.646V249.693C-45.5116 258.454 43.5985 346.826 52.433 457.354H10.0442C1.46444 369.909 -68.8722 300.239 -156.963 291.73M-156.963 374.711V332.42C-91.2983 340.592 -39.2255 392.233 -30.9855 457.354H-73.6292C-81.1896 415.316 -114.574 382.208 -156.963 374.711ZM53.8771 0.16247C58.4643 68.4842 89.1304 129.814 136.106 174.463V228.716C136.106 324.417 209.926 403.269 304.048 412.368V454.321C186.65 445.054 93.8874 347.416 93.8874 228.632C93.8874 131.751 41.5597 46.8336 -36.5921 0.0782247H53.8771V0.16247ZM177.986 0.16247H220.629C228.19 42.2002 261.574 75.308 303.963 82.8057V125.096C238.298 116.924 186.225 65.283 177.986 0.16247ZM94.567 0.16247H136.956C145.536 87.5234 215.872 157.277 303.963 165.786V207.739C192.512 198.978 103.402 110.606 94.567 0.0782247M260.979 241.858C274.911 245.059 289.267 247.25 303.963 248.176V288.024C282.471 281.537 265.821 263.846 260.979 241.774M176.711 206.391C190.048 214.9 204.149 222.314 218.93 228.463V228.716C218.93 279.01 255.713 320.795 303.963 329.387V371.678C232.352 362.748 176.711 302.092 176.711 228.716V206.307V206.391ZM303.963 41.5262C284.085 35.5449 268.37 19.9598 262.254 0.246712H303.963V41.5262ZM341 -38H-194V494H341V-38Z" fill="#BBDAB0"/>
</g>
</svg>
