<svg xmlns="http://www.w3.org/2000/svg" fill="none" viewBox="0 0 304 304"><path fill="#7d6ca5" d="M0 304h304V0H0zM44.708 21.033c-3.438 11.31-12.37 20.237-23.682 23.682V21.032zM21.033 235.622V68.384c24.06-4.302 43.049-23.29 47.351-47.351h167.232c4.302 24.06 23.291 43.049 47.351 47.351v167.232c-24.066 4.296-43.049 23.291-47.351 47.351H68.384c-4.302-24.066-23.29-43.055-47.351-47.351m0 23.669c11.31 3.445 20.237 12.378 23.682 23.682H21.032zm238.252 23.689c3.439-11.311 12.371-20.244 23.682-23.682v23.682zm23.682-238.266c-11.311-3.438-20.237-12.37-23.682-23.682h23.682z"/></svg>