<svg viewBox="0 0 500 280" fill="none"
  xmlns="http://www.w3.org/2000/svg">
  <g clip-path="url(#clip0_2926_3364)">
    <rect width="500" height="280" fill="#FBFBFB"/>
    <rect x="53.5" y="-9.5" width="399" height="299" fill="white" stroke="#EBEBEB"/>
    <rect x="82" y="145" width="160" height="8" rx="2" fill="#F8F9FB"/>
    <rect x="82" y="158" width="160" height="8" rx="2" fill="#F8F9FB"/>
    <rect x="82" y="171" width="160" height="8" rx="2" fill="#F8F9FB"/>
    <rect x="82" y="184" width="118" height="8" rx="2" fill="#F8F9FB"/>
    <rect x="82" y="112" width="160" height="10" rx="2" fill="#F8F9FB"/>
    <rect x="82" y="127" width="79" height="10" rx="2" fill="#F8F9FB"/>
    <path d="M82.843 101L86.095 92.36H87.199L84.091 101H82.843ZM89.527 101L86.419 92.36H87.583L90.847 101H89.527ZM84.487 97.556H89.119V98.612H84.487V97.556ZM92.1123 101V94.88H93.3003V96.32H93.3603V101H92.1123ZM96.4563 101V97.064C96.4563 96.64 96.3483 96.324 96.1323 96.116C95.9243 95.908 95.6123 95.804 95.1963 95.804C94.8363 95.804 94.5163 95.884 94.2363 96.044C93.9643 96.204 93.7483 96.424 93.5883 96.704C93.4363 96.984 93.3603 97.316 93.3603 97.7L93.2043 96.236C93.4043 95.78 93.7123 95.42 94.1283 95.156C94.5443 94.892 95.0283 94.76 95.5803 94.76C96.2363 94.76 96.7523 94.944 97.1283 95.312C97.5043 95.68 97.6923 96.168 97.6923 96.776V101H96.4563ZM99.3662 101V94.88H100.614V101H99.3662ZM99.3062 93.68V92.276H100.686V93.68H99.3062ZM102.366 101V94.88H103.554V96.32H103.614V101H102.366ZM106.494 101V97.004C106.494 96.588 106.398 96.284 106.206 96.092C106.014 95.9 105.738 95.804 105.378 95.804C105.042 95.804 104.738 95.884 104.466 96.044C104.202 96.196 103.994 96.412 103.842 96.692C103.69 96.964 103.614 97.288 103.614 97.664L103.458 96.236C103.658 95.78 103.958 95.42 104.358 95.156C104.766 94.892 105.222 94.76 105.726 94.76C106.334 94.76 106.818 94.936 107.178 95.288C107.546 95.64 107.73 96.104 107.73 96.68V101H106.494ZM110.622 101V97.004C110.622 96.588 110.522 96.284 110.322 96.092C110.13 95.9 109.854 95.804 109.494 95.804C109.166 95.804 108.866 95.884 108.594 96.044C108.33 96.196 108.118 96.412 107.958 96.692C107.806 96.964 107.73 97.288 107.73 97.664L107.478 96.236C107.686 95.78 107.998 95.42 108.414 95.156C108.838 94.892 109.31 94.76 109.83 94.76C110.446 94.76 110.938 94.94 111.306 95.3C111.674 95.652 111.858 96.124 111.858 96.716V101H110.622ZM119.693 101C119.653 100.848 119.625 100.68 119.609 100.496C119.601 100.312 119.597 100.088 119.597 99.824H119.537V96.908C119.537 96.516 119.437 96.224 119.237 96.032C119.045 95.832 118.737 95.732 118.313 95.732C117.905 95.732 117.577 95.812 117.329 95.972C117.089 96.132 116.949 96.36 116.909 96.656H115.721C115.777 96.08 116.037 95.62 116.501 95.276C116.965 94.932 117.585 94.76 118.361 94.76C119.161 94.76 119.761 94.948 120.161 95.324C120.561 95.692 120.761 96.236 120.761 96.956V99.824C120.761 100.008 120.773 100.196 120.797 100.388C120.821 100.58 120.857 100.784 120.905 101H119.693ZM117.581 101.12C116.957 101.12 116.461 100.968 116.093 100.664C115.725 100.352 115.541 99.932 115.541 99.404C115.541 98.86 115.733 98.432 116.117 98.12C116.509 97.8 117.069 97.584 117.797 97.472L119.813 97.148V98.024L117.989 98.312C117.581 98.376 117.273 98.484 117.065 98.636C116.865 98.788 116.765 99.008 116.765 99.296C116.765 99.576 116.857 99.788 117.041 99.932C117.233 100.068 117.509 100.136 117.869 100.136C118.349 100.136 118.745 100.02 119.057 99.788C119.377 99.556 119.537 99.264 119.537 98.912L119.693 99.8C119.549 100.224 119.293 100.552 118.925 100.784C118.557 101.008 118.109 101.12 117.581 101.12ZM124.339 101.12C123.931 101.12 123.571 101.036 123.259 100.868C122.947 100.692 122.703 100.452 122.527 100.148C122.359 99.844 122.275 99.496 122.275 99.104V94.88H123.523V98.816C123.523 99.24 123.627 99.556 123.835 99.764C124.043 99.972 124.339 100.076 124.723 100.076C125.067 100.076 125.371 99.996 125.635 99.836C125.907 99.676 126.119 99.456 126.271 99.176C126.431 98.888 126.511 98.556 126.511 98.18L126.667 99.644C126.467 100.092 126.159 100.452 125.743 100.724C125.335 100.988 124.867 101.12 124.339 101.12ZM126.559 101V99.56H126.511V94.88H127.747V101H126.559ZM132.041 101.12C131.329 101.12 130.805 100.956 130.469 100.628C130.141 100.292 129.977 99.8 129.977 99.152V93.476L131.213 93.008V99.164C131.213 99.484 131.297 99.72 131.465 99.872C131.633 100.024 131.905 100.1 132.281 100.1C132.425 100.1 132.553 100.088 132.665 100.064C132.777 100.04 132.873 100.012 132.953 99.98V100.988C132.865 101.028 132.741 101.06 132.581 101.084C132.421 101.108 132.241 101.12 132.041 101.12ZM128.753 95.876V94.88H132.953V95.876H128.753ZM136.623 101.12C136.007 101.12 135.463 100.984 134.991 100.712C134.527 100.44 134.163 100.064 133.899 99.584C133.635 99.104 133.503 98.552 133.503 97.928C133.503 97.296 133.631 96.744 133.887 96.272C134.151 95.792 134.519 95.42 134.991 95.156C135.463 94.892 136.003 94.76 136.611 94.76C137.203 94.76 137.715 94.888 138.147 95.144C138.587 95.392 138.923 95.74 139.155 96.188C139.395 96.636 139.515 97.168 139.515 97.784C139.515 97.88 139.511 97.972 139.503 98.06C139.503 98.14 139.495 98.224 139.479 98.312H134.343V97.376H138.603L138.291 97.748C138.291 97.092 138.143 96.592 137.847 96.248C137.551 95.904 137.139 95.732 136.611 95.732C136.043 95.732 135.591 95.928 135.255 96.32C134.927 96.704 134.763 97.24 134.763 97.928C134.763 98.624 134.927 99.168 135.255 99.56C135.591 99.952 136.055 100.148 136.647 100.148C137.007 100.148 137.319 100.076 137.583 99.932C137.847 99.78 138.043 99.56 138.171 99.272H139.347C139.147 99.848 138.807 100.3 138.327 100.628C137.855 100.956 137.287 101.12 136.623 101.12ZM143.159 101V94.88H144.407V101H143.159ZM143.099 93.68V92.276H144.479V93.68H143.099ZM150.54 101V99.596L150.66 99.632C150.532 100.088 150.268 100.452 149.868 100.724C149.468 100.988 148.988 101.12 148.428 101.12C147.876 101.12 147.392 100.988 146.976 100.724C146.568 100.46 146.248 100.092 146.016 99.62C145.792 99.148 145.68 98.596 145.68 97.964C145.68 97.324 145.796 96.764 146.028 96.284C146.26 95.804 146.584 95.432 147 95.168C147.416 94.904 147.904 94.772 148.464 94.772C149.048 94.772 149.528 94.912 149.904 95.192C150.288 95.464 150.54 95.848 150.66 96.344L150.492 96.368V92.36H151.728V101H150.54ZM148.74 100.076C149.292 100.076 149.728 99.888 150.048 99.512C150.368 99.128 150.528 98.6 150.528 97.928C150.528 97.272 150.364 96.756 150.036 96.38C149.716 95.996 149.28 95.804 148.728 95.804C148.184 95.804 147.752 95.996 147.432 96.38C147.12 96.756 146.964 97.284 146.964 97.964C146.964 98.628 147.12 99.148 147.432 99.524C147.752 99.892 148.188 100.076 148.74 100.076ZM155.851 101V94.88H157.039V96.32H157.099V101H155.851ZM159.979 101V97.004C159.979 96.588 159.883 96.284 159.691 96.092C159.499 95.9 159.223 95.804 158.863 95.804C158.527 95.804 158.223 95.884 157.951 96.044C157.687 96.196 157.479 96.412 157.327 96.692C157.175 96.964 157.099 97.288 157.099 97.664L156.943 96.236C157.143 95.78 157.443 95.42 157.843 95.156C158.251 94.892 158.707 94.76 159.211 94.76C159.819 94.76 160.303 94.936 160.663 95.288C161.031 95.64 161.215 96.104 161.215 96.68V101H159.979ZM164.107 101V97.004C164.107 96.588 164.007 96.284 163.807 96.092C163.615 95.9 163.339 95.804 162.979 95.804C162.651 95.804 162.351 95.884 162.079 96.044C161.815 96.196 161.603 96.412 161.443 96.692C161.291 96.964 161.215 97.288 161.215 97.664L160.963 96.236C161.171 95.78 161.483 95.42 161.899 95.156C162.323 94.892 162.795 94.76 163.315 94.76C163.931 94.76 164.423 94.94 164.791 95.3C165.159 95.652 165.343 96.124 165.343 96.716V101H164.107ZM170.74 101C170.7 100.848 170.672 100.68 170.656 100.496C170.648 100.312 170.644 100.088 170.644 99.824H170.584V96.908C170.584 96.516 170.484 96.224 170.284 96.032C170.092 95.832 169.784 95.732 169.36 95.732C168.952 95.732 168.624 95.812 168.376 95.972C168.136 96.132 167.996 96.36 167.956 96.656H166.768C166.824 96.08 167.084 95.62 167.548 95.276C168.012 94.932 168.632 94.76 169.408 94.76C170.208 94.76 170.808 94.948 171.208 95.324C171.608 95.692 171.808 96.236 171.808 96.956V99.824C171.808 100.008 171.82 100.196 171.844 100.388C171.868 100.58 171.904 100.784 171.952 101H170.74ZM168.628 101.12C168.004 101.12 167.508 100.968 167.14 100.664C166.772 100.352 166.588 99.932 166.588 99.404C166.588 98.86 166.78 98.432 167.164 98.12C167.556 97.8 168.116 97.584 168.844 97.472L170.86 97.148V98.024L169.036 98.312C168.628 98.376 168.32 98.484 168.112 98.636C167.912 98.788 167.812 99.008 167.812 99.296C167.812 99.576 167.904 99.788 168.088 99.932C168.28 100.068 168.556 100.136 168.916 100.136C169.396 100.136 169.792 100.02 170.104 99.788C170.424 99.556 170.584 99.264 170.584 98.912L170.74 99.8C170.596 100.224 170.34 100.552 169.972 100.784C169.604 101.008 169.156 101.12 168.628 101.12ZM176.02 103.58C175.252 103.58 174.616 103.404 174.112 103.052C173.616 102.708 173.316 102.248 173.212 101.672H174.388C174.468 101.936 174.644 102.144 174.916 102.296C175.196 102.448 175.568 102.524 176.032 102.524C176.632 102.524 177.08 102.376 177.376 102.08C177.672 101.784 177.82 101.344 177.82 100.76V99.44L177.928 99.464C177.808 99.928 177.548 100.296 177.148 100.568C176.748 100.832 176.268 100.964 175.708 100.964C175.172 100.964 174.7 100.836 174.292 100.58C173.884 100.324 173.568 99.968 173.344 99.512C173.12 99.048 173.008 98.508 173.008 97.892C173.008 97.268 173.124 96.72 173.356 96.248C173.588 95.776 173.912 95.412 174.328 95.156C174.752 94.9 175.244 94.772 175.804 94.772C176.38 94.772 176.856 94.912 177.232 95.192C177.616 95.464 177.86 95.852 177.964 96.356L177.868 96.368V94.88H179.056V100.748C179.056 101.628 178.784 102.32 178.24 102.824C177.704 103.328 176.964 103.58 176.02 103.58ZM176.08 99.956C176.616 99.956 177.044 99.768 177.364 99.392C177.692 99.016 177.856 98.5 177.856 97.844C177.856 97.204 177.692 96.7 177.364 96.332C177.044 95.964 176.612 95.78 176.068 95.78C175.524 95.78 175.092 95.968 174.772 96.344C174.452 96.712 174.292 97.224 174.292 97.88C174.292 98.52 174.452 99.028 174.772 99.404C175.1 99.772 175.536 99.956 176.08 99.956ZM180.812 101V94.88H182V96.32H182.06V101H180.812ZM185.156 101V97.064C185.156 96.64 185.048 96.324 184.832 96.116C184.624 95.908 184.312 95.804 183.896 95.804C183.536 95.804 183.216 95.884 182.936 96.044C182.664 96.204 182.448 96.424 182.288 96.704C182.136 96.984 182.06 97.316 182.06 97.7L181.904 96.236C182.104 95.78 182.412 95.42 182.828 95.156C183.244 94.892 183.728 94.76 184.28 94.76C184.936 94.76 185.452 94.944 185.828 95.312C186.204 95.68 186.392 96.168 186.392 96.776V101H185.156ZM191.811 101C191.771 100.848 191.743 100.68 191.727 100.496C191.719 100.312 191.715 100.088 191.715 99.824H191.655V96.908C191.655 96.516 191.555 96.224 191.355 96.032C191.163 95.832 190.855 95.732 190.431 95.732C190.023 95.732 189.695 95.812 189.447 95.972C189.207 96.132 189.067 96.36 189.027 96.656H187.839C187.895 96.08 188.155 95.62 188.619 95.276C189.083 94.932 189.703 94.76 190.479 94.76C191.279 94.76 191.879 94.948 192.279 95.324C192.679 95.692 192.879 96.236 192.879 96.956V99.824C192.879 100.008 192.891 100.196 192.915 100.388C192.939 100.58 192.975 100.784 193.023 101H191.811ZM189.699 101.12C189.075 101.12 188.579 100.968 188.211 100.664C187.843 100.352 187.659 99.932 187.659 99.404C187.659 98.86 187.851 98.432 188.235 98.12C188.627 97.8 189.187 97.584 189.915 97.472L191.931 97.148V98.024L190.107 98.312C189.699 98.376 189.391 98.484 189.183 98.636C188.983 98.788 188.883 99.008 188.883 99.296C188.883 99.576 188.975 99.788 189.159 99.932C189.351 100.068 189.627 100.136 189.987 100.136C190.467 100.136 190.863 100.02 191.175 99.788C191.495 99.556 191.655 99.264 191.655 98.912L191.811 99.8C191.667 100.224 191.411 100.552 191.043 100.784C190.675 101.008 190.227 101.12 189.699 101.12ZM200.729 101C200.689 100.848 200.661 100.68 200.645 100.496C200.637 100.312 200.633 100.088 200.633 99.824H200.573V96.908C200.573 96.516 200.473 96.224 200.273 96.032C200.081 95.832 199.773 95.732 199.349 95.732C198.941 95.732 198.613 95.812 198.365 95.972C198.125 96.132 197.985 96.36 197.945 96.656H196.757C196.813 96.08 197.073 95.62 197.537 95.276C198.001 94.932 198.621 94.76 199.397 94.76C200.197 94.76 200.797 94.948 201.197 95.324C201.597 95.692 201.797 96.236 201.797 96.956V99.824C201.797 100.008 201.809 100.196 201.833 100.388C201.857 100.58 201.893 100.784 201.941 101H200.729ZM198.617 101.12C197.993 101.12 197.497 100.968 197.129 100.664C196.761 100.352 196.577 99.932 196.577 99.404C196.577 98.86 196.769 98.432 197.153 98.12C197.545 97.8 198.105 97.584 198.833 97.472L200.849 97.148V98.024L199.025 98.312C198.617 98.376 198.309 98.484 198.101 98.636C197.901 98.788 197.801 99.008 197.801 99.296C197.801 99.576 197.893 99.788 198.077 99.932C198.269 100.068 198.545 100.136 198.905 100.136C199.385 100.136 199.781 100.02 200.093 99.788C200.413 99.556 200.573 99.264 200.573 98.912L200.729 99.8C200.585 100.224 200.329 100.552 199.961 100.784C199.593 101.008 199.145 101.12 198.617 101.12ZM203.487 101V92.36H204.735V101H203.487ZM206.487 101V94.88H207.735V101H206.487ZM206.427 93.68V92.276H207.807V93.68H206.427ZM213.82 103.46V99.596L213.988 99.632C213.86 100.088 213.596 100.452 213.196 100.724C212.796 100.988 212.316 101.12 211.756 101.12C211.204 101.12 210.72 100.992 210.304 100.736C209.896 100.472 209.576 100.104 209.344 99.632C209.12 99.152 209.008 98.596 209.008 97.964C209.008 97.324 209.124 96.764 209.356 96.284C209.588 95.804 209.912 95.432 210.328 95.168C210.744 94.904 211.232 94.772 211.792 94.772C212.376 94.772 212.856 94.912 213.232 95.192C213.616 95.464 213.868 95.848 213.988 96.344L213.868 96.368V94.88H215.056V103.46H213.82ZM212.068 100.076C212.628 100.076 213.064 99.888 213.376 99.512C213.696 99.128 213.856 98.6 213.856 97.928C213.856 97.272 213.696 96.756 213.376 96.38C213.056 95.996 212.616 95.804 212.056 95.804C211.504 95.804 211.072 95.996 210.76 96.38C210.448 96.756 210.292 97.284 210.292 97.964C210.292 98.628 210.448 99.148 210.76 99.524C211.08 99.892 211.516 100.076 212.068 100.076ZM218.804 101.12C218.396 101.12 218.036 101.036 217.724 100.868C217.412 100.692 217.168 100.452 216.992 100.148C216.824 99.844 216.74 99.496 216.74 99.104V94.88H217.988V98.816C217.988 99.24 218.092 99.556 218.3 99.764C218.508 99.972 218.804 100.076 219.188 100.076C219.532 100.076 219.836 99.996 220.1 99.836C220.372 99.676 220.584 99.456 220.736 99.176C220.896 98.888 220.976 98.556 220.976 98.18L221.132 99.644C220.932 100.092 220.624 100.452 220.208 100.724C219.8 100.988 219.332 101.12 218.804 101.12ZM221.024 101V99.56H220.976V94.88H222.212V101H221.024ZM227.658 101C227.618 100.848 227.59 100.68 227.574 100.496C227.566 100.312 227.562 100.088 227.562 99.824H227.502V96.908C227.502 96.516 227.402 96.224 227.202 96.032C227.01 95.832 226.702 95.732 226.278 95.732C225.87 95.732 225.542 95.812 225.294 95.972C225.054 96.132 224.914 96.36 224.874 96.656H223.686C223.742 96.08 224.002 95.62 224.466 95.276C224.93 94.932 225.55 94.76 226.326 94.76C227.126 94.76 227.726 94.948 228.126 95.324C228.526 95.692 228.726 96.236 228.726 96.956V99.824C228.726 100.008 228.738 100.196 228.762 100.388C228.786 100.58 228.822 100.784 228.87 101H227.658ZM225.546 101.12C224.922 101.12 224.426 100.968 224.058 100.664C223.69 100.352 223.506 99.932 223.506 99.404C223.506 98.86 223.698 98.432 224.082 98.12C224.474 97.8 225.034 97.584 225.762 97.472L227.778 97.148V98.024L225.954 98.312C225.546 98.376 225.238 98.484 225.03 98.636C224.83 98.788 224.73 99.008 224.73 99.296C224.73 99.576 224.822 99.788 225.006 99.932C225.198 100.068 225.474 100.136 225.834 100.136C226.314 100.136 226.71 100.02 227.022 99.788C227.342 99.556 227.502 99.264 227.502 98.912L227.658 99.8C227.514 100.224 227.258 100.552 226.89 100.784C226.522 101.008 226.074 101.12 225.546 101.12Z" fill="#212121"/>
  </g>
  <defs>
    <clipPath id="clip0_2926_3364">
      <rect width="500" height="280" fill="white"/>
    </clipPath>
  </defs>
</svg>
