<svg viewBox="0 0 500 280" fill="none"
  xmlns="http://www.w3.org/2000/svg">
  <g clip-path="url(#clip0_2934_3669)">
    <rect width="500" height="280" fill="#FBFBFB"/>
    <rect x="53.5" y="-9.5" width="399" height="299" fill="white" stroke="#EBEBEB"/>
    <rect x="204" y="64" width="105" height="157" rx="4" fill="#FFD167"/>
    <g opacity="0.8">
      <rect x="212" y="182.656" width="89" height="5.25" rx="2" fill="#F8F9FB"/>
      <rect x="212" y="191.188" width="89" height="5.25" rx="2" fill="#F8F9FB"/>
      <rect x="212" y="199.719" width="89" height="5.25" rx="2" fill="#F8F9FB"/>
      <rect x="212" y="208.25" width="65.6375" height="5.25" rx="2" fill="#F8F9FB"/>
    </g>
    <g opacity="0.8">
      <rect x="212" y="161" width="89" height="6.5625" rx="2" fill="#F8F9FB"/>
      <rect x="212" y="170.844" width="43.9437" height="6.5625" rx="2" fill="#F8F9FB"/>
    </g>
    <rect x="317" y="64" width="105" height="157" rx="4" fill="#F8F9FB"/>
    <g clip-path="url(#clip1_2934_3669)">
      <path d="M378.84 88.5H360.16C358.691 88.5 357.5 89.6909 357.5 91.16V109.84C357.5 111.309 358.691 112.5 360.16 112.5H378.84C380.309 112.5 381.5 111.309 381.5 109.84V91.16C381.5 89.6909 380.309 88.5 378.84 88.5Z" stroke="#E8E8E9" stroke-width="0.5" stroke-linecap="round" stroke-linejoin="round"/>
      <path d="M365.5 99.1598C366.969 99.1598 368.16 97.9689 368.16 96.4998C368.16 95.0308 366.969 93.8398 365.5 93.8398C364.031 93.8398 362.84 95.0308 362.84 96.4998C362.84 97.9689 364.031 99.1598 365.5 99.1598Z" stroke="#E8E8E9" stroke-width="0.5" stroke-linecap="round" stroke-linejoin="round"/>
      <path d="M381.5 104.5L377.38 100.38C376.34 99.3401 374.66 99.3401 373.6 100.38L361.48 112.5" stroke="#E8E8E9" stroke-width="0.5" stroke-linecap="round" stroke-linejoin="round"/>
    </g>
    <rect x="326" y="147" width="88" height="67" rx="4" fill="white"/>
    <rect x="333" y="176.656" width="74" height="5.25" rx="2" fill="#F8F9FB"/>
    <rect x="333" y="185.188" width="74" height="5.25" rx="2" fill="#F8F9FB"/>
    <rect x="333" y="193.719" width="74" height="5.25" rx="2" fill="#F8F9FB"/>
    <rect x="333" y="202.25" width="54.575" height="5.25" rx="2" fill="#F8F9FB"/>
    <rect x="333" y="155" width="74" height="6.5625" rx="2" fill="#F8F9FB"/>
    <rect x="333" y="164.844" width="36.5375" height="6.5625" rx="2" fill="#F8F9FB"/>
    <rect x="84" y="115" width="109" height="8" rx="2" fill="#F8F9FB"/>
    <rect x="84" y="128" width="109" height="8" rx="2" fill="#F8F9FB"/>
    <rect x="84" y="141" width="109" height="8" rx="2" fill="#F8F9FB"/>
    <rect x="84" y="154" width="80.3875" height="8" rx="2" fill="#F8F9FB"/>
    <rect x="84" y="82" width="109" height="10" rx="2" fill="#F8F9FB"/>
    <rect x="84" y="97" width="53.8187" height="10" rx="2" fill="#F8F9FB"/>
    <path d="M84.6125 71L87.8645 62.36H88.9685L85.8605 71H84.6125ZM91.2965 71L88.1885 62.36H89.3525L92.6165 71H91.2965ZM86.2565 67.556H90.8885V68.612H86.2565V67.556ZM93.8819 71V64.88H95.0699V66.32H95.1299V71H93.8819ZM98.2259 71V67.064C98.2259 66.64 98.1179 66.324 97.9019 66.116C97.6939 65.908 97.3819 65.804 96.9659 65.804C96.6059 65.804 96.2859 65.884 96.0059 66.044C95.7339 66.204 95.5179 66.424 95.3579 66.704C95.2059 66.984 95.1299 67.316 95.1299 67.7L94.9739 66.236C95.1739 65.78 95.4819 65.42 95.8979 65.156C96.3139 64.892 96.7979 64.76 97.3499 64.76C98.0059 64.76 98.5219 64.944 98.8979 65.312C99.2739 65.68 99.4619 66.168 99.4619 66.776V71H98.2259ZM101.136 71V64.88H102.384V71H101.136ZM101.076 63.68V62.276H102.456V63.68H101.076ZM104.136 71V64.88H105.324V66.32H105.384V71H104.136ZM108.264 71V67.004C108.264 66.588 108.168 66.284 107.976 66.092C107.784 65.9 107.508 65.804 107.148 65.804C106.812 65.804 106.508 65.884 106.236 66.044C105.972 66.196 105.764 66.412 105.612 66.692C105.46 66.964 105.384 67.288 105.384 67.664L105.228 66.236C105.428 65.78 105.728 65.42 106.128 65.156C106.536 64.892 106.992 64.76 107.496 64.76C108.104 64.76 108.588 64.936 108.948 65.288C109.316 65.64 109.5 66.104 109.5 66.68V71H108.264ZM112.392 71V67.004C112.392 66.588 112.292 66.284 112.092 66.092C111.9 65.9 111.624 65.804 111.264 65.804C110.936 65.804 110.636 65.884 110.364 66.044C110.1 66.196 109.888 66.412 109.728 66.692C109.576 66.964 109.5 67.288 109.5 67.664L109.248 66.236C109.456 65.78 109.768 65.42 110.184 65.156C110.608 64.892 111.08 64.76 111.6 64.76C112.216 64.76 112.708 64.94 113.076 65.3C113.444 65.652 113.628 66.124 113.628 66.716V71H112.392ZM121.463 71C121.423 70.848 121.395 70.68 121.379 70.496C121.371 70.312 121.367 70.088 121.367 69.824H121.307V66.908C121.307 66.516 121.207 66.224 121.007 66.032C120.815 65.832 120.507 65.732 120.083 65.732C119.675 65.732 119.347 65.812 119.099 65.972C118.859 66.132 118.719 66.36 118.679 66.656H117.491C117.547 66.08 117.807 65.62 118.271 65.276C118.735 64.932 119.355 64.76 120.131 64.76C120.931 64.76 121.531 64.948 121.931 65.324C122.331 65.692 122.531 66.236 122.531 66.956V69.824C122.531 70.008 122.543 70.196 122.567 70.388C122.591 70.58 122.627 70.784 122.675 71H121.463ZM119.351 71.12C118.727 71.12 118.231 70.968 117.863 70.664C117.495 70.352 117.311 69.932 117.311 69.404C117.311 68.86 117.503 68.432 117.887 68.12C118.279 67.8 118.839 67.584 119.567 67.472L121.583 67.148V68.024L119.759 68.312C119.351 68.376 119.043 68.484 118.835 68.636C118.635 68.788 118.535 69.008 118.535 69.296C118.535 69.576 118.627 69.788 118.811 69.932C119.003 70.068 119.279 70.136 119.639 70.136C120.119 70.136 120.515 70.02 120.827 69.788C121.147 69.556 121.307 69.264 121.307 68.912L121.463 69.8C121.319 70.224 121.063 70.552 120.695 70.784C120.327 71.008 119.879 71.12 119.351 71.12ZM126.108 71.12C125.7 71.12 125.34 71.036 125.028 70.868C124.716 70.692 124.472 70.452 124.296 70.148C124.128 69.844 124.044 69.496 124.044 69.104V64.88H125.292V68.816C125.292 69.24 125.396 69.556 125.604 69.764C125.812 69.972 126.108 70.076 126.492 70.076C126.836 70.076 127.14 69.996 127.404 69.836C127.676 69.676 127.888 69.456 128.04 69.176C128.2 68.888 128.28 68.556 128.28 68.18L128.436 69.644C128.236 70.092 127.928 70.452 127.512 70.724C127.104 70.988 126.636 71.12 126.108 71.12ZM128.328 71V69.56H128.28V64.88H129.516V71H128.328ZM133.81 71.12C133.098 71.12 132.574 70.956 132.238 70.628C131.91 70.292 131.746 69.8 131.746 69.152V63.476L132.982 63.008V69.164C132.982 69.484 133.066 69.72 133.234 69.872C133.402 70.024 133.674 70.1 134.05 70.1C134.194 70.1 134.322 70.088 134.434 70.064C134.546 70.04 134.642 70.012 134.722 69.98V70.988C134.634 71.028 134.51 71.06 134.35 71.084C134.19 71.108 134.01 71.12 133.81 71.12ZM130.522 65.876V64.88H134.722V65.876H130.522ZM138.393 71.12C137.777 71.12 137.233 70.984 136.761 70.712C136.297 70.44 135.933 70.064 135.669 69.584C135.405 69.104 135.273 68.552 135.273 67.928C135.273 67.296 135.401 66.744 135.657 66.272C135.921 65.792 136.289 65.42 136.761 65.156C137.233 64.892 137.773 64.76 138.381 64.76C138.973 64.76 139.485 64.888 139.917 65.144C140.357 65.392 140.693 65.74 140.925 66.188C141.165 66.636 141.285 67.168 141.285 67.784C141.285 67.88 141.281 67.972 141.273 68.06C141.273 68.14 141.265 68.224 141.249 68.312H136.113V67.376H140.373L140.061 67.748C140.061 67.092 139.913 66.592 139.617 66.248C139.321 65.904 138.909 65.732 138.381 65.732C137.813 65.732 137.361 65.928 137.025 66.32C136.697 66.704 136.533 67.24 136.533 67.928C136.533 68.624 136.697 69.168 137.025 69.56C137.361 69.952 137.825 70.148 138.417 70.148C138.777 70.148 139.089 70.076 139.353 69.932C139.617 69.78 139.813 69.56 139.941 69.272H141.117C140.917 69.848 140.577 70.3 140.097 70.628C139.625 70.956 139.057 71.12 138.393 71.12ZM144.929 71V64.88H146.117V66.32H146.177V71H144.929ZM149.057 71V67.004C149.057 66.588 148.961 66.284 148.769 66.092C148.577 65.9 148.301 65.804 147.941 65.804C147.605 65.804 147.301 65.884 147.029 66.044C146.765 66.196 146.557 66.412 146.405 66.692C146.253 66.964 146.177 67.288 146.177 67.664L146.021 66.236C146.221 65.78 146.521 65.42 146.921 65.156C147.329 64.892 147.785 64.76 148.289 64.76C148.897 64.76 149.381 64.936 149.741 65.288C150.109 65.64 150.293 66.104 150.293 66.68V71H149.057ZM153.185 71V67.004C153.185 66.588 153.085 66.284 152.885 66.092C152.693 65.9 152.417 65.804 152.057 65.804C151.729 65.804 151.429 65.884 151.157 66.044C150.893 66.196 150.681 66.412 150.521 66.692C150.369 66.964 150.293 67.288 150.293 67.664L150.041 66.236C150.249 65.78 150.561 65.42 150.977 65.156C151.401 64.892 151.873 64.76 152.393 64.76C153.009 64.76 153.501 64.94 153.869 65.3C154.237 65.652 154.421 66.124 154.421 66.716V71H153.185ZM159.818 71C159.778 70.848 159.75 70.68 159.734 70.496C159.726 70.312 159.722 70.088 159.722 69.824H159.662V66.908C159.662 66.516 159.562 66.224 159.362 66.032C159.17 65.832 158.862 65.732 158.438 65.732C158.03 65.732 157.702 65.812 157.454 65.972C157.214 66.132 157.074 66.36 157.034 66.656H155.846C155.902 66.08 156.162 65.62 156.626 65.276C157.09 64.932 157.71 64.76 158.486 64.76C159.286 64.76 159.886 64.948 160.286 65.324C160.686 65.692 160.886 66.236 160.886 66.956V69.824C160.886 70.008 160.898 70.196 160.922 70.388C160.946 70.58 160.982 70.784 161.03 71H159.818ZM157.706 71.12C157.082 71.12 156.586 70.968 156.218 70.664C155.85 70.352 155.666 69.932 155.666 69.404C155.666 68.86 155.858 68.432 156.242 68.12C156.634 67.8 157.194 67.584 157.922 67.472L159.938 67.148V68.024L158.114 68.312C157.706 68.376 157.398 68.484 157.19 68.636C156.99 68.788 156.89 69.008 156.89 69.296C156.89 69.576 156.982 69.788 157.166 69.932C157.358 70.068 157.634 70.136 157.994 70.136C158.474 70.136 158.87 70.02 159.182 69.788C159.502 69.556 159.662 69.264 159.662 68.912L159.818 69.8C159.674 70.224 159.418 70.552 159.05 70.784C158.682 71.008 158.234 71.12 157.706 71.12ZM165.098 73.58C164.33 73.58 163.694 73.404 163.19 73.052C162.694 72.708 162.394 72.248 162.29 71.672H163.466C163.546 71.936 163.722 72.144 163.994 72.296C164.274 72.448 164.646 72.524 165.11 72.524C165.71 72.524 166.158 72.376 166.454 72.08C166.75 71.784 166.898 71.344 166.898 70.76V69.44L167.006 69.464C166.886 69.928 166.626 70.296 166.226 70.568C165.826 70.832 165.346 70.964 164.786 70.964C164.25 70.964 163.778 70.836 163.37 70.58C162.962 70.324 162.646 69.968 162.422 69.512C162.198 69.048 162.086 68.508 162.086 67.892C162.086 67.268 162.202 66.72 162.434 66.248C162.666 65.776 162.99 65.412 163.406 65.156C163.83 64.9 164.322 64.772 164.882 64.772C165.458 64.772 165.934 64.912 166.31 65.192C166.694 65.464 166.938 65.852 167.042 66.356L166.946 66.368V64.88H168.134V70.748C168.134 71.628 167.862 72.32 167.318 72.824C166.782 73.328 166.042 73.58 165.098 73.58ZM165.158 69.956C165.694 69.956 166.122 69.768 166.442 69.392C166.77 69.016 166.934 68.5 166.934 67.844C166.934 67.204 166.77 66.7 166.442 66.332C166.122 65.964 165.69 65.78 165.146 65.78C164.602 65.78 164.17 65.968 163.85 66.344C163.53 66.712 163.37 67.224 163.37 67.88C163.37 68.52 163.53 69.028 163.85 69.404C164.178 69.772 164.614 69.956 165.158 69.956ZM169.89 71V64.88H171.078V66.32H171.138V71H169.89ZM174.234 71V67.064C174.234 66.64 174.126 66.324 173.91 66.116C173.702 65.908 173.39 65.804 172.974 65.804C172.614 65.804 172.294 65.884 172.014 66.044C171.742 66.204 171.526 66.424 171.366 66.704C171.214 66.984 171.138 67.316 171.138 67.7L170.982 66.236C171.182 65.78 171.49 65.42 171.906 65.156C172.322 64.892 172.806 64.76 173.358 64.76C174.014 64.76 174.53 64.944 174.906 65.312C175.282 65.68 175.47 66.168 175.47 66.776V71H174.234ZM180.889 71C180.849 70.848 180.821 70.68 180.805 70.496C180.797 70.312 180.793 70.088 180.793 69.824H180.733V66.908C180.733 66.516 180.633 66.224 180.433 66.032C180.241 65.832 179.933 65.732 179.509 65.732C179.101 65.732 178.773 65.812 178.525 65.972C178.285 66.132 178.145 66.36 178.105 66.656H176.917C176.973 66.08 177.233 65.62 177.697 65.276C178.161 64.932 178.781 64.76 179.557 64.76C180.357 64.76 180.957 64.948 181.357 65.324C181.757 65.692 181.957 66.236 181.957 66.956V69.824C181.957 70.008 181.969 70.196 181.993 70.388C182.017 70.58 182.053 70.784 182.101 71H180.889ZM178.777 71.12C178.153 71.12 177.657 70.968 177.289 70.664C176.921 70.352 176.737 69.932 176.737 69.404C176.737 68.86 176.929 68.432 177.313 68.12C177.705 67.8 178.265 67.584 178.993 67.472L181.009 67.148V68.024L179.185 68.312C178.777 68.376 178.469 68.484 178.261 68.636C178.061 68.788 177.961 69.008 177.961 69.296C177.961 69.576 178.053 69.788 178.237 69.932C178.429 70.068 178.705 70.136 179.065 70.136C179.545 70.136 179.941 70.02 180.253 69.788C180.573 69.556 180.733 69.264 180.733 68.912L180.889 69.8C180.745 70.224 180.489 70.552 180.121 70.784C179.753 71.008 179.305 71.12 178.777 71.12Z" fill="#212121"/>
    <rect x="84" y="205" width="16" height="16" rx="4" fill="white"/>
    <path d="M94.3333 213L89.6667 213M89.6667 213L92 215.333M89.6667 213L92 210.667" stroke="#1D1D1B" stroke-width="0.5" stroke-linecap="square" stroke-linejoin="round"/>
    <rect x="108" y="205" width="16" height="16" rx="4" fill="#98C5D5"/>
    <path d="M113.667 213H118.333M118.333 213L116 210.667M118.333 213L116 215.333" stroke="#1D1D1B" stroke-width="0.5" stroke-linecap="square" stroke-linejoin="round"/>
  </g>
  <defs>
    <clipPath id="clip0_2934_3669">
      <rect width="500" height="280" fill="white"/>
    </clipPath>
    <clipPath id="clip1_2934_3669">
      <rect width="25" height="25" fill="white" transform="translate(357 88)"/>
    </clipPath>
  </defs>
</svg>
