<svg viewBox="0 0 500 280" fill="none"
  xmlns="http://www.w3.org/2000/svg">
  <g clip-path="url(#clip0_2926_3107)">
    <rect width="500" height="280" fill="#FBFBFB"/>
    <rect x="53.5" y="-9.5" width="399" height="299" fill="white" stroke="#EBEBEB"/>
    <rect x="82" y="144" width="265" height="8" rx="2" fill="#F8F9FB"/>
    <rect x="82" y="157" width="265" height="8" rx="2" fill="#F8F9FB"/>
    <rect x="82" y="170" width="265" height="8" rx="2" fill="#F8F9FB"/>
    <rect x="82" y="183" width="195.438" height="8" rx="2" fill="#F8F9FB"/>
    <rect x="82" y="206" width="9" height="8" rx="2" fill="#F8F9FB"/>
    <rect x="82" y="219" width="9" height="8" rx="2" fill="#F8F9FB"/>
    <rect x="82" y="232" width="9" height="8" rx="2" fill="#F8F9FB"/>
    <rect x="82" y="245" width="9" height="8" rx="2" fill="#F8F9FB"/>
    <rect x="94" y="206" width="183" height="8" rx="2" fill="#F8F9FB"/>
    <rect x="94" y="219" width="183" height="8" rx="2" fill="#F8F9FB"/>
    <rect x="94" y="232" width="183" height="8" rx="2" fill="#F8F9FB"/>
    <rect x="94" y="245" width="134.962" height="8" rx="2" fill="#F8F9FB"/>
    <rect x="82" y="84" width="160" height="8" rx="2" fill="#F8F9FB"/>
    <rect x="82" y="97" width="160" height="8" rx="2" fill="#F8F9FB"/>
    <rect x="82" y="110" width="160" height="8" rx="2" fill="#F8F9FB"/>
    <rect x="82" y="123" width="118" height="8" rx="2" fill="#F8F9FB"/>
    <rect x="82" y="51" width="160" height="10" rx="2" fill="#F8F9FB"/>
    <rect x="82" y="66" width="79" height="10" rx="2" fill="#F8F9FB"/>
    <path d="M82.843 40L86.095 31.36H87.199L84.091 40H82.843ZM89.527 40L86.419 31.36H87.583L90.847 40H89.527ZM84.487 36.556H89.119V37.612H84.487V36.556ZM92.1123 40V33.88H93.3003V35.32H93.3603V40H92.1123ZM96.4563 40V36.064C96.4563 35.64 96.3483 35.324 96.1323 35.116C95.9243 34.908 95.6123 34.804 95.1963 34.804C94.8363 34.804 94.5163 34.884 94.2363 35.044C93.9643 35.204 93.7483 35.424 93.5883 35.704C93.4363 35.984 93.3603 36.316 93.3603 36.7L93.2043 35.236C93.4043 34.78 93.7123 34.42 94.1283 34.156C94.5443 33.892 95.0283 33.76 95.5803 33.76C96.2363 33.76 96.7523 33.944 97.1283 34.312C97.5043 34.68 97.6923 35.168 97.6923 35.776V40H96.4563ZM99.3662 40V33.88H100.614V40H99.3662ZM99.3062 32.68V31.276H100.686V32.68H99.3062ZM102.366 40V33.88H103.554V35.32H103.614V40H102.366ZM106.494 40V36.004C106.494 35.588 106.398 35.284 106.206 35.092C106.014 34.9 105.738 34.804 105.378 34.804C105.042 34.804 104.738 34.884 104.466 35.044C104.202 35.196 103.994 35.412 103.842 35.692C103.69 35.964 103.614 36.288 103.614 36.664L103.458 35.236C103.658 34.78 103.958 34.42 104.358 34.156C104.766 33.892 105.222 33.76 105.726 33.76C106.334 33.76 106.818 33.936 107.178 34.288C107.546 34.64 107.73 35.104 107.73 35.68V40H106.494ZM110.622 40V36.004C110.622 35.588 110.522 35.284 110.322 35.092C110.13 34.9 109.854 34.804 109.494 34.804C109.166 34.804 108.866 34.884 108.594 35.044C108.33 35.196 108.118 35.412 107.958 35.692C107.806 35.964 107.73 36.288 107.73 36.664L107.478 35.236C107.686 34.78 107.998 34.42 108.414 34.156C108.838 33.892 109.31 33.76 109.83 33.76C110.446 33.76 110.938 33.94 111.306 34.3C111.674 34.652 111.858 35.124 111.858 35.716V40H110.622ZM119.693 40C119.653 39.848 119.625 39.68 119.609 39.496C119.601 39.312 119.597 39.088 119.597 38.824H119.537V35.908C119.537 35.516 119.437 35.224 119.237 35.032C119.045 34.832 118.737 34.732 118.313 34.732C117.905 34.732 117.577 34.812 117.329 34.972C117.089 35.132 116.949 35.36 116.909 35.656H115.721C115.777 35.08 116.037 34.62 116.501 34.276C116.965 33.932 117.585 33.76 118.361 33.76C119.161 33.76 119.761 33.948 120.161 34.324C120.561 34.692 120.761 35.236 120.761 35.956V38.824C120.761 39.008 120.773 39.196 120.797 39.388C120.821 39.58 120.857 39.784 120.905 40H119.693ZM117.581 40.12C116.957 40.12 116.461 39.968 116.093 39.664C115.725 39.352 115.541 38.932 115.541 38.404C115.541 37.86 115.733 37.432 116.117 37.12C116.509 36.8 117.069 36.584 117.797 36.472L119.813 36.148V37.024L117.989 37.312C117.581 37.376 117.273 37.484 117.065 37.636C116.865 37.788 116.765 38.008 116.765 38.296C116.765 38.576 116.857 38.788 117.041 38.932C117.233 39.068 117.509 39.136 117.869 39.136C118.349 39.136 118.745 39.02 119.057 38.788C119.377 38.556 119.537 38.264 119.537 37.912L119.693 38.8C119.549 39.224 119.293 39.552 118.925 39.784C118.557 40.008 118.109 40.12 117.581 40.12ZM124.339 40.12C123.931 40.12 123.571 40.036 123.259 39.868C122.947 39.692 122.703 39.452 122.527 39.148C122.359 38.844 122.275 38.496 122.275 38.104V33.88H123.523V37.816C123.523 38.24 123.627 38.556 123.835 38.764C124.043 38.972 124.339 39.076 124.723 39.076C125.067 39.076 125.371 38.996 125.635 38.836C125.907 38.676 126.119 38.456 126.271 38.176C126.431 37.888 126.511 37.556 126.511 37.18L126.667 38.644C126.467 39.092 126.159 39.452 125.743 39.724C125.335 39.988 124.867 40.12 124.339 40.12ZM126.559 40V38.56H126.511V33.88H127.747V40H126.559ZM132.041 40.12C131.329 40.12 130.805 39.956 130.469 39.628C130.141 39.292 129.977 38.8 129.977 38.152V32.476L131.213 32.008V38.164C131.213 38.484 131.297 38.72 131.465 38.872C131.633 39.024 131.905 39.1 132.281 39.1C132.425 39.1 132.553 39.088 132.665 39.064C132.777 39.04 132.873 39.012 132.953 38.98V39.988C132.865 40.028 132.741 40.06 132.581 40.084C132.421 40.108 132.241 40.12 132.041 40.12ZM128.753 34.876V33.88H132.953V34.876H128.753ZM136.623 40.12C136.007 40.12 135.463 39.984 134.991 39.712C134.527 39.44 134.163 39.064 133.899 38.584C133.635 38.104 133.503 37.552 133.503 36.928C133.503 36.296 133.631 35.744 133.887 35.272C134.151 34.792 134.519 34.42 134.991 34.156C135.463 33.892 136.003 33.76 136.611 33.76C137.203 33.76 137.715 33.888 138.147 34.144C138.587 34.392 138.923 34.74 139.155 35.188C139.395 35.636 139.515 36.168 139.515 36.784C139.515 36.88 139.511 36.972 139.503 37.06C139.503 37.14 139.495 37.224 139.479 37.312H134.343V36.376H138.603L138.291 36.748C138.291 36.092 138.143 35.592 137.847 35.248C137.551 34.904 137.139 34.732 136.611 34.732C136.043 34.732 135.591 34.928 135.255 35.32C134.927 35.704 134.763 36.24 134.763 36.928C134.763 37.624 134.927 38.168 135.255 38.56C135.591 38.952 136.055 39.148 136.647 39.148C137.007 39.148 137.319 39.076 137.583 38.932C137.847 38.78 138.043 38.56 138.171 38.272H139.347C139.147 38.848 138.807 39.3 138.327 39.628C137.855 39.956 137.287 40.12 136.623 40.12ZM143.159 40V33.88H144.407V40H143.159ZM143.099 32.68V31.276H144.479V32.68H143.099ZM150.54 40V38.596L150.66 38.632C150.532 39.088 150.268 39.452 149.868 39.724C149.468 39.988 148.988 40.12 148.428 40.12C147.876 40.12 147.392 39.988 146.976 39.724C146.568 39.46 146.248 39.092 146.016 38.62C145.792 38.148 145.68 37.596 145.68 36.964C145.68 36.324 145.796 35.764 146.028 35.284C146.26 34.804 146.584 34.432 147 34.168C147.416 33.904 147.904 33.772 148.464 33.772C149.048 33.772 149.528 33.912 149.904 34.192C150.288 34.464 150.54 34.848 150.66 35.344L150.492 35.368V31.36H151.728V40H150.54ZM148.74 39.076C149.292 39.076 149.728 38.888 150.048 38.512C150.368 38.128 150.528 37.6 150.528 36.928C150.528 36.272 150.364 35.756 150.036 35.38C149.716 34.996 149.28 34.804 148.728 34.804C148.184 34.804 147.752 34.996 147.432 35.38C147.12 35.756 146.964 36.284 146.964 36.964C146.964 37.628 147.12 38.148 147.432 38.524C147.752 38.892 148.188 39.076 148.74 39.076ZM155.851 40V33.88H157.039V35.32H157.099V40H155.851ZM159.979 40V36.004C159.979 35.588 159.883 35.284 159.691 35.092C159.499 34.9 159.223 34.804 158.863 34.804C158.527 34.804 158.223 34.884 157.951 35.044C157.687 35.196 157.479 35.412 157.327 35.692C157.175 35.964 157.099 36.288 157.099 36.664L156.943 35.236C157.143 34.78 157.443 34.42 157.843 34.156C158.251 33.892 158.707 33.76 159.211 33.76C159.819 33.76 160.303 33.936 160.663 34.288C161.031 34.64 161.215 35.104 161.215 35.68V40H159.979ZM164.107 40V36.004C164.107 35.588 164.007 35.284 163.807 35.092C163.615 34.9 163.339 34.804 162.979 34.804C162.651 34.804 162.351 34.884 162.079 35.044C161.815 35.196 161.603 35.412 161.443 35.692C161.291 35.964 161.215 36.288 161.215 36.664L160.963 35.236C161.171 34.78 161.483 34.42 161.899 34.156C162.323 33.892 162.795 33.76 163.315 33.76C163.931 33.76 164.423 33.94 164.791 34.3C165.159 34.652 165.343 35.124 165.343 35.716V40H164.107ZM170.74 40C170.7 39.848 170.672 39.68 170.656 39.496C170.648 39.312 170.644 39.088 170.644 38.824H170.584V35.908C170.584 35.516 170.484 35.224 170.284 35.032C170.092 34.832 169.784 34.732 169.36 34.732C168.952 34.732 168.624 34.812 168.376 34.972C168.136 35.132 167.996 35.36 167.956 35.656H166.768C166.824 35.08 167.084 34.62 167.548 34.276C168.012 33.932 168.632 33.76 169.408 33.76C170.208 33.76 170.808 33.948 171.208 34.324C171.608 34.692 171.808 35.236 171.808 35.956V38.824C171.808 39.008 171.82 39.196 171.844 39.388C171.868 39.58 171.904 39.784 171.952 40H170.74ZM168.628 40.12C168.004 40.12 167.508 39.968 167.14 39.664C166.772 39.352 166.588 38.932 166.588 38.404C166.588 37.86 166.78 37.432 167.164 37.12C167.556 36.8 168.116 36.584 168.844 36.472L170.86 36.148V37.024L169.036 37.312C168.628 37.376 168.32 37.484 168.112 37.636C167.912 37.788 167.812 38.008 167.812 38.296C167.812 38.576 167.904 38.788 168.088 38.932C168.28 39.068 168.556 39.136 168.916 39.136C169.396 39.136 169.792 39.02 170.104 38.788C170.424 38.556 170.584 38.264 170.584 37.912L170.74 38.8C170.596 39.224 170.34 39.552 169.972 39.784C169.604 40.008 169.156 40.12 168.628 40.12ZM176.02 42.58C175.252 42.58 174.616 42.404 174.112 42.052C173.616 41.708 173.316 41.248 173.212 40.672H174.388C174.468 40.936 174.644 41.144 174.916 41.296C175.196 41.448 175.568 41.524 176.032 41.524C176.632 41.524 177.08 41.376 177.376 41.08C177.672 40.784 177.82 40.344 177.82 39.76V38.44L177.928 38.464C177.808 38.928 177.548 39.296 177.148 39.568C176.748 39.832 176.268 39.964 175.708 39.964C175.172 39.964 174.7 39.836 174.292 39.58C173.884 39.324 173.568 38.968 173.344 38.512C173.12 38.048 173.008 37.508 173.008 36.892C173.008 36.268 173.124 35.72 173.356 35.248C173.588 34.776 173.912 34.412 174.328 34.156C174.752 33.9 175.244 33.772 175.804 33.772C176.38 33.772 176.856 33.912 177.232 34.192C177.616 34.464 177.86 34.852 177.964 35.356L177.868 35.368V33.88H179.056V39.748C179.056 40.628 178.784 41.32 178.24 41.824C177.704 42.328 176.964 42.58 176.02 42.58ZM176.08 38.956C176.616 38.956 177.044 38.768 177.364 38.392C177.692 38.016 177.856 37.5 177.856 36.844C177.856 36.204 177.692 35.7 177.364 35.332C177.044 34.964 176.612 34.78 176.068 34.78C175.524 34.78 175.092 34.968 174.772 35.344C174.452 35.712 174.292 36.224 174.292 36.88C174.292 37.52 174.452 38.028 174.772 38.404C175.1 38.772 175.536 38.956 176.08 38.956ZM180.812 40V33.88H182V35.32H182.06V40H180.812ZM185.156 40V36.064C185.156 35.64 185.048 35.324 184.832 35.116C184.624 34.908 184.312 34.804 183.896 34.804C183.536 34.804 183.216 34.884 182.936 35.044C182.664 35.204 182.448 35.424 182.288 35.704C182.136 35.984 182.06 36.316 182.06 36.7L181.904 35.236C182.104 34.78 182.412 34.42 182.828 34.156C183.244 33.892 183.728 33.76 184.28 33.76C184.936 33.76 185.452 33.944 185.828 34.312C186.204 34.68 186.392 35.168 186.392 35.776V40H185.156ZM191.811 40C191.771 39.848 191.743 39.68 191.727 39.496C191.719 39.312 191.715 39.088 191.715 38.824H191.655V35.908C191.655 35.516 191.555 35.224 191.355 35.032C191.163 34.832 190.855 34.732 190.431 34.732C190.023 34.732 189.695 34.812 189.447 34.972C189.207 35.132 189.067 35.36 189.027 35.656H187.839C187.895 35.08 188.155 34.62 188.619 34.276C189.083 33.932 189.703 33.76 190.479 33.76C191.279 33.76 191.879 33.948 192.279 34.324C192.679 34.692 192.879 35.236 192.879 35.956V38.824C192.879 39.008 192.891 39.196 192.915 39.388C192.939 39.58 192.975 39.784 193.023 40H191.811ZM189.699 40.12C189.075 40.12 188.579 39.968 188.211 39.664C187.843 39.352 187.659 38.932 187.659 38.404C187.659 37.86 187.851 37.432 188.235 37.12C188.627 36.8 189.187 36.584 189.915 36.472L191.931 36.148V37.024L190.107 37.312C189.699 37.376 189.391 37.484 189.183 37.636C188.983 37.788 188.883 38.008 188.883 38.296C188.883 38.576 188.975 38.788 189.159 38.932C189.351 39.068 189.627 39.136 189.987 39.136C190.467 39.136 190.863 39.02 191.175 38.788C191.495 38.556 191.655 38.264 191.655 37.912L191.811 38.8C191.667 39.224 191.411 39.552 191.043 39.784C190.675 40.008 190.227 40.12 189.699 40.12ZM200.729 40C200.689 39.848 200.661 39.68 200.645 39.496C200.637 39.312 200.633 39.088 200.633 38.824H200.573V35.908C200.573 35.516 200.473 35.224 200.273 35.032C200.081 34.832 199.773 34.732 199.349 34.732C198.941 34.732 198.613 34.812 198.365 34.972C198.125 35.132 197.985 35.36 197.945 35.656H196.757C196.813 35.08 197.073 34.62 197.537 34.276C198.001 33.932 198.621 33.76 199.397 33.76C200.197 33.76 200.797 33.948 201.197 34.324C201.597 34.692 201.797 35.236 201.797 35.956V38.824C201.797 39.008 201.809 39.196 201.833 39.388C201.857 39.58 201.893 39.784 201.941 40H200.729ZM198.617 40.12C197.993 40.12 197.497 39.968 197.129 39.664C196.761 39.352 196.577 38.932 196.577 38.404C196.577 37.86 196.769 37.432 197.153 37.12C197.545 36.8 198.105 36.584 198.833 36.472L200.849 36.148V37.024L199.025 37.312C198.617 37.376 198.309 37.484 198.101 37.636C197.901 37.788 197.801 38.008 197.801 38.296C197.801 38.576 197.893 38.788 198.077 38.932C198.269 39.068 198.545 39.136 198.905 39.136C199.385 39.136 199.781 39.02 200.093 38.788C200.413 38.556 200.573 38.264 200.573 37.912L200.729 38.8C200.585 39.224 200.329 39.552 199.961 39.784C199.593 40.008 199.145 40.12 198.617 40.12ZM203.487 40V31.36H204.735V40H203.487ZM206.487 40V33.88H207.735V40H206.487ZM206.427 32.68V31.276H207.807V32.68H206.427ZM213.82 42.46V38.596L213.988 38.632C213.86 39.088 213.596 39.452 213.196 39.724C212.796 39.988 212.316 40.12 211.756 40.12C211.204 40.12 210.72 39.992 210.304 39.736C209.896 39.472 209.576 39.104 209.344 38.632C209.12 38.152 209.008 37.596 209.008 36.964C209.008 36.324 209.124 35.764 209.356 35.284C209.588 34.804 209.912 34.432 210.328 34.168C210.744 33.904 211.232 33.772 211.792 33.772C212.376 33.772 212.856 33.912 213.232 34.192C213.616 34.464 213.868 34.848 213.988 35.344L213.868 35.368V33.88H215.056V42.46H213.82ZM212.068 39.076C212.628 39.076 213.064 38.888 213.376 38.512C213.696 38.128 213.856 37.6 213.856 36.928C213.856 36.272 213.696 35.756 213.376 35.38C213.056 34.996 212.616 34.804 212.056 34.804C211.504 34.804 211.072 34.996 210.76 35.38C210.448 35.756 210.292 36.284 210.292 36.964C210.292 37.628 210.448 38.148 210.76 38.524C211.08 38.892 211.516 39.076 212.068 39.076ZM218.804 40.12C218.396 40.12 218.036 40.036 217.724 39.868C217.412 39.692 217.168 39.452 216.992 39.148C216.824 38.844 216.74 38.496 216.74 38.104V33.88H217.988V37.816C217.988 38.24 218.092 38.556 218.3 38.764C218.508 38.972 218.804 39.076 219.188 39.076C219.532 39.076 219.836 38.996 220.1 38.836C220.372 38.676 220.584 38.456 220.736 38.176C220.896 37.888 220.976 37.556 220.976 37.18L221.132 38.644C220.932 39.092 220.624 39.452 220.208 39.724C219.8 39.988 219.332 40.12 218.804 40.12ZM221.024 40V38.56H220.976V33.88H222.212V40H221.024ZM227.658 40C227.618 39.848 227.59 39.68 227.574 39.496C227.566 39.312 227.562 39.088 227.562 38.824H227.502V35.908C227.502 35.516 227.402 35.224 227.202 35.032C227.01 34.832 226.702 34.732 226.278 34.732C225.87 34.732 225.542 34.812 225.294 34.972C225.054 35.132 224.914 35.36 224.874 35.656H223.686C223.742 35.08 224.002 34.62 224.466 34.276C224.93 33.932 225.55 33.76 226.326 33.76C227.126 33.76 227.726 33.948 228.126 34.324C228.526 34.692 228.726 35.236 228.726 35.956V38.824C228.726 39.008 228.738 39.196 228.762 39.388C228.786 39.58 228.822 39.784 228.87 40H227.658ZM225.546 40.12C224.922 40.12 224.426 39.968 224.058 39.664C223.69 39.352 223.506 38.932 223.506 38.404C223.506 37.86 223.698 37.432 224.082 37.12C224.474 36.8 225.034 36.584 225.762 36.472L227.778 36.148V37.024L225.954 37.312C225.546 37.376 225.238 37.484 225.03 37.636C224.83 37.788 224.73 38.008 224.73 38.296C224.73 38.576 224.822 38.788 225.006 38.932C225.198 39.068 225.474 39.136 225.834 39.136C226.314 39.136 226.71 39.02 227.022 38.788C227.342 38.556 227.502 38.264 227.502 37.912L227.658 38.8C227.514 39.224 227.258 39.552 226.89 39.784C226.522 40.008 226.074 40.12 225.546 40.12Z" fill="#212121"/>
  </g>
  <defs>
    <clipPath id="clip0_2926_3107">
      <rect width="500" height="280" fill="white"/>
    </clipPath>
  </defs>
</svg>
