<svg viewBox="0 0 500 280" fill="none"
  xmlns="http://www.w3.org/2000/svg">
  <g clip-path="url(#clip0_2940_3406)">
    <rect width="500" height="280" fill="#FBFBFB"/>
    <rect x="53.5" y="-9.5" width="399" height="299" fill="white" stroke="#EBEBEB"/>
    <rect x="80" y="42" width="160" height="10" rx="2" fill="#F8F9FB"/>
    <rect x="80" y="57" width="79" height="10" rx="2" fill="#F8F9FB"/>
    <path d="M80.843 31L84.095 22.36H85.199L82.091 31H80.843ZM87.527 31L84.419 22.36H85.583L88.847 31H87.527ZM82.487 27.556H87.119V28.612H82.487V27.556ZM90.1123 31V24.88H91.3003V26.32H91.3603V31H90.1123ZM94.4563 31V27.064C94.4563 26.64 94.3483 26.324 94.1323 26.116C93.9243 25.908 93.6123 25.804 93.1963 25.804C92.8363 25.804 92.5163 25.884 92.2363 26.044C91.9643 26.204 91.7483 26.424 91.5883 26.704C91.4363 26.984 91.3603 27.316 91.3603 27.7L91.2043 26.236C91.4043 25.78 91.7123 25.42 92.1283 25.156C92.5443 24.892 93.0283 24.76 93.5803 24.76C94.2363 24.76 94.7523 24.944 95.1283 25.312C95.5043 25.68 95.6923 26.168 95.6923 26.776V31H94.4563ZM97.3662 31V24.88H98.6142V31H97.3662ZM97.3062 23.68V22.276H98.6862V23.68H97.3062ZM100.366 31V24.88H101.554V26.32H101.614V31H100.366ZM104.494 31V27.004C104.494 26.588 104.398 26.284 104.206 26.092C104.014 25.9 103.738 25.804 103.378 25.804C103.042 25.804 102.738 25.884 102.466 26.044C102.202 26.196 101.994 26.412 101.842 26.692C101.69 26.964 101.614 27.288 101.614 27.664L101.458 26.236C101.658 25.78 101.958 25.42 102.358 25.156C102.766 24.892 103.222 24.76 103.726 24.76C104.334 24.76 104.818 24.936 105.178 25.288C105.546 25.64 105.73 26.104 105.73 26.68V31H104.494ZM108.622 31V27.004C108.622 26.588 108.522 26.284 108.322 26.092C108.13 25.9 107.854 25.804 107.494 25.804C107.166 25.804 106.866 25.884 106.594 26.044C106.33 26.196 106.118 26.412 105.958 26.692C105.806 26.964 105.73 27.288 105.73 27.664L105.478 26.236C105.686 25.78 105.998 25.42 106.414 25.156C106.838 24.892 107.31 24.76 107.83 24.76C108.446 24.76 108.938 24.94 109.306 25.3C109.674 25.652 109.858 26.124 109.858 26.716V31H108.622ZM117.693 31C117.653 30.848 117.625 30.68 117.609 30.496C117.601 30.312 117.597 30.088 117.597 29.824H117.537V26.908C117.537 26.516 117.437 26.224 117.237 26.032C117.045 25.832 116.737 25.732 116.313 25.732C115.905 25.732 115.577 25.812 115.329 25.972C115.089 26.132 114.949 26.36 114.909 26.656H113.721C113.777 26.08 114.037 25.62 114.501 25.276C114.965 24.932 115.585 24.76 116.361 24.76C117.161 24.76 117.761 24.948 118.161 25.324C118.561 25.692 118.761 26.236 118.761 26.956V29.824C118.761 30.008 118.773 30.196 118.797 30.388C118.821 30.58 118.857 30.784 118.905 31H117.693ZM115.581 31.12C114.957 31.12 114.461 30.968 114.093 30.664C113.725 30.352 113.541 29.932 113.541 29.404C113.541 28.86 113.733 28.432 114.117 28.12C114.509 27.8 115.069 27.584 115.797 27.472L117.813 27.148V28.024L115.989 28.312C115.581 28.376 115.273 28.484 115.065 28.636C114.865 28.788 114.765 29.008 114.765 29.296C114.765 29.576 114.857 29.788 115.041 29.932C115.233 30.068 115.509 30.136 115.869 30.136C116.349 30.136 116.745 30.02 117.057 29.788C117.377 29.556 117.537 29.264 117.537 28.912L117.693 29.8C117.549 30.224 117.293 30.552 116.925 30.784C116.557 31.008 116.109 31.12 115.581 31.12ZM122.339 31.12C121.931 31.12 121.571 31.036 121.259 30.868C120.947 30.692 120.703 30.452 120.527 30.148C120.359 29.844 120.275 29.496 120.275 29.104V24.88H121.523V28.816C121.523 29.24 121.627 29.556 121.835 29.764C122.043 29.972 122.339 30.076 122.723 30.076C123.067 30.076 123.371 29.996 123.635 29.836C123.907 29.676 124.119 29.456 124.271 29.176C124.431 28.888 124.511 28.556 124.511 28.18L124.667 29.644C124.467 30.092 124.159 30.452 123.743 30.724C123.335 30.988 122.867 31.12 122.339 31.12ZM124.559 31V29.56H124.511V24.88H125.747V31H124.559ZM130.041 31.12C129.329 31.12 128.805 30.956 128.469 30.628C128.141 30.292 127.977 29.8 127.977 29.152V23.476L129.213 23.008V29.164C129.213 29.484 129.297 29.72 129.465 29.872C129.633 30.024 129.905 30.1 130.281 30.1C130.425 30.1 130.553 30.088 130.665 30.064C130.777 30.04 130.873 30.012 130.953 29.98V30.988C130.865 31.028 130.741 31.06 130.581 31.084C130.421 31.108 130.241 31.12 130.041 31.12ZM126.753 25.876V24.88H130.953V25.876H126.753ZM134.623 31.12C134.007 31.12 133.463 30.984 132.991 30.712C132.527 30.44 132.163 30.064 131.899 29.584C131.635 29.104 131.503 28.552 131.503 27.928C131.503 27.296 131.631 26.744 131.887 26.272C132.151 25.792 132.519 25.42 132.991 25.156C133.463 24.892 134.003 24.76 134.611 24.76C135.203 24.76 135.715 24.888 136.147 25.144C136.587 25.392 136.923 25.74 137.155 26.188C137.395 26.636 137.515 27.168 137.515 27.784C137.515 27.88 137.511 27.972 137.503 28.06C137.503 28.14 137.495 28.224 137.479 28.312H132.343V27.376H136.603L136.291 27.748C136.291 27.092 136.143 26.592 135.847 26.248C135.551 25.904 135.139 25.732 134.611 25.732C134.043 25.732 133.591 25.928 133.255 26.32C132.927 26.704 132.763 27.24 132.763 27.928C132.763 28.624 132.927 29.168 133.255 29.56C133.591 29.952 134.055 30.148 134.647 30.148C135.007 30.148 135.319 30.076 135.583 29.932C135.847 29.78 136.043 29.56 136.171 29.272H137.347C137.147 29.848 136.807 30.3 136.327 30.628C135.855 30.956 135.287 31.12 134.623 31.12ZM141.159 31V24.88H142.407V31H141.159ZM141.099 23.68V22.276H142.479V23.68H141.099ZM148.54 31V29.596L148.66 29.632C148.532 30.088 148.268 30.452 147.868 30.724C147.468 30.988 146.988 31.12 146.428 31.12C145.876 31.12 145.392 30.988 144.976 30.724C144.568 30.46 144.248 30.092 144.016 29.62C143.792 29.148 143.68 28.596 143.68 27.964C143.68 27.324 143.796 26.764 144.028 26.284C144.26 25.804 144.584 25.432 145 25.168C145.416 24.904 145.904 24.772 146.464 24.772C147.048 24.772 147.528 24.912 147.904 25.192C148.288 25.464 148.54 25.848 148.66 26.344L148.492 26.368V22.36H149.728V31H148.54ZM146.74 30.076C147.292 30.076 147.728 29.888 148.048 29.512C148.368 29.128 148.528 28.6 148.528 27.928C148.528 27.272 148.364 26.756 148.036 26.38C147.716 25.996 147.28 25.804 146.728 25.804C146.184 25.804 145.752 25.996 145.432 26.38C145.12 26.756 144.964 27.284 144.964 27.964C144.964 28.628 145.12 29.148 145.432 29.524C145.752 29.892 146.188 30.076 146.74 30.076ZM153.851 31V24.88H155.039V26.32H155.099V31H153.851ZM157.979 31V27.004C157.979 26.588 157.883 26.284 157.691 26.092C157.499 25.9 157.223 25.804 156.863 25.804C156.527 25.804 156.223 25.884 155.951 26.044C155.687 26.196 155.479 26.412 155.327 26.692C155.175 26.964 155.099 27.288 155.099 27.664L154.943 26.236C155.143 25.78 155.443 25.42 155.843 25.156C156.251 24.892 156.707 24.76 157.211 24.76C157.819 24.76 158.303 24.936 158.663 25.288C159.031 25.64 159.215 26.104 159.215 26.68V31H157.979ZM162.107 31V27.004C162.107 26.588 162.007 26.284 161.807 26.092C161.615 25.9 161.339 25.804 160.979 25.804C160.651 25.804 160.351 25.884 160.079 26.044C159.815 26.196 159.603 26.412 159.443 26.692C159.291 26.964 159.215 27.288 159.215 27.664L158.963 26.236C159.171 25.78 159.483 25.42 159.899 25.156C160.323 24.892 160.795 24.76 161.315 24.76C161.931 24.76 162.423 24.94 162.791 25.3C163.159 25.652 163.343 26.124 163.343 26.716V31H162.107ZM168.74 31C168.7 30.848 168.672 30.68 168.656 30.496C168.648 30.312 168.644 30.088 168.644 29.824H168.584V26.908C168.584 26.516 168.484 26.224 168.284 26.032C168.092 25.832 167.784 25.732 167.36 25.732C166.952 25.732 166.624 25.812 166.376 25.972C166.136 26.132 165.996 26.36 165.956 26.656H164.768C164.824 26.08 165.084 25.62 165.548 25.276C166.012 24.932 166.632 24.76 167.408 24.76C168.208 24.76 168.808 24.948 169.208 25.324C169.608 25.692 169.808 26.236 169.808 26.956V29.824C169.808 30.008 169.82 30.196 169.844 30.388C169.868 30.58 169.904 30.784 169.952 31H168.74ZM166.628 31.12C166.004 31.12 165.508 30.968 165.14 30.664C164.772 30.352 164.588 29.932 164.588 29.404C164.588 28.86 164.78 28.432 165.164 28.12C165.556 27.8 166.116 27.584 166.844 27.472L168.86 27.148V28.024L167.036 28.312C166.628 28.376 166.32 28.484 166.112 28.636C165.912 28.788 165.812 29.008 165.812 29.296C165.812 29.576 165.904 29.788 166.088 29.932C166.28 30.068 166.556 30.136 166.916 30.136C167.396 30.136 167.792 30.02 168.104 29.788C168.424 29.556 168.584 29.264 168.584 28.912L168.74 29.8C168.596 30.224 168.34 30.552 167.972 30.784C167.604 31.008 167.156 31.12 166.628 31.12ZM174.02 33.58C173.252 33.58 172.616 33.404 172.112 33.052C171.616 32.708 171.316 32.248 171.212 31.672H172.388C172.468 31.936 172.644 32.144 172.916 32.296C173.196 32.448 173.568 32.524 174.032 32.524C174.632 32.524 175.08 32.376 175.376 32.08C175.672 31.784 175.82 31.344 175.82 30.76V29.44L175.928 29.464C175.808 29.928 175.548 30.296 175.148 30.568C174.748 30.832 174.268 30.964 173.708 30.964C173.172 30.964 172.7 30.836 172.292 30.58C171.884 30.324 171.568 29.968 171.344 29.512C171.12 29.048 171.008 28.508 171.008 27.892C171.008 27.268 171.124 26.72 171.356 26.248C171.588 25.776 171.912 25.412 172.328 25.156C172.752 24.9 173.244 24.772 173.804 24.772C174.38 24.772 174.856 24.912 175.232 25.192C175.616 25.464 175.86 25.852 175.964 26.356L175.868 26.368V24.88H177.056V30.748C177.056 31.628 176.784 32.32 176.24 32.824C175.704 33.328 174.964 33.58 174.02 33.58ZM174.08 29.956C174.616 29.956 175.044 29.768 175.364 29.392C175.692 29.016 175.856 28.5 175.856 27.844C175.856 27.204 175.692 26.7 175.364 26.332C175.044 25.964 174.612 25.78 174.068 25.78C173.524 25.78 173.092 25.968 172.772 26.344C172.452 26.712 172.292 27.224 172.292 27.88C172.292 28.52 172.452 29.028 172.772 29.404C173.1 29.772 173.536 29.956 174.08 29.956ZM178.812 31V24.88H180V26.32H180.06V31H178.812ZM183.156 31V27.064C183.156 26.64 183.048 26.324 182.832 26.116C182.624 25.908 182.312 25.804 181.896 25.804C181.536 25.804 181.216 25.884 180.936 26.044C180.664 26.204 180.448 26.424 180.288 26.704C180.136 26.984 180.06 27.316 180.06 27.7L179.904 26.236C180.104 25.78 180.412 25.42 180.828 25.156C181.244 24.892 181.728 24.76 182.28 24.76C182.936 24.76 183.452 24.944 183.828 25.312C184.204 25.68 184.392 26.168 184.392 26.776V31H183.156ZM189.811 31C189.771 30.848 189.743 30.68 189.727 30.496C189.719 30.312 189.715 30.088 189.715 29.824H189.655V26.908C189.655 26.516 189.555 26.224 189.355 26.032C189.163 25.832 188.855 25.732 188.431 25.732C188.023 25.732 187.695 25.812 187.447 25.972C187.207 26.132 187.067 26.36 187.027 26.656H185.839C185.895 26.08 186.155 25.62 186.619 25.276C187.083 24.932 187.703 24.76 188.479 24.76C189.279 24.76 189.879 24.948 190.279 25.324C190.679 25.692 190.879 26.236 190.879 26.956V29.824C190.879 30.008 190.891 30.196 190.915 30.388C190.939 30.58 190.975 30.784 191.023 31H189.811ZM187.699 31.12C187.075 31.12 186.579 30.968 186.211 30.664C185.843 30.352 185.659 29.932 185.659 29.404C185.659 28.86 185.851 28.432 186.235 28.12C186.627 27.8 187.187 27.584 187.915 27.472L189.931 27.148V28.024L188.107 28.312C187.699 28.376 187.391 28.484 187.183 28.636C186.983 28.788 186.883 29.008 186.883 29.296C186.883 29.576 186.975 29.788 187.159 29.932C187.351 30.068 187.627 30.136 187.987 30.136C188.467 30.136 188.863 30.02 189.175 29.788C189.495 29.556 189.655 29.264 189.655 28.912L189.811 29.8C189.667 30.224 189.411 30.552 189.043 30.784C188.675 31.008 188.227 31.12 187.699 31.12ZM198.729 31C198.689 30.848 198.661 30.68 198.645 30.496C198.637 30.312 198.633 30.088 198.633 29.824H198.573V26.908C198.573 26.516 198.473 26.224 198.273 26.032C198.081 25.832 197.773 25.732 197.349 25.732C196.941 25.732 196.613 25.812 196.365 25.972C196.125 26.132 195.985 26.36 195.945 26.656H194.757C194.813 26.08 195.073 25.62 195.537 25.276C196.001 24.932 196.621 24.76 197.397 24.76C198.197 24.76 198.797 24.948 199.197 25.324C199.597 25.692 199.797 26.236 199.797 26.956V29.824C199.797 30.008 199.809 30.196 199.833 30.388C199.857 30.58 199.893 30.784 199.941 31H198.729ZM196.617 31.12C195.993 31.12 195.497 30.968 195.129 30.664C194.761 30.352 194.577 29.932 194.577 29.404C194.577 28.86 194.769 28.432 195.153 28.12C195.545 27.8 196.105 27.584 196.833 27.472L198.849 27.148V28.024L197.025 28.312C196.617 28.376 196.309 28.484 196.101 28.636C195.901 28.788 195.801 29.008 195.801 29.296C195.801 29.576 195.893 29.788 196.077 29.932C196.269 30.068 196.545 30.136 196.905 30.136C197.385 30.136 197.781 30.02 198.093 29.788C198.413 29.556 198.573 29.264 198.573 28.912L198.729 29.8C198.585 30.224 198.329 30.552 197.961 30.784C197.593 31.008 197.145 31.12 196.617 31.12ZM201.487 31V22.36H202.735V31H201.487ZM204.487 31V24.88H205.735V31H204.487ZM204.427 23.68V22.276H205.807V23.68H204.427ZM211.82 33.46V29.596L211.988 29.632C211.86 30.088 211.596 30.452 211.196 30.724C210.796 30.988 210.316 31.12 209.756 31.12C209.204 31.12 208.72 30.992 208.304 30.736C207.896 30.472 207.576 30.104 207.344 29.632C207.12 29.152 207.008 28.596 207.008 27.964C207.008 27.324 207.124 26.764 207.356 26.284C207.588 25.804 207.912 25.432 208.328 25.168C208.744 24.904 209.232 24.772 209.792 24.772C210.376 24.772 210.856 24.912 211.232 25.192C211.616 25.464 211.868 25.848 211.988 26.344L211.868 26.368V24.88H213.056V33.46H211.82ZM210.068 30.076C210.628 30.076 211.064 29.888 211.376 29.512C211.696 29.128 211.856 28.6 211.856 27.928C211.856 27.272 211.696 26.756 211.376 26.38C211.056 25.996 210.616 25.804 210.056 25.804C209.504 25.804 209.072 25.996 208.76 26.38C208.448 26.756 208.292 27.284 208.292 27.964C208.292 28.628 208.448 29.148 208.76 29.524C209.08 29.892 209.516 30.076 210.068 30.076ZM216.804 31.12C216.396 31.12 216.036 31.036 215.724 30.868C215.412 30.692 215.168 30.452 214.992 30.148C214.824 29.844 214.74 29.496 214.74 29.104V24.88H215.988V28.816C215.988 29.24 216.092 29.556 216.3 29.764C216.508 29.972 216.804 30.076 217.188 30.076C217.532 30.076 217.836 29.996 218.1 29.836C218.372 29.676 218.584 29.456 218.736 29.176C218.896 28.888 218.976 28.556 218.976 28.18L219.132 29.644C218.932 30.092 218.624 30.452 218.208 30.724C217.8 30.988 217.332 31.12 216.804 31.12ZM219.024 31V29.56H218.976V24.88H220.212V31H219.024ZM225.658 31C225.618 30.848 225.59 30.68 225.574 30.496C225.566 30.312 225.562 30.088 225.562 29.824H225.502V26.908C225.502 26.516 225.402 26.224 225.202 26.032C225.01 25.832 224.702 25.732 224.278 25.732C223.87 25.732 223.542 25.812 223.294 25.972C223.054 26.132 222.914 26.36 222.874 26.656H221.686C221.742 26.08 222.002 25.62 222.466 25.276C222.93 24.932 223.55 24.76 224.326 24.76C225.126 24.76 225.726 24.948 226.126 25.324C226.526 25.692 226.726 26.236 226.726 26.956V29.824C226.726 30.008 226.738 30.196 226.762 30.388C226.786 30.58 226.822 30.784 226.87 31H225.658ZM223.546 31.12C222.922 31.12 222.426 30.968 222.058 30.664C221.69 30.352 221.506 29.932 221.506 29.404C221.506 28.86 221.698 28.432 222.082 28.12C222.474 27.8 223.034 27.584 223.762 27.472L225.778 27.148V28.024L223.954 28.312C223.546 28.376 223.238 28.484 223.03 28.636C222.83 28.788 222.73 29.008 222.73 29.296C222.73 29.576 222.822 29.788 223.006 29.932C223.198 30.068 223.474 30.136 223.834 30.136C224.314 30.136 224.71 30.02 225.022 29.788C225.342 29.556 225.502 29.264 225.502 28.912L225.658 29.8C225.514 30.224 225.258 30.552 224.89 30.784C224.522 31.008 224.074 31.12 223.546 31.12Z" fill="#212121"/>
    <rect x="80" y="81" width="345" height="135" rx="8" fill="white"/>
    <rect x="80.25" y="81.25" width="344.5" height="134.5" rx="7.75" stroke="black" stroke-opacity="0.02" stroke-width="0.5"/>
    <rect x="91" y="108.95" width="104" height="6.6" rx="2" fill="#F8F9FB"/>
    <rect x="91" y="119.675" width="104" height="6.6" rx="2" fill="#F8F9FB"/>
    <rect x="91" y="130.4" width="76.7" height="6.6" rx="2" fill="#F8F9FB"/>
    <rect x="91" y="95" width="104" height="8.25" rx="2" fill="#F8F9FB"/>
    <rect x="207" y="174" width="205" height="28" rx="8" fill="#D6E8EE"/>
    <rect x="207.25" y="174.25" width="204.5" height="27.5" rx="7.75" stroke="black" stroke-opacity="0.02" stroke-width="0.5"/>
    <rect x="215" y="184" width="104" height="8.25" rx="2" fill="#F8F9FB"/>
    <rect x="390" y="180" width="16" height="16" rx="4" fill="white"/>
    <path d="M395.667 188H400.333" stroke="#1D1D1B" stroke-width="0.5" stroke-linecap="round" stroke-linejoin="round"/>
    <path d="M398 185.667V190.333" stroke="#1D1D1B" stroke-width="0.5" stroke-linecap="round" stroke-linejoin="round"/>
    <rect x="207" y="95" width="205" height="72" rx="8" fill="#D6E8EE"/>
    <rect x="207.25" y="95.25" width="204.5" height="71.5" rx="7.75" stroke="black" stroke-opacity="0.02" stroke-width="0.5"/>
    <rect x="215" y="128.95" width="104" height="6.6" rx="2" fill="#F8F9FB"/>
    <rect x="215" y="139.675" width="104" height="6.6" rx="2" fill="#F8F9FB"/>
    <rect x="215" y="150.4" width="76.7" height="6.6" rx="2" fill="#F8F9FB"/>
    <rect x="215" y="105" width="104" height="8.25" rx="2" fill="#F8F9FB"/>
    <rect x="390" y="101" width="16" height="16" rx="4" fill="white"/>
    <path d="M396.35 110.65L399.65 107.35" stroke="#1D1D1B" stroke-width="0.5" stroke-linecap="round" stroke-linejoin="round"/>
    <path d="M396.35 107.35L399.65 110.65" stroke="#1D1D1B" stroke-width="0.5" stroke-linecap="round" stroke-linejoin="round"/>
    <rect x="80" y="222" width="345" height="135" rx="8" fill="white"/>
    <rect x="80.25" y="222.25" width="344.5" height="134.5" rx="7.75" stroke="black" stroke-opacity="0.02" stroke-width="0.5"/>
    <rect x="91" y="249.95" width="104" height="6.6" rx="2" fill="#F8F9FB"/>
    <rect x="91" y="260.675" width="104" height="6.6" rx="2" fill="#F8F9FB"/>
    <rect x="91" y="271.4" width="76.7" height="6.6" rx="2" fill="#F8F9FB"/>
    <rect x="91" y="236" width="104" height="8.25" rx="2" fill="#F8F9FB"/>
    <rect x="207" y="236" width="205" height="72" rx="8" fill="#D6E8EE"/>
    <rect x="207.25" y="236.25" width="204.5" height="71.5" rx="7.75" stroke="black" stroke-opacity="0.02" stroke-width="0.5"/>
    <rect x="215" y="269.95" width="104" height="6.6" rx="2" fill="#F8F9FB"/>
    <rect x="215" y="246" width="104" height="8.25" rx="2" fill="#F8F9FB"/>
    <rect x="390" y="242" width="16" height="16" rx="4" fill="white"/>
    <path d="M396.35 251.65L399.65 248.35" stroke="#1D1D1B" stroke-width="0.5" stroke-linecap="round" stroke-linejoin="round"/>
    <path d="M396.35 248.35L399.65 251.65" stroke="#1D1D1B" stroke-width="0.5" stroke-linecap="round" stroke-linejoin="round"/>
  </g>
  <defs>
    <clipPath id="clip0_2940_3406">
      <rect width="500" height="280" fill="white"/>
    </clipPath>
  </defs>
</svg>
