<svg viewBox="0 0 500 280" fill="none"
  xmlns="http://www.w3.org/2000/svg">
  <g clip-path="url(#clip0_2940_3272)">
    <rect width="500" height="280" fill="#FBFBFB"/>
    <rect x="53.5" y="-9.5" width="399" height="299" fill="white" stroke="#EBEBEB"/>
    <rect x="80" y="103" width="160" height="8" rx="2" fill="#F8F9FB"/>
    <rect x="80" y="116" width="160" height="8" rx="2" fill="#F8F9FB"/>
    <rect x="80" y="129" width="160" height="8" rx="2" fill="#F8F9FB"/>
    <rect x="80" y="142" width="118" height="8" rx="2" fill="#F8F9FB"/>
    <rect x="80" y="70" width="160" height="10" rx="2" fill="#F8F9FB"/>
    <rect x="80" y="85" width="79" height="10" rx="2" fill="#F8F9FB"/>
    <path d="M80.843 59L84.095 50.36H85.199L82.091 59H80.843ZM87.527 59L84.419 50.36H85.583L88.847 59H87.527ZM82.487 55.556H87.119V56.612H82.487V55.556ZM90.1123 59V52.88H91.3003V54.32H91.3603V59H90.1123ZM94.4563 59V55.064C94.4563 54.64 94.3483 54.324 94.1323 54.116C93.9243 53.908 93.6123 53.804 93.1963 53.804C92.8363 53.804 92.5163 53.884 92.2363 54.044C91.9643 54.204 91.7483 54.424 91.5883 54.704C91.4363 54.984 91.3603 55.316 91.3603 55.7L91.2043 54.236C91.4043 53.78 91.7123 53.42 92.1283 53.156C92.5443 52.892 93.0283 52.76 93.5803 52.76C94.2363 52.76 94.7523 52.944 95.1283 53.312C95.5043 53.68 95.6923 54.168 95.6923 54.776V59H94.4563ZM97.3662 59V52.88H98.6142V59H97.3662ZM97.3062 51.68V50.276H98.6862V51.68H97.3062ZM100.366 59V52.88H101.554V54.32H101.614V59H100.366ZM104.494 59V55.004C104.494 54.588 104.398 54.284 104.206 54.092C104.014 53.9 103.738 53.804 103.378 53.804C103.042 53.804 102.738 53.884 102.466 54.044C102.202 54.196 101.994 54.412 101.842 54.692C101.69 54.964 101.614 55.288 101.614 55.664L101.458 54.236C101.658 53.78 101.958 53.42 102.358 53.156C102.766 52.892 103.222 52.76 103.726 52.76C104.334 52.76 104.818 52.936 105.178 53.288C105.546 53.64 105.73 54.104 105.73 54.68V59H104.494ZM108.622 59V55.004C108.622 54.588 108.522 54.284 108.322 54.092C108.13 53.9 107.854 53.804 107.494 53.804C107.166 53.804 106.866 53.884 106.594 54.044C106.33 54.196 106.118 54.412 105.958 54.692C105.806 54.964 105.73 55.288 105.73 55.664L105.478 54.236C105.686 53.78 105.998 53.42 106.414 53.156C106.838 52.892 107.31 52.76 107.83 52.76C108.446 52.76 108.938 52.94 109.306 53.3C109.674 53.652 109.858 54.124 109.858 54.716V59H108.622ZM117.693 59C117.653 58.848 117.625 58.68 117.609 58.496C117.601 58.312 117.597 58.088 117.597 57.824H117.537V54.908C117.537 54.516 117.437 54.224 117.237 54.032C117.045 53.832 116.737 53.732 116.313 53.732C115.905 53.732 115.577 53.812 115.329 53.972C115.089 54.132 114.949 54.36 114.909 54.656H113.721C113.777 54.08 114.037 53.62 114.501 53.276C114.965 52.932 115.585 52.76 116.361 52.76C117.161 52.76 117.761 52.948 118.161 53.324C118.561 53.692 118.761 54.236 118.761 54.956V57.824C118.761 58.008 118.773 58.196 118.797 58.388C118.821 58.58 118.857 58.784 118.905 59H117.693ZM115.581 59.12C114.957 59.12 114.461 58.968 114.093 58.664C113.725 58.352 113.541 57.932 113.541 57.404C113.541 56.86 113.733 56.432 114.117 56.12C114.509 55.8 115.069 55.584 115.797 55.472L117.813 55.148V56.024L115.989 56.312C115.581 56.376 115.273 56.484 115.065 56.636C114.865 56.788 114.765 57.008 114.765 57.296C114.765 57.576 114.857 57.788 115.041 57.932C115.233 58.068 115.509 58.136 115.869 58.136C116.349 58.136 116.745 58.02 117.057 57.788C117.377 57.556 117.537 57.264 117.537 56.912L117.693 57.8C117.549 58.224 117.293 58.552 116.925 58.784C116.557 59.008 116.109 59.12 115.581 59.12ZM122.339 59.12C121.931 59.12 121.571 59.036 121.259 58.868C120.947 58.692 120.703 58.452 120.527 58.148C120.359 57.844 120.275 57.496 120.275 57.104V52.88H121.523V56.816C121.523 57.24 121.627 57.556 121.835 57.764C122.043 57.972 122.339 58.076 122.723 58.076C123.067 58.076 123.371 57.996 123.635 57.836C123.907 57.676 124.119 57.456 124.271 57.176C124.431 56.888 124.511 56.556 124.511 56.18L124.667 57.644C124.467 58.092 124.159 58.452 123.743 58.724C123.335 58.988 122.867 59.12 122.339 59.12ZM124.559 59V57.56H124.511V52.88H125.747V59H124.559ZM130.041 59.12C129.329 59.12 128.805 58.956 128.469 58.628C128.141 58.292 127.977 57.8 127.977 57.152V51.476L129.213 51.008V57.164C129.213 57.484 129.297 57.72 129.465 57.872C129.633 58.024 129.905 58.1 130.281 58.1C130.425 58.1 130.553 58.088 130.665 58.064C130.777 58.04 130.873 58.012 130.953 57.98V58.988C130.865 59.028 130.741 59.06 130.581 59.084C130.421 59.108 130.241 59.12 130.041 59.12ZM126.753 53.876V52.88H130.953V53.876H126.753ZM134.623 59.12C134.007 59.12 133.463 58.984 132.991 58.712C132.527 58.44 132.163 58.064 131.899 57.584C131.635 57.104 131.503 56.552 131.503 55.928C131.503 55.296 131.631 54.744 131.887 54.272C132.151 53.792 132.519 53.42 132.991 53.156C133.463 52.892 134.003 52.76 134.611 52.76C135.203 52.76 135.715 52.888 136.147 53.144C136.587 53.392 136.923 53.74 137.155 54.188C137.395 54.636 137.515 55.168 137.515 55.784C137.515 55.88 137.511 55.972 137.503 56.06C137.503 56.14 137.495 56.224 137.479 56.312H132.343V55.376H136.603L136.291 55.748C136.291 55.092 136.143 54.592 135.847 54.248C135.551 53.904 135.139 53.732 134.611 53.732C134.043 53.732 133.591 53.928 133.255 54.32C132.927 54.704 132.763 55.24 132.763 55.928C132.763 56.624 132.927 57.168 133.255 57.56C133.591 57.952 134.055 58.148 134.647 58.148C135.007 58.148 135.319 58.076 135.583 57.932C135.847 57.78 136.043 57.56 136.171 57.272H137.347C137.147 57.848 136.807 58.3 136.327 58.628C135.855 58.956 135.287 59.12 134.623 59.12ZM141.159 59V52.88H142.407V59H141.159ZM141.099 51.68V50.276H142.479V51.68H141.099ZM148.54 59V57.596L148.66 57.632C148.532 58.088 148.268 58.452 147.868 58.724C147.468 58.988 146.988 59.12 146.428 59.12C145.876 59.12 145.392 58.988 144.976 58.724C144.568 58.46 144.248 58.092 144.016 57.62C143.792 57.148 143.68 56.596 143.68 55.964C143.68 55.324 143.796 54.764 144.028 54.284C144.26 53.804 144.584 53.432 145 53.168C145.416 52.904 145.904 52.772 146.464 52.772C147.048 52.772 147.528 52.912 147.904 53.192C148.288 53.464 148.54 53.848 148.66 54.344L148.492 54.368V50.36H149.728V59H148.54ZM146.74 58.076C147.292 58.076 147.728 57.888 148.048 57.512C148.368 57.128 148.528 56.6 148.528 55.928C148.528 55.272 148.364 54.756 148.036 54.38C147.716 53.996 147.28 53.804 146.728 53.804C146.184 53.804 145.752 53.996 145.432 54.38C145.12 54.756 144.964 55.284 144.964 55.964C144.964 56.628 145.12 57.148 145.432 57.524C145.752 57.892 146.188 58.076 146.74 58.076ZM153.851 59V52.88H155.039V54.32H155.099V59H153.851ZM157.979 59V55.004C157.979 54.588 157.883 54.284 157.691 54.092C157.499 53.9 157.223 53.804 156.863 53.804C156.527 53.804 156.223 53.884 155.951 54.044C155.687 54.196 155.479 54.412 155.327 54.692C155.175 54.964 155.099 55.288 155.099 55.664L154.943 54.236C155.143 53.78 155.443 53.42 155.843 53.156C156.251 52.892 156.707 52.76 157.211 52.76C157.819 52.76 158.303 52.936 158.663 53.288C159.031 53.64 159.215 54.104 159.215 54.68V59H157.979ZM162.107 59V55.004C162.107 54.588 162.007 54.284 161.807 54.092C161.615 53.9 161.339 53.804 160.979 53.804C160.651 53.804 160.351 53.884 160.079 54.044C159.815 54.196 159.603 54.412 159.443 54.692C159.291 54.964 159.215 55.288 159.215 55.664L158.963 54.236C159.171 53.78 159.483 53.42 159.899 53.156C160.323 52.892 160.795 52.76 161.315 52.76C161.931 52.76 162.423 52.94 162.791 53.3C163.159 53.652 163.343 54.124 163.343 54.716V59H162.107ZM168.74 59C168.7 58.848 168.672 58.68 168.656 58.496C168.648 58.312 168.644 58.088 168.644 57.824H168.584V54.908C168.584 54.516 168.484 54.224 168.284 54.032C168.092 53.832 167.784 53.732 167.36 53.732C166.952 53.732 166.624 53.812 166.376 53.972C166.136 54.132 165.996 54.36 165.956 54.656H164.768C164.824 54.08 165.084 53.62 165.548 53.276C166.012 52.932 166.632 52.76 167.408 52.76C168.208 52.76 168.808 52.948 169.208 53.324C169.608 53.692 169.808 54.236 169.808 54.956V57.824C169.808 58.008 169.82 58.196 169.844 58.388C169.868 58.58 169.904 58.784 169.952 59H168.74ZM166.628 59.12C166.004 59.12 165.508 58.968 165.14 58.664C164.772 58.352 164.588 57.932 164.588 57.404C164.588 56.86 164.78 56.432 165.164 56.12C165.556 55.8 166.116 55.584 166.844 55.472L168.86 55.148V56.024L167.036 56.312C166.628 56.376 166.32 56.484 166.112 56.636C165.912 56.788 165.812 57.008 165.812 57.296C165.812 57.576 165.904 57.788 166.088 57.932C166.28 58.068 166.556 58.136 166.916 58.136C167.396 58.136 167.792 58.02 168.104 57.788C168.424 57.556 168.584 57.264 168.584 56.912L168.74 57.8C168.596 58.224 168.34 58.552 167.972 58.784C167.604 59.008 167.156 59.12 166.628 59.12ZM174.02 61.58C173.252 61.58 172.616 61.404 172.112 61.052C171.616 60.708 171.316 60.248 171.212 59.672H172.388C172.468 59.936 172.644 60.144 172.916 60.296C173.196 60.448 173.568 60.524 174.032 60.524C174.632 60.524 175.08 60.376 175.376 60.08C175.672 59.784 175.82 59.344 175.82 58.76V57.44L175.928 57.464C175.808 57.928 175.548 58.296 175.148 58.568C174.748 58.832 174.268 58.964 173.708 58.964C173.172 58.964 172.7 58.836 172.292 58.58C171.884 58.324 171.568 57.968 171.344 57.512C171.12 57.048 171.008 56.508 171.008 55.892C171.008 55.268 171.124 54.72 171.356 54.248C171.588 53.776 171.912 53.412 172.328 53.156C172.752 52.9 173.244 52.772 173.804 52.772C174.38 52.772 174.856 52.912 175.232 53.192C175.616 53.464 175.86 53.852 175.964 54.356L175.868 54.368V52.88H177.056V58.748C177.056 59.628 176.784 60.32 176.24 60.824C175.704 61.328 174.964 61.58 174.02 61.58ZM174.08 57.956C174.616 57.956 175.044 57.768 175.364 57.392C175.692 57.016 175.856 56.5 175.856 55.844C175.856 55.204 175.692 54.7 175.364 54.332C175.044 53.964 174.612 53.78 174.068 53.78C173.524 53.78 173.092 53.968 172.772 54.344C172.452 54.712 172.292 55.224 172.292 55.88C172.292 56.52 172.452 57.028 172.772 57.404C173.1 57.772 173.536 57.956 174.08 57.956ZM178.812 59V52.88H180V54.32H180.06V59H178.812ZM183.156 59V55.064C183.156 54.64 183.048 54.324 182.832 54.116C182.624 53.908 182.312 53.804 181.896 53.804C181.536 53.804 181.216 53.884 180.936 54.044C180.664 54.204 180.448 54.424 180.288 54.704C180.136 54.984 180.06 55.316 180.06 55.7L179.904 54.236C180.104 53.78 180.412 53.42 180.828 53.156C181.244 52.892 181.728 52.76 182.28 52.76C182.936 52.76 183.452 52.944 183.828 53.312C184.204 53.68 184.392 54.168 184.392 54.776V59H183.156ZM189.811 59C189.771 58.848 189.743 58.68 189.727 58.496C189.719 58.312 189.715 58.088 189.715 57.824H189.655V54.908C189.655 54.516 189.555 54.224 189.355 54.032C189.163 53.832 188.855 53.732 188.431 53.732C188.023 53.732 187.695 53.812 187.447 53.972C187.207 54.132 187.067 54.36 187.027 54.656H185.839C185.895 54.08 186.155 53.62 186.619 53.276C187.083 52.932 187.703 52.76 188.479 52.76C189.279 52.76 189.879 52.948 190.279 53.324C190.679 53.692 190.879 54.236 190.879 54.956V57.824C190.879 58.008 190.891 58.196 190.915 58.388C190.939 58.58 190.975 58.784 191.023 59H189.811ZM187.699 59.12C187.075 59.12 186.579 58.968 186.211 58.664C185.843 58.352 185.659 57.932 185.659 57.404C185.659 56.86 185.851 56.432 186.235 56.12C186.627 55.8 187.187 55.584 187.915 55.472L189.931 55.148V56.024L188.107 56.312C187.699 56.376 187.391 56.484 187.183 56.636C186.983 56.788 186.883 57.008 186.883 57.296C186.883 57.576 186.975 57.788 187.159 57.932C187.351 58.068 187.627 58.136 187.987 58.136C188.467 58.136 188.863 58.02 189.175 57.788C189.495 57.556 189.655 57.264 189.655 56.912L189.811 57.8C189.667 58.224 189.411 58.552 189.043 58.784C188.675 59.008 188.227 59.12 187.699 59.12ZM198.729 59C198.689 58.848 198.661 58.68 198.645 58.496C198.637 58.312 198.633 58.088 198.633 57.824H198.573V54.908C198.573 54.516 198.473 54.224 198.273 54.032C198.081 53.832 197.773 53.732 197.349 53.732C196.941 53.732 196.613 53.812 196.365 53.972C196.125 54.132 195.985 54.36 195.945 54.656H194.757C194.813 54.08 195.073 53.62 195.537 53.276C196.001 52.932 196.621 52.76 197.397 52.76C198.197 52.76 198.797 52.948 199.197 53.324C199.597 53.692 199.797 54.236 199.797 54.956V57.824C199.797 58.008 199.809 58.196 199.833 58.388C199.857 58.58 199.893 58.784 199.941 59H198.729ZM196.617 59.12C195.993 59.12 195.497 58.968 195.129 58.664C194.761 58.352 194.577 57.932 194.577 57.404C194.577 56.86 194.769 56.432 195.153 56.12C195.545 55.8 196.105 55.584 196.833 55.472L198.849 55.148V56.024L197.025 56.312C196.617 56.376 196.309 56.484 196.101 56.636C195.901 56.788 195.801 57.008 195.801 57.296C195.801 57.576 195.893 57.788 196.077 57.932C196.269 58.068 196.545 58.136 196.905 58.136C197.385 58.136 197.781 58.02 198.093 57.788C198.413 57.556 198.573 57.264 198.573 56.912L198.729 57.8C198.585 58.224 198.329 58.552 197.961 58.784C197.593 59.008 197.145 59.12 196.617 59.12ZM201.487 59V50.36H202.735V59H201.487ZM204.487 59V52.88H205.735V59H204.487ZM204.427 51.68V50.276H205.807V51.68H204.427ZM211.82 61.46V57.596L211.988 57.632C211.86 58.088 211.596 58.452 211.196 58.724C210.796 58.988 210.316 59.12 209.756 59.12C209.204 59.12 208.72 58.992 208.304 58.736C207.896 58.472 207.576 58.104 207.344 57.632C207.12 57.152 207.008 56.596 207.008 55.964C207.008 55.324 207.124 54.764 207.356 54.284C207.588 53.804 207.912 53.432 208.328 53.168C208.744 52.904 209.232 52.772 209.792 52.772C210.376 52.772 210.856 52.912 211.232 53.192C211.616 53.464 211.868 53.848 211.988 54.344L211.868 54.368V52.88H213.056V61.46H211.82ZM210.068 58.076C210.628 58.076 211.064 57.888 211.376 57.512C211.696 57.128 211.856 56.6 211.856 55.928C211.856 55.272 211.696 54.756 211.376 54.38C211.056 53.996 210.616 53.804 210.056 53.804C209.504 53.804 209.072 53.996 208.76 54.38C208.448 54.756 208.292 55.284 208.292 55.964C208.292 56.628 208.448 57.148 208.76 57.524C209.08 57.892 209.516 58.076 210.068 58.076ZM216.804 59.12C216.396 59.12 216.036 59.036 215.724 58.868C215.412 58.692 215.168 58.452 214.992 58.148C214.824 57.844 214.74 57.496 214.74 57.104V52.88H215.988V56.816C215.988 57.24 216.092 57.556 216.3 57.764C216.508 57.972 216.804 58.076 217.188 58.076C217.532 58.076 217.836 57.996 218.1 57.836C218.372 57.676 218.584 57.456 218.736 57.176C218.896 56.888 218.976 56.556 218.976 56.18L219.132 57.644C218.932 58.092 218.624 58.452 218.208 58.724C217.8 58.988 217.332 59.12 216.804 59.12ZM219.024 59V57.56H218.976V52.88H220.212V59H219.024ZM225.658 59C225.618 58.848 225.59 58.68 225.574 58.496C225.566 58.312 225.562 58.088 225.562 57.824H225.502V54.908C225.502 54.516 225.402 54.224 225.202 54.032C225.01 53.832 224.702 53.732 224.278 53.732C223.87 53.732 223.542 53.812 223.294 53.972C223.054 54.132 222.914 54.36 222.874 54.656H221.686C221.742 54.08 222.002 53.62 222.466 53.276C222.93 52.932 223.55 52.76 224.326 52.76C225.126 52.76 225.726 52.948 226.126 53.324C226.526 53.692 226.726 54.236 226.726 54.956V57.824C226.726 58.008 226.738 58.196 226.762 58.388C226.786 58.58 226.822 58.784 226.87 59H225.658ZM223.546 59.12C222.922 59.12 222.426 58.968 222.058 58.664C221.69 58.352 221.506 57.932 221.506 57.404C221.506 56.86 221.698 56.432 222.082 56.12C222.474 55.8 223.034 55.584 223.762 55.472L225.778 55.148V56.024L223.954 56.312C223.546 56.376 223.238 56.484 223.03 56.636C222.83 56.788 222.73 57.008 222.73 57.296C222.73 57.576 222.822 57.788 223.006 57.932C223.198 58.068 223.474 58.136 223.834 58.136C224.314 58.136 224.71 58.02 225.022 57.788C225.342 57.556 225.502 57.264 225.502 56.912L225.658 57.8C225.514 58.224 225.258 58.552 224.89 58.784C224.522 59.008 224.074 59.12 223.546 59.12Z" fill="#212121"/>
    <rect x="80" y="171" width="62" height="62" rx="8" fill="white"/>
    <rect x="80.25" y="171.25" width="61.5" height="61.5" rx="7.75" stroke="black" stroke-opacity="0.02" stroke-width="0.5"/>
    <rect x="86" y="178" width="51" height="26" fill="#F8F9FB"/>
    <g clip-path="url(#clip1_2940_3272)">
      <path d="M117.978 183.32H106.022C105.082 183.32 104.32 184.082 104.32 185.022V196.977C104.32 197.918 105.082 198.68 106.022 198.68H117.978C118.918 198.68 119.68 197.918 119.68 196.977V185.022C119.68 184.082 118.918 183.32 117.978 183.32Z" stroke="#E8E8E9" stroke-width="0.5" stroke-linecap="round" stroke-linejoin="round"/>
      <path d="M109.44 190.143C110.38 190.143 111.142 189.38 111.142 188.44C111.142 187.5 110.38 186.738 109.44 186.738C108.5 186.738 107.738 187.5 107.738 188.44C107.738 189.38 108.5 190.143 109.44 190.143Z" stroke="#E8E8E9" stroke-width="0.5" stroke-linecap="round" stroke-linejoin="round"/>
      <path d="M119.68 193.56L117.043 190.923C116.378 190.257 115.302 190.257 114.624 190.923L106.867 198.68" stroke="#E8E8E9" stroke-width="0.5" stroke-linecap="round" stroke-linejoin="round"/>
    </g>
    <rect x="86" y="222.074" width="38.5102" height="4.92593" rx="2" fill="#F8F9FB"/>
    <rect x="86" y="215.037" width="51" height="4.92593" rx="2" fill="#F8F9FB"/>
    <rect x="86" y="208" width="51" height="4.92593" rx="2" fill="#F8F9FB"/>
    <rect x="149.5" y="171" width="62" height="62" rx="8" fill="white"/>
    <rect x="149.75" y="171.25" width="61.5" height="61.5" rx="7.75" stroke="black" stroke-opacity="0.02" stroke-width="0.5"/>
    <rect x="155.5" y="178" width="51" height="26" fill="#F8F9FB"/>
    <g clip-path="url(#clip2_2940_3272)">
      <path d="M187.478 183.32H175.522C174.582 183.32 173.82 184.082 173.82 185.022V196.977C173.82 197.918 174.582 198.68 175.522 198.68H187.478C188.418 198.68 189.18 197.918 189.18 196.977V185.022C189.18 184.082 188.418 183.32 187.478 183.32Z" stroke="#E8E8E9" stroke-width="0.5" stroke-linecap="round" stroke-linejoin="round"/>
      <path d="M178.94 190.143C179.88 190.143 180.642 189.38 180.642 188.44C180.642 187.5 179.88 186.738 178.94 186.738C178 186.738 177.238 187.5 177.238 188.44C177.238 189.38 178 190.143 178.94 190.143Z" stroke="#E8E8E9" stroke-width="0.5" stroke-linecap="round" stroke-linejoin="round"/>
      <path d="M189.18 193.56L186.543 190.923C185.878 190.257 184.802 190.257 184.124 190.923L176.367 198.68" stroke="#E8E8E9" stroke-width="0.5" stroke-linecap="round" stroke-linejoin="round"/>
    </g>
    <rect x="155.5" y="222.074" width="38.5102" height="4.92593" rx="2" fill="#F8F9FB"/>
    <rect x="155.5" y="215.037" width="51" height="4.92593" rx="2" fill="#F8F9FB"/>
    <rect x="155.5" y="208" width="51" height="4.92593" rx="2" fill="#F8F9FB"/>
    <rect x="219" y="171" width="62" height="62" rx="8" fill="white"/>
    <rect x="219.25" y="171.25" width="61.5" height="61.5" rx="7.75" stroke="black" stroke-opacity="0.02" stroke-width="0.5"/>
    <rect x="225" y="178" width="51" height="26" fill="#F8F9FB"/>
    <g clip-path="url(#clip3_2940_3272)">
      <path d="M256.978 183.32H245.022C244.082 183.32 243.32 184.082 243.32 185.022V196.977C243.32 197.918 244.082 198.68 245.022 198.68H256.978C257.918 198.68 258.68 197.918 258.68 196.977V185.022C258.68 184.082 257.918 183.32 256.978 183.32Z" stroke="#E8E8E9" stroke-width="0.5" stroke-linecap="round" stroke-linejoin="round"/>
      <path d="M248.44 190.143C249.38 190.143 250.142 189.38 250.142 188.44C250.142 187.5 249.38 186.738 248.44 186.738C247.5 186.738 246.738 187.5 246.738 188.44C246.738 189.38 247.5 190.143 248.44 190.143Z" stroke="#E8E8E9" stroke-width="0.5" stroke-linecap="round" stroke-linejoin="round"/>
      <path d="M258.68 193.56L256.043 190.923C255.378 190.257 254.302 190.257 253.624 190.923L245.867 198.68" stroke="#E8E8E9" stroke-width="0.5" stroke-linecap="round" stroke-linejoin="round"/>
    </g>
    <rect x="225" y="222.074" width="38.5102" height="4.92593" rx="2" fill="#F8F9FB"/>
    <rect x="225" y="215.037" width="51" height="4.92593" rx="2" fill="#F8F9FB"/>
    <rect x="225" y="208" width="51" height="4.92593" rx="2" fill="#F8F9FB"/>
    <rect x="288.5" y="171" width="62" height="62" rx="8" fill="white"/>
    <rect x="288.75" y="171.25" width="61.5" height="61.5" rx="7.75" stroke="black" stroke-opacity="0.02" stroke-width="0.5"/>
    <rect x="294.5" y="178" width="51" height="26" fill="#F8F9FB"/>
    <g clip-path="url(#clip4_2940_3272)">
      <path d="M326.478 183.32H314.522C313.582 183.32 312.82 184.082 312.82 185.022V196.977C312.82 197.918 313.582 198.68 314.522 198.68H326.478C327.418 198.68 328.18 197.918 328.18 196.977V185.022C328.18 184.082 327.418 183.32 326.478 183.32Z" stroke="#E8E8E9" stroke-width="0.5" stroke-linecap="round" stroke-linejoin="round"/>
      <path d="M317.94 190.143C318.88 190.143 319.642 189.38 319.642 188.44C319.642 187.5 318.88 186.738 317.94 186.738C317 186.738 316.238 187.5 316.238 188.44C316.238 189.38 317 190.143 317.94 190.143Z" stroke="#E8E8E9" stroke-width="0.5" stroke-linecap="round" stroke-linejoin="round"/>
      <path d="M328.18 193.56L325.543 190.923C324.878 190.257 323.802 190.257 323.124 190.923L315.367 198.68" stroke="#E8E8E9" stroke-width="0.5" stroke-linecap="round" stroke-linejoin="round"/>
    </g>
    <rect x="294.5" y="222.074" width="38.5102" height="4.92593" rx="2" fill="#F8F9FB"/>
    <rect x="294.5" y="215.037" width="51" height="4.92593" rx="2" fill="#F8F9FB"/>
    <rect x="294.5" y="208" width="51" height="4.92593" rx="2" fill="#F8F9FB"/>
    <rect x="358" y="171" width="62" height="62" rx="8" fill="white"/>
    <rect x="358.25" y="171.25" width="61.5" height="61.5" rx="7.75" stroke="black" stroke-opacity="0.02" stroke-width="0.5"/>
    <rect x="364" y="178" width="51" height="26" fill="#F8F9FB"/>
    <g clip-path="url(#clip5_2940_3272)">
      <path d="M395.978 183.32H384.022C383.082 183.32 382.32 184.082 382.32 185.022V196.977C382.32 197.918 383.082 198.68 384.022 198.68H395.978C396.918 198.68 397.68 197.918 397.68 196.977V185.022C397.68 184.082 396.918 183.32 395.978 183.32Z" stroke="#E8E8E9" stroke-width="0.5" stroke-linecap="round" stroke-linejoin="round"/>
      <path d="M387.44 190.143C388.38 190.143 389.142 189.38 389.142 188.44C389.142 187.5 388.38 186.738 387.44 186.738C386.5 186.738 385.738 187.5 385.738 188.44C385.738 189.38 386.5 190.143 387.44 190.143Z" stroke="#E8E8E9" stroke-width="0.5" stroke-linecap="round" stroke-linejoin="round"/>
      <path d="M397.68 193.56L395.043 190.923C394.378 190.257 393.302 190.257 392.624 190.923L384.867 198.68" stroke="#E8E8E9" stroke-width="0.5" stroke-linecap="round" stroke-linejoin="round"/>
    </g>
    <rect x="364" y="222.074" width="38.5102" height="4.92593" rx="2" fill="#F8F9FB"/>
    <rect x="364" y="215.037" width="51" height="4.92593" rx="2" fill="#F8F9FB"/>
    <rect x="364" y="208" width="51" height="4.92593" rx="2" fill="#F8F9FB"/>
  </g>
  <defs>
    <clipPath id="clip0_2940_3272">
      <rect width="500" height="280" fill="white"/>
    </clipPath>
    <clipPath id="clip1_2940_3272">
      <rect width="16" height="16" fill="white" transform="translate(104 183)"/>
    </clipPath>
    <clipPath id="clip2_2940_3272">
      <rect width="16" height="16" fill="white" transform="translate(173.5 183)"/>
    </clipPath>
    <clipPath id="clip3_2940_3272">
      <rect width="16" height="16" fill="white" transform="translate(243 183)"/>
    </clipPath>
    <clipPath id="clip4_2940_3272">
      <rect width="16" height="16" fill="white" transform="translate(312.5 183)"/>
    </clipPath>
    <clipPath id="clip5_2940_3272">
      <rect width="16" height="16" fill="white" transform="translate(382 183)"/>
    </clipPath>
  </defs>
</svg>
