<svg viewBox="0 0 500 280" fill="none"
  xmlns="http://www.w3.org/2000/svg">
  <g clip-path="url(#clip0_2948_4513)">
    <rect width="500" height="280" fill="#FBFBFB"/>
    <rect x="53.5" y="-9.5" width="399" height="299" fill="white" stroke="#EBEBEB"/>
    <rect x="82" y="79" width="160" height="10" rx="2" fill="#F8F9FB"/>
    <rect x="82" y="94" width="79" height="10" rx="2" fill="#F8F9FB"/>
    <path d="M82.843 68L86.095 59.36H87.199L84.091 68H82.843ZM89.527 68L86.419 59.36H87.583L90.847 68H89.527ZM84.487 64.556H89.119V65.612H84.487V64.556ZM92.1123 68V61.88H93.3003V63.32H93.3603V68H92.1123ZM96.4563 68V64.064C96.4563 63.64 96.3483 63.324 96.1323 63.116C95.9243 62.908 95.6123 62.804 95.1963 62.804C94.8363 62.804 94.5163 62.884 94.2363 63.044C93.9643 63.204 93.7483 63.424 93.5883 63.704C93.4363 63.984 93.3603 64.316 93.3603 64.7L93.2043 63.236C93.4043 62.78 93.7123 62.42 94.1283 62.156C94.5443 61.892 95.0283 61.76 95.5803 61.76C96.2363 61.76 96.7523 61.944 97.1283 62.312C97.5043 62.68 97.6923 63.168 97.6923 63.776V68H96.4563ZM99.3662 68V61.88H100.614V68H99.3662ZM99.3062 60.68V59.276H100.686V60.68H99.3062ZM102.366 68V61.88H103.554V63.32H103.614V68H102.366ZM106.494 68V64.004C106.494 63.588 106.398 63.284 106.206 63.092C106.014 62.9 105.738 62.804 105.378 62.804C105.042 62.804 104.738 62.884 104.466 63.044C104.202 63.196 103.994 63.412 103.842 63.692C103.69 63.964 103.614 64.288 103.614 64.664L103.458 63.236C103.658 62.78 103.958 62.42 104.358 62.156C104.766 61.892 105.222 61.76 105.726 61.76C106.334 61.76 106.818 61.936 107.178 62.288C107.546 62.64 107.73 63.104 107.73 63.68V68H106.494ZM110.622 68V64.004C110.622 63.588 110.522 63.284 110.322 63.092C110.13 62.9 109.854 62.804 109.494 62.804C109.166 62.804 108.866 62.884 108.594 63.044C108.33 63.196 108.118 63.412 107.958 63.692C107.806 63.964 107.73 64.288 107.73 64.664L107.478 63.236C107.686 62.78 107.998 62.42 108.414 62.156C108.838 61.892 109.31 61.76 109.83 61.76C110.446 61.76 110.938 61.94 111.306 62.3C111.674 62.652 111.858 63.124 111.858 63.716V68H110.622ZM119.693 68C119.653 67.848 119.625 67.68 119.609 67.496C119.601 67.312 119.597 67.088 119.597 66.824H119.537V63.908C119.537 63.516 119.437 63.224 119.237 63.032C119.045 62.832 118.737 62.732 118.313 62.732C117.905 62.732 117.577 62.812 117.329 62.972C117.089 63.132 116.949 63.36 116.909 63.656H115.721C115.777 63.08 116.037 62.62 116.501 62.276C116.965 61.932 117.585 61.76 118.361 61.76C119.161 61.76 119.761 61.948 120.161 62.324C120.561 62.692 120.761 63.236 120.761 63.956V66.824C120.761 67.008 120.773 67.196 120.797 67.388C120.821 67.58 120.857 67.784 120.905 68H119.693ZM117.581 68.12C116.957 68.12 116.461 67.968 116.093 67.664C115.725 67.352 115.541 66.932 115.541 66.404C115.541 65.86 115.733 65.432 116.117 65.12C116.509 64.8 117.069 64.584 117.797 64.472L119.813 64.148V65.024L117.989 65.312C117.581 65.376 117.273 65.484 117.065 65.636C116.865 65.788 116.765 66.008 116.765 66.296C116.765 66.576 116.857 66.788 117.041 66.932C117.233 67.068 117.509 67.136 117.869 67.136C118.349 67.136 118.745 67.02 119.057 66.788C119.377 66.556 119.537 66.264 119.537 65.912L119.693 66.8C119.549 67.224 119.293 67.552 118.925 67.784C118.557 68.008 118.109 68.12 117.581 68.12ZM124.339 68.12C123.931 68.12 123.571 68.036 123.259 67.868C122.947 67.692 122.703 67.452 122.527 67.148C122.359 66.844 122.275 66.496 122.275 66.104V61.88H123.523V65.816C123.523 66.24 123.627 66.556 123.835 66.764C124.043 66.972 124.339 67.076 124.723 67.076C125.067 67.076 125.371 66.996 125.635 66.836C125.907 66.676 126.119 66.456 126.271 66.176C126.431 65.888 126.511 65.556 126.511 65.18L126.667 66.644C126.467 67.092 126.159 67.452 125.743 67.724C125.335 67.988 124.867 68.12 124.339 68.12ZM126.559 68V66.56H126.511V61.88H127.747V68H126.559ZM132.041 68.12C131.329 68.12 130.805 67.956 130.469 67.628C130.141 67.292 129.977 66.8 129.977 66.152V60.476L131.213 60.008V66.164C131.213 66.484 131.297 66.72 131.465 66.872C131.633 67.024 131.905 67.1 132.281 67.1C132.425 67.1 132.553 67.088 132.665 67.064C132.777 67.04 132.873 67.012 132.953 66.98V67.988C132.865 68.028 132.741 68.06 132.581 68.084C132.421 68.108 132.241 68.12 132.041 68.12ZM128.753 62.876V61.88H132.953V62.876H128.753ZM136.623 68.12C136.007 68.12 135.463 67.984 134.991 67.712C134.527 67.44 134.163 67.064 133.899 66.584C133.635 66.104 133.503 65.552 133.503 64.928C133.503 64.296 133.631 63.744 133.887 63.272C134.151 62.792 134.519 62.42 134.991 62.156C135.463 61.892 136.003 61.76 136.611 61.76C137.203 61.76 137.715 61.888 138.147 62.144C138.587 62.392 138.923 62.74 139.155 63.188C139.395 63.636 139.515 64.168 139.515 64.784C139.515 64.88 139.511 64.972 139.503 65.06C139.503 65.14 139.495 65.224 139.479 65.312H134.343V64.376H138.603L138.291 64.748C138.291 64.092 138.143 63.592 137.847 63.248C137.551 62.904 137.139 62.732 136.611 62.732C136.043 62.732 135.591 62.928 135.255 63.32C134.927 63.704 134.763 64.24 134.763 64.928C134.763 65.624 134.927 66.168 135.255 66.56C135.591 66.952 136.055 67.148 136.647 67.148C137.007 67.148 137.319 67.076 137.583 66.932C137.847 66.78 138.043 66.56 138.171 66.272H139.347C139.147 66.848 138.807 67.3 138.327 67.628C137.855 67.956 137.287 68.12 136.623 68.12ZM143.159 68V61.88H144.407V68H143.159ZM143.099 60.68V59.276H144.479V60.68H143.099ZM150.54 68V66.596L150.66 66.632C150.532 67.088 150.268 67.452 149.868 67.724C149.468 67.988 148.988 68.12 148.428 68.12C147.876 68.12 147.392 67.988 146.976 67.724C146.568 67.46 146.248 67.092 146.016 66.62C145.792 66.148 145.68 65.596 145.68 64.964C145.68 64.324 145.796 63.764 146.028 63.284C146.26 62.804 146.584 62.432 147 62.168C147.416 61.904 147.904 61.772 148.464 61.772C149.048 61.772 149.528 61.912 149.904 62.192C150.288 62.464 150.54 62.848 150.66 63.344L150.492 63.368V59.36H151.728V68H150.54ZM148.74 67.076C149.292 67.076 149.728 66.888 150.048 66.512C150.368 66.128 150.528 65.6 150.528 64.928C150.528 64.272 150.364 63.756 150.036 63.38C149.716 62.996 149.28 62.804 148.728 62.804C148.184 62.804 147.752 62.996 147.432 63.38C147.12 63.756 146.964 64.284 146.964 64.964C146.964 65.628 147.12 66.148 147.432 66.524C147.752 66.892 148.188 67.076 148.74 67.076ZM155.851 68V61.88H157.039V63.32H157.099V68H155.851ZM159.979 68V64.004C159.979 63.588 159.883 63.284 159.691 63.092C159.499 62.9 159.223 62.804 158.863 62.804C158.527 62.804 158.223 62.884 157.951 63.044C157.687 63.196 157.479 63.412 157.327 63.692C157.175 63.964 157.099 64.288 157.099 64.664L156.943 63.236C157.143 62.78 157.443 62.42 157.843 62.156C158.251 61.892 158.707 61.76 159.211 61.76C159.819 61.76 160.303 61.936 160.663 62.288C161.031 62.64 161.215 63.104 161.215 63.68V68H159.979ZM164.107 68V64.004C164.107 63.588 164.007 63.284 163.807 63.092C163.615 62.9 163.339 62.804 162.979 62.804C162.651 62.804 162.351 62.884 162.079 63.044C161.815 63.196 161.603 63.412 161.443 63.692C161.291 63.964 161.215 64.288 161.215 64.664L160.963 63.236C161.171 62.78 161.483 62.42 161.899 62.156C162.323 61.892 162.795 61.76 163.315 61.76C163.931 61.76 164.423 61.94 164.791 62.3C165.159 62.652 165.343 63.124 165.343 63.716V68H164.107ZM170.74 68C170.7 67.848 170.672 67.68 170.656 67.496C170.648 67.312 170.644 67.088 170.644 66.824H170.584V63.908C170.584 63.516 170.484 63.224 170.284 63.032C170.092 62.832 169.784 62.732 169.36 62.732C168.952 62.732 168.624 62.812 168.376 62.972C168.136 63.132 167.996 63.36 167.956 63.656H166.768C166.824 63.08 167.084 62.62 167.548 62.276C168.012 61.932 168.632 61.76 169.408 61.76C170.208 61.76 170.808 61.948 171.208 62.324C171.608 62.692 171.808 63.236 171.808 63.956V66.824C171.808 67.008 171.82 67.196 171.844 67.388C171.868 67.58 171.904 67.784 171.952 68H170.74ZM168.628 68.12C168.004 68.12 167.508 67.968 167.14 67.664C166.772 67.352 166.588 66.932 166.588 66.404C166.588 65.86 166.78 65.432 167.164 65.12C167.556 64.8 168.116 64.584 168.844 64.472L170.86 64.148V65.024L169.036 65.312C168.628 65.376 168.32 65.484 168.112 65.636C167.912 65.788 167.812 66.008 167.812 66.296C167.812 66.576 167.904 66.788 168.088 66.932C168.28 67.068 168.556 67.136 168.916 67.136C169.396 67.136 169.792 67.02 170.104 66.788C170.424 66.556 170.584 66.264 170.584 65.912L170.74 66.8C170.596 67.224 170.34 67.552 169.972 67.784C169.604 68.008 169.156 68.12 168.628 68.12ZM176.02 70.58C175.252 70.58 174.616 70.404 174.112 70.052C173.616 69.708 173.316 69.248 173.212 68.672H174.388C174.468 68.936 174.644 69.144 174.916 69.296C175.196 69.448 175.568 69.524 176.032 69.524C176.632 69.524 177.08 69.376 177.376 69.08C177.672 68.784 177.82 68.344 177.82 67.76V66.44L177.928 66.464C177.808 66.928 177.548 67.296 177.148 67.568C176.748 67.832 176.268 67.964 175.708 67.964C175.172 67.964 174.7 67.836 174.292 67.58C173.884 67.324 173.568 66.968 173.344 66.512C173.12 66.048 173.008 65.508 173.008 64.892C173.008 64.268 173.124 63.72 173.356 63.248C173.588 62.776 173.912 62.412 174.328 62.156C174.752 61.9 175.244 61.772 175.804 61.772C176.38 61.772 176.856 61.912 177.232 62.192C177.616 62.464 177.86 62.852 177.964 63.356L177.868 63.368V61.88H179.056V67.748C179.056 68.628 178.784 69.32 178.24 69.824C177.704 70.328 176.964 70.58 176.02 70.58ZM176.08 66.956C176.616 66.956 177.044 66.768 177.364 66.392C177.692 66.016 177.856 65.5 177.856 64.844C177.856 64.204 177.692 63.7 177.364 63.332C177.044 62.964 176.612 62.78 176.068 62.78C175.524 62.78 175.092 62.968 174.772 63.344C174.452 63.712 174.292 64.224 174.292 64.88C174.292 65.52 174.452 66.028 174.772 66.404C175.1 66.772 175.536 66.956 176.08 66.956ZM180.812 68V61.88H182V63.32H182.06V68H180.812ZM185.156 68V64.064C185.156 63.64 185.048 63.324 184.832 63.116C184.624 62.908 184.312 62.804 183.896 62.804C183.536 62.804 183.216 62.884 182.936 63.044C182.664 63.204 182.448 63.424 182.288 63.704C182.136 63.984 182.06 64.316 182.06 64.7L181.904 63.236C182.104 62.78 182.412 62.42 182.828 62.156C183.244 61.892 183.728 61.76 184.28 61.76C184.936 61.76 185.452 61.944 185.828 62.312C186.204 62.68 186.392 63.168 186.392 63.776V68H185.156ZM191.811 68C191.771 67.848 191.743 67.68 191.727 67.496C191.719 67.312 191.715 67.088 191.715 66.824H191.655V63.908C191.655 63.516 191.555 63.224 191.355 63.032C191.163 62.832 190.855 62.732 190.431 62.732C190.023 62.732 189.695 62.812 189.447 62.972C189.207 63.132 189.067 63.36 189.027 63.656H187.839C187.895 63.08 188.155 62.62 188.619 62.276C189.083 61.932 189.703 61.76 190.479 61.76C191.279 61.76 191.879 61.948 192.279 62.324C192.679 62.692 192.879 63.236 192.879 63.956V66.824C192.879 67.008 192.891 67.196 192.915 67.388C192.939 67.58 192.975 67.784 193.023 68H191.811ZM189.699 68.12C189.075 68.12 188.579 67.968 188.211 67.664C187.843 67.352 187.659 66.932 187.659 66.404C187.659 65.86 187.851 65.432 188.235 65.12C188.627 64.8 189.187 64.584 189.915 64.472L191.931 64.148V65.024L190.107 65.312C189.699 65.376 189.391 65.484 189.183 65.636C188.983 65.788 188.883 66.008 188.883 66.296C188.883 66.576 188.975 66.788 189.159 66.932C189.351 67.068 189.627 67.136 189.987 67.136C190.467 67.136 190.863 67.02 191.175 66.788C191.495 66.556 191.655 66.264 191.655 65.912L191.811 66.8C191.667 67.224 191.411 67.552 191.043 67.784C190.675 68.008 190.227 68.12 189.699 68.12ZM200.729 68C200.689 67.848 200.661 67.68 200.645 67.496C200.637 67.312 200.633 67.088 200.633 66.824H200.573V63.908C200.573 63.516 200.473 63.224 200.273 63.032C200.081 62.832 199.773 62.732 199.349 62.732C198.941 62.732 198.613 62.812 198.365 62.972C198.125 63.132 197.985 63.36 197.945 63.656H196.757C196.813 63.08 197.073 62.62 197.537 62.276C198.001 61.932 198.621 61.76 199.397 61.76C200.197 61.76 200.797 61.948 201.197 62.324C201.597 62.692 201.797 63.236 201.797 63.956V66.824C201.797 67.008 201.809 67.196 201.833 67.388C201.857 67.58 201.893 67.784 201.941 68H200.729ZM198.617 68.12C197.993 68.12 197.497 67.968 197.129 67.664C196.761 67.352 196.577 66.932 196.577 66.404C196.577 65.86 196.769 65.432 197.153 65.12C197.545 64.8 198.105 64.584 198.833 64.472L200.849 64.148V65.024L199.025 65.312C198.617 65.376 198.309 65.484 198.101 65.636C197.901 65.788 197.801 66.008 197.801 66.296C197.801 66.576 197.893 66.788 198.077 66.932C198.269 67.068 198.545 67.136 198.905 67.136C199.385 67.136 199.781 67.02 200.093 66.788C200.413 66.556 200.573 66.264 200.573 65.912L200.729 66.8C200.585 67.224 200.329 67.552 199.961 67.784C199.593 68.008 199.145 68.12 198.617 68.12ZM203.487 68V59.36H204.735V68H203.487ZM206.487 68V61.88H207.735V68H206.487ZM206.427 60.68V59.276H207.807V60.68H206.427ZM213.82 70.46V66.596L213.988 66.632C213.86 67.088 213.596 67.452 213.196 67.724C212.796 67.988 212.316 68.12 211.756 68.12C211.204 68.12 210.72 67.992 210.304 67.736C209.896 67.472 209.576 67.104 209.344 66.632C209.12 66.152 209.008 65.596 209.008 64.964C209.008 64.324 209.124 63.764 209.356 63.284C209.588 62.804 209.912 62.432 210.328 62.168C210.744 61.904 211.232 61.772 211.792 61.772C212.376 61.772 212.856 61.912 213.232 62.192C213.616 62.464 213.868 62.848 213.988 63.344L213.868 63.368V61.88H215.056V70.46H213.82ZM212.068 67.076C212.628 67.076 213.064 66.888 213.376 66.512C213.696 66.128 213.856 65.6 213.856 64.928C213.856 64.272 213.696 63.756 213.376 63.38C213.056 62.996 212.616 62.804 212.056 62.804C211.504 62.804 211.072 62.996 210.76 63.38C210.448 63.756 210.292 64.284 210.292 64.964C210.292 65.628 210.448 66.148 210.76 66.524C211.08 66.892 211.516 67.076 212.068 67.076ZM218.804 68.12C218.396 68.12 218.036 68.036 217.724 67.868C217.412 67.692 217.168 67.452 216.992 67.148C216.824 66.844 216.74 66.496 216.74 66.104V61.88H217.988V65.816C217.988 66.24 218.092 66.556 218.3 66.764C218.508 66.972 218.804 67.076 219.188 67.076C219.532 67.076 219.836 66.996 220.1 66.836C220.372 66.676 220.584 66.456 220.736 66.176C220.896 65.888 220.976 65.556 220.976 65.18L221.132 66.644C220.932 67.092 220.624 67.452 220.208 67.724C219.8 67.988 219.332 68.12 218.804 68.12ZM221.024 68V66.56H220.976V61.88H222.212V68H221.024ZM227.658 68C227.618 67.848 227.59 67.68 227.574 67.496C227.566 67.312 227.562 67.088 227.562 66.824H227.502V63.908C227.502 63.516 227.402 63.224 227.202 63.032C227.01 62.832 226.702 62.732 226.278 62.732C225.87 62.732 225.542 62.812 225.294 62.972C225.054 63.132 224.914 63.36 224.874 63.656H223.686C223.742 63.08 224.002 62.62 224.466 62.276C224.93 61.932 225.55 61.76 226.326 61.76C227.126 61.76 227.726 61.948 228.126 62.324C228.526 62.692 228.726 63.236 228.726 63.956V66.824C228.726 67.008 228.738 67.196 228.762 67.388C228.786 67.58 228.822 67.784 228.87 68H227.658ZM225.546 68.12C224.922 68.12 224.426 67.968 224.058 67.664C223.69 67.352 223.506 66.932 223.506 66.404C223.506 65.86 223.698 65.432 224.082 65.12C224.474 64.8 225.034 64.584 225.762 64.472L227.778 64.148V65.024L225.954 65.312C225.546 65.376 225.238 65.484 225.03 65.636C224.83 65.788 224.73 66.008 224.73 66.296C224.73 66.576 224.822 66.788 225.006 66.932C225.198 67.068 225.474 67.136 225.834 67.136C226.314 67.136 226.71 67.02 227.022 66.788C227.342 66.556 227.502 66.264 227.502 65.912L227.658 66.8C227.514 67.224 227.258 67.552 226.89 67.784C226.522 68.008 226.074 68.12 225.546 68.12Z" fill="#212121"/>
    <rect x="82" y="141.812" width="102.048" height="82.9143" rx="4" fill="#626A4F"/>
    <circle cx="133.024" cy="141.813" r="8.72782" fill="white"/>
    <path d="M138.913 139.369C138.772 139.035 138.604 138.714 138.412 138.41C138.222 138.107 138.006 137.822 137.769 137.557C137.516 137.275 137.235 137.015 136.935 136.781C136.636 136.549 136.315 136.341 135.977 136.163C135.092 135.699 134.089 135.435 133.024 135.435C131.959 135.435 130.954 135.699 130.071 136.163C129.732 136.34 129.411 136.549 129.112 136.781C128.811 137.015 128.533 137.275 128.278 137.557C128.04 137.822 127.826 138.107 127.634 138.41C127.443 138.714 127.274 139.035 127.135 139.369C126.819 140.123 126.646 140.948 126.646 141.813C126.646 142.677 126.821 143.504 127.135 144.258C127.274 144.592 127.443 144.913 127.634 145.217C127.826 145.52 128.04 145.805 128.278 146.07C128.533 146.352 128.811 146.611 129.112 146.844C129.411 147.078 129.732 147.286 130.071 147.464C130.954 147.927 131.958 148.191 133.024 148.191C134.091 148.191 135.092 147.927 135.977 147.464C136.315 147.286 136.636 147.078 136.935 146.844C137.235 146.611 137.516 146.352 137.769 146.07C138.006 145.805 138.222 145.52 138.412 145.217C138.604 144.913 138.772 144.592 138.913 144.258C139.227 143.504 139.402 142.679 139.402 141.813C139.402 140.947 139.227 140.123 138.913 139.369ZM133.024 136.397C133.727 136.397 134.398 136.535 135.016 136.779C134.143 137.455 133.45 138.352 133.024 139.386C132.596 138.352 131.903 137.455 131.032 136.779C131.649 136.535 132.319 136.397 133.024 136.397ZM127.609 141.813C127.609 141.352 127.667 140.906 127.775 140.48C128.271 140.719 128.616 141.225 128.616 141.813C128.616 142.4 128.271 142.908 127.775 143.147C127.667 142.721 127.609 142.273 127.609 141.813ZM128.597 144.927C128.405 144.655 128.237 144.365 128.098 144.059C128.967 143.684 129.579 142.82 129.579 141.813C129.579 140.806 128.967 139.941 128.098 139.568C128.237 139.262 128.405 138.972 128.597 138.698C129.767 139.25 130.579 140.437 130.579 141.813C130.579 143.188 129.767 144.375 128.597 144.927ZM130.071 146.35C129.774 146.155 129.496 145.932 129.241 145.683C130.611 144.935 131.542 143.48 131.542 141.813C131.542 140.145 130.611 138.692 129.241 137.943C129.496 137.695 129.774 137.471 130.071 137.277C131.557 138.242 132.542 139.914 132.542 141.813C132.542 143.711 131.557 145.385 130.071 146.35ZM133.024 147.228C132.319 147.228 131.649 147.092 131.032 146.847C131.903 146.17 132.596 145.273 133.024 144.239C133.45 145.273 134.143 146.17 135.016 146.847C134.398 147.092 133.727 147.228 133.024 147.228ZM135.975 146.35C134.49 145.385 133.505 143.713 133.505 141.813C133.505 139.912 134.49 138.242 135.975 137.277C136.274 137.472 136.551 137.695 136.806 137.943C135.435 138.692 134.505 140.145 134.505 141.813C134.505 143.48 135.437 144.935 136.806 145.683C136.551 145.932 136.274 146.155 135.975 146.35ZM137.449 144.927C136.281 144.375 135.468 143.19 135.468 141.813C135.468 140.435 136.281 139.25 137.449 138.698C137.641 138.972 137.809 139.262 137.949 139.568C137.079 139.941 136.468 140.807 136.468 141.813C136.468 142.818 137.079 143.684 137.949 144.059C137.809 144.365 137.641 144.655 137.449 144.927ZM138.271 143.147C137.775 142.908 137.431 142.4 137.431 141.813C137.431 141.225 137.775 140.719 138.271 140.48C138.38 140.906 138.439 141.352 138.439 141.813C138.439 142.273 138.38 142.721 138.271 143.147Z" fill="#626A4F"/>
    <path d="M106.785 127.2C106.785 126.651 106.908 126.16 107.153 125.728C107.404 125.291 107.742 124.952 108.169 124.712C108.601 124.467 109.084 124.344 109.617 124.344C110.241 124.344 110.788 124.504 111.257 124.824C111.726 125.144 112.054 125.587 112.241 126.152H110.953C110.825 125.885 110.644 125.685 110.409 125.552C110.18 125.419 109.913 125.352 109.609 125.352C109.284 125.352 108.993 125.429 108.737 125.584C108.486 125.733 108.289 125.947 108.145 126.224C108.006 126.501 107.937 126.827 107.937 127.2C107.937 127.568 108.006 127.893 108.145 128.176C108.289 128.453 108.486 128.669 108.737 128.824C108.993 128.973 109.284 129.048 109.609 129.048C109.913 129.048 110.18 128.981 110.409 128.848C110.644 128.709 110.825 128.507 110.953 128.24H112.241C112.054 128.811 111.726 129.256 111.257 129.576C110.793 129.891 110.246 130.048 109.617 130.048C109.084 130.048 108.601 129.928 108.169 129.688C107.742 129.443 107.404 129.104 107.153 128.672C106.908 128.24 106.785 127.749 106.785 127.2ZM115.166 130.072C114.739 130.072 114.355 129.979 114.014 129.792C113.672 129.6 113.403 129.331 113.206 128.984C113.014 128.637 112.918 128.237 112.918 127.784C112.918 127.331 113.016 126.931 113.214 126.584C113.416 126.237 113.691 125.971 114.038 125.784C114.384 125.592 114.771 125.496 115.198 125.496C115.624 125.496 116.011 125.592 116.358 125.784C116.704 125.971 116.976 126.237 117.174 126.584C117.376 126.931 117.478 127.331 117.478 127.784C117.478 128.237 117.374 128.637 117.166 128.984C116.963 129.331 116.686 129.6 116.334 129.792C115.987 129.979 115.598 130.072 115.166 130.072ZM115.166 129.096C115.368 129.096 115.558 129.048 115.734 128.952C115.915 128.851 116.059 128.701 116.166 128.504C116.272 128.307 116.326 128.067 116.326 127.784C116.326 127.363 116.214 127.04 115.99 126.816C115.771 126.587 115.502 126.472 115.182 126.472C114.862 126.472 114.592 126.587 114.374 126.816C114.16 127.04 114.054 127.363 114.054 127.784C114.054 128.205 114.158 128.531 114.366 128.76C114.579 128.984 114.846 129.096 115.166 129.096ZM120.755 125.504C121.283 125.504 121.71 125.672 122.035 126.008C122.361 126.339 122.523 126.803 122.523 127.4V130H121.403V127.552C121.403 127.2 121.315 126.931 121.139 126.744C120.963 126.552 120.723 126.456 120.419 126.456C120.11 126.456 119.865 126.552 119.683 126.744C119.507 126.931 119.419 127.2 119.419 127.552V130H118.299V125.568H119.419V126.12C119.569 125.928 119.758 125.779 119.987 125.672C120.222 125.56 120.478 125.504 120.755 125.504ZM125.284 130.072C124.922 130.072 124.596 130.008 124.308 129.88C124.02 129.747 123.791 129.568 123.62 129.344C123.455 129.12 123.364 128.872 123.348 128.6H124.476C124.498 128.771 124.58 128.912 124.724 129.024C124.874 129.136 125.058 129.192 125.276 129.192C125.49 129.192 125.655 129.149 125.772 129.064C125.895 128.979 125.956 128.869 125.956 128.736C125.956 128.592 125.882 128.485 125.732 128.416C125.588 128.341 125.356 128.261 125.036 128.176C124.706 128.096 124.434 128.013 124.22 127.928C124.012 127.843 123.831 127.712 123.676 127.536C123.527 127.36 123.452 127.123 123.452 126.824C123.452 126.579 123.522 126.355 123.66 126.152C123.804 125.949 124.007 125.789 124.268 125.672C124.535 125.555 124.847 125.496 125.204 125.496C125.732 125.496 126.154 125.629 126.468 125.896C126.783 126.157 126.956 126.512 126.988 126.96H125.916C125.9 126.784 125.826 126.645 125.692 126.544C125.564 126.437 125.391 126.384 125.172 126.384C124.97 126.384 124.812 126.421 124.7 126.496C124.594 126.571 124.54 126.675 124.54 126.808C124.54 126.957 124.615 127.072 124.764 127.152C124.914 127.227 125.146 127.304 125.46 127.384C125.78 127.464 126.044 127.547 126.252 127.632C126.46 127.717 126.639 127.851 126.788 128.032C126.943 128.208 127.023 128.443 127.028 128.736C127.028 128.992 126.956 129.221 126.812 129.424C126.674 129.627 126.471 129.787 126.204 129.904C125.943 130.016 125.636 130.072 125.284 130.072ZM132.132 125.568V130H131.004V129.44C130.86 129.632 130.67 129.784 130.436 129.896C130.206 130.003 129.956 130.056 129.684 130.056C129.337 130.056 129.03 129.984 128.764 129.84C128.497 129.691 128.286 129.475 128.132 129.192C127.982 128.904 127.908 128.563 127.908 128.168V125.568H129.028V128.008C129.028 128.36 129.116 128.632 129.292 128.824C129.468 129.011 129.708 129.104 130.012 129.104C130.321 129.104 130.564 129.011 130.74 128.824C130.916 128.632 131.004 128.36 131.004 128.008V125.568H132.132ZM134.357 124.08V130H133.237V124.08H134.357ZM136.767 126.488V128.632C136.767 128.781 136.802 128.891 136.871 128.96C136.946 129.024 137.069 129.056 137.239 129.056H137.759V130H137.055C136.111 130 135.639 129.541 135.639 128.624V126.488H135.111V125.568H135.639V124.472H136.767V125.568H137.759V126.488H136.767ZM138.277 127.768C138.277 127.32 138.365 126.923 138.541 126.576C138.722 126.229 138.965 125.963 139.269 125.776C139.578 125.589 139.922 125.496 140.301 125.496C140.632 125.496 140.92 125.563 141.165 125.696C141.416 125.829 141.616 125.997 141.765 126.2V125.568H142.893V130H141.765V129.352C141.621 129.56 141.421 129.733 141.165 129.872C140.914 130.005 140.624 130.072 140.293 130.072C139.92 130.072 139.578 129.976 139.269 129.784C138.965 129.592 138.722 129.323 138.541 128.976C138.365 128.624 138.277 128.221 138.277 127.768ZM141.765 127.784C141.765 127.512 141.712 127.28 141.605 127.088C141.498 126.891 141.354 126.741 141.173 126.64C140.992 126.533 140.797 126.48 140.589 126.48C140.381 126.48 140.189 126.531 140.013 126.632C139.837 126.733 139.693 126.883 139.581 127.08C139.474 127.272 139.421 127.501 139.421 127.768C139.421 128.035 139.474 128.269 139.581 128.472C139.693 128.669 139.837 128.821 140.013 128.928C140.194 129.035 140.386 129.088 140.589 129.088C140.797 129.088 140.992 129.037 141.173 128.936C141.354 128.829 141.498 128.68 141.605 128.488C141.712 128.291 141.765 128.056 141.765 127.784ZM145.291 126.488V128.632C145.291 128.781 145.325 128.891 145.395 128.96C145.469 129.024 145.592 129.056 145.763 129.056H146.283V130H145.579C144.635 130 144.163 129.541 144.163 128.624V126.488H143.635V125.568H144.163V124.472H145.291V125.568H146.283V126.488H145.291ZM147.656 125.04C147.459 125.04 147.294 124.979 147.16 124.856C147.032 124.728 146.968 124.571 146.968 124.384C146.968 124.197 147.032 124.043 147.16 123.92C147.294 123.792 147.459 123.728 147.656 123.728C147.854 123.728 148.016 123.792 148.144 123.92C148.278 124.043 148.344 124.197 148.344 124.384C148.344 124.571 148.278 124.728 148.144 124.856C148.016 124.979 147.854 125.04 147.656 125.04ZM148.208 125.568V130H147.088V125.568H148.208ZM151.283 130.072C150.856 130.072 150.472 129.979 150.131 129.792C149.79 129.6 149.52 129.331 149.323 128.984C149.131 128.637 149.035 128.237 149.035 127.784C149.035 127.331 149.134 126.931 149.331 126.584C149.534 126.237 149.808 125.971 150.155 125.784C150.502 125.592 150.888 125.496 151.315 125.496C151.742 125.496 152.128 125.592 152.475 125.784C152.822 125.971 153.094 126.237 153.291 126.584C153.494 126.931 153.595 127.331 153.595 127.784C153.595 128.237 153.491 128.637 153.283 128.984C153.08 129.331 152.803 129.6 152.451 129.792C152.104 129.979 151.715 130.072 151.283 130.072ZM151.283 129.096C151.486 129.096 151.675 129.048 151.851 128.952C152.032 128.851 152.176 128.701 152.283 128.504C152.39 128.307 152.443 128.067 152.443 127.784C152.443 127.363 152.331 127.04 152.107 126.816C151.888 126.587 151.619 126.472 151.299 126.472C150.979 126.472 150.71 126.587 150.491 126.816C150.278 127.04 150.171 127.363 150.171 127.784C150.171 128.205 150.275 128.531 150.483 128.76C150.696 128.984 150.963 129.096 151.283 129.096ZM156.872 125.504C157.4 125.504 157.827 125.672 158.152 126.008C158.478 126.339 158.64 126.803 158.64 127.4V130H157.52V127.552C157.52 127.2 157.432 126.931 157.256 126.744C157.08 126.552 156.84 126.456 156.536 126.456C156.227 126.456 155.982 126.552 155.8 126.744C155.624 126.931 155.536 127.2 155.536 127.552V130H154.416V125.568H155.536V126.12C155.686 125.928 155.875 125.779 156.104 125.672C156.339 125.56 156.595 125.504 156.872 125.504Z" fill="#1D1D1B"/>
    <line opacity="0.6" x1="276.276" y1="127.8" x2="330.157" y2="127.8" stroke="#BD8B48" stroke-width="0.5" stroke-linecap="round"/>
    <line opacity="0.6" x1="165.164" y1="127.8" x2="220.388" y2="127.8" stroke="#BD8B48" stroke-width="0.5" stroke-linecap="round"/>
    <rect x="197.476" y="141.812" width="102.048" height="82.9143" rx="4" fill="#BBDAB0"/>
    <circle cx="248.5" cy="141.813" r="8.72782" fill="white"/>
    <path d="M227.681 124.416V130H226.561V124.416H227.681ZM231.244 125.504C231.772 125.504 232.198 125.672 232.524 126.008C232.849 126.339 233.012 126.803 233.012 127.4V130H231.892V127.552C231.892 127.2 231.804 126.931 231.628 126.744C231.452 126.552 231.212 126.456 230.908 126.456C230.598 126.456 230.353 126.552 230.172 126.744C229.996 126.931 229.908 127.2 229.908 127.552V130H228.788V125.568H229.908V126.12C230.057 125.928 230.246 125.779 230.476 125.672C230.71 125.56 230.966 125.504 231.244 125.504ZM233.789 127.784C233.789 127.325 233.882 126.925 234.069 126.584C234.255 126.237 234.514 125.971 234.845 125.784C235.175 125.592 235.554 125.496 235.981 125.496C236.53 125.496 236.983 125.635 237.341 125.912C237.703 126.184 237.946 126.568 238.069 127.064H236.861C236.797 126.872 236.687 126.723 236.533 126.616C236.383 126.504 236.197 126.448 235.973 126.448C235.653 126.448 235.399 126.565 235.213 126.8C235.026 127.029 234.933 127.357 234.933 127.784C234.933 128.205 235.026 128.533 235.213 128.768C235.399 128.997 235.653 129.112 235.973 129.112C236.426 129.112 236.722 128.909 236.861 128.504H238.069C237.946 128.984 237.703 129.365 237.341 129.648C236.978 129.931 236.525 130.072 235.981 130.072C235.554 130.072 235.175 129.979 234.845 129.792C234.514 129.6 234.255 129.333 234.069 128.992C233.882 128.645 233.789 128.243 233.789 127.784ZM243.073 125.568V130H241.945V129.44C241.801 129.632 241.612 129.784 241.377 129.896C241.148 130.003 240.897 130.056 240.625 130.056C240.278 130.056 239.972 129.984 239.705 129.84C239.438 129.691 239.228 129.475 239.073 129.192C238.924 128.904 238.849 128.563 238.849 128.168V125.568H239.969V128.008C239.969 128.36 240.057 128.632 240.233 128.824C240.409 129.011 240.649 129.104 240.953 129.104C241.262 129.104 241.505 129.011 241.681 128.824C241.857 128.632 241.945 128.36 241.945 128.008V125.568H243.073ZM245.298 126.216C245.442 126.003 245.64 125.829 245.89 125.696C246.146 125.563 246.437 125.496 246.762 125.496C247.141 125.496 247.482 125.589 247.786 125.776C248.096 125.963 248.338 126.229 248.514 126.576C248.696 126.917 248.786 127.315 248.786 127.768C248.786 128.221 248.696 128.624 248.514 128.976C248.338 129.323 248.096 129.592 247.786 129.784C247.482 129.976 247.141 130.072 246.762 130.072C246.432 130.072 246.141 130.008 245.89 129.88C245.645 129.747 245.448 129.576 245.298 129.368V130H244.178V124.08H245.298V126.216ZM247.642 127.768C247.642 127.501 247.586 127.272 247.474 127.08C247.368 126.883 247.224 126.733 247.042 126.632C246.866 126.531 246.674 126.48 246.466 126.48C246.264 126.48 246.072 126.533 245.89 126.64C245.714 126.741 245.57 126.891 245.458 127.088C245.352 127.285 245.298 127.517 245.298 127.784C245.298 128.051 245.352 128.283 245.458 128.48C245.57 128.677 245.714 128.829 245.89 128.936C246.072 129.037 246.264 129.088 246.466 129.088C246.674 129.088 246.866 129.035 247.042 128.928C247.224 128.821 247.368 128.669 247.474 128.472C247.586 128.275 247.642 128.04 247.642 127.768ZM249.312 127.768C249.312 127.32 249.4 126.923 249.576 126.576C249.757 126.229 250 125.963 250.304 125.776C250.613 125.589 250.957 125.496 251.336 125.496C251.667 125.496 251.955 125.563 252.2 125.696C252.451 125.829 252.651 125.997 252.8 126.2V125.568H253.928V130H252.8V129.352C252.656 129.56 252.456 129.733 252.2 129.872C251.949 130.005 251.659 130.072 251.328 130.072C250.955 130.072 250.613 129.976 250.304 129.784C250 129.592 249.757 129.323 249.576 128.976C249.4 128.624 249.312 128.221 249.312 127.768ZM252.8 127.784C252.8 127.512 252.747 127.28 252.64 127.088C252.533 126.891 252.389 126.741 252.208 126.64C252.027 126.533 251.832 126.48 251.624 126.48C251.416 126.48 251.224 126.531 251.048 126.632C250.872 126.733 250.728 126.883 250.616 127.08C250.509 127.272 250.456 127.501 250.456 127.768C250.456 128.035 250.509 128.269 250.616 128.472C250.728 128.669 250.872 128.821 251.048 128.928C251.229 129.035 251.421 129.088 251.624 129.088C251.832 129.088 252.027 129.037 252.208 128.936C252.389 128.829 252.533 128.68 252.64 128.488C252.747 128.291 252.8 128.056 252.8 127.784ZM256.326 126.488V128.632C256.326 128.781 256.361 128.891 256.43 128.96C256.505 129.024 256.627 129.056 256.798 129.056H257.318V130H256.614C255.67 130 255.198 129.541 255.198 128.624V126.488H254.67V125.568H255.198V124.472H256.326V125.568H257.318V126.488H256.326ZM258.692 125.04C258.494 125.04 258.329 124.979 258.196 124.856C258.068 124.728 258.004 124.571 258.004 124.384C258.004 124.197 258.068 124.043 258.196 123.92C258.329 123.792 258.494 123.728 258.692 123.728C258.889 123.728 259.052 123.792 259.18 123.92C259.313 124.043 259.38 124.197 259.38 124.384C259.38 124.571 259.313 124.728 259.18 124.856C259.052 124.979 258.889 125.04 258.692 125.04ZM259.244 125.568V130H258.124V125.568H259.244ZM262.318 130.072C261.891 130.072 261.507 129.979 261.166 129.792C260.825 129.6 260.555 129.331 260.358 128.984C260.166 128.637 260.07 128.237 260.07 127.784C260.07 127.331 260.169 126.931 260.366 126.584C260.569 126.237 260.843 125.971 261.19 125.784C261.537 125.592 261.923 125.496 262.35 125.496C262.777 125.496 263.163 125.592 263.51 125.784C263.857 125.971 264.129 126.237 264.326 126.584C264.529 126.931 264.63 127.331 264.63 127.784C264.63 128.237 264.526 128.637 264.318 128.984C264.115 129.331 263.838 129.6 263.486 129.792C263.139 129.979 262.75 130.072 262.318 130.072ZM262.318 129.096C262.521 129.096 262.71 129.048 262.886 128.952C263.067 128.851 263.211 128.701 263.318 128.504C263.425 128.307 263.478 128.067 263.478 127.784C263.478 127.363 263.366 127.04 263.142 126.816C262.923 126.587 262.654 126.472 262.334 126.472C262.014 126.472 261.745 126.587 261.526 126.816C261.313 127.04 261.206 127.363 261.206 127.784C261.206 128.205 261.31 128.531 261.518 128.76C261.731 128.984 261.998 129.096 262.318 129.096ZM267.908 125.504C268.436 125.504 268.862 125.672 269.188 126.008C269.513 126.339 269.676 126.803 269.676 127.4V130H268.556V127.552C268.556 127.2 268.468 126.931 268.292 126.744C268.116 126.552 267.876 126.456 267.572 126.456C267.262 126.456 267.017 126.552 266.836 126.744C266.66 126.931 266.572 127.2 266.572 127.552V130H265.452V125.568H266.572V126.12C266.721 125.928 266.91 125.779 267.14 125.672C267.374 125.56 267.63 125.504 267.908 125.504Z" fill="#1D1D1B"/>
    <rect x="200" y="173" width="96.6774" height="48.6744" rx="4" fill="#FAF6F1"/>
    <rect x="205.815" y="206.5" width="49" height="9" rx="1.5" stroke="#E5D2B9"/>
    <rect x="209.315" y="210" width="34" height="2" rx="1" fill="#E5D2B9"/>
    <path d="M247.065 209.75H249.565M249.565 209.75V212.25M249.565 209.75L247.065 212.25" stroke="#1D1D1B" stroke-width="0.5" stroke-linecap="square" stroke-linejoin="round"/>
    <g opacity="0.2">
      <rect x="205.315" y="181" width="86" height="4.59579" rx="2" fill="#1D1D1B"/>
      <rect x="205.315" y="188.469" width="86" height="4.59579" rx="2" fill="#1D1D1B"/>
      <rect x="205.315" y="196.404" width="63.425" height="4.59579" rx="2" fill="#1D1D1B"/>
    </g>
    <rect x="312.952" y="141.812" width="102.048" height="82.9143" rx="4" fill="#98C5D5"/>
    <circle cx="363.976" cy="141.813" r="8.72782" fill="white"/>
    <path d="M369.865 139.369C369.708 138.99 369.517 138.634 369.294 138.298C368.819 137.583 368.206 136.968 367.489 136.494C367.153 136.272 366.796 136.08 366.419 135.924C365.667 135.608 364.842 135.435 363.976 135.435C363.11 135.435 362.284 135.608 361.53 135.924C361.153 136.08 360.797 136.272 360.461 136.494C359.746 136.968 359.131 137.583 358.657 138.298C358.435 138.634 358.243 138.99 358.087 139.367C357.771 140.121 357.598 140.947 357.598 141.813C357.598 142.679 357.771 143.504 358.087 144.256C358.243 144.633 358.435 144.99 358.657 145.326C359.131 146.043 359.746 146.656 360.461 147.131C360.797 147.353 361.153 147.545 361.53 147.702C362.284 148.017 363.11 148.191 363.976 148.191C364.842 148.191 365.667 148.017 366.419 147.702C366.796 147.545 367.153 147.353 367.489 147.131C368.206 146.656 368.819 146.043 369.294 145.326C369.517 144.99 369.708 144.633 369.865 144.256C370.179 143.502 370.354 142.677 370.354 141.813C370.354 140.948 370.179 140.121 369.865 139.369ZM368.693 139.158C367.735 138.81 366.976 138.051 366.628 137.094C367.491 137.581 368.206 138.296 368.693 139.158ZM361.322 137.094C360.973 138.051 360.214 138.81 359.257 139.158C359.744 138.296 360.459 137.581 361.322 137.094ZM358.783 140.274C360.656 139.975 362.138 138.493 362.437 136.62C362.77 136.521 363.115 136.455 363.47 136.421C363.232 139.006 361.169 141.069 358.584 141.307C358.617 140.952 358.684 140.607 358.783 140.274ZM359.257 144.465C360.214 144.813 360.973 145.572 361.322 146.53C360.459 146.043 359.744 145.328 359.257 144.465ZM362.437 147.004C362.138 145.131 360.656 143.648 358.783 143.349C358.684 143.017 358.617 142.672 358.584 142.317C361.169 142.555 363.232 144.618 363.47 147.202C363.115 147.17 362.77 147.102 362.437 147.004ZM360.513 141.813C362.077 141.166 363.329 139.914 363.976 138.35C364.623 139.914 365.874 141.166 367.438 141.813C365.874 142.46 364.623 143.711 363.976 145.275C363.329 143.711 362.077 142.46 360.513 141.813ZM366.628 146.53C366.976 145.572 367.735 144.813 368.693 144.465C368.206 145.328 367.491 146.043 366.628 146.53ZM369.167 143.349C367.294 143.648 365.811 145.131 365.512 147.004C365.18 147.102 364.835 147.17 364.48 147.202C364.718 144.618 366.781 142.555 369.365 142.317C369.333 142.672 369.265 143.017 369.167 143.349ZM364.48 136.421C364.835 136.455 365.18 136.521 365.512 136.62C365.811 138.493 367.294 139.975 369.167 140.274C369.265 140.607 369.333 140.952 369.365 141.307C366.781 141.069 364.718 139.006 364.48 136.421Z" fill="#98C5D5"/>
    <path d="M342.418 124.416V130H341.298V126.368L339.802 130H338.954L337.45 126.368V130H336.33V124.416H337.602L339.378 128.568L341.154 124.416H342.418ZM347.709 125.568V130H346.581V129.44C346.437 129.632 346.248 129.784 346.013 129.896C345.784 130.003 345.533 130.056 345.261 130.056C344.915 130.056 344.608 129.984 344.341 129.84C344.075 129.691 343.864 129.475 343.709 129.192C343.56 128.904 343.485 128.563 343.485 128.168V125.568H344.605V128.008C344.605 128.36 344.693 128.632 344.869 128.824C345.045 129.011 345.285 129.104 345.589 129.104C345.899 129.104 346.141 129.011 346.317 128.824C346.493 128.632 346.581 128.36 346.581 128.008V125.568H347.709ZM349.935 124.08V130H348.815V124.08H349.935ZM352.345 126.488V128.632C352.345 128.781 352.38 128.891 352.449 128.96C352.524 129.024 352.646 129.056 352.817 129.056H353.337V130H352.633C351.689 130 351.217 129.541 351.217 128.624V126.488H350.689V125.568H351.217V124.472H352.345V125.568H353.337V126.488H352.345ZM354.711 125.04C354.513 125.04 354.348 124.979 354.215 124.856C354.087 124.728 354.023 124.571 354.023 124.384C354.023 124.197 354.087 124.043 354.215 123.92C354.348 123.792 354.513 123.728 354.711 123.728C354.908 123.728 355.071 123.792 355.199 123.92C355.332 124.043 355.399 124.197 355.399 124.384C355.399 124.571 355.332 124.728 355.199 124.856C355.071 124.979 354.908 125.04 354.711 125.04ZM355.263 125.568V130H354.143V125.568H355.263ZM357.489 126.208C357.633 126.005 357.831 125.837 358.081 125.704C358.337 125.565 358.628 125.496 358.953 125.496C359.332 125.496 359.673 125.589 359.977 125.776C360.287 125.963 360.529 126.229 360.705 126.576C360.887 126.917 360.977 127.315 360.977 127.768C360.977 128.221 360.887 128.624 360.705 128.976C360.529 129.323 360.287 129.592 359.977 129.784C359.673 129.976 359.332 130.072 358.953 130.072C358.628 130.072 358.34 130.005 358.089 129.872C357.844 129.739 357.644 129.571 357.489 129.368V132.112H356.369V125.568H357.489V126.208ZM359.833 127.768C359.833 127.501 359.777 127.272 359.665 127.08C359.559 126.883 359.415 126.733 359.233 126.632C359.057 126.531 358.865 126.48 358.657 126.48C358.455 126.48 358.263 126.533 358.081 126.64C357.905 126.741 357.761 126.891 357.649 127.088C357.543 127.285 357.489 127.517 357.489 127.784C357.489 128.051 357.543 128.283 357.649 128.48C357.761 128.677 357.905 128.829 358.081 128.936C358.263 129.037 358.455 129.088 358.657 129.088C358.865 129.088 359.057 129.035 359.233 128.928C359.415 128.821 359.559 128.669 359.665 128.472C359.777 128.275 359.833 128.04 359.833 127.768ZM362.911 124.08V130H361.791V124.08H362.911ZM364.586 125.04C364.388 125.04 364.223 124.979 364.09 124.856C363.962 124.728 363.898 124.571 363.898 124.384C363.898 124.197 363.962 124.043 364.09 123.92C364.223 123.792 364.388 123.728 364.586 123.728C364.783 123.728 364.946 123.792 365.074 123.92C365.207 124.043 365.274 124.197 365.274 124.384C365.274 124.571 365.207 124.728 365.074 124.856C364.946 124.979 364.783 125.04 364.586 125.04ZM365.138 125.568V130H364.018V125.568H365.138ZM365.956 127.784C365.956 127.325 366.05 126.925 366.236 126.584C366.423 126.237 366.682 125.971 367.012 125.784C367.343 125.592 367.722 125.496 368.148 125.496C368.698 125.496 369.151 125.635 369.508 125.912C369.871 126.184 370.114 126.568 370.236 127.064H369.028C368.964 126.872 368.855 126.723 368.7 126.616C368.551 126.504 368.364 126.448 368.14 126.448C367.82 126.448 367.567 126.565 367.38 126.8C367.194 127.029 367.1 127.357 367.1 127.784C367.1 128.205 367.194 128.533 367.38 128.768C367.567 128.997 367.82 129.112 368.14 129.112C368.594 129.112 368.89 128.909 369.028 128.504H370.236C370.114 128.984 369.871 129.365 369.508 129.648C369.146 129.931 368.692 130.072 368.148 130.072C367.722 130.072 367.343 129.979 367.012 129.792C366.682 129.6 366.423 129.333 366.236 128.992C366.05 128.645 365.956 128.243 365.956 127.784ZM370.769 127.768C370.769 127.32 370.857 126.923 371.033 126.576C371.214 126.229 371.457 125.963 371.761 125.776C372.07 125.589 372.414 125.496 372.793 125.496C373.123 125.496 373.411 125.563 373.657 125.696C373.907 125.829 374.107 125.997 374.257 126.2V125.568H375.385V130H374.257V129.352C374.113 129.56 373.913 129.733 373.657 129.872C373.406 130.005 373.115 130.072 372.785 130.072C372.411 130.072 372.07 129.976 371.761 129.784C371.457 129.592 371.214 129.323 371.033 128.976C370.857 128.624 370.769 128.221 370.769 127.768ZM374.257 127.784C374.257 127.512 374.203 127.28 374.097 127.088C373.99 126.891 373.846 126.741 373.665 126.64C373.483 126.533 373.289 126.48 373.081 126.48C372.873 126.48 372.681 126.531 372.505 126.632C372.329 126.733 372.185 126.883 372.073 127.08C371.966 127.272 371.913 127.501 371.913 127.768C371.913 128.035 371.966 128.269 372.073 128.472C372.185 128.669 372.329 128.821 372.505 128.928C372.686 129.035 372.878 129.088 373.081 129.088C373.289 129.088 373.483 129.037 373.665 128.936C373.846 128.829 373.99 128.68 374.097 128.488C374.203 128.291 374.257 128.056 374.257 127.784ZM377.783 126.488V128.632C377.783 128.781 377.817 128.891 377.887 128.96C377.961 129.024 378.084 129.056 378.255 129.056H378.775V130H378.071C377.127 130 376.655 129.541 376.655 128.624V126.488H376.127V125.568H376.655V124.472H377.783V125.568H378.775V126.488H377.783ZM380.148 125.04C379.951 125.04 379.785 124.979 379.652 124.856C379.524 124.728 379.46 124.571 379.46 124.384C379.46 124.197 379.524 124.043 379.652 123.92C379.785 123.792 379.951 123.728 380.148 123.728C380.345 123.728 380.508 123.792 380.636 123.92C380.769 124.043 380.836 124.197 380.836 124.384C380.836 124.571 380.769 124.728 380.636 124.856C380.508 124.979 380.345 125.04 380.148 125.04ZM380.7 125.568V130H379.58V125.568H380.7ZM383.775 130.072C383.348 130.072 382.964 129.979 382.623 129.792C382.281 129.6 382.012 129.331 381.815 128.984C381.623 128.637 381.527 128.237 381.527 127.784C381.527 127.331 381.625 126.931 381.823 126.584C382.025 126.237 382.3 125.971 382.647 125.784C382.993 125.592 383.38 125.496 383.807 125.496C384.233 125.496 384.62 125.592 384.967 125.784C385.313 125.971 385.585 126.237 385.783 126.584C385.985 126.931 386.087 127.331 386.087 127.784C386.087 128.237 385.983 128.637 385.775 128.984C385.572 129.331 385.295 129.6 384.943 129.792C384.596 129.979 384.207 130.072 383.775 130.072ZM383.775 129.096C383.977 129.096 384.167 129.048 384.343 128.952C384.524 128.851 384.668 128.701 384.775 128.504C384.881 128.307 384.935 128.067 384.935 127.784C384.935 127.363 384.823 127.04 384.599 126.816C384.38 126.587 384.111 126.472 383.791 126.472C383.471 126.472 383.201 126.587 382.983 126.816C382.769 127.04 382.663 127.363 382.663 127.784C382.663 128.205 382.767 128.531 382.975 128.76C383.188 128.984 383.455 129.096 383.775 129.096ZM389.364 125.504C389.892 125.504 390.319 125.672 390.644 126.008C390.97 126.339 391.132 126.803 391.132 127.4V130H390.012V127.552C390.012 127.2 389.924 126.931 389.748 126.744C389.572 126.552 389.332 126.456 389.028 126.456C388.719 126.456 388.474 126.552 388.292 126.744C388.116 126.931 388.028 127.2 388.028 127.552V130H386.908V125.568H388.028V126.12C388.178 125.928 388.367 125.779 388.596 125.672C388.831 125.56 389.087 125.504 389.364 125.504Z" fill="#1D1D1B"/>
    <rect x="316" y="173" width="96.6774" height="48.6744" rx="4" fill="#FAF6F1"/>
    <rect x="321.815" y="206.5" width="49" height="9" rx="1.5" stroke="#E5D2B9"/>
    <rect x="325.315" y="210" width="34" height="2" rx="1" fill="#E5D2B9"/>
    <path d="M363.065 209.75H365.565M365.565 209.75V212.25M365.565 209.75L363.065 212.25" stroke="#1D1D1B" stroke-width="0.5" stroke-linecap="square" stroke-linejoin="round"/>
    <g opacity="0.2">
      <rect x="321.315" y="181" width="86" height="4.59579" rx="2" fill="#1D1D1B"/>
      <rect x="321.315" y="188.469" width="86" height="4.59579" rx="2" fill="#1D1D1B"/>
      <rect x="321.315" y="196.404" width="63.425" height="4.59579" rx="2" fill="#1D1D1B"/>
    </g>
    <path d="M254.869 141.509L254.858 141.33C254.832 140.989 254.779 140.654 254.703 140.33C254.623 139.999 254.52 139.678 254.391 139.367C254.233 138.992 254.041 138.634 253.818 138.298C253.345 137.583 252.73 136.968 252.015 136.494C251.679 136.27 251.32 136.078 250.945 135.922C250.634 135.793 250.313 135.689 249.982 135.609C249.656 135.533 249.323 135.48 248.982 135.455C248.923 135.45 248.865 135.445 248.806 135.441C248.704 135.438 248.602 135.435 248.5 135.435C248.398 135.435 248.296 135.438 248.194 135.441C248.135 135.445 248.077 135.45 248.019 135.455C247.133 135.521 246.296 135.769 245.547 136.161C245.209 136.34 244.888 136.547 244.588 136.781C244.289 137.014 244.008 137.274 243.755 137.555C243.518 137.82 243.302 138.106 243.11 138.408C242.918 138.712 242.75 139.033 242.609 139.367C242.482 139.678 242.377 139.999 242.299 140.33C242.22 140.654 242.168 140.989 242.142 141.33C242.137 141.388 242.132 141.446 242.13 141.505C242.125 141.607 242.122 141.709 242.122 141.813C242.122 141.916 242.125 142.018 242.13 142.12C242.132 142.178 242.137 142.235 242.142 142.293C242.168 142.634 242.22 142.969 242.299 143.293C242.377 143.626 242.482 143.947 242.609 144.256C242.767 144.633 242.959 144.991 243.182 145.326C243.655 146.043 244.27 146.657 244.985 147.131C245.321 147.353 245.679 147.545 246.056 147.702C246.365 147.831 246.686 147.936 247.019 148.014C247.344 148.092 247.678 148.145 248.019 148.17C248.077 148.174 248.137 148.179 248.196 148.182C248.296 148.187 248.398 148.191 248.5 148.191C248.602 148.191 248.704 148.187 248.804 148.182C248.863 148.179 248.923 148.174 248.982 148.17C249.869 148.104 250.704 147.856 251.453 147.462C251.793 147.286 252.112 147.077 252.412 146.844C252.713 146.61 252.991 146.352 253.246 146.068C253.484 145.803 253.698 145.518 253.89 145.216C254.082 144.913 254.25 144.592 254.391 144.256C254.52 143.947 254.623 143.626 254.703 143.293C254.779 142.969 254.832 142.634 254.858 142.293C254.863 142.234 254.868 142.176 254.869 142.117C254.875 142.015 254.878 141.914 254.878 141.813C254.878 141.711 254.875 141.609 254.869 141.509ZM253.217 139.158C252.261 138.81 251.502 138.051 251.154 137.095C252.015 137.581 252.732 138.298 253.217 139.158ZM250.037 136.62C250.336 138.493 251.82 139.975 253.691 140.274C253.789 140.607 253.857 140.952 253.891 141.307C251.305 141.071 249.242 139.006 249.006 136.421C249.361 136.455 249.706 136.521 250.037 136.62ZM244.075 138.698C245.243 139.25 246.056 140.435 246.056 141.813V142.347C245.741 142.144 245.406 141.965 245.056 141.819V141.813C245.056 140.806 244.445 139.941 243.574 139.566C243.715 139.26 243.881 138.97 244.075 138.698ZM243.251 140.478C243.657 140.673 243.961 141.048 244.059 141.498C243.749 141.427 243.431 141.376 243.105 141.352C243.131 141.054 243.18 140.761 243.251 140.478ZM243.783 144.465C244.74 144.813 245.499 145.572 245.846 146.53C244.985 146.043 244.268 145.328 243.783 144.465ZM246.963 147.004C246.664 145.131 245.182 143.648 243.309 143.349C243.21 143.017 243.142 142.672 243.108 142.317C245.695 142.555 247.758 144.618 247.996 147.202C247.641 147.17 247.294 147.102 246.963 147.004ZM248.96 147.206C248.836 145.601 248.116 144.161 247.019 143.108V141.813C247.019 140.145 246.087 138.69 244.718 137.943C244.971 137.693 245.25 137.471 245.549 137.275C247.034 138.24 248.019 139.912 248.019 141.813C248.019 141.974 248.026 142.135 248.038 142.293C248.177 144.142 249.108 145.773 250.492 146.846C250.011 147.038 249.497 147.162 248.96 147.206ZM251.451 146.348C249.967 145.384 248.982 143.711 248.982 141.813C248.982 139.766 248.011 137.944 246.508 136.778C246.989 136.588 247.503 136.464 248.04 136.418C248.164 138.024 248.885 139.464 249.982 140.517V141.813C249.982 143.48 250.913 144.934 252.282 145.683C252.029 145.93 251.75 146.155 251.451 146.348ZM252.927 144.927C251.757 144.375 250.945 143.188 250.945 141.813V141.278C251.259 141.481 251.594 141.658 251.945 141.806V141.813C251.945 142.818 252.555 143.684 253.426 144.057C253.285 144.363 253.119 144.653 252.927 144.927ZM253.749 143.146C253.343 142.95 253.039 142.577 252.942 142.125C253.251 142.198 253.569 142.247 253.895 142.273C253.869 142.572 253.82 142.864 253.749 143.146Z" fill="#BBDAB0"/>
    <rect x="84.6855" y="173" width="96.6774" height="48.6744" rx="4" fill="#FAF6F1"/>
    <rect x="90.5" y="206.5" width="49" height="9" rx="1.5" stroke="#E5D2B9"/>
    <rect x="94" y="210" width="34" height="2" rx="1" fill="#E5D2B9"/>
    <path d="M131.75 209.75H134.25M134.25 209.75V212.25M134.25 209.75L131.75 212.25" stroke="#1D1D1B" stroke-width="0.5" stroke-linecap="square" stroke-linejoin="round"/>
    <g opacity="0.2">
      <rect x="90" y="181" width="86" height="4.59579" rx="2" fill="#1D1D1B"/>
      <rect x="90" y="188.469" width="86" height="4.59579" rx="2" fill="#1D1D1B"/>
      <rect x="90" y="196.404" width="63.425" height="4.59579" rx="2" fill="#1D1D1B"/>
    </g>
  </g>
  <defs>
    <clipPath id="clip0_2948_4513">
      <rect width="500" height="280" fill="white"/>
    </clipPath>
  </defs>
</svg>
